<svg width="500" height="500" viewBox="0 0 500 500" fill="none" xmlns="http://www.w3.org/2000/svg">
<path d="M321.06 338.34C321.06 338.34 360.06 335.91 386.9 287.95C413.74 239.99 408.9 166.83 375.52 126.19C342.14 85.5501 290.17 71.7201 240.59 84.7301C216.43 91.0701 200.32 107.5 186.4 127.31C174.27 144.57 160.63 161.21 142.27 172.13C124.1 182.95 105.41 191.57 96.27 212.13C73.93 262.13 90.27 320.35 143.08 339.97C200 361.1 295.05 349.72 321.06 338.34Z" fill="#92E3A9"/>
<path opacity="0.7" d="M321.06 338.34C321.06 338.34 360.06 335.91 386.9 287.95C413.74 239.99 408.9 166.83 375.52 126.19C342.14 85.5501 290.17 71.7201 240.59 84.7301C216.43 91.0701 200.32 107.5 186.4 127.31C174.27 144.57 160.63 161.21 142.27 172.13C124.1 182.95 105.41 191.57 96.27 212.13C73.93 262.13 90.27 320.35 143.08 339.97C200 361.1 295.05 349.72 321.06 338.34Z" fill="white"/>
<path d="M130.66 169.11H364.48C366.183 169.11 367.816 169.787 369.02 170.991C370.224 172.195 370.9 173.828 370.9 175.53V338.13H124.24V175.54C124.239 174.696 124.404 173.861 124.726 173.08C125.048 172.3 125.521 171.591 126.117 170.994C126.713 170.397 127.422 169.923 128.201 169.6C128.981 169.277 129.816 169.11 130.66 169.11Z" fill="#263238"/>
<path d="M371.41 338.63H123.74V175.54C123.74 173.704 124.469 171.943 125.766 170.644C127.064 169.344 128.824 168.613 130.66 168.61H364.48C366.317 168.613 368.079 169.344 369.378 170.643C370.677 171.942 371.408 173.703 371.41 175.54V338.63ZM124.74 337.63H370.41V175.54C370.408 173.968 369.782 172.462 368.67 171.35C367.559 170.239 366.052 169.613 364.48 169.61H130.66C129.089 169.613 127.583 170.239 126.474 171.351C125.364 172.463 124.74 173.969 124.74 175.54V337.63Z" fill="#263238"/>
<path d="M400.571 415.63H94.5708C91.1908 415.63 88.3408 410.78 89.8408 407.75L124.241 340.92H370.911L405.491 407.52C407.001 410.54 404.001 415.63 400.571 415.63Z" fill="#263238"/>
<path d="M400.57 416.13H94.5703C93.6224 416.07 92.7054 415.77 91.9058 415.257C91.1062 414.744 90.4504 414.036 90.0003 413.2C89.433 412.381 89.0783 411.434 88.9683 410.445C88.8584 409.455 88.9965 408.453 89.3703 407.53L123.91 340.42H371.21L371.35 340.68L405.93 407.29C406.302 408.234 406.433 409.256 406.31 410.263C406.188 411.271 405.817 412.232 405.23 413.06C404.769 413.918 404.101 414.647 403.288 415.183C402.474 415.719 401.541 416.044 400.57 416.13ZM124.57 341.42L90.2803 408C89.9842 408.77 89.8832 409.601 89.9861 410.419C90.089 411.237 90.3928 412.017 90.8703 412.69C91.2342 413.375 91.7631 413.959 92.409 414.388C93.055 414.818 93.7978 415.079 94.5703 415.15H400.57C401.371 415.064 402.137 414.782 402.802 414.328C403.467 413.875 404.009 413.264 404.38 412.55C404.873 411.866 405.191 411.072 405.306 410.237C405.421 409.402 405.33 408.552 405.04 407.76L370.6 341.42H124.57Z" fill="#263238"/>
<path d="M400.571 412.84H94.5706C93.7961 412.84 93.0344 412.643 92.3575 412.267C91.6805 411.891 91.1108 411.348 90.7023 410.69C90.2937 410.032 90.0598 409.281 90.0228 408.508C89.9857 407.734 90.1467 406.964 90.4906 406.27L124.241 338.13H370.911L404.651 406.27C404.994 406.964 405.155 407.734 405.118 408.508C405.081 409.281 404.847 410.032 404.439 410.69C404.03 411.348 403.461 411.891 402.784 412.267C402.107 412.643 401.345 412.84 400.571 412.84Z" fill="white"/>
<path d="M400.571 413.34H94.5706C93.7079 413.348 92.8575 413.134 92.1008 412.719C91.344 412.305 90.7061 411.704 90.2478 410.973C89.7895 410.242 89.5262 409.405 89.4829 408.544C89.4396 407.682 89.6179 406.823 90.0006 406.05L123.751 337.91C123.79 337.824 123.853 337.752 123.933 337.702C124.014 337.653 124.106 337.627 124.201 337.63H370.911C371.003 337.628 371.095 337.654 371.173 337.703C371.251 337.753 371.313 337.825 371.351 337.91L405.101 406.05C405.482 406.82 405.66 407.675 405.619 408.533C405.577 409.392 405.318 410.226 404.864 410.955C404.41 411.685 403.778 412.288 403.027 412.705C402.275 413.122 401.43 413.341 400.571 413.34ZM124.571 338.63L90.9406 406.49C90.6342 407.108 90.4905 407.793 90.5232 408.482C90.5559 409.171 90.7638 409.84 91.1273 410.425C91.4909 411.011 91.9979 411.495 92.6005 411.83C93.203 412.165 93.8812 412.34 94.5706 412.34H400.571C401.26 412.34 401.938 412.165 402.541 411.83C403.143 411.495 403.65 411.011 404.014 410.425C404.377 409.84 404.585 409.171 404.618 408.482C404.651 407.793 404.507 407.108 404.201 406.49L370.601 338.63H124.571Z" fill="#263238"/>
<path d="M355.971 182.49H139.181V324.74H355.971V182.49Z" fill="white"/>
<path d="M356.461 325.24H138.681V182H356.461V325.24ZM139.681 324.24H355.461V183H139.681V324.24Z" fill="#263238"/>
<path d="M351.131 247.32H144.811V319.62H351.131V247.32Z" fill="#92E3A9"/>
<path opacity="0.46" d="M171.18 290.801V289.001C171.18 288.735 171.075 288.481 170.887 288.293C170.7 288.106 170.445 288.001 170.18 288.001H168.8C168.59 287.084 168.228 286.208 167.73 285.411L168.73 284.411C168.904 284.225 169.001 283.98 169.001 283.726C169.001 283.471 168.904 283.226 168.73 283.041L167.44 281.751C167.254 281.573 167.007 281.474 166.75 281.474C166.493 281.474 166.246 281.573 166.06 281.751L165.06 282.751C164.26 282.25 163.381 281.889 162.46 281.681V280.271C162.46 280.005 162.355 279.751 162.167 279.563C161.98 279.376 161.725 279.271 161.46 279.271H159.64C159.375 279.271 159.12 279.376 158.933 279.563C158.745 279.751 158.64 280.005 158.64 280.271V281.681C157.723 281.89 156.848 282.252 156.05 282.751L155.05 281.751C154.865 281.576 154.62 281.479 154.365 281.479C154.11 281.479 153.865 281.576 153.68 281.751L152.44 283.001C152.266 283.186 152.169 283.431 152.169 283.686C152.169 283.94 152.266 284.185 152.44 284.371L153.44 285.371C152.942 286.168 152.58 287.044 152.37 287.961H151C150.735 287.961 150.48 288.066 150.293 288.253C150.105 288.441 150 288.695 150 288.961V290.781C150 291.046 150.105 291.3 150.293 291.488C150.48 291.675 150.735 291.781 151 291.781H152.41C152.618 292.701 152.98 293.58 153.48 294.381L152.48 295.381C152.306 295.566 152.209 295.811 152.209 296.066C152.209 296.32 152.306 296.565 152.48 296.751L153.77 298.041C153.955 298.215 154.2 298.312 154.455 298.312C154.71 298.312 154.955 298.215 155.14 298.041L156.14 297.041C156.938 297.539 157.813 297.901 158.73 298.111V299.521C158.73 299.786 158.835 300.04 159.023 300.228C159.21 300.415 159.465 300.521 159.73 300.521H161.55C161.815 300.521 162.07 300.415 162.257 300.228C162.445 300.04 162.55 299.786 162.55 299.521V298.111C163.471 297.902 164.35 297.541 165.15 297.041L166.15 298.041C166.336 298.218 166.583 298.317 166.84 298.317C167.097 298.317 167.344 298.218 167.53 298.041L168.82 296.751C168.994 296.565 169.091 296.32 169.091 296.066C169.091 295.811 168.994 295.566 168.82 295.381L167.82 294.381C168.32 293.58 168.682 292.701 168.89 291.781H170.3C170.541 291.751 170.762 291.636 170.924 291.456C171.086 291.276 171.177 291.043 171.18 290.801ZM161 294.001C160.146 294.087 159.286 293.907 158.538 293.485C157.79 293.064 157.191 292.421 156.823 291.645C156.455 290.87 156.336 289.999 156.482 289.153C156.628 288.307 157.032 287.527 157.64 286.92C158.247 286.313 159.027 285.909 159.873 285.762C160.719 285.616 161.589 285.735 162.365 286.103C163.14 286.472 163.783 287.071 164.205 287.818C164.626 288.566 164.806 289.426 164.72 290.281C164.623 291.234 164.201 292.125 163.523 292.803C162.845 293.481 161.954 293.904 161 294.001Z" fill="white"/>
<path opacity="0.46" d="M188.35 303.55V301.73C188.35 301.465 188.245 301.21 188.057 301.023C187.87 300.835 187.616 300.73 187.35 300.73H186C185.789 299.809 185.424 298.93 184.92 298.13L185.92 297.13C186.098 296.944 186.197 296.697 186.197 296.44C186.197 296.183 186.098 295.936 185.92 295.75L184.63 294.46C184.444 294.283 184.197 294.184 183.94 294.184C183.683 294.184 183.436 294.283 183.25 294.46L182.25 295.46C181.449 294.961 180.57 294.6 179.65 294.39V293C179.65 292.735 179.545 292.48 179.357 292.293C179.17 292.105 178.916 292 178.65 292H176.82C176.555 292 176.301 292.105 176.113 292.293C175.926 292.48 175.82 292.735 175.82 293V294.41C174.9 294.62 174.022 294.981 173.22 295.48L172.22 294.48C172.034 294.303 171.787 294.204 171.53 294.204C171.273 294.204 171.026 294.303 170.84 294.48L169.55 295.77C169.373 295.956 169.274 296.203 169.274 296.46C169.274 296.717 169.373 296.964 169.55 297.15L170.55 298.15C170.043 298.948 169.677 299.827 169.47 300.75H168.07C167.805 300.75 167.551 300.855 167.363 301.043C167.176 301.23 167.07 301.485 167.07 301.75V303.57C167.07 303.835 167.176 304.09 167.363 304.277C167.551 304.465 167.805 304.57 168.07 304.57H169.47C169.677 305.489 170.043 306.366 170.55 307.16L169.55 308.16C169.373 308.346 169.274 308.593 169.274 308.85C169.274 309.107 169.373 309.354 169.55 309.54L170.84 310.82C171.026 310.997 171.273 311.096 171.53 311.096C171.787 311.096 172.034 310.997 172.22 310.82L173.22 309.82C174.022 310.319 174.9 310.68 175.82 310.89V312.3C175.82 312.565 175.926 312.82 176.113 313.007C176.301 313.195 176.555 313.3 176.82 313.3H178.65C178.916 313.3 179.17 313.195 179.357 313.007C179.545 312.82 179.65 312.565 179.65 312.3V310.89C180.57 310.68 181.449 310.319 182.25 309.82L183.25 310.82C183.436 310.997 183.683 311.096 183.94 311.096C184.197 311.096 184.444 310.997 184.63 310.82L185.92 309.54C186.098 309.354 186.197 309.107 186.197 308.85C186.197 308.593 186.098 308.346 185.92 308.16L184.92 307.16C185.424 306.364 185.789 305.488 186 304.57H187.4C187.66 304.557 187.905 304.443 188.082 304.253C188.26 304.062 188.356 303.81 188.35 303.55ZM178.17 306.79C177.314 306.878 176.45 306.699 175.7 306.277C174.949 305.855 174.347 305.211 173.977 304.434C173.607 303.656 173.487 302.783 173.633 301.934C173.779 301.085 174.185 300.302 174.794 299.693C175.403 299.084 176.185 298.679 177.034 298.533C177.883 298.386 178.756 298.506 179.534 298.877C180.312 299.247 180.956 299.848 181.378 300.599C181.8 301.35 181.979 302.213 181.89 303.07C181.792 304.023 181.368 304.913 180.691 305.591C180.013 306.268 179.123 306.692 178.17 306.79Z" fill="white"/>
<path d="M190.301 254.28H152.901C152.787 254.28 152.677 254.235 152.597 254.154C152.516 254.074 152.471 253.964 152.471 253.85C152.471 253.735 152.516 253.625 152.596 253.543C152.676 253.46 152.786 253.413 152.901 253.41H190.301C190.417 253.41 190.529 253.457 190.612 253.539C190.694 253.622 190.741 253.733 190.741 253.85C190.738 253.965 190.691 254.074 190.608 254.155C190.526 254.235 190.416 254.28 190.301 254.28Z" fill="#263238"/>
<path d="M190.301 259.681H152.901C152.786 259.678 152.676 259.63 152.596 259.548C152.516 259.466 152.471 259.356 152.471 259.241C152.471 259.126 152.516 259.017 152.597 258.936C152.677 258.856 152.787 258.811 152.901 258.811H190.301C190.416 258.811 190.526 258.855 190.608 258.936C190.691 259.016 190.738 259.126 190.741 259.241C190.741 259.357 190.694 259.469 190.612 259.552C190.529 259.634 190.417 259.681 190.301 259.681Z" fill="#263238"/>
<path d="M190.301 265.07H152.901C152.787 265.07 152.677 265.025 152.597 264.944C152.516 264.864 152.471 264.754 152.471 264.64C152.471 264.525 152.516 264.415 152.596 264.333C152.676 264.25 152.786 264.203 152.901 264.2H190.301C190.417 264.2 190.529 264.247 190.612 264.329C190.694 264.412 190.741 264.524 190.741 264.64C190.738 264.755 190.691 264.864 190.608 264.945C190.526 265.025 190.416 265.07 190.301 265.07Z" fill="#263238"/>
<path d="M190.301 270.471H152.901C152.786 270.468 152.676 270.42 152.596 270.338C152.516 270.256 152.471 270.146 152.471 270.031C152.471 269.917 152.516 269.807 152.597 269.727C152.677 269.646 152.787 269.601 152.901 269.601H190.301C190.416 269.601 190.526 269.646 190.608 269.726C190.691 269.806 190.738 269.916 190.741 270.031C190.741 270.147 190.694 270.259 190.612 270.342C190.529 270.424 190.417 270.471 190.301 270.471Z" fill="#263238"/>
<path d="M347.171 189.2H148.771C146.584 189.2 144.811 190.973 144.811 193.16V193.61C144.811 195.797 146.584 197.57 148.771 197.57H347.171C349.358 197.57 351.131 195.797 351.131 193.61V193.16C351.131 190.973 349.358 189.2 347.171 189.2Z" fill="#92E3A9"/>
<path d="M347.171 216.801H148.771C146.584 216.801 144.811 218.574 144.811 220.761V221.211C144.811 223.398 146.584 225.171 148.771 225.171H347.171C349.358 225.171 351.131 223.398 351.131 221.211V220.761C351.131 218.574 349.358 216.801 347.171 216.801Z" fill="#92E3A9"/>
<path d="M237.281 361.78L237.711 352.67H224.681L223.811 361.78H237.281Z" fill="#263238"/>
<path d="M237.761 362.28H223.261L224.261 352.17H238.261L237.761 362.28ZM224.361 361.28H236.801L237.191 353.17H225.131L224.361 361.28Z" fill="white"/>
<path d="M264.22 361.78L263.78 352.67H250.74L250.75 361.78H264.22Z" fill="#263238"/>
<path d="M264.75 362.28H250.25V352.17H264.25L264.75 362.28ZM251.25 361.28H263.69L263.3 353.17H251.24L251.25 361.28Z" fill="white"/>
<path d="M334.37 371.51H348.31L345.04 361.78H331.57L334.37 371.51Z" fill="#263238"/>
<path d="M349 372.001H334L330.9 361.271H345.4L349 372.001ZM334.75 371.001H347.61L344.68 362.271H332.23L334.75 371.001Z" fill="white"/>
<path d="M223.81 361.78L224.68 352.67H211.64L210.34 361.78H223.81Z" fill="#263238"/>
<path d="M224.271 362.28H209.771L211.211 352.17H225.211L224.271 362.28ZM210.921 361.28H223.361L224.131 353.17H212.131L210.921 361.28Z" fill="white"/>
<path d="M196.87 361.78L198.61 352.67H185.57L183.4 361.78H196.87Z" fill="#263238"/>
<path d="M197.29 362.28H182.771L185.18 352.17H199.18L197.29 362.28ZM184.04 361.28H196.461L198.001 353.17H186.001L184.04 361.28Z" fill="white"/>
<path d="M318.1 361.78L315.91 352.67H302.88L304.63 361.78H318.1Z" fill="#263238"/>
<path d="M318.731 362.28H304.211L302.271 352.17H316.271L318.731 362.28ZM305.041 361.28H317.461L315.521 353.17H303.521L305.041 361.28Z" fill="white"/>
<path d="M331.57 361.78L328.94 352.67H315.91L318.1 361.78H331.57Z" fill="#263238"/>
<path d="M332.23 362.28H317.7L315.28 352.17H329.28L332.23 362.28ZM318.49 361.28H330.9L328.57 353.17H316.57L318.49 361.28Z" fill="white"/>
<path d="M183.401 361.78L185.571 352.67H172.541L169.931 361.78H183.401Z" fill="#263238"/>
<path d="M183.801 362.28H169.271L172.161 352.17H186.211L183.801 362.28ZM170.601 361.28H183.001L184.93 353.17H172.93L170.601 361.28Z" fill="white"/>
<path d="M277.69 361.78L276.81 352.67H263.78L264.22 361.78H277.69Z" fill="#263238"/>
<path d="M278.24 362.28H263.74L263.25 352.17H277.25L278.24 362.28ZM264.7 361.28H277.14L276.36 353.17H264.3L264.7 361.28Z" fill="white"/>
<path d="M345.04 361.78L341.98 352.67H328.94L331.57 361.78H345.04Z" fill="#263238"/>
<path d="M345.73 362.28H331.19L328.28 352.17H342.34L345.73 362.28ZM331.94 361.28H344.34L341.62 353.17H329.62L331.94 361.28Z" fill="white"/>
<path d="M304.63 361.78L302.88 352.67H289.84L291.16 361.78H304.63Z" fill="#263238"/>
<path d="M305.231 362.28H290.731L289.271 352.17H303.271L305.231 362.28ZM291.591 361.28H304.001L302.441 353.17H290.441L291.591 361.28Z" fill="white"/>
<path d="M291.161 361.78L289.841 352.67H276.811L277.691 361.78H291.161Z" fill="#263238"/>
<path d="M291.74 362.28H277.24L276.24 352.17H290.24L291.74 362.28ZM278.14 361.28H290.58L289.41 353.17H277.36L278.14 361.28Z" fill="white"/>
<path d="M250.75 361.78L250.74 352.67H237.71L237.28 361.78H250.75Z" fill="#263238"/>
<path d="M251.251 362.28H236.761L237.231 352.17H251.231L251.251 362.28ZM237.811 361.28H250.251V353.17H238.191L237.811 361.28Z" fill="white"/>
<path d="M156.47 361.78H143L139.28 371.51H153.21L156.47 361.78Z" fill="#263238"/>
<path d="M153.57 372.001H138.57L142.67 361.271H157.18L153.57 372.001ZM140 371.001H152.85L155.77 362.271H143.34L140 371.001Z" fill="white"/>
<path d="M159.51 352.67H146.47L143 361.78H156.47L159.51 352.67Z" fill="#263238"/>
<path d="M156.821 362.28H142.271L146.131 352.17H160.201L156.821 362.28ZM143.721 361.28H156.101L158.811 353.17H146.811L143.721 361.28Z" fill="white"/>
<path d="M169.931 361.78L172.541 352.67H159.511L156.471 361.78H169.931Z" fill="#263238"/>
<path d="M170.311 362.28H155.771L159.15 352.17H173.15L170.311 362.28ZM157.161 361.28H169.561L171.881 353.17H159.881L157.161 361.28Z" fill="white"/>
<path d="M135.291 381.94L131.011 393.15H145.981L149.731 381.94H135.291Z" fill="#263238"/>
<path d="M146.34 393.65H130.28L135 381.44H150.47L146.34 393.65ZM131.73 392.65H145.62L149 382.44H135.64L131.73 392.65Z" fill="white"/>
<path d="M153.21 371.511H139.28L135.29 381.941H149.73L153.21 371.511Z" fill="#263238"/>
<path d="M150.091 382.44H134.561L138.931 371H153.931L150.091 382.44ZM136.021 381.44H149.371L152.521 372.01H139.621L136.021 381.44Z" fill="white"/>
<path d="M149.73 381.94L145.98 393.15H160.95L164.16 381.94H149.73Z" fill="#263238"/>
<path d="M161.33 393.65H145.33L149.41 381.44H164.86L161.33 393.65ZM146.67 392.65H160.57L163.5 382.44H150.09L146.67 392.65Z" fill="white"/>
<path d="M210.34 361.78L211.64 352.67H198.61L196.87 361.78H210.34Z" fill="#263238"/>
<path d="M210.781 362.28H196.271L198.191 352.17H212.191L210.781 362.28ZM197.48 361.28H209.911L211.061 353.17H199.001L197.48 361.28Z" fill="white"/>
<path d="M208.951 371.51L210.34 361.78H196.87L195.021 371.51H208.951Z" fill="#263238"/>
<path d="M209.391 372.001H194.391L196.441 361.271H210.901L209.391 372.001ZM195.621 371.001H208.521L209.771 362.271H197.291L195.621 371.001Z" fill="white"/>
<path d="M195.02 371.51L196.87 361.78H183.4L181.08 371.51H195.02Z" fill="#263238"/>
<path d="M195.431 372H180.431L183.001 361.28H197.471L195.431 372ZM181.721 371H194.601L196.271 362.27H183.801L181.721 371Z" fill="white"/>
<path d="M222.89 371.51L223.81 361.78H210.34L208.95 371.51H222.89Z" fill="#263238"/>
<path d="M223.34 372.001H208.34L209.87 361.271H224.32L223.34 372.001ZM209.53 371.001H222.43L223.26 362.271H210.78L209.53 371.001Z" fill="white"/>
<path d="M169.93 361.78H156.47L153.21 371.51H167.15L169.93 361.78Z" fill="#263238"/>
<path d="M167.521 372.001H152.521L156.101 361.271H170.601L167.521 372.001ZM153.911 371.001H166.771L169.271 362.271H156.821L153.911 371.001Z" fill="white"/>
<path d="M337.38 381.941H351.81L348.31 371.511H334.37L337.38 381.941Z" fill="#263238"/>
<path d="M352.51 382.44H337L333.71 371H348.71L352.51 382.44ZM337.75 381.44H351.12L348 372H335L337.75 381.44Z" fill="white"/>
<path d="M181.08 371.51L183.4 361.78H169.93L167.15 371.51H181.08Z" fill="#263238"/>
<path d="M181.48 372.001H166.48L169.56 361.271H184L181.48 372.001ZM167.81 371.001H180.69L182.77 362.271H170.31L167.81 371.001Z" fill="white"/>
<path d="M153.21 371.511L149.73 381.941H164.16L167.15 371.511H153.21Z" fill="#263238"/>
<path d="M164.54 382.44H149L152.85 371H167.85L164.54 382.44ZM150.42 381.44H163.78L166.48 372.01H153.57L150.42 381.44Z" fill="white"/>
<path d="M306.5 371.51L304.63 361.78H291.16L292.57 371.51H306.5Z" fill="#263238"/>
<path d="M307.111 372.001H292.111L290.561 361.271H305.001L307.111 372.001ZM293.001 371.001H305.901L304.211 362.271H291.741L293.001 371.001Z" fill="white"/>
<path d="M292.57 371.51L291.16 361.78H277.69L278.63 371.51H292.57Z" fill="#263238"/>
<path d="M293.141 372.001H278.141L277.141 361.271H291.591L293.141 372.001ZM279.081 371.001H292.001L290.741 362.271H278.241L279.081 371.001Z" fill="white"/>
<path d="M334.371 371.51L331.571 361.78H318.101L320.441 371.51H334.371Z" fill="#263238"/>
<path d="M335 372.001H320L317.42 361.271H331.9L335 372.001ZM320.79 371.001H333.67L331.15 362.271H318.73L320.79 371.001Z" fill="white"/>
<path d="M250.76 371.51L250.75 361.78H237.28L236.82 371.51H250.76Z" fill="#263238"/>
<path d="M251.261 372.001H236.261L236.761 361.271H251.211L251.261 372.001ZM237.351 371.001H250.261V362.271H237.761L237.351 371.001Z" fill="white"/>
<path d="M278.631 371.51L277.691 361.78H264.221L264.691 371.51H278.631Z" fill="#263238"/>
<path d="M279.18 372.001H264.18L263.65 361.271H278.1L279.18 372.001ZM265.18 371.001H278.09L277.25 362.271H264.75L265.18 371.001Z" fill="white"/>
<path d="M264.69 371.51L264.22 361.78H250.75L250.76 371.51H264.69Z" fill="#263238"/>
<path d="M265.221 372H250.221V361.28H264.701L265.221 372ZM251.221 371H264.131L263.701 362.27H251.251L251.221 371Z" fill="white"/>
<path d="M236.821 371.51L237.281 361.78H223.811L222.891 371.51H236.821Z" fill="#263238"/>
<path d="M237.301 372.001H222.301L223.301 361.271H237.751L237.301 372.001ZM223.441 371.001H236.351L236.761 362.271H224.271L223.441 371.001Z" fill="white"/>
<path d="M278.63 371.511L279.64 381.941H294.07L292.57 371.511H278.63Z" fill="#263238"/>
<path d="M294.65 382.44H279.18L278.08 371H293L294.65 382.44ZM280.09 381.44H293.5L292.13 372H279.18L280.09 381.44Z" fill="white"/>
<path d="M292.57 371.511L294.07 381.941H308.51L306.5 371.511H292.57Z" fill="#263238"/>
<path d="M309.11 382.44H293.64L292 371H306.92L309.11 382.44ZM294.51 381.44H307.9L306.09 372H293.14L294.51 381.44Z" fill="white"/>
<path d="M167.15 371.511L164.16 381.941H178.59L181.08 371.511H167.15Z" fill="#263238"/>
<path d="M179 382.44H163.5L166.77 371H181.72L179 382.44ZM164.83 381.44H178.2L180.45 372.01H167.52L164.83 381.44Z" fill="white"/>
<path d="M306.5 371.511L308.51 381.941H322.94L320.44 371.511H306.5Z" fill="#263238"/>
<path d="M323.58 382.44H308.1L305.9 371H320.83L323.58 382.44ZM308.92 381.44H322.31L320 372H307.11L308.92 381.44Z" fill="white"/>
<path d="M250.761 371.511L250.771 381.941H265.201L264.691 371.511H250.761Z" fill="#263238"/>
<path d="M265.731 382.44H250.271V371H265.18L265.731 382.44ZM251.271 381.44H264.68L264.221 372.01H251.221L251.271 381.44Z" fill="white"/>
<path d="M320.44 371.511L322.94 381.941H337.38L334.37 371.511H320.44Z" fill="#263238"/>
<path d="M338.001 382.44H322.551L319.801 371H334.751L338.001 382.44ZM323.301 381.44H336.671L334.001 372H321.071L323.301 381.44Z" fill="white"/>
<path d="M264.69 371.511L265.2 381.941H279.64L278.63 371.511H264.69Z" fill="#263238"/>
<path d="M280.19 382.44H264.73L264.17 371H279.08L280.19 382.44ZM265.68 381.44H279.09L278.18 372.01H265.18L265.68 381.44Z" fill="white"/>
<path d="M195.02 371.511L193.03 381.941H207.47L208.95 371.511H195.02Z" fill="#263238"/>
<path d="M207.901 382.44H192.431L194.601 371H209.531L207.901 382.44ZM193.631 381.44H207.001L208.351 372.01H195.431L193.631 381.44Z" fill="white"/>
<path d="M181.08 371.511L178.59 381.941H193.03L195.02 371.511H181.08Z" fill="#263238"/>
<path d="M193.44 382.44H178L180.69 371H195.62L193.44 382.44ZM179.23 381.44H192.62L194.41 372.01H181.48L179.23 381.44Z" fill="white"/>
<path d="M236.82 371.511L236.34 381.941H250.77L250.76 371.511H236.82Z" fill="#263238"/>
<path d="M251.271 382.441H235.811L236.351 371.011H251.261L251.271 382.441ZM236.861 381.441H250.271V372.001H237.271L236.861 381.441Z" fill="white"/>
<path d="M222.89 371.511L221.9 381.941H236.34L236.82 371.511H222.89Z" fill="#263238"/>
<path d="M236.811 382.44H221.351L222.431 371H237.351L236.811 382.44ZM222.451 381.44H235.861L236.301 372.01H223.301L222.451 381.44Z" fill="white"/>
<path d="M208.951 371.511L207.471 381.941H221.901L222.891 371.511H208.951Z" fill="#263238"/>
<path d="M222.351 382.44H206.891L208.521 371H223.441L222.351 382.44ZM208.041 381.44H221.441L222.341 372.01H209.341L208.041 381.44Z" fill="white"/>
<path d="M320.44 371.51L318.1 361.78H304.63L306.5 371.51H320.44Z" fill="#263238"/>
<path d="M321.07 372H306.07L304 361.28H318.47L321.07 372ZM306.91 371H319.8L317.7 362.27H305.23L306.91 371Z" fill="white"/>
<path d="M159.511 352.671L162.621 343.351H150.031L146.471 352.671H159.511Z" fill="#263238"/>
<path d="M159.87 353.171H145.75L149.69 342.851H163.32L159.87 353.171ZM147.2 352.171H159.2L161.98 343.851H150.38L147.2 352.171Z" fill="white"/>
<path d="M146.471 352.67H134.441L130.561 361.78H143.001L146.471 352.67Z" fill="#263238"/>
<path d="M143.341 362.28H129.811L134.111 352.17H147.201L143.341 362.28ZM131.341 361.28H142.671L145.771 353.17H134.771L131.341 361.28Z" fill="white"/>
<path d="M150.03 343.351H138.41L134.44 352.671H146.47L150.03 343.351Z" fill="#263238"/>
<path d="M146.82 353.171H133.69L138.08 342.851H150.76L146.82 353.171ZM135.2 352.171H146.13L149.31 343.851H138.75L135.2 352.171Z" fill="white"/>
<path d="M143 361.78H130.56L126.41 371.51H139.28L143 361.78Z" fill="#263238"/>
<path d="M139.62 372.001H125.62L130.19 361.271H143.68L139.62 372.001ZM127.17 371.001H138.93L142.27 362.271H130.89L127.17 371.001Z" fill="white"/>
<path d="M139.281 371.511H126.411L121.971 381.941H135.291L139.281 371.511Z" fill="#263238"/>
<path d="M135.64 382.44H121.21L126.08 371H140L135.64 382.44ZM122.72 381.44H135L138.6 372.01H126.74L122.72 381.44Z" fill="white"/>
<path d="M135.29 381.94H121.97L117.19 393.15H131.01L135.29 381.94Z" fill="#263238"/>
<path d="M131.351 393.65H116.431L121.641 381.44H136.001L131.351 393.65ZM117.951 392.65H130.661L134.561 382.44H122.301L117.951 392.65Z" fill="white"/>
<path d="M358.511 361.78L362.241 371.51H374.571L370.421 361.78H358.511Z" fill="#263238"/>
<path d="M375.33 372.001H361.9L357.78 361.271H370.78L375.33 372.001ZM362.59 371.001H373.81L370.09 362.271H359.23L362.59 371.001Z" fill="white"/>
<path d="M366.25 381.941H379.02L374.57 371.511H362.24L366.25 381.941Z" fill="#263238"/>
<path d="M379.771 382.44H365.901L361.521 371H374.901L379.771 382.44ZM366.591 381.44H378.261L374.261 372.01H363.001L366.591 381.44Z" fill="white"/>
<path d="M370.55 393.15H383.79L379.02 381.94H366.25L370.55 393.15Z" fill="#263238"/>
<path d="M384.551 393.65H370.211L365.521 381.44H379.351L384.551 393.65ZM370.891 392.65H383.001L378.651 382.44H367.001L370.891 392.65Z" fill="white"/>
<path d="M263.78 352.671L263.32 343.351H250.73L250.74 352.671H263.78Z" fill="#263238"/>
<path d="M264.3 353.171H250.24V342.851H263.8L264.3 353.171ZM251.24 352.171H263.24L262.83 343.851H251.23L251.24 352.171Z" fill="white"/>
<path d="M358.511 361.78H370.421L366.541 352.67H355.011L358.511 361.78Z" fill="#263238"/>
<path d="M371.181 362.28H358.181L354.301 352.17H366.891L371.181 362.28ZM358.851 361.28H369.661L366.211 353.17H355.741L358.851 361.28Z" fill="white"/>
<path d="M351.811 381.941H366.251L362.241 371.511H348.311L351.811 381.941Z" fill="#263238"/>
<path d="M367 382.44H351.45L347.61 371H362.61L367 382.44ZM352.19 381.44H365.54L361.9 372H349L352.19 381.44Z" fill="white"/>
<path d="M172.541 352.671L175.211 343.351H162.621L159.511 352.671H172.541Z" fill="#263238"/>
<path d="M172.921 353.171H158.811L162.261 342.851H175.871L172.921 353.171ZM160.201 352.171H172.201L174.591 343.851H163.001L160.201 352.171Z" fill="white"/>
<path d="M341.98 352.67L345.04 361.78H358.51L355.01 352.67H341.98Z" fill="#263238"/>
<path d="M359.23 362.28H344.68L341.28 352.17H355.35L359.23 362.28ZM345.4 361.28H357.78L354.67 353.17H342.67L345.4 361.28Z" fill="white"/>
<path d="M366.541 352.671L362.571 343.351H351.431L355.011 352.671H366.541Z" fill="#263238"/>
<path d="M367.3 353.171H354.67L350.67 342.851H362.9L367.3 353.171ZM355.35 352.171H365.78L362.24 343.851H352.16L355.35 352.171Z" fill="white"/>
<path d="M355.011 352.671L351.431 343.351H338.851L341.981 352.671H355.011Z" fill="#263238"/>
<path d="M355.74 353.171H341.62L338.15 342.851H351.78L355.74 353.171ZM342.34 352.171H354.28L351.09 343.851H339.54L342.34 352.171Z" fill="white"/>
<path d="M308.511 381.94L310.671 393.15H325.641L322.941 381.94H308.511Z" fill="#263238"/>
<path d="M326.27 393.65H310.27L307.92 381.44H323.36L326.27 393.65ZM311.08 392.65H325L322.55 382.44H309.11L311.08 392.65Z" fill="white"/>
<path d="M355.581 393.15H370.551L366.251 381.94H351.811L355.581 393.15Z" fill="#263238"/>
<path d="M371.28 393.65H355.22L351.12 381.44H366.59L371.28 393.65ZM355.94 392.65H369.82L365.9 382.44H352.51L355.94 392.65Z" fill="white"/>
<path d="M341.981 352.671L338.851 343.351H326.261L328.941 352.671H341.981Z" fill="#263238"/>
<path d="M342.67 353.171H328.57L325.57 342.851H339.19L342.67 353.171ZM329.32 352.171H341.32L338.53 343.851H326.92L329.32 352.171Z" fill="white"/>
<path d="M337.38 381.94L340.61 393.15H355.58L351.81 381.94H337.38Z" fill="#263238"/>
<path d="M356.27 393.65H340.27L336.75 381.44H352.21L356.27 393.65ZM340.98 392.65H354.88L351.45 382.44H338L340.98 392.65Z" fill="white"/>
<path d="M322.94 381.94L325.64 393.15H340.61L337.38 381.94H322.94Z" fill="#263238"/>
<path d="M341.27 393.65H325.27L322.34 381.44H337.78L341.27 393.65ZM326.03 392.65H339.94L337 382.44H323.58L326.03 392.65Z" fill="white"/>
<path d="M348.31 371.51H362.24L358.51 361.78H345.04L348.31 371.51Z" fill="#263238"/>
<path d="M363.001 372.001H348.001L344.391 361.271H358.901L363.001 372.001ZM348.701 371.001H361.551L358.191 362.271H345.731L348.701 371.001Z" fill="white"/>
<path d="M224.681 352.671L225.561 343.351H212.971L211.641 352.671H224.681Z" fill="#263238"/>
<path d="M225.131 353.171H211.061L212.541 342.851H226.111L225.131 353.171ZM212.221 352.171H224.221L225.011 343.851H213.411L212.221 352.171Z" fill="white"/>
<path d="M328.94 352.671L326.26 343.351H313.67L315.91 352.671H328.94Z" fill="#263238"/>
<path d="M329.61 353.171H315.52L313 342.851H326.59L329.61 353.171ZM316.3 352.171H328.3L325.9 343.851H314.31L316.3 352.171Z" fill="white"/>
<path d="M211.64 352.671L212.97 343.351H200.38L198.61 352.671H211.64Z" fill="#263238"/>
<path d="M212.08 353.171H198L200 342.851H213.58L212.08 353.171ZM199.21 352.171H211.21L212.4 343.851H200.8L199.21 352.171Z" fill="white"/>
<path d="M250.74 352.671L250.73 343.351H238.15L237.71 352.671H250.74Z" fill="#263238"/>
<path d="M251.24 353.171H237.19L237.67 342.851H251.23L251.24 353.171ZM238.24 352.171H250.24V343.851H238.62L238.24 352.171Z" fill="white"/>
<path d="M198.61 352.671L200.38 343.351H187.8L185.57 352.671H198.61Z" fill="#263238"/>
<path d="M199 353.171H184.94L187.4 342.851H201L199 353.171ZM186.19 352.171H198.19L199.78 343.851H188.19L186.19 352.171Z" fill="white"/>
<path d="M185.57 352.671L187.8 343.351H175.21L172.54 352.671H185.57Z" fill="#263238"/>
<path d="M186 353.171H171.88L174.88 342.851H188.48L186 353.171ZM173.23 352.171H185.23L187.23 343.851H175.59L173.23 352.171Z" fill="white"/>
<path d="M237.711 352.671L238.151 343.351H225.561L224.681 352.671H237.711Z" fill="#263238"/>
<path d="M238.19 353.171H224.13L225.13 342.851H238.7L238.19 353.171ZM225.19 352.171H237.19L237.58 343.851H226L225.19 352.171Z" fill="white"/>
<path d="M315.91 352.671L313.67 343.351H301.08L302.88 352.671H315.91Z" fill="#263238"/>
<path d="M316.54 353.171H302.46L300.46 342.851H314.05L316.54 353.171ZM303.29 352.171H315.29L313.29 343.851H301.69L303.29 352.171Z" fill="white"/>
<path d="M302.88 352.671L301.08 343.351H288.5L289.84 352.671H302.88Z" fill="#263238"/>
<path d="M303.48 353.171H289.41L287.92 342.851H301.5L303.48 353.171ZM290.28 352.171H302.28L300.68 343.851H289.08L290.28 352.171Z" fill="white"/>
<path d="M276.81 352.671L275.91 343.351H263.32L263.78 352.671H276.81Z" fill="#263238"/>
<path d="M277.361 353.171H263.301L262.801 342.851H276.361L277.361 353.171ZM264.251 352.171H276.251L275.441 343.851H263.841L264.251 352.171Z" fill="white"/>
<path d="M308.51 381.94H294.07H279.64H265.2H250.77H236.34H221.9H207.47H193.03H178.59H164.16L160.95 393.15H175.92H190.89H205.87H220.84H235.81H250.78H265.75H280.72H295.69H310.67L308.51 381.94Z" fill="#263238"/>
<path d="M311.27 393.65H160.271L163.76 381.44H308.921L311.27 393.65ZM161.611 392.65H310.061L308.061 382.44H164.54L161.611 392.65Z" fill="white"/>
<path d="M289.84 352.671L288.5 343.351H275.91L276.81 352.671H289.84Z" fill="#263238"/>
<path d="M290.42 353.171H276.36L275.36 342.851H288.93L290.42 353.171ZM277.26 352.171H289.26L288.05 343.851H276.45L277.26 352.171Z" fill="white"/>
<path d="M267.12 264.18C281.85 264.18 293.79 248.98 293.79 230.23C293.79 211.48 281.85 196.28 267.12 196.28C252.391 196.28 240.45 211.48 240.45 230.23C240.45 248.98 252.391 264.18 267.12 264.18Z" fill="#263238"/>
<path d="M267.119 264.67C252.119 264.67 239.939 249.22 239.939 230.23C239.939 211.24 252.129 195.78 267.119 195.78C282.109 195.78 294.289 211.23 294.289 230.23C294.289 249.23 282.099 264.67 267.119 264.67ZM267.119 196.78C252.679 196.78 240.939 211.78 240.939 230.23C240.939 248.68 252.679 263.67 267.119 263.67C281.559 263.67 293.289 248.67 293.289 230.23C293.289 211.79 281.549 196.78 267.119 196.78Z" fill="#263238"/>
<path d="M207 316.69C204.55 316.69 201.77 314.52 200.29 313.18C198.21 311.29 196.06 308.64 196.06 307.46C196.06 305.77 216.06 245.46 218.37 238.61C218.395 238.53 218.441 238.458 218.502 238.4C218.563 238.343 218.638 238.301 218.72 238.28C218.799 238.26 218.883 238.259 218.963 238.279C219.043 238.298 219.117 238.336 219.18 238.39L226.75 245.3C226.809 245.354 226.854 245.421 226.882 245.496C226.91 245.571 226.919 245.651 226.91 245.73L219.45 311.25C219.441 311.326 219.414 311.399 219.373 311.463C219.331 311.527 219.275 311.581 219.21 311.62C218.9 311.81 211.6 316.25 207.39 316.67L207 316.69ZM219.08 239.69C212.78 258.69 197.23 305.69 197.08 307.52C197.08 308.09 198.6 310.32 200.98 312.47C203.36 314.62 205.73 315.86 207.31 315.71C210.92 315.35 217.31 311.66 218.5 310.93L225.91 245.93L219.08 239.69Z" fill="#263238"/>
<path d="M263.05 229.91L218.81 238.76L225.89 325.92H312.17L323.67 235.22L271.01 229.47L263.05 229.91Z" fill="#92E3A9"/>
<path d="M312.17 326.42H225.89C225.765 326.42 225.645 326.372 225.554 326.287C225.463 326.201 225.408 326.084 225.4 325.96L218.31 238.8C218.3 238.678 218.336 238.556 218.409 238.459C218.483 238.361 218.59 238.294 218.71 238.27L263 229.42L271 228.97L323.73 234.73C323.862 234.744 323.984 234.808 324.07 234.91C324.111 234.963 324.141 235.024 324.158 235.09C324.175 235.155 324.179 235.223 324.17 235.29L312.67 326C312.651 326.118 312.59 326.226 312.498 326.303C312.406 326.38 312.29 326.421 312.17 326.42ZM226.36 325.42H311.73L323.11 235.67L271 230L263.15 230.44L219.38 239.2L226.36 325.42Z" fill="#263238"/>
<path opacity="0.3" d="M225.89 325.92H312.17L314.34 308.85L314.18 308.02L293.36 312.56L302.44 274.34L252.48 296.29L240.37 308.4H247.94L225.66 323.06L225.89 325.92Z" fill="black"/>
<path d="M258.35 225C258.35 225 251.17 228.93 249.35 232.46C247.53 235.99 240 262.21 240 262.21L252.39 264.87L240.45 270.62L258.52 322.38L287.28 320.61L306 266.19L294.49 261.33L304.67 256.9C304.67 256.9 294.94 238.32 289.67 230.36C284.4 222.4 258.35 225 258.35 225Z" fill="#92E3A9"/>
<path d="M258.56 322.881C258.458 322.881 258.357 322.849 258.273 322.79C258.189 322.731 258.125 322.647 258.09 322.551L240 270.781C239.962 270.665 239.967 270.539 240.015 270.426C240.063 270.314 240.15 270.223 240.26 270.171L250.89 265.051L239.89 262.701C239.823 262.686 239.759 262.658 239.702 262.619C239.646 262.579 239.597 262.529 239.56 262.471C239.525 262.411 239.503 262.344 239.494 262.276C239.486 262.207 239.491 262.137 239.51 262.071C239.82 261.001 247.13 235.781 248.9 232.241C250.67 228.701 257.76 224.731 258.06 224.561C258.119 224.529 258.184 224.512 258.25 224.511C259.32 224.401 284.55 221.961 289.96 230.081C295.23 237.971 304.96 256.491 305.03 256.671C305.06 256.733 305.075 256.801 305.075 256.871C305.075 256.94 305.06 257.008 305.03 257.071C305.01 257.136 304.975 257.196 304.928 257.246C304.881 257.296 304.824 257.335 304.76 257.361L295.65 261.361L306.08 265.771C306.197 265.821 306.291 265.914 306.343 266.031C306.395 266.148 306.401 266.28 306.36 266.401L287.71 320.821C287.677 320.913 287.618 320.993 287.54 321.052C287.462 321.11 287.368 321.145 287.27 321.151L258.51 322.921L258.56 322.881ZM241.1 270.881L258.91 321.881L286.91 320.161L305.3 266.491L294.23 261.811C294.139 261.773 294.061 261.709 294.006 261.627C293.951 261.546 293.921 261.449 293.92 261.351C293.921 261.253 293.95 261.158 294.003 261.077C294.056 260.995 294.132 260.931 294.22 260.891L303.91 256.681C302.35 253.681 293.91 237.801 289.14 230.681C284.22 223.301 260.23 225.381 258.46 225.541C257.64 226.001 251.38 229.541 249.8 232.741C248.22 235.941 241.71 258.201 240.63 261.891L252.5 264.431C252.602 264.453 252.694 264.506 252.764 264.583C252.834 264.66 252.878 264.757 252.89 264.861C252.9 264.964 252.878 265.068 252.828 265.158C252.778 265.249 252.703 265.323 252.61 265.371L241.1 270.881Z" fill="#263238"/>
<path d="M257.23 326.81L256.86 235.67L280.75 233.45L287.76 325.92L257.23 326.81Z" fill="white"/>
<path d="M257.23 327.31C257.099 327.309 256.975 327.259 256.88 327.17C256.786 327.073 256.732 326.945 256.73 326.81L256.36 235.67C256.357 235.545 256.402 235.423 256.485 235.33C256.569 235.238 256.685 235.18 256.81 235.17L280.7 233C280.765 232.99 280.833 232.995 280.897 233.014C280.961 233.033 281.02 233.066 281.07 233.11C281.173 233.198 281.238 233.324 281.25 233.46L288.25 325.93C288.253 325.997 288.244 326.064 288.222 326.128C288.199 326.191 288.165 326.25 288.12 326.3C288.074 326.35 288.019 326.391 287.957 326.419C287.895 326.446 287.827 326.46 287.76 326.46L257.24 327.35L257.23 327.31ZM257.36 236.12L257.73 326.29L287.22 325.44L280.29 234L257.36 236.12Z" fill="#263238"/>
<path d="M253.32 211.771C253.32 211.771 256.41 229.031 256.86 233.451C257.31 237.871 268.73 269.301 272.15 264.171C275.88 258.581 280.31 240.981 281.15 236.991C281.99 233.001 282.04 215.76 282.04 215.76C282.04 215.76 270.57 223.721 253.32 211.771Z" fill="white"/>
<path d="M271.25 265.24C271.122 265.238 270.994 265.221 270.87 265.19C266.17 264.02 256.79 237.77 256.36 233.5C255.93 229.23 252.86 212.04 252.82 211.86C252.802 211.762 252.813 211.661 252.853 211.57C252.892 211.479 252.958 211.401 253.042 211.348C253.125 211.294 253.223 211.266 253.323 211.269C253.422 211.271 253.519 211.303 253.6 211.36C270.38 222.98 281.68 215.42 281.79 215.36C281.869 215.314 281.958 215.289 282.05 215.289C282.141 215.289 282.231 215.314 282.31 215.36C282.391 215.404 282.458 215.47 282.506 215.549C282.553 215.628 282.579 215.718 282.58 215.81C282.58 216.51 282.58 233.16 281.68 237.15C280.68 241.49 276.35 258.83 272.57 264.5C272.43 264.725 272.236 264.91 272.005 265.04C271.774 265.169 271.515 265.238 271.25 265.24ZM254 212.85C254.7 216.85 257 229.63 257.33 233.4C257.76 237.71 267.24 263.26 271.09 264.22C271.27 264.22 271.48 264.22 271.72 263.9C275.37 258.41 279.79 240.9 280.72 236.9C281.47 233.53 281.58 220.18 281.59 216.64C278.71 218.11 268.31 222.24 254 212.85Z" fill="#263238"/>
<path d="M281.9 227.23C282.08 221.57 282.08 215.76 282.08 215.76C282.08 215.76 270.57 223.76 253.32 211.76C253.32 211.76 254.59 218.87 255.62 225.13C257.98 228.13 262.47 232.9 268.01 233.79C273.7 234.71 278.3 231.69 281.9 227.23Z" fill="#92E3A9"/>
<path opacity="0.5" d="M281.9 227.23C282.08 221.57 282.08 215.76 282.08 215.76C282.08 215.76 270.57 223.76 253.32 211.76C253.32 211.76 254.59 218.87 255.62 225.13C257.98 228.13 262.47 232.9 268.01 233.79C273.7 234.71 278.3 231.69 281.9 227.23Z" fill="white"/>
<path d="M291.37 194.52C291.37 194.52 296.23 188.32 296.23 195.4C296.23 202.48 291.37 203.4 291.37 203.4V194.52Z" fill="white"/>
<path d="M291.37 203.87C291.252 203.872 291.138 203.829 291.05 203.75C290.992 203.706 290.946 203.648 290.914 203.582C290.883 203.516 290.868 203.443 290.87 203.37V194.52C290.868 194.408 290.903 194.299 290.97 194.21C291.4 193.67 293.6 191.01 295.28 191.59C296.28 191.93 296.73 193.18 296.73 195.4C296.73 202.81 291.51 203.85 291.46 203.86L291.37 203.87ZM291.87 194.69V202.69C293.08 202.21 295.73 200.56 295.73 195.4C295.73 193.06 295.19 192.62 294.96 192.54C294.22 192.29 292.73 193.64 291.87 194.69Z" fill="#263238"/>
<path d="M243.14 179.921C243.14 179.921 248.89 205.991 248.89 209.561C248.89 217.071 263.05 225.491 269.24 227.261C275.43 229.031 290.48 215.311 291.37 211.771C292.26 208.231 292.69 177.261 290.92 171.071C289.15 164.881 279 160.891 272.34 160.891C265.68 160.891 246.24 164.431 243.14 179.921Z" fill="white"/>
<path d="M270.46 227.921C270.004 227.925 269.549 227.865 269.11 227.741C263.11 226.021 248.39 217.521 248.39 209.561C248.39 206.091 242.71 180.291 242.65 180.031C242.64 179.961 242.64 179.89 242.65 179.821C245.82 163.961 265.65 160.391 272.34 160.391C279.03 160.391 289.54 164.391 291.4 170.931C293.26 177.471 292.72 208.421 291.85 211.931C291.2 214.541 283.91 221.751 277.35 225.541C274.57 227.111 272.26 227.921 270.46 227.921ZM243.65 179.921C244.1 181.971 249.39 206.071 249.39 209.571C249.39 216.731 263.28 225.041 269.39 226.791C271.04 227.261 273.62 226.521 276.86 224.651C283.36 220.901 290.35 213.811 290.86 211.651C291.69 208.321 292.19 177.391 290.42 171.211C288.71 165.211 278.56 161.391 272.32 161.391C265.87 161.391 246.76 164.801 243.65 179.911V179.921Z" fill="#263238"/>
<path d="M272.34 160.891C265.71 160.891 246.24 164.431 243.14 179.891C243.14 179.891 246.58 195.491 248.14 204.211C248.14 200.211 248.84 192.551 253.14 189.211C259.08 184.591 268.99 183.921 274.6 181.281C280.21 178.641 281.53 171.711 281.53 171.711C281.53 171.711 281.86 183.921 284.53 186.901C287.2 189.881 289.82 191.901 290.15 197.131C290.48 202.361 291.47 207.691 288.83 211.991C286.19 216.291 275.29 224.531 270.34 226.181C269.58 226.441 268.84 226.661 268.14 226.871C268.53 227.011 268.91 227.141 269.26 227.241C275.46 229.011 290.5 215.291 291.39 211.751C292.28 208.211 292.71 177.241 290.94 171.051C289.17 164.861 279 160.891 272.34 160.891Z" fill="#92E3A9"/>
<path d="M263.15 224.641C260.74 222.211 254.15 215.481 251.15 212.011C250.283 211.023 249.507 209.958 248.83 208.831C248.83 209.121 248.83 209.381 248.83 209.561C248.89 215.111 256.61 221.151 263.15 224.641Z" fill="#92E3A9"/>
<g opacity="0.5">
<path opacity="0.5" d="M272.34 160.891C265.71 160.891 246.24 164.431 243.14 179.891C243.14 179.891 246.58 195.491 248.14 204.211C248.14 200.211 248.84 192.551 253.14 189.211C259.08 184.591 268.99 183.921 274.6 181.281C280.21 178.641 281.53 171.711 281.53 171.711C281.53 171.711 281.86 183.921 284.53 186.901C287.2 189.881 289.82 191.901 290.15 197.131C290.48 202.361 291.47 207.691 288.83 211.991C286.19 216.291 275.29 224.531 270.34 226.181C269.58 226.441 268.84 226.661 268.14 226.871C268.53 227.011 268.91 227.141 269.26 227.241C275.46 229.011 290.5 215.291 291.39 211.751C292.28 208.211 292.71 177.241 290.94 171.051C289.17 164.861 279 160.891 272.34 160.891Z" fill="white"/>
<path opacity="0.5" d="M263.15 224.641C260.74 222.211 254.15 215.481 251.15 212.011C250.283 211.023 249.507 209.958 248.83 208.831C248.83 209.121 248.83 209.381 248.83 209.561C248.89 215.111 256.61 221.151 263.15 224.641Z" fill="white"/>
</g>
<path d="M266.05 195.93C266.05 197.17 265.5 198.17 264.81 198.17C264.12 198.17 263.56 197.17 263.56 195.93C263.56 194.69 264.12 193.69 264.81 193.69C265.5 193.69 266.05 194.69 266.05 195.93Z" fill="#263238"/>
<path d="M280.62 195.93C280.62 197.17 280.06 198.17 279.37 198.17C278.68 198.17 278.12 197.17 278.12 195.93C278.12 194.69 278.68 193.69 279.37 193.69C280.06 193.69 280.62 194.69 280.62 195.93Z" fill="#263238"/>
<path d="M273.85 205.4C273.749 205.402 273.651 205.372 273.568 205.315C273.485 205.257 273.423 205.175 273.39 205.08C273.34 204.958 273.34 204.822 273.391 204.7C273.441 204.578 273.538 204.481 273.66 204.43C275.66 203.65 278.48 202.11 278.66 201.15C278.74 200.78 278.59 200.65 277.32 200.37C276.397 200.245 275.527 199.864 274.81 199.27C273.32 197.78 274.54 193.6 274.69 193.13C274.728 192.998 274.818 192.886 274.938 192.819C274.998 192.786 275.064 192.766 275.132 192.758C275.2 192.751 275.269 192.756 275.335 192.775C275.4 192.795 275.461 192.826 275.515 192.869C275.568 192.912 275.613 192.965 275.646 193.024C275.679 193.084 275.699 193.15 275.707 193.218C275.714 193.286 275.709 193.355 275.69 193.42C275.21 194.98 274.75 197.76 275.56 198.57C276.145 199.011 276.833 199.294 277.56 199.39C278.56 199.62 279.95 199.93 279.66 201.39C279.3 203.23 274.92 205.06 274.05 205.39C273.984 205.408 273.916 205.412 273.85 205.4Z" fill="#263238"/>
<path d="M269.42 212.06C268.393 212.12 267.368 211.915 266.444 211.465C265.519 211.015 264.726 210.335 264.14 209.49C264.103 209.436 264.077 209.375 264.064 209.31C264.05 209.246 264.05 209.18 264.063 209.115C264.077 209.051 264.102 208.99 264.14 208.936C264.177 208.881 264.224 208.835 264.28 208.8C264.39 208.727 264.524 208.702 264.653 208.728C264.783 208.754 264.896 208.83 264.97 208.94C267.37 212.55 272.97 210.43 272.97 210.41C273.093 210.361 273.231 210.363 273.353 210.415C273.475 210.468 273.571 210.566 273.62 210.69C273.669 210.813 273.667 210.951 273.614 211.073C273.562 211.195 273.463 211.291 273.34 211.34C272.082 211.794 270.757 212.037 269.42 212.06Z" fill="#263238"/>
<path d="M260.24 192.45C260.18 192.46 260.119 192.46 260.06 192.45C259.998 192.427 259.941 192.391 259.893 192.346C259.844 192.301 259.806 192.246 259.779 192.186C259.752 192.125 259.737 192.06 259.735 191.994C259.734 191.928 259.746 191.862 259.77 191.8C260.288 190.576 261.243 189.588 262.45 189.03C263.189 188.743 263.979 188.61 264.771 188.637C265.563 188.665 266.342 188.853 267.06 189.19C267.183 189.239 267.282 189.335 267.334 189.457C267.387 189.579 267.389 189.717 267.34 189.84C267.291 189.963 267.195 190.062 267.073 190.115C266.951 190.167 266.813 190.169 266.69 190.12C266.095 189.833 265.448 189.669 264.788 189.638C264.128 189.607 263.469 189.71 262.85 189.94C261.89 190.399 261.127 191.186 260.7 192.16C260.661 192.249 260.597 192.325 260.515 192.376C260.433 192.428 260.337 192.454 260.24 192.45Z" fill="#263238"/>
<path d="M281.61 190.81C281.534 190.809 281.458 190.792 281.389 190.759C281.32 190.726 281.259 190.679 281.21 190.62C280.21 189.37 279.3 188.76 278.4 188.8C277.965 188.874 277.551 189.039 277.184 189.283C276.817 189.528 276.505 189.847 276.27 190.22C276.198 190.331 276.086 190.41 275.957 190.44C275.829 190.47 275.693 190.448 275.58 190.38C275.523 190.347 275.474 190.302 275.434 190.248C275.395 190.195 275.367 190.134 275.353 190.07C275.338 190.005 275.336 189.938 275.347 189.873C275.359 189.808 275.384 189.746 275.42 189.69C275.738 189.18 276.164 188.746 276.669 188.42C277.174 188.093 277.744 187.881 278.34 187.8C279.62 187.73 280.83 188.48 282 190.01C282.081 190.115 282.116 190.248 282.1 190.379C282.083 190.51 282.015 190.629 281.91 190.71C281.824 190.776 281.718 190.811 281.61 190.81Z" fill="#263238"/>
<path d="M293.14 164.431C288.76 159.431 284.14 159.731 281.38 160.811C277.64 154.511 265.28 149.511 249.38 155.581C230.8 162.661 233.01 181.691 233.9 185.231C234.79 188.771 240.98 198.061 244.96 198.501C244.96 198.501 248.5 195.401 248.5 192.311C248.5 189.221 256.91 183.021 265.31 180.361C270.6 178.691 276.41 175.621 279.77 171.701C279.707 174.275 280.369 176.814 281.68 179.031C284.34 183.031 288.32 185.231 288.32 186.561C288.32 187.891 290.53 192.751 292.32 192.751C294.11 192.751 294.09 185.671 294.53 182.571C294.97 179.471 299.33 171.511 293.14 164.431Z" fill="#263238"/>
<path d="M244.91 199H244.85C240.5 198.51 234.26 188.91 233.36 185.35C233.31 185.13 228.42 163.02 249.16 155.12C264.47 149.28 277.16 153.35 281.59 160.2C283.85 159.44 288.79 158.7 293.51 164.1C298.68 170.01 296.72 176.5 295.51 180.39C295.265 181.127 295.068 181.878 294.92 182.64C294.81 183.39 294.73 184.4 294.64 185.46C294.26 190.17 293.88 193.25 292.21 193.25C290.01 193.25 287.73 187.97 287.73 186.56C287.73 186.14 286.73 185.2 285.73 184.3C284.017 182.826 282.492 181.147 281.19 179.3C279.987 177.38 279.299 175.183 279.19 172.92C276.01 176.15 270.94 179.06 265.33 180.83C256.85 183.51 248.87 189.56 248.87 192.3C248.87 195.58 245.31 198.73 245.16 198.87C245.091 198.937 245.004 198.982 244.91 199ZM263.25 153.35C258.544 153.407 253.887 154.322 249.51 156.05C229.58 163.65 234.28 184.89 234.33 185.11C235.21 188.63 241.09 197.25 244.75 197.97C245.43 197.33 247.95 194.77 247.95 192.31C247.95 188.84 256.61 182.57 265.11 179.88C271.06 178.01 276.38 174.82 279.34 171.37C279.408 171.293 279.498 171.238 279.598 171.213C279.698 171.188 279.803 171.194 279.9 171.23C279.995 171.267 280.076 171.331 280.133 171.415C280.19 171.499 280.22 171.599 280.22 171.7C280.157 174.178 280.791 176.625 282.05 178.76C283.309 180.535 284.784 182.147 286.44 183.56C287.84 184.85 288.77 185.7 288.77 186.56C288.77 187.85 290.93 192.25 292.25 192.25C293.13 192.25 293.52 187.44 293.69 185.38C293.77 184.3 293.86 183.28 293.97 182.5C294.123 181.687 294.33 180.886 294.59 180.1C295.77 176.18 297.59 170.25 292.76 164.76C288.32 159.69 283.84 160.4 281.56 161.28C281.449 161.322 281.326 161.323 281.214 161.282C281.102 161.242 281.009 161.163 280.95 161.06C278.6 157.12 272.21 153.35 263.25 153.35Z" fill="#263238"/>
<path d="M241.19 187.45H241.1C240.971 187.425 240.856 187.351 240.781 187.242C240.706 187.133 240.677 187 240.7 186.87C240.99 185.32 242.08 184 244.04 182.81C244.154 182.745 244.289 182.727 244.416 182.761C244.543 182.794 244.651 182.876 244.718 182.989C244.785 183.102 244.805 183.236 244.773 183.364C244.742 183.491 244.662 183.601 244.55 183.67C242.86 184.67 241.92 185.8 241.68 187.06C241.657 187.172 241.595 187.272 241.506 187.343C241.416 187.414 241.305 187.452 241.19 187.45Z" fill="white"/>
<path d="M247.52 182.2C247.418 182.199 247.319 182.169 247.236 182.112C247.152 182.055 247.087 181.974 247.049 181.88C247.004 181.757 247.009 181.62 247.063 181.5C247.117 181.381 247.217 181.287 247.339 181.24C250.81 180.009 254.358 179.007 257.959 178.24C260.639 177.62 263.18 177.02 265.29 176.35C273.21 173.83 277.65 166.93 277.7 166.87C277.733 166.813 277.778 166.764 277.832 166.724C277.885 166.685 277.946 166.658 278.01 166.643C278.075 166.628 278.142 166.626 278.207 166.637C278.272 166.649 278.334 166.674 278.39 166.71C278.501 166.782 278.579 166.895 278.607 167.024C278.635 167.153 278.611 167.289 278.54 167.4C275.384 172.015 270.826 175.49 265.54 177.31C263.4 177.99 260.84 178.59 258.14 179.22C254.584 179.96 251.08 180.928 247.649 182.12C247.61 182.152 247.566 182.179 247.52 182.2Z" fill="white"/>
<path d="M239.7 173.28C239.6 173.281 239.502 173.25 239.42 173.19C239.311 173.117 239.234 173.003 239.208 172.874C239.182 172.745 239.208 172.611 239.28 172.5C240.28 170.95 242.98 171.06 247.01 171.22C250.278 171.403 253.555 171.383 256.82 171.16C265.91 170.43 274.03 164.96 274.11 164.9C274.22 164.828 274.355 164.802 274.484 164.828C274.613 164.855 274.727 164.931 274.8 165.04C274.838 165.094 274.864 165.154 274.878 165.218C274.892 165.282 274.893 165.349 274.881 165.413C274.869 165.477 274.844 165.538 274.808 165.593C274.772 165.647 274.725 165.694 274.67 165.73C274.33 165.96 266.25 171.41 256.9 172.16C253.595 172.388 250.278 172.408 246.97 172.22C243.41 172.08 240.84 171.97 240.11 173.06C240.066 173.128 240.005 173.184 239.933 173.222C239.861 173.261 239.781 173.281 239.7 173.28Z" fill="white"/>
<path d="M293.42 178.5C293.355 178.498 293.29 178.482 293.23 178.455C293.171 178.427 293.117 178.388 293.072 178.34C293.028 178.291 292.993 178.235 292.971 178.173C292.948 178.111 292.938 178.046 292.94 177.98C292.985 176.744 292.895 175.507 292.67 174.29C292.656 174.226 292.654 174.159 292.666 174.094C292.678 174.029 292.703 173.967 292.739 173.912C292.776 173.857 292.823 173.81 292.878 173.773C292.933 173.737 292.995 173.712 293.06 173.7C293.125 173.687 293.192 173.687 293.257 173.7C293.322 173.713 293.384 173.739 293.439 173.777C293.494 173.814 293.541 173.862 293.577 173.917C293.613 173.973 293.638 174.035 293.65 174.1C293.887 175.393 293.984 176.707 293.94 178.02C293.938 178.086 293.922 178.15 293.895 178.21C293.867 178.27 293.828 178.323 293.78 178.368C293.731 178.413 293.675 178.447 293.613 178.47C293.551 178.493 293.486 178.503 293.42 178.5Z" fill="white"/>
<path d="M292.6 172.69C292.496 172.691 292.394 172.658 292.309 172.597C292.225 172.536 292.162 172.45 292.13 172.35C291.484 170.571 290.448 168.959 289.099 167.632C287.749 166.304 286.12 165.296 284.33 164.68C284.202 164.643 284.094 164.557 284.029 164.441C283.963 164.326 283.946 164.189 283.98 164.06C283.998 163.997 284.029 163.938 284.07 163.887C284.111 163.836 284.162 163.793 284.219 163.762C284.277 163.73 284.34 163.71 284.406 163.703C284.471 163.696 284.537 163.702 284.6 163.72C286.551 164.366 288.329 165.449 289.797 166.888C291.266 168.327 292.385 170.082 293.07 172.02C293.092 172.083 293.101 172.149 293.098 172.215C293.094 172.281 293.077 172.345 293.048 172.405C293.02 172.464 292.979 172.518 292.93 172.561C292.88 172.605 292.822 172.639 292.76 172.66C292.709 172.68 292.655 172.69 292.6 172.69Z" fill="white"/>
<path d="M260.44 218.08C259.139 218.131 257.844 217.863 256.67 217.3C252.86 215.3 246.09 206.3 245.81 205.88C245.73 205.774 245.696 205.641 245.715 205.509C245.734 205.378 245.804 205.26 245.91 205.18C246.016 205.101 246.149 205.066 246.281 205.085C246.412 205.104 246.53 205.174 246.61 205.28C246.68 205.37 253.52 214.51 257.14 216.42C260.76 218.33 267.55 215.67 267.62 215.64C267.682 215.616 267.747 215.605 267.814 215.607C267.88 215.609 267.945 215.624 268.005 215.65C268.065 215.677 268.12 215.716 268.165 215.764C268.211 215.812 268.246 215.868 268.27 215.93C268.294 215.992 268.305 216.058 268.303 216.124C268.301 216.19 268.287 216.255 268.26 216.315C268.233 216.376 268.194 216.43 268.146 216.475C268.098 216.521 268.042 216.556 267.98 216.58C265.561 217.474 263.017 217.98 260.44 218.08Z" fill="#263238"/>
<path d="M270.28 216.19C270.28 217.1 269.16 217.85 267.79 217.85C266.42 217.85 265.3 217.1 265.3 216.19C265.3 215.28 266.41 214.53 267.79 214.53C269.17 214.53 270.28 215.27 270.28 216.19Z" fill="#263238"/>
<path d="M242.31 192.92C242.31 192.92 234.1 171.66 242.31 158.98C242.31 158.98 229.62 172.03 240.82 195.91L242.31 192.92Z" fill="white"/>
<path d="M247.999 199.81C248.749 204.81 247.389 209.13 244.949 209.5C242.509 209.87 239.949 206.12 239.189 201.13C238.429 196.14 239.809 191.81 242.239 191.44C244.669 191.07 247.289 194.82 247.999 199.81Z" fill="white"/>
<path d="M244.65 210C242.04 210 239.49 206.27 238.73 201.19C238.34 198.922 238.46 196.596 239.08 194.38C239.71 192.38 240.82 191.13 242.2 190.93C244.94 190.52 247.73 194.37 248.53 199.71C248.915 201.978 248.796 204.304 248.18 206.52C247.54 208.52 246.44 209.77 245.06 209.97C244.924 209.99 244.787 210 244.65 210ZM242.65 191.9C242.56 191.89 242.47 191.89 242.38 191.9C241.38 192.04 240.58 193.05 240.07 194.66C239.498 196.731 239.392 198.903 239.76 201.02C240.45 205.64 242.82 209.29 244.95 208.96C245.95 208.82 246.76 207.81 247.27 206.2C247.837 204.128 247.943 201.957 247.58 199.84C246.87 195.44 244.66 191.92 242.61 191.92L242.65 191.9Z" fill="#263238"/>
<path d="M243.589 209.351C245.752 209.026 246.897 204.72 246.147 199.734C245.398 194.748 243.037 190.969 240.874 191.294C238.711 191.619 237.566 195.925 238.315 200.911C239.065 205.898 241.426 209.676 243.589 209.351Z" fill="white"/>
<path d="M243.31 209.88C242.17 209.88 241 209.01 239.99 207.4C238.844 205.434 238.103 203.258 237.81 201C237 195.65 238.32 191.18 240.81 190.81C243.3 190.44 245.81 194.33 246.66 199.67C247.04 201.915 246.972 204.212 246.46 206.43C245.92 208.43 244.93 209.67 243.67 209.86L243.31 209.88ZM241.11 191.78H240.94C239.32 192.02 238.04 195.78 238.8 200.78C239.067 202.892 239.746 204.931 240.8 206.78C241.68 208.17 242.64 208.9 243.47 208.78C244.3 208.66 245.02 207.67 245.47 206.08C245.95 203.997 246.011 201.838 245.65 199.73C244.92 195 242.72 191.78 241.11 191.78Z" fill="#263238"/>
<path d="M323.67 235.22L335.2 326.37L312.17 325.92L323.67 235.22Z" fill="#92E3A9"/>
<path d="M335.2 326.87L312.2 326.42C312.13 326.419 312.061 326.403 311.997 326.374C311.933 326.345 311.876 326.302 311.83 326.25C311.785 326.196 311.753 326.134 311.734 326.066C311.715 325.999 311.71 325.929 311.72 325.86L323.21 235.16C323.225 235.038 323.284 234.926 323.376 234.844C323.468 234.763 323.587 234.719 323.71 234.72C323.831 234.721 323.947 234.767 324.038 234.848C324.128 234.929 324.185 235.039 324.2 235.16L335.73 326.3C335.741 326.371 335.736 326.444 335.716 326.513C335.695 326.583 335.659 326.646 335.61 326.7C335.559 326.758 335.496 326.803 335.425 326.833C335.354 326.862 335.277 326.875 335.2 326.87ZM312.74 325.43L334.63 325.86L323.63 239.2L312.74 325.43Z" fill="#263238"/>
<path opacity="0.3" d="M329.95 284.93L317.96 292.13L318.16 278.66L312.17 325.92L335.2 326.37L333.31 311.48L323.26 311.81L332.18 302.54L332.11 301.93L319.85 306.13L330.94 292.7L329.95 284.93Z" fill="black"/>
<path d="M241.28 208.34C241.28 208.34 244.68 207.15 245.42 208.46C246.16 209.77 247.02 215.46 247 216.27C246.98 217.08 246.7 217.82 245.16 217.27C243.62 216.72 241.16 211.71 241.16 211.71L241.28 208.34Z" fill="white"/>
<path d="M246.07 218C245.7 217.99 245.335 217.915 244.99 217.78C243.35 217.17 241.15 212.84 240.73 211.97C240.715 211.894 240.715 211.816 240.73 211.74L240.83 208.38C240.832 208.279 240.865 208.181 240.924 208.098C240.983 208.016 241.065 207.954 241.16 207.92C241.8 207.7 245 206.67 245.9 208.27C246.69 209.66 247.58 215.5 247.55 216.34C247.564 216.61 247.516 216.879 247.408 217.128C247.3 217.376 247.137 217.595 246.93 217.77C246.675 217.935 246.374 218.015 246.07 218ZM241.68 211.64C242.61 213.51 244.37 216.48 245.33 216.84C246.02 217.09 246.26 216.98 246.33 216.94C246.4 216.9 246.51 216.65 246.52 216.31C246.52 215.62 245.69 209.99 245 208.76C244.67 208.16 243 208.39 241.79 208.76L241.68 211.64Z" fill="#263238"/>
<path d="M226.4 226.381C226.4 226.381 229.55 206.131 229.62 203.931C229.69 201.731 232.62 199.931 234.02 199.391C235.42 198.851 243.42 199.111 244.27 199.141C245.12 199.171 248.54 198.991 248.51 200.141C248.48 201.291 248.18 201.781 245.32 202.241C242.46 202.701 235.62 203.061 235.62 203.061L233.83 205.761L242.32 207.381C242.32 207.381 244.32 208.261 243.96 209.631C243.6 211.001 242.61 217.011 242.59 217.831C242.57 218.651 241.69 219.181 239.66 220.501C238.448 221.284 237.086 221.806 235.66 222.031C235.66 222.031 235.82 226.161 234.66 226.671L231.77 227.961L231.37 251.591L218.32 250.111L226.4 226.381Z" fill="white"/>
<path d="M231.359 252H231.299L218.299 250.52C218.225 250.511 218.153 250.486 218.089 250.446C218.025 250.406 217.97 250.353 217.929 250.29C217.897 250.223 217.881 250.149 217.881 250.075C217.881 250 217.897 249.927 217.929 249.86L226.009 226.22C226.169 225.22 229.149 205.97 229.209 203.88C229.279 201.36 232.489 199.39 233.939 198.88C235.389 198.37 241.699 198.52 244.369 198.6H244.819C246.479 198.6 248.149 198.65 248.819 199.33C248.915 199.425 248.989 199.54 249.039 199.665C249.089 199.79 249.113 199.925 249.109 200.06C249.109 201.64 248.289 202.19 245.499 202.65C242.919 203.07 237.279 203.39 235.999 203.46L234.769 205.32L242.519 206.8H242.629C242.719 206.8 244.969 207.87 244.549 209.62C244.199 211.09 243.209 217 243.189 217.73C243.189 218.73 242.259 219.36 240.299 220.63L240.039 220.8C238.881 221.539 237.596 222.058 236.249 222.33C236.249 223.69 236.149 226.47 234.949 227.01L232.359 228.17L231.959 251.48C231.957 251.55 231.941 251.618 231.912 251.682C231.883 251.746 231.841 251.803 231.789 251.85C231.735 251.907 231.667 251.95 231.593 251.976C231.518 252.003 231.438 252.011 231.359 252ZM218.999 249.64L230.869 251L231.259 227.92C231.263 227.826 231.293 227.734 231.346 227.656C231.399 227.579 231.473 227.517 231.559 227.48L234.439 226.19C234.939 225.96 235.209 223.81 235.139 222.02C235.133 221.893 235.176 221.77 235.257 221.673C235.339 221.577 235.454 221.515 235.579 221.5C236.937 221.29 238.236 220.796 239.389 220.05L239.659 219.88C241.369 218.76 242.069 218.29 242.089 217.79C242.089 216.87 243.179 210.79 243.479 209.48C243.679 208.64 242.479 207.96 242.169 207.83L233.739 206.22C233.658 206.204 233.582 206.168 233.517 206.116C233.453 206.063 233.402 205.996 233.369 205.92C233.333 205.847 233.313 205.766 233.313 205.685C233.313 205.603 233.333 205.523 233.369 205.45L235.149 202.75C235.196 202.686 235.255 202.632 235.325 202.594C235.394 202.556 235.471 202.534 235.549 202.53C235.609 202.53 242.389 202.18 245.189 201.72C247.989 201.26 247.939 200.83 247.959 200.09C247.869 199.94 247.329 199.66 244.739 199.66H244.199C240.199 199.54 235.129 199.53 234.139 199.88C232.789 200.36 230.139 202.1 230.069 203.97C229.999 206.17 226.979 225.65 226.849 226.48C226.849 226.48 226.849 226.54 226.849 226.56L218.999 249.64Z" fill="#263238"/>
<path d="M243.28 211.23H243.19L232.89 209.38C232.757 209.356 232.639 209.281 232.563 209.17C232.486 209.059 232.456 208.923 232.48 208.79C232.504 208.657 232.579 208.54 232.69 208.463C232.8 208.386 232.937 208.356 233.07 208.38L243.37 210.24C243.502 210.252 243.625 210.316 243.71 210.418C243.795 210.521 243.837 210.652 243.825 210.785C243.813 210.918 243.749 211.04 243.646 211.125C243.544 211.211 243.412 211.252 243.28 211.24V211.23Z" fill="#263238"/>
<path d="M242.11 215.85H242L233.52 213.79C233.388 213.76 233.272 213.678 233.2 213.563C233.128 213.447 233.105 213.308 233.135 213.175C233.166 213.043 233.248 212.928 233.363 212.856C233.478 212.783 233.618 212.76 233.75 212.79L242.24 214.85C242.304 214.864 242.365 214.891 242.418 214.929C242.471 214.968 242.516 215.016 242.55 215.073C242.584 215.129 242.606 215.191 242.614 215.256C242.623 215.321 242.618 215.387 242.6 215.45C242.579 215.564 242.518 215.667 242.428 215.74C242.339 215.813 242.226 215.852 242.11 215.85Z" fill="#263238"/>
<path d="M235.64 222.48C235.556 222.482 235.473 222.462 235.399 222.421C235.325 222.381 235.263 222.322 235.22 222.25C234.86 221.69 234.05 220.32 234.32 219.57C234.362 219.451 234.432 219.343 234.524 219.257C234.617 219.17 234.728 219.106 234.85 219.07C235.64 218.83 237.48 218.36 237.48 218.36L237.73 219.36C237.73 219.36 236.09 219.78 235.26 220.02C235.426 220.635 235.696 221.217 236.06 221.74C236.131 221.852 236.155 221.987 236.127 222.116C236.099 222.246 236.021 222.359 235.91 222.43C235.825 222.469 235.732 222.486 235.64 222.48Z" fill="#263238"/>
<path d="M219.49 237.87L233.59 243.19C233.59 243.19 223.77 304.83 221.41 309.67C219.05 314.51 213.53 320.13 206.41 320.81C199.29 321.49 194.14 313.81 193.93 305.74C193.72 297.67 219.49 237.87 219.49 237.87Z" fill="#92E3A9"/>
<path d="M205.5 321.35C203.04 321.326 200.677 320.388 198.87 318.72C195.63 315.84 193.53 310.88 193.4 305.72C193.18 297.67 217.98 240.08 219.03 237.63C219.083 237.513 219.179 237.42 219.298 237.372C219.417 237.323 219.55 237.323 219.67 237.37L233.77 242.68C233.878 242.718 233.969 242.793 234.028 242.892C234.086 242.991 234.108 243.107 234.09 243.22C233.69 245.74 224.23 305 221.85 309.84C219.31 315.04 213.55 320.59 206.42 321.27C206.12 321.34 205.81 321.35 205.5 321.35ZM219.76 238.51C217.42 243.97 194.2 298.26 194.4 305.73C194.52 310.58 196.49 315.27 199.54 317.97C200.442 318.817 201.514 319.464 202.684 319.867C203.855 320.27 205.097 320.421 206.33 320.31C213.07 319.67 218.53 314.39 220.96 309.45C223.17 304.94 232.18 248.85 233.04 243.51L219.76 238.51Z" fill="#263238"/>
<path opacity="0.3" d="M207.82 289.48C204.38 291.234 200.789 292.674 197.09 293.78C195.82 297.47 194.85 300.6 194.33 302.84L201 302C205.752 301.453 210.441 300.448 215 299C215 299 204 305.81 194.19 306.95H193.96C194.61 314.53 199.57 321.49 206.37 320.84C213.52 320.16 219.03 314.53 221.37 309.7C222.53 307.32 225.49 291.26 228.2 275.53C221.918 280.886 215.086 285.562 207.82 289.48Z" fill="black"/>
<path d="M358.73 132V129.26C358.73 128.873 358.576 128.502 358.302 128.228C358.029 127.954 357.657 127.8 357.27 127.8H355.16C354.839 126.42 354.292 125.102 353.54 123.9L355.03 122.4C355.303 122.125 355.456 121.753 355.456 121.365C355.456 120.978 355.303 120.606 355.03 120.33L353.1 118.4C352.825 118.127 352.453 117.974 352.065 117.974C351.677 117.974 351.305 118.127 351.03 118.4L349.53 119.89C348.329 119.138 347.011 118.591 345.63 118.27V116.16C345.63 115.773 345.476 115.402 345.202 115.128C344.929 114.854 344.557 114.7 344.17 114.7H341.43C341.043 114.7 340.672 114.854 340.398 115.128C340.124 115.402 339.97 115.773 339.97 116.16V118.27C338.59 118.591 337.272 119.138 336.07 119.89L334.57 118.4C334.295 118.127 333.923 117.974 333.535 117.974C333.147 117.974 332.775 118.127 332.5 118.4L330.57 120.33C330.297 120.606 330.144 120.978 330.144 121.365C330.144 121.753 330.297 122.125 330.57 122.4L332.06 123.9C331.307 125.1 330.763 126.419 330.45 127.8H328.33C327.943 127.8 327.572 127.954 327.298 128.228C327.024 128.502 326.87 128.873 326.87 129.26V132C326.87 132.387 327.024 132.759 327.298 133.033C327.572 133.306 327.943 133.46 328.33 133.46H330.45C330.763 134.842 331.307 136.16 332.06 137.36L330.57 138.86C330.297 139.136 330.144 139.508 330.144 139.895C330.144 140.283 330.297 140.655 330.57 140.93L332.5 142.86C332.775 143.133 333.147 143.286 333.535 143.286C333.923 143.286 334.295 143.133 334.57 142.86L336.07 141.37C337.278 142.133 338.607 142.684 340 143V145.12C340 145.507 340.154 145.879 340.428 146.153C340.702 146.426 341.073 146.58 341.46 146.58H344.2C344.587 146.58 344.959 146.426 345.232 146.153C345.506 145.879 345.66 145.507 345.66 145.12V143C347.042 142.687 348.36 142.143 349.56 141.39L351.06 142.88C351.335 143.153 351.707 143.306 352.095 143.306C352.483 143.306 352.855 143.153 353.13 142.88L355 141C355.273 140.725 355.426 140.353 355.426 139.965C355.426 139.578 355.273 139.205 355 138.93L353.51 137.43C354.262 136.229 354.809 134.911 355.13 133.53H357.24C357.44 133.535 357.639 133.498 357.825 133.422C358.01 133.346 358.178 133.233 358.318 133.089C358.458 132.946 358.566 132.775 358.637 132.588C358.708 132.4 358.74 132.2 358.73 132ZM343.44 136.86C342.153 136.998 340.854 136.732 339.723 136.101C338.593 135.47 337.686 134.504 337.128 133.335C336.569 132.167 336.387 130.854 336.605 129.578C336.824 128.302 337.433 127.125 338.349 126.209C339.265 125.293 340.442 124.684 341.718 124.466C342.994 124.247 344.307 124.429 345.475 124.988C346.643 125.546 347.61 126.453 348.241 127.584C348.872 128.714 349.138 130.013 349 131.3C348.853 132.728 348.221 134.061 347.209 135.078C346.197 136.096 344.867 136.735 343.44 136.89V136.86Z" fill="#263238"/>
<path d="M102.73 251.46V249.4C102.73 249.106 102.613 248.823 102.405 248.615C102.197 248.407 101.914 248.29 101.62 248.29H100C99.7592 247.249 99.3469 246.255 98.78 245.35L99.91 244.23C100.013 244.128 100.094 244.006 100.15 243.872C100.206 243.738 100.234 243.595 100.234 243.45C100.234 243.305 100.206 243.161 100.15 243.028C100.094 242.894 100.013 242.772 99.91 242.67L98.45 241.21C98.3477 241.107 98.2262 241.026 98.0923 240.97C97.9585 240.914 97.8149 240.886 97.67 240.886C97.525 240.886 97.3814 240.914 97.2476 240.97C97.1137 241.026 96.9922 241.107 96.89 241.21L95.76 242.33C94.8557 241.763 93.8615 241.354 92.82 241.12V239.52C92.82 239.228 92.7041 238.948 92.4978 238.742C92.2915 238.536 92.0117 238.42 91.72 238.42H89.69C89.3973 238.42 89.1165 238.535 88.9086 238.741C88.7007 238.947 88.5826 239.227 88.58 239.52V241.12C87.5384 241.354 86.5442 241.763 85.64 242.33L84.51 241.21C84.4077 241.107 84.2862 241.026 84.1523 240.97C84.0185 240.914 83.8749 240.886 83.73 240.886C83.585 240.886 83.4414 240.914 83.3076 240.97C83.1737 241.026 83.0522 241.107 82.95 241.21L81.5 242.67C81.3959 242.771 81.3133 242.893 81.2569 243.027C81.2004 243.161 81.1713 243.305 81.1713 243.45C81.1713 243.595 81.2004 243.739 81.2569 243.873C81.3133 244.007 81.3959 244.128 81.5 244.23L82.62 245.35C82.053 246.255 81.6407 247.249 81.4 248.29H79.81C79.5173 248.293 79.2375 248.411 79.0315 248.619C78.8255 248.826 78.7099 249.107 78.71 249.4V251.46C78.71 251.752 78.8259 252.031 79.0321 252.238C79.2384 252.444 79.5182 252.56 79.81 252.56H81.4C81.6371 253.602 82.0496 254.596 82.62 255.5L81.5 256.63C81.3959 256.731 81.3133 256.853 81.2569 256.987C81.2004 257.121 81.1713 257.265 81.1713 257.41C81.1713 257.555 81.2004 257.699 81.2569 257.833C81.3133 257.967 81.3959 258.088 81.5 258.19L83 259.65C83.1022 259.753 83.2237 259.834 83.3576 259.89C83.4914 259.946 83.635 259.974 83.78 259.974C83.9249 259.974 84.0685 259.946 84.2023 259.89C84.3362 259.834 84.4577 259.753 84.56 259.65L85.69 258.52C86.5938 259.09 87.5879 259.503 88.63 259.74V261.33C88.63 261.624 88.7469 261.907 88.9551 262.115C89.1632 262.323 89.4456 262.44 89.74 262.44H91.8C92.0926 262.437 92.3724 262.319 92.5784 262.111C92.7844 261.903 92.9 261.623 92.9 261.33V259.74C93.942 259.503 94.9362 259.09 95.84 258.52L96.97 259.65C97.0722 259.753 97.1937 259.834 97.3276 259.89C97.4614 259.946 97.605 259.974 97.75 259.974C97.8949 259.974 98.0385 259.946 98.1723 259.89C98.3062 259.834 98.4277 259.753 98.53 259.65L99.99 258.19C100.093 258.088 100.174 257.966 100.23 257.832C100.286 257.698 100.314 257.555 100.314 257.41C100.314 257.265 100.286 257.121 100.23 256.988C100.174 256.854 100.093 256.732 99.99 256.63L98.86 255.5C99.4303 254.596 99.8428 253.602 100.08 252.56H101.67C101.954 252.547 102.222 252.426 102.419 252.221C102.616 252.017 102.728 251.744 102.73 251.46ZM91.2 255.12C90.2302 255.22 89.2532 255.018 88.4032 254.54C87.5532 254.062 86.8719 253.333 86.4529 252.453C86.034 251.573 85.8979 250.584 86.0635 249.624C86.229 248.663 86.688 247.777 87.3774 247.087C88.0668 246.398 88.9528 245.939 89.9135 245.773C90.8743 245.608 91.8628 245.744 92.7432 246.163C93.6235 246.582 94.3525 247.263 94.83 248.113C95.3076 248.963 95.5101 249.94 95.41 250.91C95.2985 251.988 94.8192 252.996 94.0525 253.762C93.2858 254.529 92.2785 255.009 91.2 255.12Z" fill="#263238"/>
<path d="M409.32 224V221.94C409.32 221.646 409.203 221.364 408.995 221.156C408.787 220.947 408.504 220.83 408.21 220.83H406.62C406.383 219.788 405.97 218.794 405.4 217.89L406.53 216.77C406.633 216.668 406.714 216.547 406.77 216.413C406.826 216.279 406.854 216.135 406.854 215.99C406.854 215.845 406.826 215.702 406.77 215.568C406.714 215.434 406.633 215.313 406.53 215.21L405.07 213.75C404.968 213.648 404.846 213.566 404.712 213.51C404.578 213.455 404.435 213.426 404.29 213.426C404.145 213.426 404.001 213.455 403.867 213.51C403.734 213.566 403.612 213.648 403.51 213.75L402.38 214.87C401.474 214.304 400.48 213.892 399.44 213.65V212C399.44 211.856 399.411 211.713 399.356 211.579C399.301 211.446 399.22 211.325 399.118 211.223C399.016 211.12 398.894 211.039 398.761 210.984C398.627 210.929 398.484 210.9 398.34 210.9H396.27C395.978 210.9 395.698 211.016 395.492 211.223C395.286 211.429 395.17 211.709 395.17 212V213.59C394.129 213.832 393.136 214.244 392.23 214.81L391.1 213.69C390.998 213.588 390.876 213.506 390.742 213.45C390.608 213.395 390.465 213.366 390.32 213.366C390.175 213.366 390.031 213.395 389.897 213.45C389.764 213.506 389.642 213.588 389.54 213.69L388.09 215.15C387.986 215.252 387.903 215.373 387.847 215.507C387.79 215.641 387.761 215.785 387.761 215.93C387.761 216.076 387.79 216.22 387.847 216.354C387.903 216.488 387.986 216.609 388.09 216.71L389.21 217.83C388.639 218.734 388.227 219.728 387.99 220.77H386.4C386.107 220.773 385.827 220.891 385.621 221.099C385.415 221.307 385.3 221.588 385.3 221.88V224C385.3 224.292 385.416 224.572 385.622 224.778C385.828 224.985 386.108 225.1 386.4 225.1H388C388.237 226.142 388.649 227.137 389.22 228.04L388.1 229.17C387.996 229.272 387.913 229.393 387.857 229.527C387.8 229.661 387.771 229.805 387.771 229.95C387.771 230.096 387.8 230.24 387.857 230.374C387.913 230.508 387.996 230.629 388.1 230.73L389.55 232.19C389.652 232.293 389.774 232.375 389.907 232.43C390.041 232.486 390.185 232.515 390.33 232.515C390.475 232.515 390.618 232.486 390.752 232.43C390.886 232.375 391.008 232.293 391.11 232.19L392.24 231.06C393.144 231.631 394.138 232.043 395.18 232.28V233.87C395.18 234.163 395.295 234.444 395.501 234.652C395.707 234.86 395.987 234.978 396.28 234.98H398.35C398.642 234.978 398.922 234.86 399.128 234.652C399.334 234.444 399.45 234.163 399.45 233.87V232.28C400.492 232.043 401.486 231.631 402.39 231.06L403.52 232.19C403.622 232.293 403.744 232.375 403.877 232.43C404.011 232.486 404.155 232.515 404.3 232.515C404.445 232.515 404.588 232.486 404.722 232.43C404.856 232.375 404.978 232.293 405.08 232.19L406.54 230.73C406.643 230.628 406.724 230.507 406.78 230.373C406.836 230.239 406.864 230.095 406.864 229.95C406.864 229.805 406.836 229.662 406.78 229.528C406.724 229.394 406.643 229.273 406.54 229.17L405.4 228C405.97 227.097 406.383 226.102 406.62 225.06H408.21C408.496 225.061 408.771 224.951 408.978 224.753C409.184 224.556 409.307 224.286 409.32 224ZM397.79 227.66C396.82 227.761 395.843 227.558 394.993 227.08C394.143 226.603 393.462 225.874 393.043 224.994C392.624 224.113 392.488 223.125 392.653 222.164C392.819 221.203 393.278 220.317 393.967 219.628C394.657 218.938 395.543 218.479 396.503 218.314C397.464 218.148 398.453 218.284 399.333 218.703C400.213 219.122 400.942 219.804 401.42 220.654C401.897 221.504 402.1 222.481 402 223.45C401.884 224.525 401.403 225.528 400.637 226.291C399.87 227.053 398.865 227.53 397.79 227.64V227.66Z" fill="#263238"/>
<path d="M240.79 89.8001V88.7401C240.79 88.6657 240.775 88.5921 240.747 88.5235C240.718 88.4549 240.676 88.3927 240.623 88.3406C240.57 88.2884 240.507 88.2474 240.438 88.2198C240.369 88.1923 240.295 88.1788 240.22 88.1801H239.41C239.285 87.6456 239.072 87.1354 238.78 86.6701L239.36 86.1001C239.465 85.9935 239.524 85.8498 239.524 85.7001C239.524 85.5504 239.465 85.4068 239.36 85.3001L238.61 84.5501C238.505 84.4457 238.363 84.3871 238.215 84.3871C238.067 84.3871 237.925 84.4457 237.82 84.5501L237.24 85.1301C236.775 84.8386 236.265 84.6258 235.73 84.5001V83.6901C235.73 83.5407 235.672 83.3972 235.567 83.2906C235.462 83.1839 235.32 83.1227 235.17 83.1201H234.11C233.961 83.1227 233.818 83.1839 233.714 83.2906C233.609 83.3972 233.55 83.5407 233.55 83.6901V84.5001C233.015 84.6245 232.505 84.8375 232.04 85.1301L231.46 84.5501C231.354 84.4451 231.21 84.3862 231.06 84.3862C230.911 84.3862 230.767 84.4451 230.66 84.5501L229.92 85.3001C229.815 85.4068 229.756 85.5504 229.756 85.7001C229.756 85.8498 229.815 85.9935 229.92 86.1001L230.49 86.6701C230.202 87.1361 229.993 87.6462 229.87 88.1801H229.05C228.902 88.1801 228.759 88.2391 228.654 88.3441C228.549 88.4492 228.49 88.5916 228.49 88.7401V89.8001C228.49 89.9496 228.549 90.0931 228.654 90.1997C228.758 90.3063 228.901 90.3675 229.05 90.3701H229.87C229.991 90.9014 230.201 91.4085 230.49 91.8701L229.92 92.4501C229.815 92.5567 229.756 92.7004 229.756 92.8501C229.756 92.9998 229.815 93.1435 229.92 93.2501L230.66 94.0001C230.767 94.1052 230.911 94.164 231.06 94.164C231.21 94.164 231.354 94.1052 231.46 94.0001L232.04 93.4201C232.503 93.7138 233.014 93.9237 233.55 94.0401V94.8601C233.55 95.0086 233.609 95.1511 233.714 95.2561C233.819 95.3611 233.962 95.4201 234.11 95.4201H235.17C235.319 95.4201 235.461 95.3611 235.566 95.2561C235.671 95.1511 235.73 95.0086 235.73 94.8601V94.0001C236.265 93.8817 236.776 93.672 237.24 93.3801L237.82 93.9601C237.925 94.0645 238.067 94.1232 238.215 94.1232C238.363 94.1232 238.505 94.0645 238.61 93.9601L239.36 93.2101C239.465 93.1035 239.524 92.9598 239.524 92.8101C239.524 92.6604 239.465 92.5168 239.36 92.4101L238.78 91.8301C239.073 91.369 239.286 90.8619 239.41 90.3301H240.22C240.365 90.3305 240.504 90.2759 240.61 90.1776C240.716 90.0792 240.78 89.9443 240.79 89.8001ZM234.89 91.6801C234.392 91.7419 233.888 91.6474 233.446 91.4097C233.004 91.172 232.647 90.8029 232.424 90.3534C232.201 89.904 232.124 89.3964 232.202 88.9008C232.28 88.4053 232.511 87.9463 232.861 87.5875C233.212 87.2286 233.665 86.9876 234.159 86.8977C234.652 86.8078 235.162 86.8735 235.616 87.0858C236.071 87.298 236.448 87.6463 236.696 88.0824C236.944 88.5185 237.05 89.0209 237 89.5201C236.944 90.0654 236.704 90.5755 236.321 90.9676C235.938 91.3598 235.434 91.6108 234.89 91.6801Z" fill="#263238"/>
<path d="M112.15 159.82H105.35V166.62H112.15V159.82ZM106.73 161.2H110.73V165.25H106.73V161.2Z" fill="#263238"/>
<path d="M386.83 292.71H380V299.51H386.8L386.83 292.71ZM381.4 294.09H385.45V298.14H381.4V294.09Z" fill="#263238"/>
<path d="M284.81 97.9199H278V104.72H284.8L284.81 97.9199ZM279.38 99.2899H283.43V103.29H279.38V99.2899Z" fill="#263238"/>
<path d="M108.15 268.41H101.35V275.22H108.15V268.41ZM102.72 269.79H106.72V273.79H102.72V269.79Z" fill="#263238"/>
<path opacity="0.9" d="M306.7 145C305.89 144.998 305.099 145.236 304.425 145.684C303.751 146.133 303.225 146.771 302.914 147.518C302.603 148.265 302.52 149.088 302.677 149.882C302.834 150.676 303.222 151.406 303.794 151.979C304.366 152.552 305.094 152.942 305.888 153.101C306.682 153.259 307.505 153.179 308.252 152.87C309 152.56 309.64 152.036 310.09 151.363C310.539 150.691 310.78 149.899 310.78 149.09C310.78 148.007 310.35 146.968 309.585 146.201C308.82 145.435 307.783 145.003 306.7 145ZM306.7 151.54C306.215 151.54 305.741 151.396 305.338 151.127C304.936 150.858 304.622 150.475 304.436 150.028C304.251 149.58 304.202 149.087 304.297 148.612C304.391 148.137 304.625 147.7 304.967 147.358C305.31 147.015 305.746 146.782 306.222 146.687C306.697 146.593 307.19 146.641 307.637 146.827C308.085 147.012 308.467 147.326 308.737 147.729C309.006 148.132 309.15 148.605 309.15 149.09C309.139 149.733 308.876 150.346 308.418 150.797C307.96 151.247 307.343 151.5 306.7 151.5V151.54Z" fill="#263238"/>
<path d="M234 164.18L224.84 151.5C226.52 151.495 228.13 150.825 229.318 149.637C230.505 148.449 231.175 146.84 231.18 145.16V110.64C231.173 108.961 230.502 107.353 229.315 106.165C228.127 104.978 226.519 104.308 224.84 104.3H145.24C143.561 104.305 141.951 104.975 140.763 106.163C139.575 107.35 138.906 108.96 138.9 110.64V145.16C138.903 146.84 139.572 148.452 140.76 149.64C141.949 150.828 143.56 151.497 145.24 151.5H214.07L234 164.18Z" fill="#263238"/>
<path d="M165.351 126.489C165.351 125.722 165.123 124.972 164.697 124.334C164.271 123.696 163.665 123.198 162.956 122.905C162.247 122.611 161.467 122.534 160.714 122.684C159.961 122.834 159.27 123.203 158.727 123.746C158.185 124.288 157.815 124.98 157.665 125.732C157.516 126.485 157.593 127.265 157.886 127.974C158.18 128.683 158.677 129.289 159.315 129.715C159.953 130.142 160.703 130.369 161.471 130.369C161.98 130.369 162.485 130.269 162.956 130.074C163.426 129.879 163.854 129.593 164.214 129.233C164.575 128.873 164.86 128.445 165.055 127.974C165.25 127.503 165.351 126.999 165.351 126.489Z" fill="#92E3A9"/>
<path d="M188.24 126.489C188.24 125.722 188.013 124.971 187.586 124.333C187.159 123.694 186.553 123.197 185.843 122.904C185.133 122.61 184.353 122.534 183.6 122.685C182.847 122.835 182.156 123.206 181.613 123.749C181.071 124.293 180.702 124.985 180.554 125.739C180.405 126.492 180.483 127.272 180.779 127.981C181.074 128.69 181.573 129.295 182.212 129.72C182.852 130.145 183.603 130.371 184.37 130.369C184.88 130.369 185.384 130.269 185.854 130.074C186.324 129.879 186.751 129.593 187.111 129.232C187.47 128.872 187.755 128.444 187.949 127.973C188.143 127.503 188.242 126.998 188.24 126.489Z" fill="#92E3A9"/>
<path d="M211.141 126.489C211.141 125.722 210.913 124.972 210.487 124.334C210.061 123.696 209.455 123.198 208.746 122.905C208.037 122.611 207.257 122.534 206.504 122.684C205.751 122.834 205.06 123.203 204.517 123.746C203.975 124.288 203.605 124.98 203.455 125.732C203.306 126.485 203.383 127.265 203.676 127.974C203.97 128.683 204.467 129.289 205.105 129.715C205.743 130.142 206.493 130.369 207.261 130.369C207.77 130.369 208.275 130.269 208.746 130.074C209.216 129.879 209.644 129.593 210.004 129.233C210.365 128.873 210.651 128.445 210.846 127.974C211.04 127.503 211.141 126.999 211.141 126.489Z" fill="#92E3A9"/>
</svg>
