<svg xmlns="http://www.w3.org/2000/svg" version="1.1" xmlns:xlink="http://www.w3.org/1999/xlink" xmlns:svgjs="http://svgjs.com/svgjs" width="1440" height="560" preserveAspectRatio="none" viewBox="0 0 1440 560"><g mask="url(&quot;#SvgjsMask2187&quot;)" fill="none"><rect width="1440" height="560" x="0" y="0" fill="rgba(8, 124, 79, 1)"></rect><path d="M1288.852,313.894C1329.257,312.809,1368.312,295.42,1388.565,260.44C1408.859,225.39,1405.998,182.001,1385.415,147.12C1365.179,112.828,1328.664,92.18,1288.852,91.468C1247.707,90.732,1207.974,108.688,1186.117,143.556C1162.837,180.694,1156.774,228.524,1179.411,266.057C1201.449,302.597,1246.196,315.039,1288.852,313.894" fill="rgba(133, 213, 152, 0.23)" class="triangle-float2"></path><path d="M233.432,261.469C263.948,261.676,292.547,245.086,307.124,218.276C321.114,192.545,315.77,162.009,301.379,136.5C286.689,110.461,263.323,87.066,233.432,87.654C204.252,88.228,184.128,113.568,169.96,139.084C156.317,163.654,148.513,192.339,161.452,217.287C175.344,244.073,203.259,261.264,233.432,261.469" fill="rgba(133, 213, 152, 0.23)" class="triangle-float2"></path><path d="M1276.74 113.04 a94.74 94.74 0 1 0 189.48 0 a94.74 94.74 0 1 0 -189.48 0z" fill="rgba(133, 213, 152, 0.23)" class="triangle-float1"></path><path d="M1181.336,433.767C1236.328,433.76,1292.946,420.511,1323.519,374.801C1357.525,323.957,1366.213,256.598,1335.027,203.977C1304.334,152.189,1241.535,134.562,1181.336,134.896C1121.835,135.226,1060.917,154.484,1030.573,205.668C999.713,257.723,1005.721,324.353,1039.089,374.837C1069.42,420.727,1126.328,433.774,1181.336,433.767" fill="rgba(133, 213, 152, 0.23)" class="triangle-float2"></path><path d="M1044.74,467.012C1084.837,466.469,1120.879,444.296,1141.299,409.783C1162.124,374.585,1166.461,330.982,1146.266,295.419C1125.839,259.447,1086.099,238.922,1044.74,239.746C1004.759,240.542,970.202,264.826,949.986,299.329C929.52,334.259,923.624,377.216,943.541,412.462C963.747,448.221,1003.671,467.568,1044.74,467.012" fill="rgba(133, 213, 152, 0.23)" class="triangle-float3"></path><path d="M379.068,400.867C397.014,400.832,416.134,397.596,425.814,382.484C436.146,366.353,434.699,345.496,425.185,328.87C415.605,312.128,398.354,300.484,379.068,300.795C360.255,301.098,344.832,314.003,335.455,330.315C326.114,346.565,322.15,366.723,332.006,382.667C341.485,398.001,361.041,400.902,379.068,400.867" fill="rgba(133, 213, 152, 0.23)" class="triangle-float3"></path><path d="M531.01 58.35 a151.51 151.51 0 1 0 303.02 0 a151.51 151.51 0 1 0 -303.02 0z" fill="rgba(133, 213, 152, 0.23)" class="triangle-float2"></path><path d="M336.152,447.206C367.433,446.528,387.406,417.715,402.938,390.555C418.317,363.663,431.66,332.587,417.44,305.064C402.3,275.759,369.136,261.062,336.152,261.286C303.571,261.507,272.329,277.537,256.753,306.155C241.771,333.681,248.784,366.252,264.157,393.562C279.891,421.514,304.084,447.901,336.152,447.206" fill="rgba(133, 213, 152, 0.23)" class="triangle-float3"></path><path d="M1264.55,140.812C1300.501,142.732,1337.731,130.739,1356.766,100.18C1376.781,68.047,1376.803,25.757,1355.861,-5.78C1336.679,-34.668,1299.163,-40.8,1264.55,-38.696C1234.063,-36.843,1206.155,-22.042,1190.637,4.265C1174.855,31.019,1173.158,63.849,1187.945,91.166C1203.47,119.847,1231.983,139.073,1264.55,140.812" fill="rgba(133, 213, 152, 0.23)" class="triangle-float3"></path><path d="M527.856,512.565C578.635,512.495,623.146,483.4,650.395,440.552C680.11,393.826,695.789,336.649,671.318,286.976C644.138,231.803,589.294,188.931,527.856,191.811C469.825,194.531,431.684,247.336,405.94,299.415C383.541,344.727,379.633,397.015,404.729,440.891C430,485.073,476.957,512.635,527.856,512.565" fill="rgba(133, 213, 152, 0.23)" class="triangle-float1"></path><path d="M841.562,50.514C864.753,50.172,890.251,48.119,902.639,28.51C915.665,7.891,910.372,-18.322,898.51,-39.632C886.257,-61.645,866.733,-80.175,841.562,-81.218C814.716,-82.33,789.218,-67.999,775.806,-44.717C762.415,-21.472,762.044,8.282,777.286,30.357C790.96,50.161,817.499,50.869,841.562,50.514" fill="rgba(133, 213, 152, 0.23)" class="triangle-float2"></path></g><defs><mask id="SvgjsMask2187"><rect width="1440" height="560" fill="#ffffff"></rect></mask><style>
            @keyframes float1 {
                0%{transform: translate(0, 0)}
                50%{transform: translate(-10px, 0)}
                100%{transform: translate(0, 0)}
            }

            .triangle-float1 {
                animation: float1 5s infinite;
            }

            @keyframes float2 {
                0%{transform: translate(0, 0)}
                50%{transform: translate(-5px, -5px)}
                100%{transform: translate(0, 0)}
            }

            .triangle-float2 {
                animation: float2 4s infinite;
            }

            @keyframes float3 {
                0%{transform: translate(0, 0)}
                50%{transform: translate(0, -10px)}
                100%{transform: translate(0, 0)}
            }

            .triangle-float3 {
                animation: float3 6s infinite;
            }
        </style></defs></svg>