<!--?xml version="1.0" standalone="no"?-->
              <svg id="sw-js-blob-svg" viewBox="0 0 100 100" xmlns="http://www.w3.org/2000/svg" version="1.1">
                    <defs> 
                        <linearGradient id="sw-gradient" x1="0" x2="1" y1="1" y2="0">
                            <stop id="stop1" stop-color="rgba(83, 167, 103, 1)" offset="0%"></stop>
                            <stop id="stop2" stop-color="rgba(133, 213, 152, 1)" offset="100%"></stop>
                        </linearGradient>
                    </defs>
                <path fill="url(#sw-gradient)" d="M14.9,-20.4C17.9,-15.3,18,-9.2,21.4,-2C24.8,5.3,31.6,13.7,29.8,17.6C28.1,21.6,17.7,20.9,9.5,22.3C1.3,23.6,-4.9,27,-9,25.2C-13,23.5,-15,16.6,-18.8,10.6C-22.5,4.6,-28,-0.7,-29.3,-7.3C-30.7,-13.9,-27.9,-21.9,-22.3,-26.6C-16.8,-31.2,-8.4,-32.4,-1.2,-30.9C6,-29.5,11.9,-25.4,14.9,-20.4Z" width="100%" height="100%" transform="translate(50 50)" stroke-width="0" style="transition: all 0.3s ease 0s;"></path>
              </svg>