<svg width="380" height="380" viewBox="0 0 380 300" fill="none" xmlns="http://www.w3.org/2000/svg">
<path d="M331.542 160.49C322.878 149.599 321.776 135.137 320.69 121.806C319.694 109.441 314.503 95.153 305.52 86.0025C298.802 79.1625 289.704 75.6893 280.189 75.2713C265.818 74.6329 251.887 79.3601 237.888 81.7921C208.248 86.9373 206.728 57.3961 144.506 60.5121C82.2852 63.6281 68.9244 100.883 65.9604 126.298C62.9964 151.712 90.4172 162.299 77.8164 181.778C65.2156 201.257 51.8776 205.178 57.0684 229.992C62.2592 254.806 79.2984 269.117 117.108 270.052C154.918 270.987 176.388 235.305 198.634 233.671C220.879 232.037 232.712 270.417 283.852 263.721C307.169 260.681 329.399 247.358 339.659 225.653C345.663 212.961 346.75 198.217 343.459 184.613C341.911 178.049 339.289 171.785 335.7 166.076C334.408 164.146 333.021 162.281 331.542 160.49Z" fill="#92E3A9"/>
<path opacity="0.7" d="M331.542 160.49C322.878 149.599 321.776 135.137 320.69 121.806C319.694 109.441 314.503 95.153 305.52 86.0025C298.802 79.1625 289.704 75.6893 280.189 75.2713C265.818 74.6329 251.887 79.3601 237.888 81.7921C208.248 86.9373 206.728 57.3961 144.506 60.5121C82.2852 63.6281 68.9244 100.883 65.9604 126.298C62.9964 151.712 90.4172 162.299 77.8164 181.778C65.2156 201.257 51.8776 205.178 57.0684 229.992C62.2592 254.806 79.2984 269.117 117.108 270.052C154.918 270.987 176.388 235.305 198.634 233.671C220.879 232.037 232.712 270.417 283.852 263.721C307.169 260.681 329.399 247.358 339.659 225.653C345.663 212.961 346.75 198.217 343.459 184.613C341.911 178.049 339.289 171.785 335.7 166.076C334.408 164.146 333.021 162.281 331.542 160.49Z" fill="white"/>
<path d="M326.039 189.917C325.489 181.268 322.724 172.906 318.008 165.635C313.292 158.364 306.785 152.428 299.112 148.398C304.144 137.422 305.077 125.007 301.742 113.402C298.406 101.797 291.023 91.7715 280.931 85.1424C270.839 78.5133 258.706 75.7194 246.731 77.2673C234.756 78.8152 223.732 84.6023 215.657 93.5797C210.765 81.8105 201.604 72.3256 190.013 67.0264C178.421 61.7273 165.255 61.0056 153.153 65.006C141.052 69.0065 130.91 77.4334 124.761 88.5974C118.611 99.7613 116.909 112.837 119.996 125.203C118.476 125.059 116.872 124.975 115.284 124.975C107.417 124.975 99.6585 126.813 92.6274 130.341C85.5962 133.87 79.4865 138.992 74.7851 145.3C70.0838 151.607 66.9207 158.926 65.5482 166.672C64.1756 174.419 64.6314 182.378 66.8793 189.917H326.039Z" fill="#92E3A9" stroke="#263238" stroke-linecap="round" stroke-linejoin="round"/>
<path d="M66.8787 189.916H326.039C325.932 188.267 325.75 186.633 325.492 185.037H65.6855C66.0015 186.682 66.3998 188.311 66.8787 189.916Z" fill="#263238" stroke="#263238" stroke-width="0.75" stroke-linecap="round" stroke-linejoin="round"/>
<path d="M149.644 107.784L151.475 106.948L151.088 104.751L149.066 104.592C148.811 103.912 148.468 103.268 148.048 102.677L149.096 100.913L147.516 99.3326L145.737 100.389C144.718 99.6932 143.563 99.2217 142.348 99.0058L141.838 96.9766H139.604L139.087 99.0134C138.393 99.1465 137.717 99.3608 137.073 99.6518L135.477 98.2686L133.646 99.5606L134.406 101.537C133.917 102.042 133.486 102.6 133.121 103.201L131.024 102.988L130.264 105.086L132.004 106.271C131.922 106.774 131.882 107.282 131.882 107.791C131.882 108.004 131.882 108.209 131.882 108.422L130.051 109.441L130.628 111.599H132.703C133.006 112.247 133.389 112.855 133.843 113.408L132.946 115.27L134.656 116.706L136.321 115.521C136.954 115.854 137.625 116.11 138.32 116.281L138.646 118.279L140.873 118.477L141.55 116.585C142.28 116.517 143 116.361 143.693 116.121L145.099 117.542L147.029 116.425L146.497 114.502C147.07 114.029 147.581 113.485 148.017 112.883L149.986 113.241L150.928 111.219L149.408 109.942C149.575 109.235 149.654 108.51 149.644 107.784ZM146.338 107.784C146.339 108.889 146.013 109.97 145.4 110.889C144.787 111.809 143.915 112.526 142.895 112.95C141.874 113.374 140.751 113.486 139.666 113.271C138.582 113.056 137.586 112.525 136.804 111.744C136.022 110.963 135.49 109.968 135.273 108.884C135.057 107.8 135.168 106.677 135.59 105.655C136.013 104.634 136.729 103.761 137.647 103.147C138.566 102.533 139.646 102.205 140.752 102.205C142.226 102.203 143.641 102.785 144.688 103.823C145.734 104.861 146.328 106.272 146.338 107.746V107.784Z" fill="#263238"/>
<path d="M66.0195 166.73H106.543L113.079 173.266H321.919" stroke="#263238" stroke-linecap="round" stroke-linejoin="round"/>
<path d="M215.049 185.366V105.619H262.442V78.1602" stroke="#263238" stroke-linecap="round" stroke-linejoin="round"/>
<path d="M189.088 88.5478L190.212 88.0386L189.977 86.6934L188.738 86.5946C188.58 86.1813 188.374 85.7884 188.122 85.4242L188.753 84.345L187.788 83.3798L186.709 84.0258C186.083 83.6031 185.377 83.3158 184.634 83.1822L184.322 81.9434H182.954L182.635 83.1898C182.214 83.2716 181.803 83.4017 181.412 83.5774L180.431 82.7338L179.314 83.4938L179.778 84.7022C179.483 85.009 179.228 85.351 179.018 85.7206L177.733 85.5914L177.27 86.8758L178.334 87.6358C178.281 87.9343 178.256 88.237 178.258 88.5402C178.25 88.6667 178.25 88.7936 178.258 88.9202L177.133 89.551L177.49 90.8658H178.759C178.941 91.2641 179.173 91.6371 179.451 91.9754L178.904 93.1154L179.952 93.9894L180.963 93.2674C181.348 93.4891 181.759 93.6627 182.187 93.7842L182.4 95.0002L183.76 95.1142L184.17 93.959C184.616 93.9211 185.056 93.8266 185.478 93.6778L186.336 94.5442L187.522 93.8678L187.195 92.6898C187.54 92.3974 187.846 92.0629 188.107 91.6942L189.308 91.9146L189.886 90.6758L188.943 89.9158C189.048 89.4676 189.097 89.008 189.088 88.5478ZM187.066 88.5478C187.066 89.223 186.866 89.883 186.49 90.4444C186.115 91.0057 185.582 91.4431 184.958 91.7011C184.334 91.9592 183.647 92.0263 182.985 91.894C182.323 91.7617 181.715 91.436 181.238 90.958C180.761 90.48 180.437 89.8713 180.306 89.2088C180.175 88.5464 180.244 87.86 180.503 87.2366C180.763 86.6132 181.201 86.0808 181.763 85.7068C182.325 85.3327 182.986 85.1339 183.661 85.1354C184.562 85.1353 185.425 85.492 186.063 86.1272C186.701 86.7625 187.062 87.6246 187.066 88.525V88.5478Z" fill="#263238"/>
<path d="M206.392 103.962L207.517 103.453L207.281 102.107L206.043 102.009C205.887 101.593 205.677 101.199 205.42 100.838L206.058 99.759L205.093 98.8014L204.006 99.4474C203.385 99.0205 202.68 98.7303 201.939 98.5962L201.627 97.3574H200.259L199.94 98.6038C199.518 98.6883 199.108 98.8209 198.716 98.999L197.736 98.1554L196.619 98.9154L197.082 100.124C196.788 100.431 196.533 100.773 196.322 101.142L195.038 101.005L194.574 102.29L195.638 103.012C195.586 103.313 195.561 103.618 195.562 103.924C195.555 104.05 195.555 104.177 195.562 104.304L194.438 104.935L194.795 106.249H196.064C196.249 106.646 196.481 107.018 196.756 107.359L196.208 108.491L197.257 109.373L198.268 108.613C198.653 108.836 199.064 109.009 199.491 109.13L199.697 110.353L201.057 110.475L201.467 109.32C201.913 109.276 202.352 109.179 202.775 109.031L203.634 109.905L204.819 109.221L204.492 108.043C204.837 107.754 205.143 107.422 205.404 107.055L206.605 107.275L207.183 106.037L206.24 105.277C206.344 104.846 206.395 104.405 206.392 103.962ZM204.371 103.962C204.371 104.637 204.171 105.296 203.796 105.858C203.421 106.419 202.888 106.856 202.264 107.114C201.641 107.373 200.955 107.44 200.293 107.309C199.631 107.177 199.023 106.852 198.545 106.375C198.068 105.898 197.743 105.289 197.611 104.628C197.48 103.966 197.547 103.279 197.806 102.656C198.064 102.032 198.501 101.499 199.062 101.125C199.624 100.75 200.283 100.549 200.958 100.549C201.859 100.549 202.724 100.906 203.363 101.541C204.003 102.176 204.365 103.038 204.371 103.939V103.962Z" fill="#263238"/>
<path d="M90.5303 163.461C93.0571 163.461 95.1055 161.413 95.1055 158.886C95.1055 156.359 93.0571 154.311 90.5303 154.311C88.0035 154.311 85.9551 156.359 85.9551 158.886C85.9551 161.413 88.0035 163.461 90.5303 163.461Z" fill="#263238"/>
<path d="M90.5303 162.481C92.5157 162.481 94.1251 160.871 94.1251 158.886C94.1251 156.9 92.5157 155.291 90.5303 155.291C88.545 155.291 86.9355 156.9 86.9355 158.886C86.9355 160.871 88.545 162.481 90.5303 162.481Z" fill="#92E3A9" stroke="#263238" stroke-linecap="round" stroke-linejoin="round"/>
<path d="M172.885 147.996H136.283V165.97H172.885V147.996Z" fill="white" stroke="#263238" stroke-width="0.75" stroke-linecap="round" stroke-linejoin="round"/>
<path d="M159.813 110.74H123.211V185.258H159.813V110.74Z" fill="white" stroke="#263238" stroke-width="0.75" stroke-linecap="round" stroke-linejoin="round"/>
<path d="M254.599 178.388H169.699L178.196 128.494H246.102L254.599 178.388Z" fill="white" stroke="#263238" stroke-width="0.75" stroke-linecap="round" stroke-linejoin="round"/>
<path d="M189.231 131.002H180.734V137.211H189.231V131.002Z" fill="#263238"/>
<path d="M200.342 131.002H191.846V137.211H200.342V131.002Z" fill="#263238"/>
<path d="M239.886 131.002H218.971V137.211H239.886V131.002Z" fill="#263238"/>
<path d="M261.454 135.365H162.836V185.259H261.454V135.365Z" fill="white" stroke="#263238" stroke-width="0.75" stroke-linecap="round" stroke-linejoin="round"/>
<path d="M200.997 139.826H199.689V153.225H200.997V139.826Z" fill="#263238"/>
<path d="M205.571 139.826H204.264V153.225H205.571V139.826Z" fill="#263238"/>
<path d="M210.147 139.826H208.84V153.225H210.147V139.826Z" fill="#263238"/>
<path d="M246.749 139.826H245.441V153.225H246.749V139.826Z" fill="#263238"/>
<path d="M251.331 139.826H250.023V153.225H251.331V139.826Z" fill="#263238"/>
<path d="M255.907 139.826H254.6V153.225H255.907V139.826Z" fill="#263238"/>
<path d="M261.454 151.264H162.836V162.702H261.454V151.264Z" fill="white" stroke="#263238" stroke-width="0.75" stroke-linecap="round" stroke-linejoin="round"/>
<path d="M203.937 153.225H200.996V156.166H203.937V153.225Z" fill="#263238"/>
<path d="M210.314 153.225H207.373V156.166H210.314V153.225Z" fill="#263238"/>
<path d="M216.683 153.225H213.742V156.166H216.683V153.225Z" fill="#263238"/>
<path d="M203.937 157.967H200.996V160.908H203.937V157.967Z" fill="#263238"/>
<path d="M210.314 157.967H207.373V160.908H210.314V157.967Z" fill="#263238"/>
<path d="M216.683 157.967H213.742V160.908H216.683V157.967Z" fill="#263238"/>
<path d="M143.638 163.85H140.697V166.791H143.638V163.85Z" fill="#263238"/>
<path d="M150.008 163.85H147.066V166.791H150.008V163.85Z" fill="#263238"/>
<path d="M156.385 163.85H153.443V166.791H156.385V163.85Z" fill="#263238"/>
<path d="M245.935 157.967H242.994V160.908H245.935V157.967Z" fill="#263238"/>
<path d="M252.305 157.967H249.363V160.908H252.305V157.967Z" fill="#263238"/>
<path d="M258.681 157.967H255.74V160.908H258.681V157.967Z" fill="#263238"/>
<path d="M261.454 162.701H162.836V167.276H261.454V162.701Z" fill="#263238" stroke="#263238" stroke-width="0.75" stroke-linecap="round" stroke-linejoin="round"/>
<path d="M157.206 133.616C157.206 133.94 157.11 134.256 156.93 134.524C156.751 134.793 156.495 135.002 156.197 135.126C155.898 135.25 155.57 135.282 155.253 135.219C154.936 135.156 154.645 135 154.416 134.772C154.188 134.543 154.032 134.252 153.969 133.935C153.906 133.618 153.938 133.29 154.062 132.991C154.186 132.693 154.395 132.437 154.664 132.258C154.932 132.078 155.248 131.982 155.572 131.982C156.005 131.982 156.42 132.155 156.727 132.461C157.033 132.767 157.206 133.183 157.206 133.616Z" fill="#263238"/>
<path d="M145.334 115.376C145.334 115.699 145.239 116.015 145.059 116.284C144.879 116.553 144.624 116.762 144.326 116.886C144.027 117.009 143.699 117.042 143.382 116.979C143.065 116.916 142.774 116.76 142.545 116.532C142.316 116.303 142.161 116.012 142.098 115.695C142.035 115.378 142.067 115.049 142.191 114.751C142.314 114.452 142.524 114.197 142.793 114.018C143.061 113.838 143.377 113.742 143.7 113.742C144.134 113.742 144.549 113.914 144.856 114.221C145.162 114.527 145.334 114.943 145.334 115.376Z" fill="#263238"/>
<path d="M157.206 115.376C157.206 115.699 157.11 116.015 156.93 116.284C156.751 116.553 156.495 116.762 156.197 116.886C155.898 117.009 155.57 117.042 155.253 116.979C154.936 116.916 154.645 116.76 154.416 116.532C154.188 116.303 154.032 116.012 153.969 115.695C153.906 115.378 153.938 115.049 154.062 114.751C154.186 114.452 154.395 114.197 154.664 114.018C154.932 113.838 155.248 113.742 155.572 113.742C156.004 113.744 156.419 113.917 156.725 114.223C157.031 114.529 157.204 114.943 157.206 115.376Z" fill="#263238"/>
<path d="M157.206 142.767C157.206 143.09 157.11 143.406 156.93 143.675C156.751 143.943 156.495 144.153 156.197 144.276C155.898 144.4 155.57 144.432 155.253 144.369C154.936 144.306 154.645 144.151 154.416 143.922C154.188 143.694 154.032 143.403 153.969 143.086C153.906 142.769 153.938 142.44 154.062 142.142C154.186 141.843 154.395 141.588 154.664 141.408C154.932 141.229 155.248 141.133 155.572 141.133C156.005 141.133 156.42 141.305 156.727 141.611C157.033 141.918 157.206 142.333 157.206 142.767Z" fill="#263238"/>
<path d="M157.206 151.917C157.206 152.24 157.11 152.556 156.93 152.825C156.751 153.094 156.495 153.303 156.197 153.427C155.898 153.55 155.57 153.583 155.253 153.52C154.936 153.457 154.645 153.301 154.416 153.073C154.188 152.844 154.032 152.553 153.969 152.236C153.906 151.919 153.938 151.59 154.062 151.292C154.186 150.993 154.395 150.738 154.664 150.559C154.932 150.379 155.248 150.283 155.572 150.283C156.005 150.283 156.42 150.455 156.727 150.762C157.033 151.068 157.206 151.484 157.206 151.917Z" fill="#263238"/>
<path d="M175.507 142.767C175.507 141.865 175.239 140.984 174.738 140.234C174.237 139.484 173.525 138.899 172.692 138.554C171.859 138.209 170.942 138.119 170.057 138.295C169.173 138.471 168.36 138.905 167.722 139.543C167.085 140.18 166.65 140.993 166.474 141.877C166.298 142.762 166.389 143.679 166.734 144.512C167.079 145.345 167.663 146.057 168.413 146.559C169.163 147.06 170.045 147.327 170.947 147.327C172.156 147.327 173.316 146.847 174.171 145.991C175.026 145.136 175.507 143.976 175.507 142.767Z" fill="#263238"/>
<path d="M174.526 142.767C174.526 142.056 174.315 141.361 173.92 140.77C173.525 140.178 172.963 139.718 172.306 139.446C171.65 139.173 170.927 139.102 170.229 139.241C169.532 139.38 168.892 139.722 168.389 140.225C167.886 140.728 167.544 141.368 167.405 142.065C167.266 142.763 167.337 143.485 167.61 144.142C167.882 144.799 168.342 145.361 168.934 145.756C169.525 146.151 170.22 146.361 170.931 146.361C171.884 146.361 172.798 145.983 173.473 145.309C174.147 144.634 174.526 143.72 174.526 142.767Z" fill="white" stroke="#263238" stroke-width="0.75" stroke-linecap="round" stroke-linejoin="round"/>
<path d="M150.009 150.611C150.009 149.709 149.741 148.827 149.24 148.077C148.739 147.327 148.027 146.743 147.194 146.398C146.36 146.053 145.444 145.962 144.559 146.138C143.675 146.314 142.862 146.749 142.224 147.386C141.587 148.024 141.152 148.837 140.976 149.721C140.8 150.606 140.891 151.523 141.236 152.356C141.581 153.189 142.165 153.901 142.915 154.402C143.665 154.903 144.547 155.171 145.449 155.171C146.658 155.171 147.818 154.69 148.673 153.835C149.528 152.98 150.009 151.82 150.009 150.611Z" fill="#263238"/>
<path d="M149.027 150.61C149.027 149.899 148.817 149.204 148.422 148.613C148.027 148.022 147.465 147.561 146.808 147.289C146.151 147.017 145.429 146.946 144.731 147.085C144.034 147.223 143.394 147.566 142.891 148.069C142.388 148.571 142.046 149.212 141.907 149.909C141.768 150.606 141.839 151.329 142.112 151.986C142.384 152.643 142.844 153.204 143.436 153.599C144.027 153.994 144.722 154.205 145.433 154.205C146.386 154.205 147.3 153.826 147.975 153.152C148.649 152.478 149.027 151.564 149.027 150.61Z" fill="white" stroke="#263238" stroke-width="0.75" stroke-linecap="round" stroke-linejoin="round"/>
<path d="M158.838 160.74H132.033V183.616" stroke="#263238" stroke-width="0.75" stroke-linecap="round" stroke-linejoin="round"/>
<path d="M157.858 119.891H141.184L134.488 113.188H124.844" stroke="#263238" stroke-width="0.75" stroke-linecap="round" stroke-linejoin="round"/>
<path d="M214.395 140.807H220.604" stroke="#263238" stroke-width="0.75" stroke-linecap="round" stroke-linejoin="round"/>
<path d="M214.395 143.42H220.604" stroke="#263238" stroke-width="0.75" stroke-linecap="round" stroke-linejoin="round"/>
<path d="M214.395 146.035H220.604" stroke="#263238" stroke-width="0.75" stroke-linecap="round" stroke-linejoin="round"/>
<path d="M278.669 118.675C278.06 118.518 277.416 118.561 276.833 118.798C276.251 119.034 275.759 119.452 275.432 119.99C274.231 121.905 275.553 126.579 276.032 127.78C276.511 128.98 278.426 128.258 278.426 128.258L279.027 129.778L280.706 129.543V127.384C281.435 125.643 281.763 123.76 281.664 121.874C281.421 119.032 279.384 118.675 278.669 118.675Z" fill="white" stroke="#263238" stroke-width="0.75" stroke-linecap="round" stroke-linejoin="round"/>
<path d="M278.442 139.826L269.854 140.062L279.498 141.24L278.442 139.826Z" fill="white" stroke="#263238" stroke-width="0.75" stroke-linecap="round" stroke-linejoin="round"/>
<path d="M275.552 159.639C275.552 159.639 275.165 168.455 274.922 171.928C274.678 175.402 274.564 183.427 274.564 183.427H275.522L277.437 168.577L278.547 159.518L275.552 159.639Z" fill="white" stroke="#263238" stroke-width="0.75" stroke-linecap="round" stroke-linejoin="round"/>
<path d="M279.506 159.518L281.277 172.65L286.3 183.427H287.265L283.306 172.05L282.979 159.639L279.506 159.518Z" fill="white" stroke="#263238" stroke-width="0.75" stroke-linecap="round" stroke-linejoin="round"/>
<path d="M274.564 183.428L272.049 186.187L275.522 184.872V183.428H274.564Z" fill="white" stroke="#263238" stroke-width="0.75" stroke-linecap="round" stroke-linejoin="round"/>
<path d="M286.299 183.428L283.783 186.187L287.264 184.872V183.428H286.299Z" fill="white" stroke="#263238" stroke-width="0.75" stroke-linecap="round" stroke-linejoin="round"/>
<path d="M279.026 129.81C279.026 129.81 276.267 135.32 276.267 136.042C276.267 136.764 278.304 140.716 278.304 140.716L274.701 165.499H284.52L283.7 152.45C284.026 150.092 283.902 147.694 283.335 145.382C282.377 142.274 281.541 140.115 281.541 140.115L282.734 134.841L280.705 129.574L279.026 129.81Z" fill="#263238" stroke="#263238" stroke-width="0.75" stroke-linecap="round" stroke-linejoin="round"/>
<path d="M281.663 121.905C281.419 119.032 279.383 118.675 278.668 118.675C278.059 118.518 277.415 118.561 276.832 118.798C276.249 119.034 275.758 119.452 275.431 119.99C275.29 120.227 275.183 120.483 275.111 120.75C275.458 120.484 275.891 120.356 276.326 120.391C276.761 120.427 277.168 120.622 277.467 120.94C278.782 122.254 277.467 123.098 278.068 123.812C278.668 124.527 280.105 123.934 279.861 125.135C279.724 125.548 279.735 125.996 279.891 126.402C280.048 126.809 280.341 127.148 280.72 127.362C281.439 125.636 281.761 123.771 281.663 121.905Z" fill="#263238" stroke="#263238" stroke-width="0.75" stroke-linecap="round" stroke-linejoin="round"/>
<path d="M286.095 122.36C286.095 122.811 285.961 123.252 285.711 123.627C285.46 124.002 285.104 124.294 284.688 124.467C284.271 124.639 283.813 124.684 283.37 124.596C282.928 124.508 282.522 124.291 282.203 123.972C281.884 123.653 281.667 123.247 281.579 122.805C281.491 122.363 281.536 121.904 281.709 121.488C281.881 121.071 282.174 120.715 282.548 120.464C282.923 120.214 283.364 120.08 283.815 120.08C284.42 120.08 285 120.32 285.427 120.748C285.855 121.175 286.095 121.755 286.095 122.36Z" fill="#263238" stroke="#263238" stroke-width="0.75" stroke-linecap="round" stroke-linejoin="round"/>
<path d="M266.205 137.005L271.381 145.707L272.209 145.236L267.033 136.42L266.205 137.005Z" fill="white" stroke="#263238" stroke-width="0.75" stroke-linecap="round" stroke-linejoin="round"/>
<path d="M280.941 132.689C280.776 132.62 280.597 132.591 280.419 132.605C280.241 132.619 280.068 132.674 279.916 132.768C279.763 132.862 279.636 132.99 279.543 133.143C279.45 133.296 279.395 133.469 279.383 133.647C279.147 135.084 278.19 141.551 278.19 141.551H268.484L269.442 142.387L279.74 143.588L281.541 135.228C281.678 135.025 281.771 134.795 281.814 134.554C281.858 134.313 281.851 134.066 281.795 133.828C281.739 133.589 281.634 133.365 281.487 133.169C281.34 132.974 281.154 132.81 280.941 132.689Z" fill="white" stroke="#263238" stroke-width="0.75" stroke-linecap="round" stroke-linejoin="round"/>
<path d="M236.162 145.852H233.51V150.389H236.162V145.852Z" fill="white" stroke="#263238" stroke-width="0.75" stroke-linecap="round" stroke-linejoin="round"/>
<path d="M232.544 143.783H231.473V145.926H232.544V143.783Z" fill="white" stroke="#263238" stroke-width="0.75" stroke-linecap="round" stroke-linejoin="round"/>
<path d="M238.062 143.783H236.99V145.926H238.062V143.783Z" fill="white" stroke="#263238" stroke-width="0.75" stroke-linecap="round" stroke-linejoin="round"/>
<path d="M234.763 140.318H234.756C233.442 140.318 232.377 141.383 232.377 142.697V146.315C232.377 147.629 233.442 148.694 234.756 148.694H234.763C236.077 148.694 237.142 147.629 237.142 146.315V142.697C237.142 141.383 236.077 140.318 234.763 140.318Z" fill="#263238" stroke="#263238" stroke-width="0.75" stroke-linecap="round" stroke-linejoin="round"/>
<path d="M228 167.951L223.949 168.46L225.211 184.671H226.351L226.731 172.382L229.52 172.162L228 167.951Z" fill="white" stroke="#263238" stroke-width="0.75" stroke-linecap="round" stroke-linejoin="round"/>
<path d="M240.92 167.951L244.971 168.46L243.71 184.671H242.57L242.19 172.382L239.4 172.162L240.92 167.951Z" fill="white" stroke="#263238" stroke-width="0.75" stroke-linecap="round" stroke-linejoin="round"/>
<path d="M226.1 149.363H243.2L239.21 172.163H229.52L226.1 149.363Z" fill="#92E3A9" stroke="#263238" stroke-width="0.75" stroke-linecap="round" stroke-linejoin="round"/>
<path d="M226.099 149.363L221.448 157.723L219.738 154.493L218.689 154.782L220.878 161.333L226.859 155.542L226.099 149.363Z" fill="#92E3A9" stroke="#263238" stroke-width="0.75" stroke-linecap="round" stroke-linejoin="round"/>
<path d="M243.201 149.363L248.156 149.485L249.957 145.305L250.998 145.593L248.817 152.145L242.061 155.633L243.201 149.363Z" fill="#92E3A9" stroke="#263238" stroke-width="0.75" stroke-linecap="round" stroke-linejoin="round"/>
<path d="M219.739 154.493L220.4 154.022V152.973L220.195 152.927L219.868 153.338L219.07 151.932L218.09 152.692L218.69 154.782L219.739 154.493Z" fill="white" stroke="#263238" stroke-width="0.75" stroke-linecap="round" stroke-linejoin="round"/>
<path d="M249.956 145.303L249.287 144.832V143.783L249.492 143.745L249.819 144.148L250.617 142.742L251.605 143.502L250.997 145.592L249.956 145.303Z" fill="white" stroke="#263238" stroke-width="0.75" stroke-linecap="round" stroke-linejoin="round"/>
<path d="M235.44 173.021H233.381V181.511H235.44V173.021Z" fill="white" stroke="#263238" stroke-width="0.75" stroke-linecap="round" stroke-linejoin="round"/>
<path d="M246.004 185.561L235.934 183.471V176.691H232.894V183.471L222.824 185.561V186.822L233.654 185.143V186.959H235.174V185.15L246.004 186.83V185.561Z" fill="#263238" stroke="#263238" stroke-width="0.75" stroke-linecap="round" stroke-linejoin="round"/>
<path d="M240.806 173.523H227.985L226.48 154.021H242.311L240.806 173.523Z" fill="#263238" stroke="#263238" stroke-width="0.75" stroke-linecap="round" stroke-linejoin="round"/>
<path d="M237.37 148.32H232.18V149.331H237.37V148.32Z" fill="white" stroke="#263238" stroke-width="0.75" stroke-linecap="round" stroke-linejoin="round"/>
<path d="M182.832 145.852H180.18V150.389H182.832V145.852Z" fill="white" stroke="#263238" stroke-width="0.75" stroke-linecap="round" stroke-linejoin="round"/>
<path d="M179.214 143.783H178.143V145.926H179.214V143.783Z" fill="white" stroke="#263238" stroke-width="0.75" stroke-linecap="round" stroke-linejoin="round"/>
<path d="M184.732 143.783H183.66V145.926H184.732V143.783Z" fill="white" stroke="#263238" stroke-width="0.75" stroke-linecap="round" stroke-linejoin="round"/>
<path d="M181.426 148.694C180.795 148.694 180.19 148.443 179.744 147.997C179.298 147.551 179.047 146.946 179.047 146.315V142.705C179.047 142.073 179.297 141.467 179.743 141.02C180.189 140.573 180.794 140.32 181.426 140.318C182.058 140.32 182.664 140.572 183.111 141.02C183.558 141.467 183.81 142.072 183.812 142.705V146.315C183.81 146.946 183.558 147.551 183.11 147.997C182.663 148.443 182.057 148.694 181.426 148.694Z" fill="#263238" stroke="#263238" stroke-width="0.75" stroke-linecap="round" stroke-linejoin="round"/>
<path d="M174.67 167.951L170.619 168.46L171.888 184.671H173.028L173.408 172.382L176.19 172.162L174.67 167.951Z" fill="white" stroke="#263238" stroke-width="0.75" stroke-linecap="round" stroke-linejoin="round"/>
<path d="M187.59 167.951L191.649 168.46L190.38 184.671H189.24L188.86 172.382L186.07 172.162L187.59 167.951Z" fill="white" stroke="#263238" stroke-width="0.75" stroke-linecap="round" stroke-linejoin="round"/>
<path d="M172.77 149.363H189.87L185.88 172.163H176.19L172.77 149.363Z" fill="#92E3A9" stroke="#263238" stroke-width="0.75" stroke-linecap="round" stroke-linejoin="round"/>
<path d="M172.769 149.363L168.118 157.723L166.408 154.493L165.359 154.782L167.548 161.333L173.529 155.542L172.769 149.363Z" fill="#92E3A9" stroke="#263238" stroke-width="0.75" stroke-linecap="round" stroke-linejoin="round"/>
<path d="M189.87 149.363L194.529 157.723L196.239 154.493L197.28 154.782L195.099 161.333L188.73 155.633L189.87 149.363Z" fill="#92E3A9" stroke="#263238" stroke-width="0.75" stroke-linecap="round" stroke-linejoin="round"/>
<path d="M166.409 154.493L167.07 154.022V152.973L166.865 152.927L166.546 153.338L165.74 151.932L164.76 152.692L165.36 154.782L166.409 154.493Z" fill="white" stroke="#263238" stroke-width="0.75" stroke-linecap="round" stroke-linejoin="round"/>
<path d="M196.239 154.493L195.57 154.022V152.973L195.776 152.927L196.102 153.338L196.9 151.932L197.881 152.692L197.28 154.782L196.239 154.493Z" fill="white" stroke="#263238" stroke-width="0.75" stroke-linecap="round" stroke-linejoin="round"/>
<path d="M182.118 173.021H180.059V181.511H182.118V173.021Z" fill="white" stroke="#263238" stroke-width="0.75" stroke-linecap="round" stroke-linejoin="round"/>
<path d="M192.674 185.561L182.604 183.471V176.691H179.564V183.471L169.479 185.561V186.822L180.309 185.143V186.959H181.829V185.15L192.659 186.83L192.674 185.561Z" fill="#263238" stroke="#263238" stroke-width="0.75" stroke-linecap="round" stroke-linejoin="round"/>
<path d="M187.484 173.523H174.655L173.15 154.021H188.989L187.484 173.523Z" fill="#263238" stroke="#263238" stroke-width="0.75" stroke-linecap="round" stroke-linejoin="round"/>
<path d="M184.04 148.32H178.85V149.331H184.04V148.32Z" fill="white" stroke="#263238" stroke-width="0.75" stroke-linecap="round" stroke-linejoin="round"/>
<path d="M127.969 123.118V119.235C127.966 118.681 128.145 118.143 128.479 117.702C128.812 117.261 129.282 116.942 129.816 116.795C130.284 116.676 130.762 116.602 131.244 116.575C131.969 116.516 132.692 116.712 133.288 117.128C133.884 117.544 134.317 118.154 134.512 118.855C134.892 119.858 134.512 125.269 134.512 125.269C134.309 125.528 134.021 125.707 133.699 125.777C133.377 125.846 133.041 125.801 132.749 125.649V126.918H128.098L127.969 123.118Z" fill="white" stroke="#263238" stroke-width="0.75" stroke-linecap="round" stroke-linejoin="round"/>
<path d="M134.52 118.833C134.324 118.133 133.89 117.523 133.294 117.108C132.698 116.692 131.977 116.496 131.252 116.553C130.77 116.58 130.292 116.654 129.823 116.773C129.29 116.92 128.82 117.239 128.486 117.68C128.153 118.121 127.973 118.66 127.977 119.213V123.119L128.03 124.745C128.504 125.049 129.048 125.225 129.611 125.255C130.236 125.335 130.871 125.262 131.463 125.044C132.054 124.826 132.584 124.468 133.008 124.001L132.005 123.37L131.503 121.09L132.635 120.839L133.008 122.473H133.639L133.517 120.588H134.277L134.52 118.833Z" fill="#263238" stroke="#263238" stroke-width="0.75" stroke-linecap="round" stroke-linejoin="round"/>
<path d="M133.752 126.631H126.707V128.394H133.752V126.631Z" fill="white" stroke="#263238" stroke-width="0.75" stroke-linecap="round" stroke-linejoin="round"/>
<path d="M120.673 139.717L124.321 134.686L126.206 144.756H135.896L137.279 135.446L143.321 137.202L147.98 125.376L146.718 124.996L142.318 132.672L137.408 128.013H123.69L117.777 138.965L123.059 148.655L124.192 148.275L120.673 139.717Z" fill="#92E3A9" stroke="#263238" stroke-width="0.75" stroke-linecap="round" stroke-linejoin="round"/>
<path d="M126.206 144.756L125.826 149.787L122.178 184.648H123.569L130.865 152.561H131.746L139.795 184.147H141.436L136.397 148.784L135.896 144.756H126.206Z" fill="#263238" stroke="#263238" stroke-width="0.75" stroke-linecap="round" stroke-linejoin="round"/>
<path d="M146.719 124.997L148.482 120.217L149.113 120.338L148.862 121.6L150.367 122.352L149.744 124.617H148.984L147.98 125.377L146.719 124.997Z" fill="white" stroke="#263238" stroke-width="0.75" stroke-linecap="round" stroke-linejoin="round"/>
<path d="M124.191 148.275L125.453 151.065L124.32 151.688L123.059 148.655L124.191 148.275Z" fill="white" stroke="#263238" stroke-width="0.75" stroke-linecap="round" stroke-linejoin="round"/>
<path d="M141.437 184.146L144.355 186.183H139.917L139.795 184.146H141.437Z" fill="white" stroke="#263238" stroke-width="0.75" stroke-linecap="round" stroke-linejoin="round"/>
<path d="M122.11 184.146L119.199 186.183H123.63L123.752 184.146H122.11Z" fill="white" stroke="#263238" stroke-width="0.75" stroke-linecap="round" stroke-linejoin="round"/>
<path d="M213.264 229.521H264.944V275.881H213.264C212.938 275.881 212.625 275.752 212.394 275.521C212.163 275.29 212.033 274.977 212.033 274.65V230.722C212.041 230.401 212.174 230.096 212.404 229.871C212.634 229.647 212.943 229.521 213.264 229.521Z" fill="white" stroke="#263238" stroke-linecap="round" stroke-linejoin="round"/>
<path d="M266.723 229.506H213.424V275.904H266.723V229.506Z" fill="#263238" stroke="#263238" stroke-linecap="round" stroke-linejoin="round"/>
<path d="M263.811 233.184H217.527V272.232H263.811V233.184Z" fill="white" stroke="#263238" stroke-linecap="round" stroke-linejoin="round"/>
<path d="M221.046 269.262H234.285V236.156H221.046V269.262Z" fill="white" stroke="#263238" stroke-linecap="round" stroke-linejoin="round"/>
<path d="M221.046 269.27H260.285V238.74H221.046V269.27Z" fill="white" stroke="#263238" stroke-linecap="round" stroke-linejoin="round"/>
<path d="M223.09 267.68H258.248V240.327H223.09V267.68Z" fill="#92E3A9" stroke="#263238" stroke-linecap="round" stroke-linejoin="round"/>
<path d="M224.627 249.25H231.178" stroke="#263238" stroke-linecap="round" stroke-linejoin="round"/>
<path d="M224.627 251.242H231.178" stroke="#263238" stroke-linecap="round" stroke-linejoin="round"/>
<path d="M224.627 253.225H231.178" stroke="#263238" stroke-linecap="round" stroke-linejoin="round"/>
<path d="M224.627 256.6H253.408" stroke="#263238" stroke-linecap="round" stroke-linejoin="round"/>
<path d="M224.627 259.176H253.408" stroke="#263238" stroke-linecap="round" stroke-linejoin="round"/>
<path d="M224.627 261.76H253.408" stroke="#263238" stroke-linecap="round" stroke-linejoin="round"/>
<path d="M213.424 275.912L244.477 286.195H298.947L266.723 275.912H213.424Z" fill="white" stroke="#263238" stroke-linecap="round" stroke-linejoin="round"/>
<path d="M252.207 279.871L247.716 278.435L245.512 278.412L249.988 279.856L252.207 279.871Z" fill="white" stroke="#263238" stroke-width="0.25" stroke-linecap="round" stroke-linejoin="round"/>
<path d="M256.592 279.909L252.085 278.48L249.904 278.457L254.411 279.886L256.592 279.909Z" fill="white" stroke="#263238" stroke-width="0.25" stroke-linecap="round" stroke-linejoin="round"/>
<path d="M271.982 281.428L274.088 281.436L269.398 280L267.301 279.984L271.982 281.428Z" fill="white" stroke="#263238" stroke-width="0.25" stroke-linecap="round" stroke-linejoin="round"/>
<path d="M249.989 279.856L245.512 278.412L243.293 278.396L247.754 279.84L249.989 279.856Z" fill="white" stroke="#263238" stroke-width="0.25" stroke-linecap="round" stroke-linejoin="round"/>
<path d="M245.504 279.826L241.05 278.374L238.801 278.352L243.239 279.811L245.504 279.826Z" fill="white" stroke="#263238" stroke-width="0.25" stroke-linecap="round" stroke-linejoin="round"/>
<path d="M265.188 279.97L260.636 278.556L258.516 278.541L263.06 279.955L265.188 279.97Z" fill="white" stroke="#263238" stroke-width="0.25" stroke-linecap="round" stroke-linejoin="round"/>
<path d="M267.3 279.985L262.732 278.579L260.635 278.557L265.187 279.97L267.3 279.985Z" fill="white" stroke="#263238" stroke-width="0.25" stroke-linecap="round" stroke-linejoin="round"/>
<path d="M243.238 279.81L238.8 278.351L236.527 278.328L240.958 279.787L243.238 279.81Z" fill="white" stroke="#263238" stroke-width="0.25" stroke-linecap="round" stroke-linejoin="round"/>
<path d="M258.766 279.924L254.244 278.496L252.086 278.48L256.593 279.909L258.766 279.924Z" fill="white" stroke="#263238" stroke-width="0.25" stroke-linecap="round" stroke-linejoin="round"/>
<path d="M269.398 279.999L264.815 278.601L262.732 278.578L267.3 279.984L269.398 279.999Z" fill="white" stroke="#263238" stroke-width="0.25" stroke-linecap="round" stroke-linejoin="round"/>
<path d="M263.06 279.954L258.515 278.54L256.387 278.518L260.924 279.939L263.06 279.954Z" fill="white" stroke="#263238" stroke-width="0.25" stroke-linecap="round" stroke-linejoin="round"/>
<path d="M260.925 279.94L256.387 278.519L254.244 278.496L258.766 279.925L260.925 279.94Z" fill="white" stroke="#263238" stroke-width="0.25" stroke-linecap="round" stroke-linejoin="round"/>
<path d="M254.41 279.885L249.904 278.456L247.715 278.434L252.206 279.87L254.41 279.885Z" fill="white" stroke="#263238" stroke-width="0.25" stroke-linecap="round" stroke-linejoin="round"/>
<path d="M238.656 279.773L236.338 279.758L240.86 281.27L243.185 281.285L238.656 279.773Z" fill="white" stroke="#263238" stroke-width="0.25" stroke-linecap="round" stroke-linejoin="round"/>
<path d="M234.241 278.306L231.945 278.283L236.338 279.758L238.656 279.773L234.241 278.306Z" fill="white" stroke="#263238" stroke-width="0.25" stroke-linecap="round" stroke-linejoin="round"/>
<path d="M240.959 279.787L236.528 278.327L234.24 278.305L238.656 279.771L240.959 279.787Z" fill="white" stroke="#263238" stroke-width="0.25" stroke-linecap="round" stroke-linejoin="round"/>
<path d="M245.488 282.82L250.253 284.416H252.609L247.837 282.828L245.488 282.82Z" fill="white" stroke="#263238" stroke-width="0.25" stroke-linecap="round" stroke-linejoin="round"/>
<path d="M243.185 281.285L240.859 281.27L245.488 282.82L247.836 282.828L243.185 281.285Z" fill="white" stroke="#263238" stroke-width="0.25" stroke-linecap="round" stroke-linejoin="round"/>
<path d="M247.836 282.828L252.609 284.417H254.95L250.162 282.836L247.836 282.828Z" fill="white" stroke="#263238" stroke-width="0.25" stroke-linecap="round" stroke-linejoin="round"/>
<path d="M247.754 279.84L243.293 278.396L241.051 278.373L245.504 279.825L247.754 279.84Z" fill="white" stroke="#263238" stroke-width="0.25" stroke-linecap="round" stroke-linejoin="round"/>
<path d="M252.336 281.331L247.753 279.841L245.504 279.826L250.072 281.316L252.336 281.331Z" fill="white" stroke="#263238" stroke-width="0.25" stroke-linecap="round" stroke-linejoin="round"/>
<path d="M250.071 281.315L245.503 279.826L243.238 279.811L247.791 281.308L250.071 281.315Z" fill="white" stroke="#263238" stroke-width="0.25" stroke-linecap="round" stroke-linejoin="round"/>
<path d="M254.586 281.337L249.988 279.855L247.754 279.84L252.337 281.329L254.586 281.337Z" fill="white" stroke="#263238" stroke-width="0.25" stroke-linecap="round" stroke-linejoin="round"/>
<path d="M240.959 279.787L238.656 279.771L243.186 281.284L245.496 281.291L240.959 279.787Z" fill="white" stroke="#263238" stroke-width="0.25" stroke-linecap="round" stroke-linejoin="round"/>
<path d="M276.786 282.904L278.898 282.912L274.088 281.437L271.982 281.43L276.786 282.904Z" fill="white" stroke="#263238" stroke-width="0.25" stroke-linecap="round" stroke-linejoin="round"/>
<path d="M247.791 281.307L243.239 279.81L240.959 279.787L245.496 281.292L247.791 281.307Z" fill="white" stroke="#263238" stroke-width="0.25" stroke-linecap="round" stroke-linejoin="round"/>
<path d="M243.186 281.285L247.837 282.828L250.162 282.836L245.496 281.293L243.186 281.285Z" fill="white" stroke="#263238" stroke-width="0.25" stroke-linecap="round" stroke-linejoin="round"/>
<path d="M267.726 281.406L263.059 279.955L260.924 279.939L265.575 281.391L267.726 281.406Z" fill="white" stroke="#263238" stroke-width="0.25" stroke-linecap="round" stroke-linejoin="round"/>
<path d="M265.575 281.391L260.924 279.939L258.766 279.924L263.402 281.383L265.575 281.391Z" fill="white" stroke="#263238" stroke-width="0.25" stroke-linecap="round" stroke-linejoin="round"/>
<path d="M271.982 281.428L267.3 279.984L265.188 279.969L269.861 281.413L271.982 281.428Z" fill="white" stroke="#263238" stroke-width="0.25" stroke-linecap="round" stroke-linejoin="round"/>
<path d="M259.024 281.361L254.411 279.886L252.207 279.871L256.813 281.345L259.024 281.361Z" fill="white" stroke="#263238" stroke-width="0.25" stroke-linecap="round" stroke-linejoin="round"/>
<path d="M263.401 281.383L258.765 279.923L256.592 279.908L261.22 281.367L263.401 281.383Z" fill="white" stroke="#263238" stroke-width="0.25" stroke-linecap="round" stroke-linejoin="round"/>
<path d="M261.22 281.369L256.591 279.91L254.41 279.887L259.023 281.361L261.22 281.369Z" fill="white" stroke="#263238" stroke-width="0.25" stroke-linecap="round" stroke-linejoin="round"/>
<path d="M256.813 281.345L252.207 279.871L249.988 279.855L254.586 281.337L256.813 281.345Z" fill="white" stroke="#263238" stroke-width="0.25" stroke-linecap="round" stroke-linejoin="round"/>
<path d="M263.402 281.383L268.168 282.88L270.341 282.888L265.576 281.39L263.402 281.383Z" fill="white" stroke="#263238" stroke-width="0.25" stroke-linecap="round" stroke-linejoin="round"/>
<path d="M265.576 281.391L270.341 282.888L272.507 282.895L267.727 281.406L265.576 281.391Z" fill="white" stroke="#263238" stroke-width="0.25" stroke-linecap="round" stroke-linejoin="round"/>
<path d="M245.496 281.293L250.163 282.836L252.473 282.843L247.791 281.308L245.496 281.293Z" fill="white" stroke="#263238" stroke-width="0.25" stroke-linecap="round" stroke-linejoin="round"/>
<path d="M267.727 281.406L272.507 282.896H274.65L269.862 281.414L267.727 281.406Z" fill="white" stroke="#263238" stroke-width="0.25" stroke-linecap="round" stroke-linejoin="round"/>
<path d="M259.023 281.361L263.766 282.866L265.97 282.874L261.22 281.369L259.023 281.361Z" fill="white" stroke="#263238" stroke-width="0.25" stroke-linecap="round" stroke-linejoin="round"/>
<path d="M269.861 281.414L274.649 282.896L276.785 282.904L271.982 281.429L269.861 281.414Z" fill="white" stroke="#263238" stroke-width="0.25" stroke-linecap="round" stroke-linejoin="round"/>
<path d="M261.221 281.367L265.971 282.872L268.167 282.88L263.402 281.382L261.221 281.367Z" fill="white" stroke="#263238" stroke-width="0.25" stroke-linecap="round" stroke-linejoin="round"/>
<path d="M250.07 281.314L254.759 282.85H257.039L252.335 281.33L250.07 281.314Z" fill="white" stroke="#263238" stroke-width="0.25" stroke-linecap="round" stroke-linejoin="round"/>
<path d="M247.791 281.307L252.473 282.842L254.76 282.849L250.071 281.314L247.791 281.307Z" fill="white" stroke="#263238" stroke-width="0.25" stroke-linecap="round" stroke-linejoin="round"/>
<path d="M256.812 281.346L261.54 282.866H263.766L259.024 281.361L256.812 281.346Z" fill="white" stroke="#263238" stroke-width="0.25" stroke-linecap="round" stroke-linejoin="round"/>
<path d="M254.586 281.338L259.298 282.858L261.54 282.865L256.813 281.345L254.586 281.338Z" fill="white" stroke="#263238" stroke-width="0.25" stroke-linecap="round" stroke-linejoin="round"/>
<path d="M252.336 281.33L257.04 282.85L259.298 282.858L254.586 281.338L252.336 281.33Z" fill="white" stroke="#263238" stroke-width="0.25" stroke-linecap="round" stroke-linejoin="round"/>
<path d="M269.863 281.414L265.189 279.97L263.061 279.955L267.727 281.407L269.863 281.414Z" fill="white" stroke="#263238" stroke-width="0.25" stroke-linecap="round" stroke-linejoin="round"/>
<path d="M234.24 278.305L229.536 276.74L227.256 276.717L231.945 278.282L234.24 278.305Z" fill="white" stroke="#263238" stroke-width="0.25" stroke-linecap="round" stroke-linejoin="round"/>
<path d="M231.946 278.283L229.803 278.26L234.188 279.742L236.339 279.757L231.946 278.283Z" fill="white" stroke="#263238" stroke-width="0.25" stroke-linecap="round" stroke-linejoin="round"/>
<path d="M227.257 276.716L225.129 276.686L229.803 278.259L231.946 278.282L227.257 276.716Z" fill="white" stroke="#263238" stroke-width="0.25" stroke-linecap="round" stroke-linejoin="round"/>
<path d="M236.338 279.757L234.188 279.742L238.687 281.262L240.86 281.27L236.338 279.757Z" fill="white" stroke="#263238" stroke-width="0.25" stroke-linecap="round" stroke-linejoin="round"/>
<path d="M240.859 281.269L238.686 281.262L243.314 282.82H245.488L240.859 281.269Z" fill="white" stroke="#263238" stroke-width="0.25" stroke-linecap="round" stroke-linejoin="round"/>
<path d="M245.488 282.82H243.314L248.064 284.416H250.253L245.488 282.82Z" fill="white" stroke="#263238" stroke-width="0.25" stroke-linecap="round" stroke-linejoin="round"/>
<path d="M271.473 280.016L276.177 281.444L278.016 281.452L273.304 280.031L271.473 280.016Z" fill="white" stroke="#263238" stroke-width="0.25" stroke-linecap="round" stroke-linejoin="round"/>
<path d="M280.996 282.91L282.843 282.918L278.017 281.451L276.178 281.443L280.996 282.91Z" fill="white" stroke="#263238" stroke-width="0.25" stroke-linecap="round" stroke-linejoin="round"/>
<path d="M285.944 284.415H287.798L282.843 282.918L280.996 282.91L285.944 284.415Z" fill="white" stroke="#263238" stroke-width="0.25" stroke-linecap="round" stroke-linejoin="round"/>
<path d="M252.086 278.48L247.268 276.952L245.102 276.93L249.905 278.457L252.086 278.48Z" fill="white" stroke="#263238" stroke-width="0.25" stroke-linecap="round" stroke-linejoin="round"/>
<path d="M271.473 280.016L273.305 280.031L268.715 278.64L266.891 278.617L271.473 280.016Z" fill="white" stroke="#263238" stroke-width="0.25" stroke-linecap="round" stroke-linejoin="round"/>
<path d="M278.899 282.91H280.996L276.178 281.443L274.088 281.436L278.899 282.91Z" fill="white" stroke="#263238" stroke-width="0.25" stroke-linecap="round" stroke-linejoin="round"/>
<path d="M236.527 278.329L231.808 276.771L229.535 276.74L234.24 278.306L236.527 278.329Z" fill="white" stroke="#263238" stroke-width="0.25" stroke-linecap="round" stroke-linejoin="round"/>
<path d="M264.814 278.602L269.397 280L271.472 280.015L266.889 278.617L264.814 278.602Z" fill="white" stroke="#263238" stroke-width="0.25" stroke-linecap="round" stroke-linejoin="round"/>
<path d="M268.714 278.639L263.805 277.15L261.996 277.127L266.89 278.617L268.714 278.639Z" fill="white" stroke="#263238" stroke-width="0.25" stroke-linecap="round" stroke-linejoin="round"/>
<path d="M266.889 278.618L261.995 277.128L259.928 277.105L264.815 278.603L266.889 278.618Z" fill="white" stroke="#263238" stroke-width="0.25" stroke-linecap="round" stroke-linejoin="round"/>
<path d="M272.506 282.896L277.408 284.416H279.566L274.649 282.896H272.506Z" fill="white" stroke="#263238" stroke-width="0.25" stroke-linecap="round" stroke-linejoin="round"/>
<path d="M283.831 284.415H285.944L280.996 282.91H278.898L283.831 284.415Z" fill="white" stroke="#263238" stroke-width="0.25" stroke-linecap="round" stroke-linejoin="round"/>
<path d="M264.815 278.602L259.928 277.105L257.854 277.082L262.733 278.579L264.815 278.602Z" fill="white" stroke="#263238" stroke-width="0.25" stroke-linecap="round" stroke-linejoin="round"/>
<path d="M276.785 282.902L281.71 284.415H283.83L278.898 282.91L276.785 282.902Z" fill="white" stroke="#263238" stroke-width="0.25" stroke-linecap="round" stroke-linejoin="round"/>
<path d="M274.65 282.896L279.568 284.416H281.711L276.786 282.904L274.65 282.896Z" fill="white" stroke="#263238" stroke-width="0.25" stroke-linecap="round" stroke-linejoin="round"/>
<path d="M274.088 281.436L276.178 281.444L271.473 280.015L269.398 280L274.088 281.436Z" fill="white" stroke="#263238" stroke-width="0.25" stroke-linecap="round" stroke-linejoin="round"/>
<path d="M245.512 278.411L240.739 276.876L238.527 276.846L243.293 278.396L245.512 278.411Z" fill="white" stroke="#263238" stroke-width="0.25" stroke-linecap="round" stroke-linejoin="round"/>
<path d="M262.733 278.578L257.854 277.081L255.771 277.051L260.635 278.556L262.733 278.578Z" fill="white" stroke="#263238" stroke-width="0.25" stroke-linecap="round" stroke-linejoin="round"/>
<path d="M243.291 278.397L238.526 276.847L236.307 276.824L241.049 278.375L243.291 278.397Z" fill="white" stroke="#263238" stroke-width="0.25" stroke-linecap="round" stroke-linejoin="round"/>
<path d="M249.905 278.456L245.101 276.929L242.928 276.898L247.716 278.434L249.905 278.456Z" fill="white" stroke="#263238" stroke-width="0.25" stroke-linecap="round" stroke-linejoin="round"/>
<path d="M241.051 278.374L236.308 276.823L234.066 276.793L238.801 278.351L241.051 278.374Z" fill="white" stroke="#263238" stroke-width="0.25" stroke-linecap="round" stroke-linejoin="round"/>
<path d="M238.801 278.35L234.066 276.792L231.809 276.77L236.528 278.328L238.801 278.35Z" fill="white" stroke="#263238" stroke-width="0.25" stroke-linecap="round" stroke-linejoin="round"/>
<path d="M247.715 278.435L242.927 276.9L240.738 276.877L245.511 278.412L247.715 278.435Z" fill="white" stroke="#263238" stroke-width="0.25" stroke-linecap="round" stroke-linejoin="round"/>
<path d="M260.635 278.557L255.771 277.052L253.666 277.029L258.515 278.542L260.635 278.557Z" fill="white" stroke="#263238" stroke-width="0.25" stroke-linecap="round" stroke-linejoin="round"/>
<path d="M258.514 278.541L253.665 277.029L251.545 277.006L256.386 278.518L258.514 278.541Z" fill="white" stroke="#263238" stroke-width="0.25" stroke-linecap="round" stroke-linejoin="round"/>
<path d="M254.244 278.496L249.418 276.976L247.268 276.953L252.086 278.481L254.244 278.496Z" fill="white" stroke="#263238" stroke-width="0.25" stroke-linecap="round" stroke-linejoin="round"/>
<path d="M272.506 282.895L270.34 282.887L268.167 282.88L265.97 282.872L263.766 282.864H261.539L259.297 282.857L257.04 282.849H254.76L252.473 282.842L250.162 282.834L254.95 284.415H257.276H259.578H261.866H264.138H266.388H268.623H270.849H273.046H275.235H277.408L272.506 282.895Z" fill="white" stroke="#263238" stroke-width="0.25" stroke-linecap="round" stroke-linejoin="round"/>
<path d="M256.387 278.517L251.546 277.005L249.418 276.975L254.244 278.495L256.387 278.517Z" fill="white" stroke="#263238" stroke-width="0.25" stroke-linecap="round" stroke-linejoin="round"/>
<path d="M213.424 275.912V277.462L244.462 288.178L244.477 286.195L213.424 275.912Z" fill="white" stroke="#263238" stroke-linecap="round" stroke-linejoin="round"/>
<path d="M298.948 286.193H244.479V288.177H298.948V286.193Z" fill="#263238" stroke="#263238" stroke-linecap="round" stroke-linejoin="round"/>
<path d="M229.453 212.352L241.355 230.509L253.264 212.352H248.278V189.963H234.431V212.352H229.453Z" fill="#92E3A9" stroke="#263238" stroke-linecap="round" stroke-linejoin="round"/>
<path d="M173.478 275.895H121.798V229.535H173.478C173.804 229.535 174.117 229.664 174.348 229.895C174.579 230.126 174.709 230.439 174.709 230.766V274.694C174.701 275.015 174.568 275.32 174.338 275.545C174.108 275.769 173.799 275.895 173.478 275.895Z" fill="white" stroke="#263238" stroke-linecap="round" stroke-linejoin="round"/>
<path d="M120.012 275.91H173.311V229.512H120.012V275.91Z" fill="#263238" stroke="#263238" stroke-linecap="round" stroke-linejoin="round"/>
<path d="M122.923 272.23H169.207V233.182H122.923V272.23Z" fill="white" stroke="#263238" stroke-linecap="round" stroke-linejoin="round"/>
<path d="M126.448 269.26H139.688V236.154H126.448V269.26Z" fill="white" stroke="#263238" stroke-linecap="round" stroke-linejoin="round"/>
<path d="M126.449 269.268H165.688V238.738H126.449V269.268Z" fill="white" stroke="#263238" stroke-linecap="round" stroke-linejoin="round"/>
<path d="M128.485 267.68H163.643V240.327H128.485V267.68Z" fill="#92E3A9" stroke="#263238" stroke-linecap="round" stroke-linejoin="round"/>
<path d="M130.027 249.25H136.571" stroke="#263238" stroke-linecap="round" stroke-linejoin="round"/>
<path d="M130.027 251.24H136.571" stroke="#263238" stroke-linecap="round" stroke-linejoin="round"/>
<path d="M130.027 253.225H136.571" stroke="#263238" stroke-linecap="round" stroke-linejoin="round"/>
<path d="M130.027 256.598H158.801" stroke="#263238" stroke-linecap="round" stroke-linejoin="round"/>
<path d="M130.027 259.174H158.801" stroke="#263238" stroke-linecap="round" stroke-linejoin="round"/>
<path d="M130.027 261.758H158.801" stroke="#263238" stroke-linecap="round" stroke-linejoin="round"/>
<path d="M173.31 275.91L142.264 286.193H87.7949L120.019 275.91H173.31Z" fill="white" stroke="#263238" stroke-linecap="round" stroke-linejoin="round"/>
<path d="M134.535 279.869L139.019 278.433L141.231 278.41L136.754 279.854L134.535 279.869Z" fill="white" stroke="#263238" stroke-width="0.25" stroke-linecap="round" stroke-linejoin="round"/>
<path d="M130.143 279.907L134.657 278.478L136.831 278.455L132.331 279.884L130.143 279.907Z" fill="white" stroke="#263238" stroke-width="0.25" stroke-linecap="round" stroke-linejoin="round"/>
<path d="M114.76 281.428L112.654 281.436L117.343 280L119.441 279.984L114.76 281.428Z" fill="white" stroke="#263238" stroke-width="0.25" stroke-linecap="round" stroke-linejoin="round"/>
<path d="M136.754 279.854L141.23 278.41L143.45 278.395L138.981 279.839L136.754 279.854Z" fill="white" stroke="#263238" stroke-width="0.25" stroke-linecap="round" stroke-linejoin="round"/>
<path d="M141.238 279.824L145.684 278.372L147.941 278.35L143.503 279.809L141.238 279.824Z" fill="white" stroke="#263238" stroke-width="0.25" stroke-linecap="round" stroke-linejoin="round"/>
<path d="M121.555 279.968L126.107 278.554L128.227 278.539L123.675 279.953L121.555 279.968Z" fill="white" stroke="#263238" stroke-width="0.25" stroke-linecap="round" stroke-linejoin="round"/>
<path d="M119.441 279.983L124.009 278.577L126.107 278.555L121.554 279.968L119.441 279.983Z" fill="white" stroke="#263238" stroke-width="0.25" stroke-linecap="round" stroke-linejoin="round"/>
<path d="M143.504 279.808L147.942 278.349L150.207 278.326L145.784 279.785L143.504 279.808Z" fill="white" stroke="#263238" stroke-width="0.25" stroke-linecap="round" stroke-linejoin="round"/>
<path d="M127.977 279.923L132.499 278.494L134.657 278.479L130.143 279.907L127.977 279.923Z" fill="white" stroke="#263238" stroke-width="0.25" stroke-linecap="round" stroke-linejoin="round"/>
<path d="M117.344 279.999L121.919 278.601L124.009 278.578L119.441 279.984L117.344 279.999Z" fill="white" stroke="#263238" stroke-width="0.25" stroke-linecap="round" stroke-linejoin="round"/>
<path d="M123.674 279.954L128.226 278.54L130.354 278.518L125.817 279.939L123.674 279.954Z" fill="white" stroke="#263238" stroke-width="0.25" stroke-linecap="round" stroke-linejoin="round"/>
<path d="M125.818 279.938L130.356 278.517L132.499 278.494L127.977 279.923L125.818 279.938Z" fill="white" stroke="#263238" stroke-width="0.25" stroke-linecap="round" stroke-linejoin="round"/>
<path d="M132.33 279.885L136.829 278.456L139.018 278.434L134.534 279.87L132.33 279.885Z" fill="white" stroke="#263238" stroke-width="0.25" stroke-linecap="round" stroke-linejoin="round"/>
<path d="M148.079 279.771L150.397 279.756L145.882 281.268L143.557 281.283L148.079 279.771Z" fill="white" stroke="#263238" stroke-width="0.25" stroke-linecap="round" stroke-linejoin="round"/>
<path d="M152.494 278.304L154.797 278.281L150.396 279.756L148.078 279.771L152.494 278.304Z" fill="white" stroke="#263238" stroke-width="0.25" stroke-linecap="round" stroke-linejoin="round"/>
<path d="M145.783 279.787L150.206 278.327L152.494 278.305L148.078 279.771L145.783 279.787Z" fill="white" stroke="#263238" stroke-width="0.25" stroke-linecap="round" stroke-linejoin="round"/>
<path d="M141.246 282.818L136.489 284.414H134.125L138.905 282.826L141.246 282.818Z" fill="white" stroke="#263238" stroke-width="0.25" stroke-linecap="round" stroke-linejoin="round"/>
<path d="M143.555 281.283L145.881 281.268L141.245 282.818L138.904 282.826L143.555 281.283Z" fill="white" stroke="#263238" stroke-width="0.25" stroke-linecap="round" stroke-linejoin="round"/>
<path d="M138.905 282.826L134.124 284.415H131.791L136.579 282.834L138.905 282.826Z" fill="white" stroke="#263238" stroke-width="0.25" stroke-linecap="round" stroke-linejoin="round"/>
<path d="M138.98 279.84L143.449 278.396L145.684 278.373L141.238 279.825L138.98 279.84Z" fill="white" stroke="#263238" stroke-width="0.25" stroke-linecap="round" stroke-linejoin="round"/>
<path d="M134.406 281.329L138.981 279.839L141.239 279.824L136.663 281.314L134.406 281.329Z" fill="white" stroke="#263238" stroke-width="0.25" stroke-linecap="round" stroke-linejoin="round"/>
<path d="M136.662 281.313L141.237 279.824L143.502 279.809L138.942 281.306L136.662 281.313Z" fill="white" stroke="#263238" stroke-width="0.25" stroke-linecap="round" stroke-linejoin="round"/>
<path d="M132.156 281.337L136.754 279.855L138.981 279.84L134.406 281.329L132.156 281.337Z" fill="white" stroke="#263238" stroke-width="0.25" stroke-linecap="round" stroke-linejoin="round"/>
<path d="M145.783 279.787L148.078 279.771L143.556 281.284L141.238 281.291L145.783 279.787Z" fill="white" stroke="#263238" stroke-width="0.25" stroke-linecap="round" stroke-linejoin="round"/>
<path d="M109.957 282.902L107.844 282.91L112.655 281.435L114.76 281.428L109.957 282.902Z" fill="white" stroke="#263238" stroke-width="0.25" stroke-linecap="round" stroke-linejoin="round"/>
<path d="M138.943 281.305L143.503 279.808L145.783 279.785L141.239 281.29L138.943 281.305Z" fill="white" stroke="#263238" stroke-width="0.25" stroke-linecap="round" stroke-linejoin="round"/>
<path d="M143.557 281.283L138.906 282.826L136.58 282.834L141.239 281.291L143.557 281.283Z" fill="white" stroke="#263238" stroke-width="0.25" stroke-linecap="round" stroke-linejoin="round"/>
<path d="M119.016 281.404L123.674 279.953L125.818 279.938L121.166 281.389L119.016 281.404Z" fill="white" stroke="#263238" stroke-width="0.25" stroke-linecap="round" stroke-linejoin="round"/>
<path d="M121.166 281.389L125.817 279.937L127.976 279.922L123.332 281.381L121.166 281.389Z" fill="white" stroke="#263238" stroke-width="0.25" stroke-linecap="round" stroke-linejoin="round"/>
<path d="M114.76 281.428L119.441 279.984L121.554 279.969L116.88 281.413L114.76 281.428Z" fill="white" stroke="#263238" stroke-width="0.25" stroke-linecap="round" stroke-linejoin="round"/>
<path d="M127.711 281.359L132.332 279.884L134.536 279.869L129.93 281.344L127.711 281.359Z" fill="white" stroke="#263238" stroke-width="0.25" stroke-linecap="round" stroke-linejoin="round"/>
<path d="M123.332 281.383L127.976 279.923L130.142 279.908L125.513 281.367L123.332 281.383Z" fill="white" stroke="#263238" stroke-width="0.25" stroke-linecap="round" stroke-linejoin="round"/>
<path d="M125.514 281.367L130.142 279.908L132.331 279.885L127.71 281.359L125.514 281.367Z" fill="white" stroke="#263238" stroke-width="0.25" stroke-linecap="round" stroke-linejoin="round"/>
<path d="M129.93 281.343L134.535 279.869L136.754 279.854L132.156 281.336L129.93 281.343Z" fill="white" stroke="#263238" stroke-width="0.25" stroke-linecap="round" stroke-linejoin="round"/>
<path d="M123.333 281.381L118.576 282.878L116.395 282.886L121.167 281.388L123.333 281.381Z" fill="white" stroke="#263238" stroke-width="0.25" stroke-linecap="round" stroke-linejoin="round"/>
<path d="M121.166 281.389L116.393 282.886L114.234 282.893L119.015 281.404L121.166 281.389Z" fill="white" stroke="#263238" stroke-width="0.25" stroke-linecap="round" stroke-linejoin="round"/>
<path d="M141.239 281.291L136.58 282.834L134.27 282.841L138.944 281.306L141.239 281.291Z" fill="white" stroke="#263238" stroke-width="0.25" stroke-linecap="round" stroke-linejoin="round"/>
<path d="M119.015 281.404L114.235 282.894H112.092L116.88 281.412L119.015 281.404Z" fill="white" stroke="#263238" stroke-width="0.25" stroke-linecap="round" stroke-linejoin="round"/>
<path d="M127.71 281.359L122.975 282.864L120.764 282.872L125.514 281.367L127.71 281.359Z" fill="white" stroke="#263238" stroke-width="0.25" stroke-linecap="round" stroke-linejoin="round"/>
<path d="M116.881 281.412L112.093 282.894L109.957 282.902L114.76 281.427L116.881 281.412Z" fill="white" stroke="#263238" stroke-width="0.25" stroke-linecap="round" stroke-linejoin="round"/>
<path d="M125.513 281.367L120.763 282.872L118.574 282.88L123.332 281.382L125.513 281.367Z" fill="white" stroke="#263238" stroke-width="0.25" stroke-linecap="round" stroke-linejoin="round"/>
<path d="M136.663 281.312L131.974 282.848H129.701L134.406 281.328L136.663 281.312Z" fill="white" stroke="#263238" stroke-width="0.25" stroke-linecap="round" stroke-linejoin="round"/>
<path d="M138.944 281.307L134.27 282.842L131.975 282.849L136.664 281.314L138.944 281.307Z" fill="white" stroke="#263238" stroke-width="0.25" stroke-linecap="round" stroke-linejoin="round"/>
<path d="M129.929 281.344L125.201 282.864H122.975L127.709 281.359L129.929 281.344Z" fill="white" stroke="#263238" stroke-width="0.25" stroke-linecap="round" stroke-linejoin="round"/>
<path d="M132.155 281.336L127.443 282.856L125.201 282.864L129.928 281.344L132.155 281.336Z" fill="white" stroke="#263238" stroke-width="0.25" stroke-linecap="round" stroke-linejoin="round"/>
<path d="M134.405 281.328L129.701 282.848L127.443 282.856L132.155 281.336L134.405 281.328Z" fill="white" stroke="#263238" stroke-width="0.25" stroke-linecap="round" stroke-linejoin="round"/>
<path d="M116.881 281.412L121.555 279.968L123.675 279.953L119.016 281.405L116.881 281.412Z" fill="white" stroke="#263238" stroke-width="0.25" stroke-linecap="round" stroke-linejoin="round"/>
<path d="M152.494 278.303L157.199 276.738L159.486 276.715L154.797 278.28L152.494 278.303Z" fill="white" stroke="#263238" stroke-width="0.25" stroke-linecap="round" stroke-linejoin="round"/>
<path d="M154.797 278.281L156.94 278.258L152.555 279.74L150.396 279.755L154.797 278.281Z" fill="white" stroke="#263238" stroke-width="0.25" stroke-linecap="round" stroke-linejoin="round"/>
<path d="M159.486 276.716L161.614 276.686L156.94 278.259L154.797 278.282L159.486 276.716Z" fill="white" stroke="#263238" stroke-width="0.25" stroke-linecap="round" stroke-linejoin="round"/>
<path d="M150.395 279.755L152.554 279.74L148.047 281.26L145.881 281.268L150.395 279.755Z" fill="white" stroke="#263238" stroke-width="0.25" stroke-linecap="round" stroke-linejoin="round"/>
<path d="M145.882 281.267L148.048 281.26L143.427 282.818H141.246L145.882 281.267Z" fill="white" stroke="#263238" stroke-width="0.25" stroke-linecap="round" stroke-linejoin="round"/>
<path d="M141.246 282.818H143.427L138.677 284.414H136.488L141.246 282.818Z" fill="white" stroke="#263238" stroke-width="0.25" stroke-linecap="round" stroke-linejoin="round"/>
<path d="M115.261 280.014L110.564 281.442L108.725 281.45L113.429 280.029L115.261 280.014Z" fill="white" stroke="#263238" stroke-width="0.25" stroke-linecap="round" stroke-linejoin="round"/>
<path d="M105.738 282.91L103.898 282.918L108.724 281.451L110.564 281.443L105.738 282.91Z" fill="white" stroke="#263238" stroke-width="0.25" stroke-linecap="round" stroke-linejoin="round"/>
<path d="M100.798 284.415H98.9434L103.899 282.918L105.738 282.91L100.798 284.415Z" fill="white" stroke="#263238" stroke-width="0.25" stroke-linecap="round" stroke-linejoin="round"/>
<path d="M134.656 278.478L139.475 276.951L141.633 276.928L136.83 278.455L134.656 278.478Z" fill="white" stroke="#263238" stroke-width="0.25" stroke-linecap="round" stroke-linejoin="round"/>
<path d="M115.261 280.014L113.43 280.029L118.028 278.638L119.852 278.615L115.261 280.014Z" fill="white" stroke="#263238" stroke-width="0.25" stroke-linecap="round" stroke-linejoin="round"/>
<path d="M107.843 282.91H105.738L110.564 281.443L112.654 281.436L107.843 282.91Z" fill="white" stroke="#263238" stroke-width="0.25" stroke-linecap="round" stroke-linejoin="round"/>
<path d="M150.207 278.327L154.927 276.769L157.199 276.738L152.495 278.304L150.207 278.327Z" fill="white" stroke="#263238" stroke-width="0.25" stroke-linecap="round" stroke-linejoin="round"/>
<path d="M121.919 278.6L117.344 279.998L115.262 280.013L119.852 278.615L121.919 278.6Z" fill="white" stroke="#263238" stroke-width="0.25" stroke-linecap="round" stroke-linejoin="round"/>
<path d="M118.027 278.637L122.937 277.148L124.746 277.125L119.851 278.615L118.027 278.637Z" fill="white" stroke="#263238" stroke-width="0.25" stroke-linecap="round" stroke-linejoin="round"/>
<path d="M119.852 278.616L124.746 277.126L126.806 277.104L121.919 278.601L119.852 278.616Z" fill="white" stroke="#263238" stroke-width="0.25" stroke-linecap="round" stroke-linejoin="round"/>
<path d="M114.236 282.895L109.327 284.415H107.176L112.093 282.895H114.236Z" fill="white" stroke="#263238" stroke-width="0.25" stroke-linecap="round" stroke-linejoin="round"/>
<path d="M102.912 284.415H100.799L105.739 282.91H107.844L102.912 284.415Z" fill="white" stroke="#263238" stroke-width="0.25" stroke-linecap="round" stroke-linejoin="round"/>
<path d="M121.918 278.6L126.805 277.103L128.88 277.08L124.008 278.577L121.918 278.6Z" fill="white" stroke="#263238" stroke-width="0.25" stroke-linecap="round" stroke-linejoin="round"/>
<path d="M109.957 282.902L105.033 284.415H102.912L107.845 282.91L109.957 282.902Z" fill="white" stroke="#263238" stroke-width="0.25" stroke-linecap="round" stroke-linejoin="round"/>
<path d="M112.092 282.895L107.174 284.415H105.031L109.956 282.902L112.092 282.895Z" fill="white" stroke="#263238" stroke-width="0.25" stroke-linecap="round" stroke-linejoin="round"/>
<path d="M112.654 281.434L110.564 281.442L115.261 280.013L117.344 279.998L112.654 281.434Z" fill="white" stroke="#263238" stroke-width="0.25" stroke-linecap="round" stroke-linejoin="round"/>
<path d="M141.23 278.409L146.003 276.874L148.215 276.844L143.45 278.394L141.23 278.409Z" fill="white" stroke="#263238" stroke-width="0.25" stroke-linecap="round" stroke-linejoin="round"/>
<path d="M124.01 278.578L128.881 277.081L130.971 277.051L126.107 278.556L124.01 278.578Z" fill="white" stroke="#263238" stroke-width="0.25" stroke-linecap="round" stroke-linejoin="round"/>
<path d="M143.449 278.395L148.214 276.845L150.434 276.822L145.684 278.373L143.449 278.395Z" fill="white" stroke="#263238" stroke-width="0.25" stroke-linecap="round" stroke-linejoin="round"/>
<path d="M136.83 278.456L141.633 276.929L143.814 276.898L139.019 278.434L136.83 278.456Z" fill="white" stroke="#263238" stroke-width="0.25" stroke-linecap="round" stroke-linejoin="round"/>
<path d="M145.684 278.372L150.434 276.821L152.676 276.791L147.941 278.349L145.684 278.372Z" fill="white" stroke="#263238" stroke-width="0.25" stroke-linecap="round" stroke-linejoin="round"/>
<path d="M147.941 278.35L152.676 276.792L154.926 276.77L150.206 278.328L147.941 278.35Z" fill="white" stroke="#263238" stroke-width="0.25" stroke-linecap="round" stroke-linejoin="round"/>
<path d="M139.02 278.433L143.815 276.898L146.004 276.875L141.231 278.41L139.02 278.433Z" fill="white" stroke="#263238" stroke-width="0.25" stroke-linecap="round" stroke-linejoin="round"/>
<path d="M126.107 278.555L130.971 277.05L133.077 277.027L128.228 278.54L126.107 278.555Z" fill="white" stroke="#263238" stroke-width="0.25" stroke-linecap="round" stroke-linejoin="round"/>
<path d="M128.227 278.539L133.075 277.027L135.196 277.004L130.355 278.516L128.227 278.539Z" fill="white" stroke="#263238" stroke-width="0.25" stroke-linecap="round" stroke-linejoin="round"/>
<path d="M132.498 278.494L137.324 276.974L139.475 276.951L134.656 278.479L132.498 278.494Z" fill="white" stroke="#263238" stroke-width="0.25" stroke-linecap="round" stroke-linejoin="round"/>
<path d="M114.236 282.895L116.394 282.887L118.575 282.88L120.764 282.872L122.976 282.864H125.203L127.445 282.857L129.702 282.849H131.974L134.269 282.842L136.58 282.834L131.792 284.415H129.466H127.163H124.876H122.603H120.354H118.112H115.893H113.689H111.5H109.326L114.236 282.895Z" fill="white" stroke="#263238" stroke-width="0.25" stroke-linecap="round" stroke-linejoin="round"/>
<path d="M130.355 278.517L135.197 277.005L137.325 276.975L132.499 278.495L130.355 278.517Z" fill="white" stroke="#263238" stroke-width="0.25" stroke-linecap="round" stroke-linejoin="round"/>
<path d="M173.31 275.91V277.461L142.271 288.177L142.264 286.193L173.31 275.91Z" fill="white" stroke="#263238" stroke-linecap="round" stroke-linejoin="round"/>
<path d="M87.7945 288.176H142.264V286.192H87.7945V288.176Z" fill="#263238" stroke="#263238" stroke-linecap="round" stroke-linejoin="round"/>
<path d="M160.709 202.547L148.808 184.391L136.898 202.547H141.884V230.006H155.731V202.547H160.709Z" fill="#92E3A9" stroke="#263238" stroke-linecap="round" stroke-linejoin="round"/>
</svg>
