<svg width="380" height="380" viewBox="0 0 380 350" fill="none" xmlns="http://www.w3.org/2000/svg">
<path d="M70.0415 104.881C123.295 44.2866 214.723 34.2014 255.481 53.665C271.319 61.1696 285.968 70.9589 298.961 82.7198C300.663 84.2398 302.318 85.8029 303.924 87.409C308.939 92.3487 313.642 97.5952 318.007 103.118C323.238 109.725 327.956 116.722 332.12 124.049C338.087 134.474 342.813 145.562 346.203 157.086C348.446 164.647 349.917 172.416 350.595 180.273C351.758 195.025 350.747 209.913 348.764 224.543C348.581 225.942 348.384 227.34 348.171 228.739C348.118 229.126 348.065 229.499 348.004 229.901C345.823 244.471 342.737 259.169 335.844 271.876C328.32 285.761 302.069 324.286 273.6 325.281C258.833 325.806 245.791 316.161 232.408 309.321C211.128 298.469 187.044 296.341 163.559 295.71C140.076 295.079 116.303 295.755 93.4191 289.934C70.5355 284.112 48.1003 270.744 36.4039 248.521C32.4291 240.967 29.4119 230.084 29.4043 221.374C29.4043 195.679 33.5995 173.205 40.9259 153.681C43.2524 147.455 45.9658 141.381 49.0503 135.494C53.5682 126.862 58.8916 118.676 64.9495 111.045L70.0415 104.881Z" fill="#92E3A9"/>
<g opacity="0.7">
<path opacity="0.7" d="M70.0415 104.881C123.295 44.2866 214.723 34.2014 255.481 53.665C271.319 61.1696 285.968 70.9589 298.961 82.7198C300.663 84.2398 302.318 85.8029 303.924 87.409C308.939 92.3487 313.642 97.5952 318.007 103.118C323.238 109.725 327.956 116.722 332.12 124.049C338.087 134.474 342.813 145.562 346.203 157.086C348.446 164.647 349.917 172.416 350.595 180.273C351.758 195.025 350.747 209.913 348.764 224.543C348.581 225.942 348.384 227.34 348.171 228.739C348.118 229.126 348.065 229.499 348.004 229.901C345.823 244.471 342.737 259.169 335.844 271.876C328.32 285.761 302.069 324.286 273.6 325.281C258.833 325.806 245.791 316.161 232.408 309.321C211.128 298.469 187.044 296.341 163.559 295.71C140.076 295.079 116.303 295.755 93.4191 289.934C70.5355 284.112 48.1003 270.744 36.4039 248.521C32.4291 240.967 29.4119 230.084 29.4043 221.374C29.4043 195.679 33.5995 173.205 40.9259 153.681C43.2524 147.455 45.9658 141.381 49.0503 135.494C53.5682 126.862 58.8916 118.676 64.9495 111.045L70.0415 104.881Z" fill="white"/>
</g>
<path d="M29.4043 324.398H356.242" stroke="#263238" stroke-width="0.76" stroke-linecap="round" stroke-linejoin="round"/>
<path d="M280.936 214.145V214.228C280.936 214.365 280.966 214.509 281.027 214.661C281.367 216.327 281.62 218.009 281.787 219.7C281.931 221.152 282.045 222.809 282.076 224.655C282.148 228.923 281.855 233.19 281.202 237.408C281.034 238.518 280.837 239.688 280.601 240.859C280.229 242.789 279.773 244.811 279.21 246.901C278.96 247.873 278.671 248.869 278.367 249.872L278.01 251.096C277.873 251.59 277.736 252.084 277.607 252.616C276.733 255.992 276.036 259.412 275.517 262.861C274.871 267.155 274.468 271.418 274.248 275.454C273.951 280.835 273.966 285.805 274.096 289.894C274.092 289.962 274.092 290.031 274.096 290.099C274.232 294.256 274.491 297.517 274.666 299.371C274.764 300.458 274.833 301.073 274.84 301.111" stroke="#263238" stroke-width="0.76" stroke-linecap="round" stroke-linejoin="round"/>
<path d="M280.959 214.253C279.821 213.241 278.45 212.528 276.969 212.178L280.959 214.253Z" fill="white"/>
<path d="M280.959 214.253C279.821 213.241 278.45 212.528 276.969 212.178" stroke="#263238" stroke-width="0.76" stroke-linecap="round" stroke-linejoin="round"/>
<path d="M281.811 219.724L283.832 217.893" stroke="#263238" stroke-width="0.76" stroke-linecap="round" stroke-linejoin="round"/>
<path d="M279.234 246.909C279.128 246.376 278.97 245.854 278.763 245.351C278.463 244.614 278.056 243.925 277.554 243.307C277.18 242.842 276.754 242.422 276.285 242.053" stroke="#263238" stroke-width="0.76" stroke-linecap="round" stroke-linejoin="round"/>
<path d="M277.615 252.608C277.902 251.898 278.331 251.255 278.876 250.717C279.421 250.18 280.071 249.76 280.784 249.484" stroke="#263238" stroke-width="0.76" stroke-linecap="round" stroke-linejoin="round"/>
<path d="M274.104 280.88C274.78 280.06 275.289 276.951 275.563 275.279C275.631 274.884 275.684 274.519 275.738 274.299" fill="white"/>
<path d="M274.104 280.88C274.78 280.06 275.289 276.951 275.563 275.279C275.631 274.884 275.684 274.519 275.738 274.299" stroke="#263238" stroke-width="0.76" stroke-linecap="round" stroke-linejoin="round"/>
<path d="M268.896 286.521C269.121 286.498 269.348 286.498 269.573 286.521C270.568 286.618 271.519 286.984 272.322 287.579C273.125 288.175 273.751 288.978 274.133 289.903" fill="white"/>
<path d="M268.896 286.521C269.121 286.498 269.348 286.498 269.573 286.521C270.568 286.618 271.519 286.984 272.322 287.579C273.125 288.175 273.751 288.978 274.133 289.903" stroke="#263238" stroke-width="0.76" stroke-linecap="round" stroke-linejoin="round"/>
<path d="M280.623 240.921C280.623 240.921 280.981 228.586 274.209 224.109" stroke="#263238" stroke-width="0.76" stroke-linecap="round" stroke-linejoin="round"/>
<path d="M281.201 267.362C282.09 270.242 275.881 275.722 275.881 275.722C275.881 275.722 267.68 274.696 266.761 271.823C265.841 268.95 267.946 264.223 271.929 263.007C275.911 261.791 280.342 264.481 281.201 267.362Z" fill="#92E3A9"/>
<path d="M288.11 232.456C287.35 235.496 281.452 237.677 281.452 237.677C281.452 237.677 277.401 232.942 278.161 229.887C278.921 226.832 282.197 223.472 284.948 224.179C287.699 224.886 288.9 229.4 288.11 232.456Z" fill="#92E3A9"/>
<path d="M264.558 278.108C268.244 279.537 270.501 286.058 270.501 286.058C270.501 286.058 264.421 289.333 260.743 287.897C257.064 286.46 253.143 282.417 254.207 279.719C255.271 277.021 260.872 276.641 264.558 278.108Z" fill="#92E3A9"/>
<path d="M272.637 242.235C273.383 242.862 274.239 243.346 275.16 243.664C275.623 243.813 276.118 243.833 276.591 243.72C277.064 243.608 277.497 243.367 277.843 243.025C278.603 242.121 278.421 240.745 277.927 239.613C276.939 237.447 273.306 233.761 270.517 234.817C266.489 236.36 270.844 240.92 272.637 242.235Z" fill="#92E3A9"/>
<path d="M280.884 247.76C280.352 248.414 279.79 249.242 280.086 250.04C280.251 250.375 280.523 250.646 280.858 250.811C281.193 250.976 281.574 251.026 281.94 250.952C282.669 250.779 283.35 250.444 283.932 249.972C285.353 248.984 288.271 246.932 286.409 244.978C284.547 243.025 281.963 246.384 280.884 247.76Z" fill="#92E3A9"/>
<path d="M268.989 220.196C268.682 220.214 268.389 220.327 268.15 220.521C267.911 220.715 267.739 220.978 267.659 221.275C267.537 221.982 268.122 222.597 268.685 223.031C270.098 224.125 274.347 227.059 275.289 224.224C276.186 221.549 270.858 219.991 268.989 220.196Z" fill="#92E3A9"/>
<path d="M276.809 210.878C275.935 210.961 275.061 210.642 274.179 210.695C273.297 210.749 272.332 211.455 272.522 212.322C272.712 213.188 273.693 213.378 274.498 213.424C275.885 213.513 277.278 213.418 278.64 213.143C278.963 213.112 279.262 212.96 279.476 212.717C279.833 212.193 279.271 211.493 278.663 211.311C278.039 211.228 277.425 211.08 276.831 210.87L276.809 210.878Z" fill="#92E3A9"/>
<path d="M285.368 216.904C286.242 216.904 287.093 216.555 287.975 216.547C288.856 216.539 289.875 217.185 289.73 218.067C289.586 218.949 288.643 219.199 287.838 219.298C286.461 219.481 285.065 219.481 283.688 219.298C283.362 219.291 283.052 219.157 282.822 218.926C282.434 218.432 282.951 217.695 283.536 217.467C284.156 217.351 284.76 217.165 285.337 216.912L285.368 216.904Z" fill="#92E3A9"/>
<path d="M284.5 281.673C284.702 281.463 284.971 281.331 285.26 281.301C285.456 281.319 285.638 281.405 285.777 281.544C285.916 281.683 286.002 281.865 286.02 282.061C286.062 282.436 286.016 282.816 285.884 283.17C285.283 285.169 278.595 299.602 277.052 297.01C276.148 295.49 278.382 290.406 279.044 288.969C280.305 286.166 282.168 283.675 284.5 281.673Z" fill="#92E3A9"/>
<path d="M281.239 215.081C281.239 215.081 280.836 211.578 281.679 211.281" stroke="#263238" stroke-width="0.76" stroke-linecap="round" stroke-linejoin="round"/>
<path d="M280.494 211.424C280.925 210.187 281.669 209.082 282.653 208.217C283.709 207.457 285.404 207.396 286.171 208.453C287.03 209.631 286.171 211.417 284.857 212.048C283.542 212.678 281.991 212.488 280.547 212.283C280.547 212.07 280.547 211.858 280.547 211.645L280.494 211.424Z" fill="#92E3A9"/>
<path d="M284.097 324.223C276.933 325.432 269.616 325.432 262.452 324.223L254.031 299.379H292.518L284.097 324.223Z" fill="white" stroke="#263238" stroke-width="0.76" stroke-linecap="round" stroke-linejoin="round"/>
<path d="M137.22 144.727V144.81C137.25 144.947 137.281 145.091 137.311 145.243C137.655 146.908 137.909 148.59 138.071 150.282C138.215 151.734 138.322 153.391 138.36 155.237C138.438 159.495 138.153 163.751 137.509 167.96C137.341 169.069 137.144 170.24 136.908 171.41C136.536 173.341 136.072 175.362 135.517 177.452C135.259 178.425 134.978 179.421 134.674 180.424C134.552 180.834 134.431 181.237 134.317 181.647C134.203 182.058 134.035 182.635 133.906 183.167" stroke="#263238" stroke-width="0.76" stroke-linecap="round" stroke-linejoin="round"/>
<path d="M137.234 144.833C136.689 144.355 136.092 143.94 135.456 143.594C134.753 143.224 134.008 142.943 133.236 142.758" fill="white"/>
<path d="M137.234 144.833C136.689 144.355 136.092 143.94 135.456 143.594C134.753 143.224 134.008 142.943 133.236 142.758" stroke="#263238" stroke-width="0.76" stroke-linecap="round" stroke-linejoin="round"/>
<path d="M138.086 150.304L140.115 148.473" stroke="#263238" stroke-width="0.76" stroke-linecap="round" stroke-linejoin="round"/>
<path d="M135.519 177.491C135.41 176.957 135.25 176.436 135.04 175.933C134.741 175.196 134.333 174.507 133.832 173.889C133.457 173.424 133.031 173.004 132.562 172.635" stroke="#263238" stroke-width="0.76" stroke-linecap="round" stroke-linejoin="round"/>
<path d="M133.898 183.161C134.182 182.45 134.609 181.806 135.153 181.269C135.697 180.732 136.346 180.312 137.06 180.037" stroke="#263238" stroke-width="0.76" stroke-linecap="round" stroke-linejoin="round"/>
<path d="M130.379 211.462C131.055 210.642 131.572 207.533 131.846 205.861C131.907 205.466 131.967 205.101 132.013 204.881" fill="white"/>
<path d="M130.379 211.462C131.055 210.642 131.572 207.533 131.846 205.861C131.907 205.466 131.967 205.101 132.013 204.881" stroke="#263238" stroke-width="0.76" stroke-linecap="round" stroke-linejoin="round"/>
<path d="M125.174 217.072C125.401 217.049 125.63 217.049 125.858 217.072C126.853 217.171 127.802 217.538 128.605 218.133C129.408 218.729 130.034 219.531 130.418 220.454" fill="white"/>
<path d="M125.174 217.072C125.401 217.049 125.63 217.049 125.858 217.072C126.853 217.171 127.802 217.538 128.605 218.133C129.408 218.729 130.034 219.531 130.418 220.454" stroke="#263238" stroke-width="0.76" stroke-linecap="round" stroke-linejoin="round"/>
<path d="M136.901 171.471C136.901 171.471 137.266 159.137 130.486 154.66" stroke="#263238" stroke-width="0.76" stroke-linecap="round" stroke-linejoin="round"/>
<path d="M137.516 197.943C138.398 200.823 132.196 206.303 132.196 206.303C132.196 206.303 123.988 205.277 123.076 202.404C122.164 199.531 124.269 194.804 128.244 193.588C132.219 192.372 136.627 195.07 137.516 197.943Z" fill="#92E3A9"/>
<path d="M144.403 163.036C143.643 166.076 137.745 168.257 137.745 168.257C137.745 168.257 133.649 163.522 134.439 160.467C135.23 157.412 138.467 154.053 141.218 154.759C143.97 155.466 145.163 159.981 144.403 163.036Z" fill="#92E3A9"/>
<path d="M120.842 208.688C124.528 210.125 126.793 216.638 126.793 216.638C126.793 216.638 120.713 219.914 117.027 218.477C113.341 217.041 109.427 212.998 110.498 210.3C111.57 207.602 117.148 207.252 120.842 208.688Z" fill="#92E3A9"/>
<path d="M128.92 172.817C129.664 173.444 130.517 173.928 131.436 174.246C131.899 174.395 132.394 174.415 132.867 174.302C133.34 174.19 133.773 173.949 134.119 173.607C134.879 172.703 134.696 171.327 134.202 170.195C133.214 168.029 129.589 164.343 126.792 165.399C122.772 166.927 127.119 171.487 128.92 172.817Z" fill="#92E3A9"/>
<path d="M137.16 178.349C136.635 179.002 136.073 179.869 136.362 180.629C136.527 180.964 136.798 181.235 137.134 181.4C137.469 181.565 137.85 181.615 138.216 181.541C138.946 181.369 139.627 181.034 140.207 180.56C141.629 179.58 144.547 177.52 142.685 175.567C140.823 173.614 138.277 176.966 137.16 178.349Z" fill="#92E3A9"/>
<path d="M125.264 150.778C124.958 150.797 124.665 150.911 124.426 151.104C124.188 151.298 124.016 151.561 123.934 151.857C123.813 152.564 124.398 153.179 124.968 153.613C126.381 154.707 130.622 157.641 131.572 154.806C132.461 152.131 127.141 150.573 125.264 150.778Z" fill="#92E3A9"/>
<path d="M133.086 141.46C132.212 141.544 131.338 141.224 130.464 141.278C129.59 141.331 128.609 142.038 128.807 142.904C129.005 143.77 129.97 143.96 130.783 144.006C132.167 144.095 133.558 144 134.917 143.725C135.242 143.694 135.544 143.542 135.761 143.299C136.111 142.775 135.548 142.076 134.948 141.893C134.321 141.81 133.705 141.663 133.109 141.452L133.086 141.46Z" fill="#92E3A9"/>
<path d="M141.643 147.486C142.525 147.486 143.376 147.137 144.25 147.129C145.124 147.121 146.15 147.767 146.013 148.649C145.876 149.531 144.919 149.781 144.113 149.88C142.736 150.063 141.341 150.063 139.964 149.88C139.637 149.873 139.327 149.739 139.097 149.508C138.71 149.014 139.226 148.277 139.819 148.049C140.438 147.931 141.042 147.745 141.62 147.494L141.643 147.486Z" fill="#92E3A9"/>
<path d="M140.777 212.253C140.979 212.044 141.248 211.913 141.537 211.881C141.731 211.903 141.911 211.991 142.049 212.129C142.187 212.267 142.274 212.447 142.297 212.641C142.336 213.017 142.287 213.397 142.153 213.75C141.56 215.749 134.864 230.182 133.329 227.59C132.417 226.07 134.651 220.986 135.313 219.549C136.577 216.746 138.442 214.255 140.777 212.253Z" fill="#92E3A9"/>
<path d="M137.517 145.677C137.517 145.677 137.114 142.173 137.966 141.877" stroke="#263238" stroke-width="0.76" stroke-linecap="round" stroke-linejoin="round"/>
<path d="M136.801 142.007C137.226 140.766 137.971 139.66 138.959 138.799C140.016 138.039 141.703 137.979 142.47 139.035C143.329 140.213 142.47 141.999 141.156 142.63C139.841 143.261 138.298 143.071 136.854 142.865C136.854 142.653 136.854 142.44 136.854 142.227L136.801 142.007Z" fill="#92E3A9"/>
<path d="M40.9258 228.738V153.643" stroke="#263238" stroke-width="0.76" stroke-linecap="round" stroke-linejoin="round"/>
<path d="M275.385 228.738H266.105" stroke="#263238" stroke-width="0.76" stroke-linecap="round" stroke-linejoin="round"/>
<path d="M348.157 228.738H329.256" stroke="#263238" stroke-width="0.76" stroke-linecap="round" stroke-linejoin="round"/>
<path d="M265.256 114.655H298.749V82.75" stroke="#263238" stroke-width="0.76" stroke-linecap="round" stroke-linejoin="round"/>
<path d="M70.041 104.912H105.624V130.866H144.627" stroke="#263238" stroke-width="0.76" stroke-linecap="round" stroke-linejoin="round"/>
<path d="M49.0488 192.805V135.455" stroke="#263238" stroke-width="0.76" stroke-linecap="round" stroke-linejoin="round"/>
<path d="M64.9492 110.566V155.513" stroke="#263238" stroke-width="0.76" stroke-linecap="round" stroke-linejoin="round"/>
<path d="M80.8398 110.566V150.299" stroke="#263238" stroke-width="0.76" stroke-linecap="round" stroke-linejoin="round"/>
<path d="M96.7324 110.566V180.068" stroke="#263238" stroke-width="0.76" stroke-linecap="round" stroke-linejoin="round"/>
<path d="M172.861 100.709V55.0098H237.56V100.709" stroke="#263238" stroke-width="0.76" stroke-linecap="round" stroke-linejoin="round"/>
<path d="M177.604 77.7123V60.4375H189.566" stroke="#263238" stroke-width="0.76" stroke-linecap="round" stroke-linejoin="round"/>
<path d="M192.195 77.7123V60.4375H204.158" stroke="#263238" stroke-width="0.76" stroke-linecap="round" stroke-linejoin="round"/>
<path d="M206.789 77.7123V60.4375H218.751" stroke="#263238" stroke-width="0.76" stroke-linecap="round" stroke-linejoin="round"/>
<path d="M221.379 77.7123V60.4375H233.341" stroke="#263238" stroke-width="0.76" stroke-linecap="round" stroke-linejoin="round"/>
<path d="M177.604 100.708V83.4336H189.566" stroke="#263238" stroke-width="0.76" stroke-linecap="round" stroke-linejoin="round"/>
<path d="M192.195 100.708V83.4336H204.158" stroke="#263238" stroke-width="0.76" stroke-linecap="round" stroke-linejoin="round"/>
<path d="M206.789 100.708V83.4336H218.751" stroke="#263238" stroke-width="0.76" stroke-linecap="round" stroke-linejoin="round"/>
<path d="M221.379 100.708V83.4336H233.341" stroke="#263238" stroke-width="0.76" stroke-linecap="round" stroke-linejoin="round"/>
<path d="M303.932 86.7012V143.967" stroke="#263238" stroke-width="0.76" stroke-linecap="round" stroke-linejoin="round"/>
<path d="M327.424 224.543H329.255" stroke="#263238" stroke-width="0.76" stroke-linecap="round" stroke-linejoin="round"/>
<path d="M318.014 103.148V167.262" stroke="#263238" stroke-width="0.76" stroke-linecap="round" stroke-linejoin="round"/>
<path d="M332.105 208.172V224.542H343.346" stroke="#263238" stroke-width="0.76" stroke-linecap="round" stroke-linejoin="round"/>
<path d="M332.105 124.049V167.589" stroke="#263238" stroke-width="0.76" stroke-linecap="round" stroke-linejoin="round"/>
<path d="M346.188 157.086V224.544H348.749" stroke="#263238" stroke-width="0.76" stroke-linecap="round" stroke-linejoin="round"/>
<path d="M174.564 230.113H29.4043V324.399H174.564V230.113Z" fill="white" stroke="#263238" stroke-width="0.76" stroke-linecap="round" stroke-linejoin="round"/>
<path d="M29.4043 230.113L101.984 277.256L174.564 230.113H29.4043Z" fill="white" stroke="#263238" stroke-width="0.76" stroke-linecap="round" stroke-linejoin="round"/>
<path d="M80.1647 263.082L29.4043 324.399" stroke="#263238" stroke-width="0.76" stroke-linecap="round" stroke-linejoin="round"/>
<path d="M124.199 263.082L174.96 324.399" stroke="#263238" stroke-width="0.76" stroke-linecap="round" stroke-linejoin="round"/>
<path d="M252.245 109.804H218.501C217.53 109.805 216.576 110.067 215.739 110.561C214.902 111.056 214.214 111.765 213.744 112.616C212.915 114.113 211.7 115.36 210.226 116.229C208.752 117.097 207.072 117.555 205.361 117.555C203.65 117.555 201.97 117.097 200.496 116.229C199.022 115.36 197.807 114.113 196.978 112.616C196.512 111.754 195.822 111.034 194.981 110.533C194.139 110.031 193.178 109.766 192.198 109.766H158.492C157.567 109.754 156.648 109.924 155.789 110.267C154.929 110.61 154.146 111.119 153.483 111.765C152.821 112.411 152.292 113.181 151.927 114.031C151.561 114.881 151.367 115.795 151.355 116.72V307.039C151.382 308.907 152.148 310.689 153.485 311.992C154.823 313.296 156.624 314.016 158.492 313.993H252.245C254.114 314.016 255.915 313.296 257.255 311.993C258.594 310.689 259.361 308.908 259.389 307.039V116.758C259.363 114.889 258.596 113.107 257.257 111.803C255.917 110.499 254.115 109.78 252.245 109.804Z" fill="#92E3A9"/>
<path d="M262.68 114.653C262.684 113.37 262.435 112.1 261.947 110.915C261.459 109.729 260.742 108.651 259.837 107.743C258.932 106.835 257.857 106.115 256.672 105.623C255.488 105.132 254.219 104.879 252.937 104.879H157.808C156.529 104.878 155.262 105.129 154.08 105.618C152.898 106.107 151.823 106.824 150.919 107.728C150.014 108.632 149.296 109.705 148.806 110.887C148.317 112.069 148.064 113.335 148.064 114.615V314.639C148.064 317.221 149.09 319.697 150.916 321.523C152.742 323.349 155.218 324.375 157.8 324.375H252.937C255.52 324.375 257.997 323.349 259.824 321.523C261.651 319.698 262.678 317.222 262.68 314.639V114.653ZM259.389 307.039C259.361 308.908 258.593 310.689 257.254 311.992C255.915 313.296 254.114 314.015 252.245 313.993H158.492C156.624 314.015 154.823 313.296 153.485 311.992C152.147 310.688 151.381 308.907 151.355 307.039V116.758C151.367 115.833 151.561 114.919 151.926 114.068C152.291 113.218 152.82 112.448 153.483 111.803C154.146 111.157 154.929 110.648 155.789 110.305C156.648 109.962 157.566 109.792 158.492 109.804H192.213C193.192 109.803 194.152 110.068 194.993 110.57C195.833 111.072 196.522 111.792 196.986 112.654C197.815 114.15 199.03 115.398 200.504 116.266C201.978 117.134 203.658 117.593 205.368 117.593C207.079 117.593 208.759 117.134 210.233 116.266C211.707 115.398 212.922 114.15 213.751 112.654C214.22 111.802 214.908 111.091 215.745 110.597C216.582 110.102 217.537 109.841 218.509 109.842H252.253C253.178 109.83 254.097 110 254.956 110.343C255.815 110.686 256.599 111.195 257.261 111.841C257.924 112.486 258.453 113.256 258.818 114.106C259.183 114.957 259.377 115.87 259.389 116.796V307.039Z" fill="#263238"/>
<path opacity="0.2" d="M230.358 104.908L167.164 324.389L192.259 324.366L253.112 104.908H230.358Z" fill="white"/>
<path opacity="0.2" d="M220.935 104.908L154.123 324.396L157.779 324.373L223.336 104.908H220.935Z" fill="white"/>
<path d="M222.416 268.074C222.463 270.249 222.073 272.412 221.271 274.435C220.469 276.458 219.271 278.299 217.746 279.852C216.221 281.404 214.401 282.636 212.393 283.474C210.385 284.312 208.229 284.74 206.053 284.733C201.613 284.716 197.356 282.964 194.189 279.852C191.023 276.739 189.198 272.513 189.105 268.074C189.06 265.899 189.449 263.737 190.252 261.715C191.054 259.693 192.253 257.852 193.778 256.3C195.303 254.749 197.122 253.518 199.13 252.68C201.138 251.842 203.293 251.414 205.468 251.422C209.907 251.437 214.165 253.187 217.331 256.298C220.498 259.409 222.323 263.635 222.416 268.074Z" fill="white" stroke="#263238" stroke-width="0.76" stroke-linecap="round" stroke-linejoin="round"/>
<path d="M200.299 280.507C198.752 279.935 197.334 279.062 196.127 277.938C194.91 276.769 193.967 275.344 193.368 273.766C192.685 271.997 192.347 270.114 192.372 268.218C192.363 266.602 192.649 264.997 193.216 263.483C193.732 262.085 194.505 260.796 195.496 259.683C197.45 257.546 199.973 256.012 202.769 255.26C204.142 254.89 205.558 254.703 206.98 254.705C208.16 254.7 209.337 254.84 210.483 255.123C211.589 255.395 212.648 255.833 213.622 256.423C214.587 257.002 215.452 257.734 216.183 258.589C216.946 259.511 217.528 260.568 217.901 261.705C218.327 263.002 218.537 264.36 218.524 265.725C218.508 268.364 217.557 270.911 215.841 272.915C215.103 273.751 214.23 274.458 213.257 275.005C212.419 275.486 211.472 275.747 210.506 275.765C209.839 275.774 209.187 275.563 208.652 275.164C208.383 274.965 208.164 274.707 208.012 274.409C207.861 274.111 207.78 273.781 207.778 273.447C207.279 274.205 206.595 274.823 205.79 275.242C204.985 275.661 204.087 275.867 203.18 275.841C202.466 275.873 201.755 275.744 201.097 275.466C200.44 275.187 199.853 274.765 199.38 274.23C198.431 273.127 197.929 271.709 197.974 270.255C197.98 269.058 198.188 267.871 198.589 266.744C198.989 265.607 199.555 264.537 200.269 263.567C200.98 262.614 201.887 261.823 202.929 261.249C203.97 260.661 205.146 260.355 206.341 260.36C207.172 260.351 207.992 260.55 208.728 260.937C209.441 261.318 210.02 261.91 210.384 262.632L210.536 262.123C210.658 261.766 210.915 261.472 211.253 261.305C211.591 261.139 211.981 261.113 212.338 261.234C212.476 261.281 212.606 261.347 212.725 261.431C212.839 261.522 212.929 261.638 212.988 261.77C213.048 261.902 213.075 262.046 213.067 262.191C213.067 262.333 213.044 262.475 212.999 262.609L210.536 270.802C210.319 271.426 210.179 272.074 210.118 272.732C210.096 272.855 210.104 272.982 210.142 273.101C210.179 273.22 210.246 273.327 210.335 273.415C210.425 273.502 210.534 273.566 210.654 273.6C210.774 273.635 210.901 273.64 211.023 273.614C211.894 273.558 212.711 273.169 213.303 272.527C214.124 271.715 214.755 270.732 215.15 269.647C215.621 268.462 215.864 267.198 215.864 265.923C215.874 264.8 215.71 263.682 215.378 262.609C215.098 261.684 214.656 260.817 214.07 260.048C213.516 259.348 212.845 258.749 212.087 258.277C211.331 257.8 210.505 257.444 209.64 257.221C208.752 256.987 207.837 256.87 206.919 256.871C205.754 256.873 204.596 257.037 203.476 257.358C202.323 257.684 201.225 258.178 200.216 258.824C199.198 259.466 198.277 260.249 197.48 261.15C196.658 262.099 196.019 263.191 195.595 264.372C195.117 265.659 194.878 267.021 194.888 268.393C194.863 270.018 195.157 271.631 195.754 273.143C196.269 274.451 197.081 275.622 198.126 276.563C199.135 277.439 200.3 278.117 201.561 278.562C202.891 279.032 204.292 279.269 205.703 279.261C207.21 279.261 208.709 279.033 210.149 278.584C210.293 278.533 210.444 278.507 210.597 278.508C210.74 278.506 210.881 278.534 211.012 278.591C211.143 278.647 211.261 278.73 211.357 278.835C211.454 278.936 211.53 279.055 211.581 279.186C211.632 279.316 211.657 279.455 211.654 279.595C211.672 279.816 211.61 280.036 211.478 280.215C211.347 280.394 211.156 280.519 210.939 280.568C209.146 281.116 207.282 281.403 205.406 281.419C203.664 281.417 201.935 281.108 200.299 280.507ZM206.577 272.626C207.328 272.087 207.885 271.319 208.165 270.437L209.754 264.851L209.647 264.623C209.548 264.44 209.429 264.269 209.29 264.114C209.1 263.894 208.891 263.691 208.667 263.506C208.382 263.279 208.061 263.101 207.717 262.982C206.817 262.668 205.833 262.703 204.958 263.08C204.479 263.283 204.039 263.569 203.658 263.924C203.263 264.293 202.911 264.706 202.61 265.155C202.308 265.623 202.053 266.119 201.85 266.637C201.636 267.155 201.471 267.692 201.356 268.241C201.241 268.763 201.182 269.295 201.181 269.829C201.174 270.172 201.194 270.515 201.242 270.855C201.277 271.158 201.343 271.456 201.439 271.744C201.523 272.013 201.643 272.269 201.796 272.504C201.934 272.717 202.109 272.902 202.313 273.052C202.531 273.209 202.775 273.325 203.035 273.394C203.339 273.483 203.654 273.524 203.97 273.515C204.921 273.527 205.849 273.222 206.607 272.649L206.577 272.626Z" fill="#92E3A9" stroke="#263238" stroke-width="0.76" stroke-linecap="round" stroke-linejoin="round"/>
<path d="M222.041 210.976C222.087 213.151 221.697 215.313 220.894 217.335C220.092 219.357 218.893 221.198 217.368 222.749C215.844 224.301 214.024 225.532 212.016 226.369C210.009 227.207 207.854 227.635 205.678 227.627C201.239 227.612 196.982 225.863 193.815 222.751C190.648 219.64 188.824 215.414 188.73 210.976C188.683 208.8 189.071 206.637 189.873 204.613C190.675 202.59 191.873 200.748 193.398 199.195C194.923 197.642 196.744 196.411 198.752 195.573C200.761 194.735 202.917 194.308 205.093 194.317C209.533 194.333 213.791 196.085 216.957 199.197C220.124 202.31 221.948 206.537 222.041 210.976Z" fill="white" stroke="#263238" stroke-width="0.76" stroke-linecap="round" stroke-linejoin="round"/>
<path d="M215.842 209.454C210.62 206.034 200.383 206.034 195.405 209.454C194.495 209.624 193.676 210.117 193.098 210.841C192.521 211.565 192.223 212.473 192.259 213.398C192.335 215.61 201.523 215.61 201.447 213.398C201.402 212.473 201.049 211.59 200.444 210.89C203.89 210.145 207.455 210.145 210.902 210.89C210.341 211.603 210.05 212.491 210.081 213.398C210.157 215.61 219.345 215.61 219.262 213.398C219.218 212.452 218.857 211.548 218.237 210.832C217.616 210.116 216.772 209.631 215.842 209.454Z" fill="#92E3A9" stroke="#263238" stroke-width="0.76" stroke-linecap="round" stroke-linejoin="round"/>
<path d="M222.042 155.509C222.133 159.605 219.899 163.269 216.311 165.708V175.657L209.175 168.513C208.021 168.719 206.851 168.821 205.679 168.817C196.483 168.817 188.891 162.858 188.731 155.509C188.571 148.16 195.89 142.209 205.094 142.209C214.297 142.209 221.92 148.198 222.042 155.509Z" fill="white" stroke="#263238" stroke-width="0.76" stroke-linecap="round" stroke-linejoin="round"/>
<path d="M198.293 155.51C198.295 155.937 198.17 156.355 197.933 156.711C197.697 157.067 197.36 157.345 196.966 157.51C196.572 157.674 196.138 157.718 195.719 157.636C195.299 157.553 194.914 157.348 194.611 157.047C194.309 156.745 194.102 156.361 194.019 155.942C193.935 155.523 193.977 155.088 194.14 154.694C194.303 154.299 194.58 153.961 194.935 153.724C195.29 153.486 195.708 153.359 196.135 153.359C196.706 153.359 197.254 153.586 197.658 153.989C198.063 154.392 198.291 154.939 198.293 155.51Z" fill="#92E3A9" stroke="#263238" stroke-width="0.76" stroke-linecap="round" stroke-linejoin="round"/>
<path d="M207.528 155.51C207.529 155.937 207.404 156.355 207.168 156.711C206.931 157.067 206.595 157.345 206.201 157.51C205.806 157.674 205.372 157.718 204.953 157.636C204.534 157.553 204.148 157.348 203.846 157.047C203.543 156.745 203.337 156.361 203.253 155.942C203.169 155.523 203.211 155.088 203.375 154.694C203.538 154.299 203.814 153.961 204.169 153.724C204.524 153.486 204.942 153.359 205.369 153.359C205.94 153.359 206.488 153.586 206.893 153.989C207.297 154.392 207.526 154.939 207.528 155.51Z" fill="#92E3A9" stroke="#263238" stroke-width="0.76" stroke-linecap="round" stroke-linejoin="round"/>
<path d="M216.762 155.51C216.764 155.937 216.638 156.355 216.402 156.711C216.166 157.067 215.829 157.345 215.435 157.51C215.041 157.674 214.606 157.718 214.187 157.636C213.768 157.553 213.383 157.348 213.08 157.047C212.778 156.745 212.571 156.361 212.487 155.942C212.403 155.523 212.446 155.088 212.609 154.694C212.772 154.299 213.049 153.961 213.404 153.724C213.759 153.486 214.176 153.359 214.604 153.359C215.175 153.359 215.723 153.586 216.127 153.989C216.532 154.392 216.76 154.939 216.762 155.51Z" fill="#92E3A9" stroke="#263238" stroke-width="0.76" stroke-linecap="round" stroke-linejoin="round"/>
<path d="M112.328 185.842C112.058 186.344 111.67 186.772 111.196 187.089C107.69 189.886 104.102 192.568 100.434 195.137C99.089 196.08 97.6906 197.052 96.391 198.109C88.5782 203.338 93.351 204.614 88.5782 215.68C87.4534 218.325 87.6586 231.283 87.6586 231.283H87.271C86.3561 230.38 85.3838 229.537 84.3602 228.76C84.2188 228.664 84.0716 228.578 83.9194 228.501C83.7766 228.428 83.6224 228.379 83.4634 228.357C82.7034 228.311 79.8078 228.661 76.8818 228.471L76.1218 228.41C75.6962 228.364 75.2782 228.311 74.8602 228.235C74.4422 228.159 74.0394 228.076 73.6518 227.969C70.875 227.079 68.1522 226.028 65.497 224.823L64.1746 224.253L63.521 223.972L62.9282 223.713L62.5026 223.531L62.0922 223.356C61.4006 223.067 60.7546 222.801 60.1618 222.596C59.89 222.499 59.6135 222.415 59.3334 222.345C59.3334 222.968 59.2346 223.607 59.151 224.23C58.7862 227.202 57.973 229.945 56.5214 230.31C56.4915 230.318 56.4601 230.318 56.4302 230.31C56.3023 230.334 56.1726 230.347 56.0426 230.348H55.9286C55.607 230.342 55.2887 230.282 54.9862 230.173C53.6688 229.611 52.5922 228.602 51.9462 227.323C51.6575 226.784 51.4963 226.186 51.475 225.575C51.475 223.364 50.8594 210.314 50.8594 206.514C50.8594 202.714 51.6194 196.064 53.5118 193.594C54.2513 192.547 55.1854 191.652 56.263 190.957C57.6496 189.801 59.2399 188.915 60.9522 188.343C62.9738 187.682 67.4958 185.994 70.6498 184.801L65.8846 186.64C67.093 188.708 69.6846 191.96 74.3586 192.378C78.7514 192.751 81.4722 188.776 82.863 185.873C82.9846 185.918 90.6302 184.467 92.401 184.55C98.1694 184.801 102.874 181.678 105.002 180.439C105.644 180.055 106.364 179.822 107.109 179.756C107.854 179.69 108.604 179.793 109.303 180.057C110.002 180.322 110.633 180.741 111.148 181.283C111.662 181.826 112.048 182.478 112.275 183.19V183.258C112.607 184.084 112.626 185.003 112.328 185.842Z" fill="#92E3A9" stroke="#263238" stroke-width="0.76" stroke-linecap="round" stroke-linejoin="round"/>
<path d="M82.7793 185.917L82.4297 185.795L82.7793 185.917Z" fill="white" stroke="#263238" stroke-width="0.76" stroke-linecap="round" stroke-linejoin="round"/>
<path d="M89.2632 234.627C89.2669 234.657 89.2669 234.688 89.2632 234.718C89.2323 234.791 89.1854 234.857 89.1258 234.91C89.0662 234.963 88.9955 235.001 88.9189 235.023C88.8423 235.045 88.7618 235.05 88.6833 235.036C88.6047 235.023 88.5302 234.992 88.4652 234.946C88.1156 234.748 87.576 233.479 87.576 233.479L86.9756 232.856L86.5804 232.438C86.6412 232.59 87.12 233.753 86.8692 234.292C86.8565 234.329 86.8357 234.363 86.8084 234.391C86.6405 234.615 86.4225 234.798 86.1718 234.923C85.9212 235.048 85.6447 235.113 85.3644 235.113C85.0376 235.113 84.08 235.227 83.244 235.28H83.1528C82.8997 235.294 82.646 235.294 82.3928 235.28C81.718 235.193 81.0671 234.974 80.4776 234.634C79.1406 234.438 77.8234 234.125 76.5408 233.699L76.3128 233.578L76.1076 233.456C75.9727 233.375 75.8477 233.278 75.7352 233.167C75.2721 232.782 74.8787 232.319 74.5724 231.799C74.5724 231.799 71.4868 231.67 67.3448 231.351C65.8248 231.237 64.1832 231.093 62.4808 230.925C59.8664 230.659 57.708 230.675 56.0132 230.439H55.8916C55.5572 230.393 55.2456 230.333 54.9492 230.264C54.2259 230.123 53.557 229.781 53.0194 229.276C52.4817 228.772 52.0969 228.127 51.9092 227.414C51.8097 227.077 51.7285 226.734 51.666 226.388L52.9884 224.108C53.6777 223.555 54.4463 223.11 55.2684 222.786C56.5439 222.252 57.9524 222.122 59.304 222.413C59.5842 222.483 59.8607 222.567 60.1324 222.664C60.7252 222.892 61.3712 223.158 62.0628 223.424L62.4808 223.599L62.9064 223.782L63.4992 224.04C66.8812 225.438 70.9168 227.239 73.6148 227.999C74.4252 228.212 75.2511 228.359 76.0848 228.44L76.8448 228.501C79.7708 228.691 82.6588 228.341 83.4264 228.387C84.194 228.433 86.0712 230.219 87.272 231.321C87.5988 231.625 87.8876 231.875 88.0852 232.027L88.1764 232.103L88.2448 232.164C88.6801 232.611 88.9849 233.168 89.1264 233.775C89.1862 233.979 89.2269 234.188 89.248 234.399C89.2618 234.474 89.2669 234.55 89.2632 234.627Z" fill="white" stroke="#263238" stroke-width="0.76" stroke-linecap="round" stroke-linejoin="round"/>
<path d="M89.2633 234.626C89.267 234.657 89.267 234.687 89.2633 234.717C89.2317 234.79 89.1842 234.855 89.1242 234.907C89.0643 234.959 88.9935 234.997 88.917 235.018C88.8405 235.039 88.7602 235.043 88.682 235.029C88.6039 235.015 88.5298 234.984 88.4653 234.938C88.0895 234.502 87.789 234.006 87.5761 233.471L86.9757 232.855L86.5805 232.445C86.6337 232.567 87.1277 233.752 86.8769 234.299C86.8642 234.336 86.8434 234.37 86.8161 234.398C86.7319 234.51 86.635 234.612 86.5273 234.702C86.1996 234.966 85.7925 235.11 85.3721 235.113C85.0377 235.113 84.0877 235.219 83.2593 235.28H83.1529C82.8998 235.294 82.6461 235.294 82.3929 235.28C81.7222 235.19 81.0748 234.974 80.4853 234.641C79.1484 234.441 77.8312 234.126 76.5485 233.699L76.3281 233.593L76.1229 233.471C75.9915 233.385 75.867 233.288 75.7505 233.182C75.2806 232.793 74.882 232.325 74.5725 231.799C74.5725 231.799 71.5781 231.67 67.5197 231.358C65.9997 231.244 64.2441 231.092 62.4809 230.917C60.0793 230.682 58.0957 230.613 56.4921 230.363L55.9981 230.271L55.4281 230.142C55.2967 229.211 55.3932 228.262 55.7093 227.376C56.0039 226.628 56.4608 225.956 57.047 225.406C57.6331 224.857 58.334 224.445 59.0989 224.199C60.0482 223.85 61.0209 223.568 62.0097 223.355L62.4201 223.53L62.8457 223.713L63.4385 223.971C66.8813 225.453 70.8713 227.247 73.5769 227.984C74.3867 228.197 75.2129 228.342 76.0469 228.417L76.8069 228.478C79.7329 228.675 82.6209 228.326 83.3885 228.371C84.1561 228.417 86.0257 230.195 87.1885 231.297C87.4523 231.55 87.7288 231.788 88.0169 232.012L88.1081 232.08L88.1765 232.141C88.6201 232.582 88.9264 233.141 89.0581 233.752C89.1179 233.956 89.1586 234.164 89.1797 234.375C89.2186 234.455 89.2467 234.539 89.2633 234.626Z" fill="white" stroke="#263238" stroke-width="0.76" stroke-linecap="round" stroke-linejoin="round"/>
<path d="M80.166 232.605C80.166 232.605 81.8912 233.502 82.5752 233.814C83.2592 234.125 83.1984 235.379 83.1984 235.379" fill="white"/>
<path d="M80.166 232.605C80.166 232.605 81.8912 233.502 82.5752 233.814C83.2592 234.125 83.1984 235.379 83.1984 235.379" stroke="#263238" stroke-width="0.76" stroke-linecap="round" stroke-linejoin="round"/>
<path d="M82.0117 231.389C83.097 232.163 84.1421 232.993 85.1429 233.874C85.2891 234.046 85.3844 234.255 85.418 234.478C85.4516 234.701 85.4221 234.928 85.3329 235.135" fill="white"/>
<path d="M82.0117 231.389C83.097 232.163 84.1421 232.993 85.1429 233.874C85.2891 234.046 85.3844 234.255 85.418 234.478C85.4516 234.701 85.4221 234.928 85.3329 235.135" stroke="#263238" stroke-width="0.76" stroke-linecap="round" stroke-linejoin="round"/>
<path d="M86.557 232.431C85.6578 231.468 84.7064 230.554 83.707 229.695L86.557 232.431Z" fill="white"/>
<path d="M86.557 232.431C85.6578 231.468 84.7064 230.554 83.707 229.695" stroke="#263238" stroke-width="0.76" stroke-linecap="round" stroke-linejoin="round"/>
<path d="M82.7716 185.933C81.396 188.829 78.6676 192.773 74.2748 192.431C69.6236 192.036 67.0092 188.76 65.8008 186.685C67.4728 186.047 69.1676 185.393 70.5584 184.846C70.5584 183.433 70.5128 181.738 70.3608 180.058C70.3608 179.693 70.2848 179.298 70.2468 178.956C70.2088 178.614 70.1632 178.371 70.1176 178.09H78.9564C78.9564 178.09 78.9032 178.439 78.8348 179.025C78.7816 179.549 78.7132 180.248 78.66 181.039C78.5916 182.087 78.546 183.319 78.5764 184.481C79.002 184.626 79.4352 184.785 79.8684 184.953L80.7044 185.241C81.0388 185.363 81.3656 185.469 81.7152 185.583L82.4752 185.811C82.5764 185.846 82.6754 185.886 82.7716 185.933Z" fill="white" stroke="#263238" stroke-width="0.76" stroke-linecap="round" stroke-linejoin="round"/>
<path d="M70.2461 178.926C70.2461 178.926 71.8953 183.212 74.2893 183.942C76.6833 184.671 78.8493 179.025 78.8493 179.025C78.8493 179.025 75.4749 182.627 74.2209 182.065C72.9669 181.502 70.2613 178.956 70.2613 178.956" fill="#263238"/>
<path d="M68.8263 155.252C66.5928 157.263 64.8219 159.734 63.6355 162.495C62.5487 164.775 61.6291 167.397 62.4651 169.784C62.9654 170.969 63.6731 172.055 64.5551 172.991C66.1967 174.959 68.4995 180.454 70.1411 182.422C70.2475 178.919 67.3139 173.257 67.6255 170.316C68.0029 168.043 68.75 165.848 69.8371 163.818C70.9427 161.155 72.3886 158.646 74.1387 156.354C75.1343 155.154 78.3339 153.018 75.1039 152.76C72.9607 152.585 70.4451 153.922 68.8263 155.252Z" fill="#263238" stroke="#263238" stroke-width="0.76" stroke-linecap="round" stroke-linejoin="round"/>
<path d="M66.759 167.2C66.759 167.2 65.6266 165.004 64.4334 167.086C63.5746 168.606 64.8134 171 65.3454 171.89C65.522 172.143 65.7611 172.346 66.0394 172.479C66.3178 172.612 66.6259 172.671 66.9338 172.65L66.759 167.2Z" fill="white" stroke="#263238" stroke-width="0.76" stroke-linecap="round" stroke-linejoin="round"/>
<path d="M81.639 175.135C80.9128 176.57 79.9666 177.883 78.8346 179.026L78.1506 179.733C76.737 181.131 75.2094 182.241 74.2062 182.013C73.3322 181.838 72.1922 180.941 71.075 179.794C70.7938 179.513 70.5202 179.209 70.2466 178.905C69.0302 177.574 67.9859 176.095 67.1382 174.504C66.9028 173.907 66.7518 173.281 66.6898 172.642C66.4981 170.739 66.4321 168.824 66.4922 166.912C66.4922 166.235 66.4922 165.696 66.4922 165.392C66.4922 164.069 71.4474 159.471 71.4474 159.471C71.581 159.422 71.7245 159.407 71.8654 159.426C72.7177 159.581 73.5391 159.874 74.2974 160.292C77.2994 161.751 81.487 164.647 81.791 165.749C82.2546 167.353 82.0798 173.706 81.639 175.135Z" fill="white" stroke="#263238" stroke-width="0.76" stroke-linecap="round" stroke-linejoin="round"/>
<path d="M71.7983 169.037C71.7983 169.569 71.6007 170.002 71.3803 170.002C71.1599 170.002 70.9395 169.584 70.9395 169.037C70.9395 168.49 71.1371 168.057 71.3803 168.057C71.6235 168.057 71.7983 168.505 71.7983 169.037Z" fill="#263238"/>
<path d="M77.4584 168.064C77.7016 168.064 77.8992 168.498 77.8992 169.037C77.8992 169.577 77.7016 170.002 77.4584 170.002C77.2152 170.002 77.0176 169.569 77.0176 169.037C77.0176 168.505 77.2152 168.064 77.4584 168.064Z" fill="#263238"/>
<path d="M68.9707 166.644C68.9707 166.644 69.7307 165.124 72.4211 165.588" stroke="#263238" stroke-width="0.76" stroke-linecap="round" stroke-linejoin="round"/>
<path d="M79.9602 166.644C79.9602 166.644 79.2002 165.124 76.5098 165.588" stroke="#263238" stroke-width="0.76" stroke-linecap="round" stroke-linejoin="round"/>
<path d="M74.9824 172.755C75.2558 172.737 75.5163 172.633 75.7257 172.456C75.9351 172.28 76.0822 172.041 76.1452 171.774C76.1452 171.774 74.6708 169.494 75.1192 167.26" stroke="#263238" stroke-width="0.76" stroke-linecap="round" stroke-linejoin="round"/>
<path d="M65.7996 161.879C65.1873 162.71 64.7244 163.641 64.4316 164.63" stroke="white" stroke-width="0.76" stroke-linecap="round" stroke-linejoin="round"/>
<path d="M72.1542 155.799C72.1542 155.799 71.3106 157.197 67.5942 160.047C67.3547 160.22 67.1262 160.408 66.9102 160.61" stroke="white" stroke-width="0.76" stroke-linecap="round" stroke-linejoin="round"/>
<path d="M60.2368 200.357C59.7301 207.582 59.2235 214.813 58.7168 222.048V221.493" fill="#263238"/>
<path d="M60.2368 200.357C59.7301 207.582 59.2235 214.813 58.7168 222.048V221.493" stroke="#263238" stroke-width="0.76" stroke-linecap="round" stroke-linejoin="round"/>
<path d="M108.246 176.501C108.933 176.233 109.675 176.137 110.408 176.221C111.141 176.306 111.842 176.569 112.449 176.987C113.661 177.846 114.543 179.093 114.949 180.521C115.434 181.944 115.385 183.494 114.813 184.884C114.516 185.569 114.04 186.16 113.433 186.595C112.827 187.03 112.114 187.293 111.37 187.354C110.261 187.34 109.19 186.951 108.33 186.252C105.487 184.124 104.066 178.302 108.246 176.501Z" fill="white" stroke="#263238" stroke-width="0.76" stroke-linecap="round" stroke-linejoin="round"/>
<path d="M114.54 152.235C114.54 152.326 114.54 152.927 114.593 153.033C114.859 154.203 115.422 157.129 114.001 157.722C114.54 159.645 115.863 172.208 115.688 178.615C115.642 180.53 115.308 182.802 113.59 183.623C110.695 184.999 107.943 181.647 108.27 179.025C108.779 175.445 108.605 171.797 109.03 168.18C109.494 164.425 110.345 160.58 109.41 156.909C109.182 156.658 107.723 153.763 107.244 152.965C107.029 152.623 106.861 152.255 106.743 151.87C106.555 150.559 106.464 149.235 106.469 147.911C106.902 147.09 107.465 147.85 107.761 148.389C108.003 149.047 108.086 149.753 108.004 150.449C107.976 150.619 108 150.794 108.073 150.951C108.136 151.04 108.223 151.111 108.323 151.156C108.423 151.202 108.533 151.22 108.643 151.209C109.577 151.072 109.539 150.289 109.524 149.689C109.524 147.675 109.524 145.661 109.524 143.662C109.524 143.328 109.631 142.423 109.95 142.393C110.269 142.363 110.748 142.621 110.793 143.693C110.847 144.901 110.847 148.625 110.847 148.625C110.877 148.656 110.914 148.678 110.955 148.69C110.997 148.702 111.04 148.703 111.082 148.693C111.158 148.693 111.189 148.557 111.219 148.481C111.667 146.611 112.123 144.741 112.572 142.872C112.625 142.651 112.952 142.195 113.187 142.195C113.75 142.195 113.765 142.849 113.795 143.039C113.993 144.042 112.587 148.177 112.351 149.119C112.351 149.286 112.351 149.537 112.526 149.491L114.73 145.045C114.832 144.786 114.993 144.553 115.2 144.366C115.407 144.179 115.655 144.042 115.923 143.966C115.96 143.954 116 143.954 116.037 143.966C116.077 143.989 116.109 144.024 116.129 144.065C116.341 144.445 116.129 144.969 116.007 145.387C115.885 145.805 114.236 148.876 113.651 150.115C113.567 150.289 113.431 150.685 113.598 150.875C113.765 151.065 114.069 150.7 114.191 150.449C114.563 149.689 114.913 148.975 115.255 148.23C115.361 148.009 115.521 147.698 115.771 147.751C117.253 148.07 115.148 151.179 114.54 152.235Z" fill="white" stroke="#263238" stroke-width="0.76" stroke-linecap="round" stroke-linejoin="round"/>
<path d="M110.451 151.58C111.216 152.186 111.881 152.909 112.42 153.723C112.685 154.132 112.863 154.592 112.942 155.074C113.02 155.555 112.998 156.048 112.876 156.52C112.839 156.643 112.79 156.763 112.731 156.877" fill="white"/>
<path d="M110.451 151.58C111.216 152.186 111.881 152.909 112.42 153.723C112.685 154.132 112.863 154.592 112.942 155.074C113.02 155.555 112.998 156.048 112.876 156.52C112.839 156.643 112.79 156.763 112.731 156.877" stroke="#263238" stroke-width="0.76" stroke-linecap="round" stroke-linejoin="round"/>
<path d="M89.041 199.059C89.8453 200.68 90.3866 202.42 90.6446 204.211C90.865 206.005 90.9334 207.411 89.7098 212.45" stroke="#263238" stroke-width="0.76" stroke-linecap="round" stroke-linejoin="round"/>
<path d="M71.8886 158.331C71.7846 158.642 71.7585 158.973 71.8126 159.296C71.9568 159.703 72.2221 160.056 72.5726 160.307C75.0018 162.436 77.7189 164.211 80.6439 165.581C81.0107 165.677 81.3287 165.906 81.5354 166.224C81.742 166.541 81.8225 166.925 81.7611 167.299V173.174C81.7984 173.78 81.7394 174.388 81.5862 174.975C81.1606 176.343 80.2183 177.445 79.5343 178.707C78.8389 179.903 78.4865 181.268 78.5158 182.651C78.3258 181.199 83.4027 178.387 84.7783 172.672C84.9683 171.867 88.9202 167.071 86.549 161.439C84.269 156.036 80.6818 153.71 79.4734 153.429C78.6532 153.189 77.7876 153.148 76.9484 153.31C76.1092 153.471 75.3204 153.83 74.6475 154.356C73.3194 155.345 72.3507 156.741 71.8886 158.331Z" fill="#263238" stroke="#263238" stroke-width="0.76" stroke-linecap="round" stroke-linejoin="round"/>
<path d="M76.865 174.798C76.4318 174.889 75.991 174.973 75.5502 175.026C74.0302 175.216 72.4038 174.981 71.4082 173.871C71.4842 174.867 72.1682 178.629 74.2126 178.735C76.257 178.841 76.865 174.798 76.865 174.798Z" stroke="#263238" stroke-width="0.76" stroke-linecap="round" stroke-linejoin="round"/>
<path d="M74.8906 156.035C75.7672 158.025 77.1639 159.742 78.9338 161.006C80.2182 161.925 81.685 162.586 82.863 163.635C84.383 165.026 85.3786 167.23 84.7934 169.229" stroke="white" stroke-width="0.76" stroke-linecap="round" stroke-linejoin="round"/>
<path d="M90.7754 186.738C89.3112 187.913 88.3471 189.6 88.0774 191.458C87.8154 193.063 88.013 194.71 88.6474 196.208" stroke="#263238" stroke-width="0.76" stroke-linecap="round" stroke-linejoin="round"/>
<path d="M62.4655 199.279C62.3439 201.27 61.1051 202.996 59.9043 204.599L62.4655 199.279Z" fill="#263238"/>
<path d="M62.4655 199.279C62.3439 201.27 61.1051 202.996 59.9043 204.599" stroke="#263238" stroke-width="0.76" stroke-linecap="round" stroke-linejoin="round"/>
<path d="M59.5 214.502C60.1036 215.513 60.9116 216.386 61.8722 217.067C62.8327 217.747 63.9248 218.22 65.0784 218.454" stroke="#263238" stroke-width="0.76" stroke-linecap="round" stroke-linejoin="round"/>
<path d="M88.5787 215.688C88.5787 215.688 86.5343 218.728 79.5879 219.366" stroke="#263238" stroke-width="0.76" stroke-linecap="round" stroke-linejoin="round"/>
<path d="M292.067 189.049C292.067 189.049 265.581 197.257 260.596 190.775L261.272 157.707H265.292L270.02 181.001L291.725 177.026C291.725 177.026 294.507 185.645 292.067 189.049Z" fill="white"/>
<path d="M280.91 190.206C279.392 190.81 277.942 191.574 276.586 192.486C278.38 193.056 280.295 192.334 282.088 191.764C284.457 191.037 286.872 190.468 289.316 190.062C289.43 189.386 288.556 187.843 288.214 187.242C287.591 186.193 287.454 186.102 286.405 186.619C284.498 187.577 282.871 189.241 280.91 190.206Z" fill="#92E3A9"/>
<path d="M292.067 189.049C292.067 189.049 265.581 197.257 260.596 190.775L261.272 157.707H265.292L270.02 181.001L291.725 177.026C291.725 177.026 294.507 185.645 292.067 189.049Z" stroke="#263238" stroke-width="0.76" stroke-linecap="round" stroke-linejoin="round"/>
<path d="M289.467 189.917L294.119 218.554C293.997 237.113 302.851 234.324 308.999 234.271C316.105 234.21 326.89 227.165 321.6 216.198L323.637 176.503L311.257 175.561C307.175 175.241 290.455 175.766 289.125 177.901C285.675 183.442 289.467 189.917 289.467 189.917Z" fill="white"/>
<path d="M290.198 192.279C292.96 202.729 299.585 211.741 308.734 217.496C307.744 217.339 306.776 217.061 305.854 216.668C304.926 216.268 303.886 216.211 302.92 216.508C302.687 216.592 302.473 216.721 302.289 216.888C302.106 217.055 301.958 217.257 301.853 217.482C301.747 217.706 301.687 217.949 301.676 218.197C301.665 218.444 301.703 218.692 301.788 218.925C302.01 219.281 302.311 219.58 302.669 219.799C304.178 220.86 305.828 221.704 307.571 222.307C306.043 222.15 304.498 222.268 303.011 222.656C302.738 223.979 304.212 224.937 305.375 225.583C307.23 226.676 308.819 228.169 310.026 229.953C305.945 229.961 301.868 230.195 297.813 230.652C297.278 230.772 296.719 230.718 296.217 230.5C295.691 230.108 295.337 229.528 295.229 228.881C294.325 225.719 293.8 222.461 293.663 219.176C293.587 217.329 293.663 215.467 293.42 213.635C293.224 212.191 292.955 210.758 292.615 209.341C291.434 203.859 290.53 198.334 289.901 192.766C289.62 192.788 290.198 192.279 290.198 192.279Z" fill="#92E3A9"/>
<path d="M321.593 189.999C320.568 189.67 319.612 189.154 318.773 188.479C319.009 189.619 320.711 191.587 321.707 192.195C321.912 192.324 322.209 192.431 322.391 192.256C322.573 192.081 322.695 191.633 322.877 191.496L321.593 189.999Z" fill="#92E3A9"/>
<path d="M289.467 189.917L294.119 218.554C293.997 237.113 302.851 234.324 308.999 234.271C316.105 234.21 326.89 227.165 321.6 216.198L323.637 176.503L311.257 175.561C307.175 175.241 290.455 175.766 289.125 177.901C285.675 183.442 289.467 189.917 289.467 189.917Z" stroke="#263238" stroke-width="0.76" stroke-linecap="round" stroke-linejoin="round"/>
<path d="M298.519 174.975C297.187 177.414 296.545 180.171 296.664 182.947C296.663 183.19 296.709 183.43 296.801 183.654C297.143 184.331 298.078 184.331 298.83 184.414C301.756 184.787 303.573 187.872 306.332 188.906C306.428 188.965 306.536 189.005 306.648 189.022C306.761 189.039 306.875 189.033 306.985 189.005C307.095 188.976 307.198 188.926 307.289 188.857C307.379 188.787 307.454 188.701 307.51 188.602C308.71 187.082 309.136 184.946 310.778 183.966C311.492 183.54 312.396 183.365 312.89 182.697C313.453 181.937 313.202 180.842 312.928 179.915C312.48 178.395 311.978 176.814 310.816 175.758C309.577 174.791 308.055 174.257 306.484 174.238C304.184 174.05 301.869 174.266 299.644 174.876C299.674 175.165 298.519 174.975 298.519 174.975Z" fill="#92E3A9" stroke="#263238" stroke-width="0.76" stroke-linecap="round" stroke-linejoin="round"/>
<path d="M335.302 194.407C333.445 191.702 332.076 188.693 331.259 185.515C330.962 183.923 330.498 182.367 329.876 180.871C329.289 179.716 328.442 178.714 327.402 177.942C326.361 177.17 325.155 176.651 323.88 176.425C323.335 176.306 322.769 176.332 322.238 176.501C321.136 176.919 320.65 178.189 320.429 179.344C319.952 181.825 320.093 184.386 320.84 186.799C321.349 188.441 327.467 200.343 331.48 204.956C331.13 202.63 333.805 194.855 335.302 194.407Z" fill="white"/>
<path d="M323.304 192.076L327.058 199.151C327.598 200.162 328.206 201.241 329.254 201.682C328.594 199.344 328.219 196.935 328.137 194.508C328.178 193.288 328.037 192.068 327.719 190.89C327.567 191.019 327.408 190.472 327.408 190.472C327.24 190.784 326.8 190.791 326.458 190.723C324.003 190.206 322.316 188.017 320.856 185.98C320.666 186.663 320.636 187.38 320.768 188.076C320.9 188.771 321.19 189.428 321.616 189.993C321.616 189.993 323.182 191.84 323.304 192.076Z" fill="#92E3A9"/>
<path d="M335.302 194.407C333.445 191.702 332.076 188.693 331.259 185.515C330.962 183.923 330.498 182.367 329.876 180.871C329.289 179.716 328.442 178.714 327.402 177.942C326.361 177.17 325.155 176.651 323.88 176.425C323.335 176.306 322.769 176.332 322.238 176.501C321.136 176.919 320.65 178.189 320.429 179.344C319.952 181.825 320.093 184.386 320.84 186.799C321.349 188.441 327.467 200.343 331.48 204.956C331.13 202.63 333.805 194.855 335.302 194.407Z" stroke="#263238" stroke-width="0.76" stroke-linecap="round" stroke-linejoin="round"/>
<path d="M330.028 202.921C325.94 195.086 327.916 177.028 327.794 174.125L333.19 173.836C333.73 173.836 336.23 189.234 337.932 195.625C339.452 201.447 337.993 207.337 335.303 207.337C333.068 207.337 330.887 204.57 330.028 202.921Z" fill="white" stroke="#263238" stroke-width="0.76" stroke-linecap="round" stroke-linejoin="round"/>
<path d="M281.307 182.575C285.107 177.027 292.562 176.586 292.562 176.586" stroke="#263238" stroke-width="0.76" stroke-linecap="round" stroke-linejoin="round"/>
<path d="M266.646 185.683C267.796 184.627 268.697 183.329 269.284 181.883L266.646 185.683Z" fill="white"/>
<path d="M266.646 185.683C267.796 184.627 268.697 183.329 269.284 181.883" stroke="#263238" stroke-width="0.76" stroke-linecap="round" stroke-linejoin="round"/>
<path d="M294.879 211.902C297.045 215.452 311.075 219.244 316.668 218.431" stroke="#263238" stroke-width="0.76" stroke-linecap="round" stroke-linejoin="round"/>
<path d="M298.846 221.921C302.887 222.616 307.029 222.458 311.006 221.457" stroke="#263238" stroke-width="0.76" stroke-linecap="round" stroke-linejoin="round"/>
<path d="M317.459 187.484L320.134 191.11C320.499 191.604 321.008 192.158 321.609 192.022" stroke="#263238" stroke-width="0.76" stroke-linecap="round" stroke-linejoin="round"/>
<path d="M337.341 324.997C337.106 325.962 337.03 327.11 337.721 327.832C338.413 328.554 339.416 328.539 340.351 328.524L343.566 328.463C344.805 328.525 346.045 328.331 347.206 327.893C347.787 327.667 348.284 327.268 348.631 326.75C348.978 326.232 349.157 325.62 349.144 324.997C349.065 324.515 348.911 324.049 348.688 323.614C348.399 322.991 348.11 322.36 347.829 321.737C344.28 313.916 338.861 318.674 337.341 324.997Z" fill="white" stroke="#263238" stroke-width="0.76" stroke-linecap="round" stroke-linejoin="round"/>
<path d="M332.811 315.781C332.924 319.37 332.623 322.961 331.915 326.481C331.747 327.279 331.915 328.488 332.675 328.412C332.973 328.366 333.243 328.212 333.435 327.979C336.228 325.223 338.226 321.765 339.218 317.969C339.367 317.575 339.437 317.155 339.423 316.734C339.408 316.312 339.31 315.898 339.135 315.515C338.926 315.207 338.67 314.935 338.375 314.709C335.798 312.649 332.576 310.605 332.811 315.781Z" fill="white" stroke="#263238" stroke-width="0.76" stroke-linecap="round" stroke-linejoin="round"/>
<path d="M323.987 223.92C323.987 223.92 327.992 230.882 328.851 232.5C329.71 234.119 347.851 257.96 351.332 275.319C351.985 278.617 338.602 315.508 338.602 315.508L335.562 313.79C335.562 313.79 337.675 280.145 337.158 277.348C336.641 274.551 323.288 253.91 323.288 253.91C323.288 253.91 315.832 248.43 312.762 242.061L323.987 223.92Z" fill="#263238"/>
<path d="M324.421 241.362C324.421 241.362 322.141 246.439 322.141 247.169C322.141 247.898 334.681 287.525 338.367 296.69C340.698 302.593 342.753 308.632 344.531 314.809C344.531 314.809 345.96 316.686 344.881 318.609C343.801 320.532 339.507 321.793 338.626 320.076C337.744 318.358 329.057 309.436 325.394 300.559C321.731 291.682 316.578 276.847 313.645 271.322C309.802 264.261 306.391 256.975 303.43 249.502C299.744 240.07 295.975 229.902 295.975 229.902C297.506 230.039 299.044 230.083 300.58 230.031C304.198 229.907 307.78 229.273 311.22 228.146C319.231 225.456 322.696 220.303 322.696 220.303C322.696 220.303 324.68 225.676 325.197 226.717L324.421 241.362Z" fill="#263238"/>
<path d="M349.995 278.715C349.21 280.06 348.154 281.227 346.895 282.142" stroke="white" stroke-width="0.76" stroke-linecap="round" stroke-linejoin="round"/>
<path d="M350.975 276.504C350.861 276.874 350.724 277.237 350.564 277.591" stroke="white" stroke-width="0.76" stroke-linecap="round" stroke-linejoin="round"/>
<path d="M317.178 229.52C319.199 233 321.092 238.009 320.788 242.022C320.625 242.75 320.369 243.455 320.028 244.119" stroke="white" stroke-width="0.76" stroke-linecap="round" stroke-linejoin="round"/>
<path d="M304.941 233.389C305.162 235.327 305.458 238.549 305.032 240.449C304.673 242.392 303.558 244.114 301.932 245.237" stroke="white" stroke-width="0.76" stroke-linecap="round" stroke-linejoin="round"/>
<path d="M322.178 226.055C322.619 226.605 322.978 227.217 323.242 227.871C323.756 228.811 324.464 229.631 325.318 230.278C326.172 230.925 327.153 231.384 328.197 231.625" stroke="white" stroke-width="0.76" stroke-linecap="round" stroke-linejoin="round"/>
<path d="M315.725 233.822C318.407 239.689 320.459 245.572 324.624 255.543" stroke="white" stroke-width="0.76" stroke-linecap="round" stroke-linejoin="round"/>
<path d="M314.297 230.82C314.525 231.276 314.745 231.732 314.966 232.188" stroke="white" stroke-width="0.76" stroke-linecap="round" stroke-linejoin="round"/>
<path d="M336.625 275.705C337.855 278.075 339.419 280.255 341.269 282.18" stroke="white" stroke-width="0.76" stroke-linecap="round" stroke-linejoin="round"/>
<path d="M337.896 277.895C338.702 281.613 340.172 285.156 342.236 288.352" stroke="white" stroke-width="0.76" stroke-linecap="round" stroke-linejoin="round"/>
<path d="M319.001 278.085C313.081 265.453 306.765 252.921 299.006 233.822" stroke="white" stroke-width="0.76" stroke-linecap="round" stroke-linejoin="round"/>
<path d="M320.339 281.756C320.194 281.315 320.042 280.874 319.883 280.426" stroke="white" stroke-width="0.76" stroke-linecap="round" stroke-linejoin="round"/>
<path d="M340.807 320.59C339.287 318.606 328.206 303.11 325.455 296.088C323.623 291.406 322.24 288.1 320.895 283.434" stroke="white" stroke-width="0.76" stroke-linecap="round" stroke-linejoin="round"/>
<path d="M336.625 290.768L341.892 306.249" stroke="white" stroke-width="0.76" stroke-linecap="round" stroke-linejoin="round"/>
<path d="M333.076 173.843L331.48 173.972C329.458 174.332 327.381 174.236 325.4 173.691C324.131 173.379 321.19 172.467 320.84 172.407C319.967 172.22 319.084 172.078 318.196 171.981C315.513 171.821 316.873 170.818 317.99 170.864C319.465 170.932 319.959 170.902 321.091 170.985C320.954 170.909 320.536 170.826 320.529 170.499C320.529 169.701 321.578 169.739 321.578 169.739C321.578 169.739 320.43 169.253 320.59 168.652C320.749 168.052 321.517 167.892 322.003 167.938C322.003 167.938 321.357 167.626 321.388 167.292C321.524 166 324.177 165.909 324.177 165.909C323.535 165.622 322.935 165.251 322.391 164.807C322.192 164.593 322.053 164.331 321.988 164.047C321.974 163.911 321.996 163.774 322.053 163.651C322.11 163.527 322.198 163.42 322.31 163.343C322.422 163.265 322.553 163.219 322.689 163.209C322.824 163.199 322.96 163.226 323.082 163.287C323.769 163.744 324.431 164.236 325.066 164.761C325.887 165.346 326.837 165.719 327.703 166.243C328.548 166.966 329.229 167.859 329.702 168.865C329.839 169.078 333.076 173.843 333.076 173.843Z" fill="white" stroke="#263238" stroke-width="0.76" stroke-linecap="round" stroke-linejoin="round"/>
<path d="M261.274 157.708V153.52C261.264 151.419 261.571 149.328 262.186 147.318C262.535 146.209 262.946 145.244 263.318 145.099C264.01 144.848 264.314 147.653 264.314 147.653C263.794 145.404 263.461 143.116 263.318 140.813C263.318 138.373 266.601 148.504 266.601 148.504L265.294 157.708H261.274Z" fill="white" stroke="#263238" stroke-width="0.76" stroke-linecap="round" stroke-linejoin="round"/>
<path d="M265.238 150.898C265.635 150.592 265.932 150.173 266.089 149.697L265.238 150.898Z" fill="white"/>
<path d="M265.238 150.898C265.635 150.592 265.932 150.173 266.089 149.697" stroke="#263238" stroke-width="0.76" stroke-linecap="round" stroke-linejoin="round"/>
<path d="M297.068 166.441C298.488 168.83 299.273 171.543 299.348 174.322C299.485 178.943 304.836 185.41 306.363 185.722C307.891 186.033 309.304 178.426 309.236 176.123C309.168 173.82 308.316 167.459 308.316 167.459C308.316 167.459 300.998 161.926 297.068 166.441Z" fill="white" stroke="#263238" stroke-width="0.76" stroke-linecap="round" stroke-linejoin="round"/>
<path d="M299.219 172.559C299.219 172.559 306.234 182.127 308.985 172.399C311.736 162.671 301.271 175.059 299.219 172.559Z" fill="#263238"/>
<path d="M311.059 165.68C310.686 171.358 308.095 174.55 305.108 175.112C302.379 175.614 298.389 172.832 296.398 168.705C296.246 168.606 293.822 166.927 293.244 166.516C292.943 166.305 292.697 166.024 292.527 165.697C292.358 165.371 292.27 165.007 292.272 164.639C292.291 164.286 292.416 163.947 292.63 163.665C292.844 163.383 293.137 163.172 293.472 163.058H293.541C293.883 162.984 294.239 163.01 294.567 163.134C294.065 161.196 293.655 159.228 293.343 157.244C293.488 152.684 295 148.96 299.864 148.596C304.728 148.231 308.794 150.952 308.984 152.912C309.121 154.432 309.615 158.453 310.055 162.61C310.177 163.689 311.142 164.404 311.059 165.68Z" fill="white" stroke="#263238" stroke-width="0.76" stroke-linecap="round" stroke-linejoin="round"/>
<path d="M308.984 159.113C308.984 159.113 305.853 157.676 306.385 162.343C306.491 163.262 308.201 164.623 308.201 164.623C308.201 164.623 307.761 165.998 306.947 165.998" fill="white"/>
<path d="M308.984 159.113C308.984 159.113 305.853 157.676 306.385 162.343C306.491 163.262 308.201 164.623 308.201 164.623C308.201 164.623 307.761 165.998 306.947 165.998" stroke="#263238" stroke-width="0.76" stroke-linecap="round" stroke-linejoin="round"/>
<path d="M302.935 160.711C302.935 160.711 301.339 159.738 300.244 160.338C299.673 160.587 299.187 160.996 298.846 161.516" fill="white"/>
<path d="M302.935 160.711C302.935 160.711 301.339 159.738 300.244 160.338C299.673 160.587 299.187 160.996 298.846 161.516" stroke="#263238" stroke-width="0.76" stroke-linecap="round" stroke-linejoin="round"/>
<path d="M302.022 163.4C302.144 163.963 302.022 164.464 301.695 164.533C301.369 164.601 301.049 164.191 300.935 163.628C300.821 163.066 300.935 162.564 301.27 162.496C301.604 162.427 301.908 162.83 302.022 163.4Z" fill="#263238"/>
<path d="M308.194 161.758C308.316 162.321 308.194 162.822 307.867 162.891C307.541 162.959 307.221 162.549 307.107 161.994C306.993 161.439 307.107 160.922 307.434 160.862C307.761 160.801 308.08 161.204 308.194 161.758Z" fill="#263238"/>
<path d="M292.98 151.355C292.424 151.899 292.038 152.594 291.87 153.354C291.415 154.961 291.283 156.642 291.483 158.3C291.683 159.958 292.209 161.56 293.033 163.013C293.54 162.951 294.053 162.972 294.553 163.074C295.085 163.211 295.769 164.123 296.02 164.594C296.24 165.096 296.366 165.635 296.392 166.182C296.271 164.738 296.157 163.302 296.035 161.858C295.953 161.281 295.979 160.693 296.111 160.125C296.483 158.94 296.073 156.143 296.179 153.642C299.333 157.496 303.916 156.812 305.436 156.682C307.716 156.492 309.662 154.159 309.54 152.495C309.419 150.83 308.97 146.544 301.454 146.103C299.798 145.927 298.128 146.275 296.681 147.099C296.222 147.401 295.833 147.797 295.538 148.261C295.243 148.725 295.05 149.245 294.971 149.789C294.865 150.488 295.131 150.549 294.599 150.891C294.067 151.233 293.504 150.906 292.98 151.355Z" fill="#263238" stroke="#263238" stroke-width="0.76" stroke-linecap="round" stroke-linejoin="round"/>
<path d="M302.936 168.674C302.936 168.674 304.053 169.905 306.386 169.092L302.936 168.674Z" fill="white"/>
<path d="M302.936 168.674C302.936 168.674 304.053 169.905 306.386 169.092" stroke="#263238" stroke-width="0.76" stroke-linecap="round" stroke-linejoin="round"/>
</svg>
