<svg width="500" height="500" viewBox="0 0 500 500" fill="none" xmlns="http://www.w3.org/2000/svg">
<path d="M500 382.4H0V382.65H500V382.4Z" fill="#EBEBEB"/>
<path d="M449.9 398.49H416.78V398.74H449.9V398.49Z" fill="#EBEBEB"/>
<path d="M331.22 401.21H322.53V401.46H331.22V401.21Z" fill="#EBEBEB"/>
<path d="M415.78 389.21H396.59V389.46H415.78V389.21Z" fill="#EBEBEB"/>
<path d="M95.65 390.89H52.46V391.14H95.65V390.89Z" fill="#EBEBEB"/>
<path d="M110.89 390.89H104.56V391.14H110.89V390.89Z" fill="#EBEBEB"/>
<path d="M225.15 395.11H131.47V395.36H225.15V395.11Z" fill="#EBEBEB"/>
<path d="M237 337.8H43.91C42.3973 337.797 40.9475 337.195 39.8788 336.124C38.8102 335.053 38.21 333.603 38.21 332.09V60.66C38.2231 59.156 38.8292 57.718 39.8964 56.6582C40.9637 55.5985 42.4059 55.0026 43.91 55H237C238.514 55 239.967 55.6016 241.038 56.6724C242.108 57.7433 242.71 59.1956 242.71 60.71V332.09C242.71 333.604 242.108 335.057 241.038 336.128C239.967 337.198 238.514 337.8 237 337.8ZM43.91 55.2C42.4636 55.2026 41.0774 55.7791 40.0556 56.8027C39.0338 57.8264 38.46 59.2136 38.46 60.66V332.09C38.46 333.536 39.0338 334.924 40.0556 335.947C41.0774 336.971 42.4636 337.547 43.91 337.55H237C238.447 337.547 239.834 336.971 240.858 335.948C241.881 334.924 242.457 333.537 242.46 332.09V60.66C242.457 59.2127 241.881 57.8255 240.858 56.8021C239.834 55.7787 238.447 55.2026 237 55.2H43.91Z" fill="#EBEBEB"/>
<path d="M453.31 337.8H260.21C258.696 337.797 257.246 337.195 256.175 336.125C255.105 335.054 254.503 333.604 254.5 332.09V60.66C254.516 59.1551 255.124 57.7171 256.193 56.6576C257.262 55.5981 258.705 55.0025 260.21 55H453.31C454.812 55.0052 456.252 55.6022 457.317 56.6617C458.382 57.7212 458.987 59.1578 459 60.66V332.09C459 333.601 458.401 335.05 457.335 336.121C456.268 337.191 454.821 337.795 453.31 337.8ZM260.21 55.2C258.763 55.2026 257.375 55.7787 256.352 56.8021C255.329 57.8255 254.753 59.2127 254.75 60.66V332.09C254.753 333.537 255.329 334.924 256.352 335.948C257.375 336.971 258.763 337.547 260.21 337.55H453.31C454.757 337.547 456.145 336.971 457.168 335.948C458.191 334.924 458.767 333.537 458.77 332.09V60.66C458.767 59.2127 458.191 57.8255 457.168 56.8021C456.145 55.7787 454.757 55.2026 453.31 55.2H260.21Z" fill="#EBEBEB"/>
<path d="M267.78 382.4H302.88V251.67H267.78V382.4Z" fill="#E6E6E6"/>
<path d="M273.62 382.4H267.78V370.63H279.75L273.62 382.4Z" fill="#F0F0F0"/>
<path d="M410.64 382.4H445.74V251.67H410.64V382.4Z" fill="#E6E6E6"/>
<path d="M267.78 377.88H415.74V251.67H267.78V377.88Z" fill="#F0F0F0"/>
<path d="M272.32 291.87H411.21V257.26H272.32V291.87Z" fill="#E6E6E6"/>
<path d="M335.2 268H348.32C354.02 268 359.47 263.73 363.39 256.19H320.13C324.05 263.75 329.5 268 335.2 268Z" fill="#F0F0F0"/>
<path d="M409.9 382.4H415.74V370.63H403.77L409.9 382.4Z" fill="#F0F0F0"/>
<path d="M272.32 332.08H411.21V297.47H272.32V332.08Z" fill="#E6E6E6"/>
<path d="M335.2 308.22H348.32C354.02 308.22 359.47 303.95 363.39 296.41H320.13C324.05 304 329.5 308.22 335.2 308.22Z" fill="#F0F0F0"/>
<path d="M272.32 372.29H411.21V337.68H272.32V372.29Z" fill="#E6E6E6"/>
<path d="M335.2 348.43H348.32C354.02 348.43 359.47 344.16 363.39 336.62H320.13C324.05 344.16 329.5 348.43 335.2 348.43Z" fill="#F0F0F0"/>
<path d="M77.9903 222.02L212.03 222.02L212.03 86.3895L77.9903 86.3895L77.9903 222.02Z" fill="#E6E6E6"/>
<path d="M68.6796 222.02L209.56 222.02L209.56 86.3895L68.6796 86.3895L68.6796 222.02Z" fill="#F0F0F0"/>
<path d="M197.77 210.22V98.1904L80.4995 98.1904V210.22H197.77Z" fill="white"/>
<path d="M138.32 113L116.8 134.56C111.6 139.773 108.68 146.836 108.68 154.2C108.68 161.563 111.6 168.626 116.8 173.84L138.32 195.37C138.425 195.475 138.55 195.558 138.687 195.615C138.825 195.672 138.972 195.702 139.12 195.702C139.269 195.702 139.416 195.672 139.554 195.615C139.691 195.558 139.815 195.475 139.92 195.37L161.45 173.84C166.651 168.626 169.571 161.563 169.571 154.2C169.571 146.836 166.651 139.773 161.45 134.56L139.93 113C139.715 112.789 139.426 112.671 139.125 112.671C138.824 112.671 138.535 112.789 138.32 113ZM118.4 172.2C113.626 167.412 110.944 160.926 110.944 154.165C110.944 147.403 113.626 140.917 118.4 136.13V172.2ZM159.85 172.2V136.17C164.625 140.957 167.306 147.443 167.306 154.205C167.306 160.966 164.625 167.452 159.85 172.24V172.2Z" fill="#F0F0F0"/>
<path d="M406.85 205H331.96L327.69 249.22H402.58L406.85 205Z" fill="#E6E6E6"/>
<path d="M402.58 249.22L402.28 251.67H327.38L327.69 249.22H402.58Z" fill="#E6E6E6"/>
<path d="M404.55 205H329.66L325.38 249.22H400.27L404.55 205Z" fill="#F0F0F0"/>
<path d="M398.76 246.34L401.89 208C401.898 207.872 401.88 207.745 401.837 207.624C401.794 207.504 401.727 207.393 401.64 207.3C401.553 207.206 401.448 207.131 401.331 207.08C401.214 207.028 401.088 207.001 400.96 207H332.11C331.874 206.999 331.646 207.087 331.472 207.246C331.298 207.406 331.19 207.625 331.17 207.86L328 246.19C327.992 246.318 328.01 246.447 328.054 246.568C328.097 246.689 328.165 246.8 328.253 246.894C328.341 246.988 328.448 247.062 328.566 247.113C328.684 247.164 328.811 247.19 328.94 247.19H397.79C398.03 247.201 398.265 247.119 398.446 246.96C398.627 246.802 398.74 246.58 398.76 246.34Z" fill="white"/>
<path d="M380.76 249.22L380.46 251.67H297.99L298.29 249.22H380.76Z" fill="#F0F0F0"/>
<path d="M280.09 181.36L420.72 181.36V87.8704L280.09 87.8704V181.36Z" fill="#E6E6E6"/>
<path d="M276.97 181.36L417.6 181.36V87.8704L276.97 87.8704V181.36Z" fill="#F5F5F5"/>
<path d="M411.99 175.06V94.1797L282.58 94.1797V175.06H411.99Z" fill="white"/>
<path d="M284.93 175.05V94.1699H282.57V175.05H284.93Z" fill="#E6E6E6"/>
<path d="M279.29 164.33L415.28 164.33V155.87L279.29 155.87V164.33Z" fill="#F5F5F5"/>
<path d="M270.85 77.4502H426.85C427.078 77.4528 427.295 77.5442 427.456 77.705C427.616 77.8657 427.708 78.0829 427.71 78.3102C427.71 78.5383 427.62 78.757 427.459 78.9183C427.297 79.0796 427.079 79.1702 426.85 79.1702H270.85C270.737 79.1715 270.624 79.1503 270.518 79.1076C270.413 79.065 270.317 79.0019 270.236 78.9219C270.155 78.8419 270.091 78.7466 270.047 78.6416C270.003 78.5366 269.98 78.424 269.98 78.3102C269.983 78.0812 270.076 77.8625 270.239 77.7015C270.402 77.5405 270.621 77.4502 270.85 77.4502Z" fill="#E6E6E6"/>
<path d="M267.83 78.3104C267.83 78.7372 267.957 79.1544 268.193 79.5094C268.43 79.8644 268.767 80.1412 269.161 80.305C269.555 80.4688 269.989 80.5121 270.408 80.4296C270.827 80.3471 271.211 80.1423 271.514 79.8413C271.816 79.5402 272.023 79.1562 272.107 78.7379C272.192 78.3196 272.15 77.8856 271.989 77.4907C271.827 77.0959 271.551 76.7578 271.197 76.5193C270.843 76.2807 270.427 76.1524 270 76.1504C269.716 76.1491 269.434 76.204 269.17 76.312C268.907 76.4199 268.668 76.5788 268.466 76.7795C268.265 76.9802 268.105 77.2188 267.995 77.4815C267.886 77.7442 267.83 78.0259 267.83 78.3104Z" fill="#E6E6E6"/>
<path d="M419.55 83.1501C419.857 83.1501 420.151 83.0296 420.37 82.8145C420.589 82.5994 420.714 82.3069 420.72 82.0001V79.5001C420.72 79.1898 420.596 78.8922 420.377 78.6728C420.158 78.4533 419.86 78.3301 419.55 78.3301C419.396 78.3301 419.245 78.3604 419.103 78.4193C418.962 78.4782 418.834 78.5646 418.726 78.6734C418.618 78.7821 418.533 78.9112 418.475 79.0531C418.417 79.195 418.388 79.3469 418.39 79.5001V82.0001C418.395 82.3052 418.519 82.5962 418.736 82.811C418.952 83.0258 419.245 83.1475 419.55 83.1501Z" fill="#E6E6E6"/>
<path d="M283.87 83.1501C284.169 83.1375 284.452 83.0117 284.662 82.7982C284.872 82.5846 284.993 82.2993 285 82.0001V79.5001C285 79.1898 284.877 78.8922 284.657 78.6728C284.438 78.4533 284.14 78.3301 283.83 78.3301C283.677 78.3301 283.525 78.3604 283.384 78.4193C283.242 78.4782 283.114 78.5646 283.006 78.6734C282.898 78.7821 282.813 78.9112 282.755 79.0531C282.698 79.195 282.669 79.3469 282.67 79.5001V82.0001C282.673 82.1546 282.706 82.3071 282.768 82.4487C282.829 82.5903 282.919 82.7183 283.03 82.8252C283.142 82.9321 283.273 83.0159 283.418 83.0716C283.562 83.1274 283.715 83.1541 283.87 83.1501Z" fill="#E6E6E6"/>
<path opacity="0.4" d="M271.13 169.14L415.28 169.14V78.3096L271.13 78.3096V169.14Z" fill="#E0E0E0"/>
<path d="M403.51 78.3104C403.51 78.7376 403.636 79.1552 403.874 79.5104C404.111 79.8656 404.448 80.1425 404.843 80.306C405.238 80.4695 405.672 80.5122 406.091 80.4289C406.51 80.3455 406.895 80.1398 407.197 79.8377C407.499 79.5357 407.705 79.1508 407.788 78.7318C407.872 78.3128 407.829 77.8785 407.665 77.4838C407.502 77.0891 407.225 76.7518 406.87 76.5144C406.515 76.2771 406.097 76.1504 405.67 76.1504C405.097 76.1504 404.547 76.378 404.142 76.783C403.737 77.1881 403.51 77.7375 403.51 78.3104Z" fill="#E6E6E6"/>
<path d="M199.5 375.92H211.06V275.65H199.5V375.92Z" fill="#F0F0F0"/>
<path d="M74.1001 382.27H206.62V375.92H74.1001V382.27Z" fill="#F0F0F0"/>
<path d="M199.5 275.65H69.6602V375.92H199.5V275.65Z" fill="#F5F5F5"/>
<path d="M183.29 287.99H85.87C81.9377 287.99 78.75 291.178 78.75 295.11V313.75C78.75 317.683 81.9377 320.87 85.87 320.87H183.29C187.222 320.87 190.41 317.683 190.41 313.75V295.11C190.41 291.178 187.222 287.99 183.29 287.99Z" fill="#F0F0F0"/>
<path d="M183.29 330.69H85.87C81.9377 330.69 78.75 333.878 78.75 337.81V356.45C78.75 360.383 81.9377 363.57 85.87 363.57H183.29C187.222 363.57 190.41 360.383 190.41 356.45V337.81C190.41 333.878 187.222 330.69 183.29 330.69Z" fill="#F0F0F0"/>
<path d="M110.39 306.69H158.77C159.368 306.69 159.941 306.453 160.364 306.031C160.788 305.61 161.027 305.037 161.03 304.44C161.027 303.841 160.788 303.268 160.365 302.845C159.942 302.421 159.368 302.182 158.77 302.18H110.39C109.791 302.182 109.218 302.421 108.795 302.845C108.371 303.268 108.133 303.841 108.13 304.44C108.133 305.037 108.372 305.61 108.795 306.031C109.219 306.453 109.792 306.69 110.39 306.69Z" fill="#F5F5F5"/>
<path d="M110.39 349.39H158.77C159.368 349.39 159.941 349.153 160.364 348.731C160.788 348.31 161.027 347.738 161.03 347.14C161.027 346.541 160.788 345.968 160.365 345.545C159.942 345.121 159.368 344.883 158.77 344.88H110.39C109.791 344.883 109.218 345.121 108.795 345.545C108.371 345.968 108.133 346.541 108.13 347.14C108.133 347.738 108.372 348.31 108.795 348.731C109.219 349.153 109.792 349.39 110.39 349.39Z" fill="#F5F5F5"/>
<path d="M250 427.56C357.083 427.56 443.89 422.492 443.89 416.24C443.89 409.988 357.083 404.92 250 404.92C142.918 404.92 56.1104 409.988 56.1104 416.24C56.1104 422.492 142.918 427.56 250 427.56Z" fill="#F5F5F5"/>
<path d="M292.85 101.45H108.05L122.41 353.12H307.2L292.85 101.45Z" fill="#263238"/>
<path d="M296.44 101.45H111.64L126 353.12H310.8L296.44 101.45Z" fill="#92E3A9"/>
<path opacity="0.5" d="M283.71 109.91H120.09L131.82 337.72H299.69L283.71 109.91Z" fill="black"/>
<path d="M120.09 109.91C132.25 185.85 123.91 261.79 136.09 337.72H303.94C291.78 261.79 300.12 185.85 287.94 109.91H120.09Z" fill="white"/>
<g opacity="0.3">
<path opacity="0.3" d="M154.41 178.17C158.116 178.2 161.67 179.651 164.339 182.224C167.007 184.798 168.586 188.297 168.75 192C168.824 193.782 168.536 195.56 167.901 197.226C167.267 198.892 166.3 200.412 165.06 201.693C163.819 202.974 162.331 203.988 160.686 204.676C159.04 205.363 157.272 205.708 155.49 205.69C151.806 205.66 148.275 204.213 145.629 201.649C142.983 199.085 141.426 195.601 141.28 191.92C141.203 190.144 141.484 188.37 142.108 186.706C142.732 185.041 143.684 183.519 144.91 182.23C146.138 180.953 147.615 179.94 149.248 179.252C150.881 178.565 152.637 178.217 154.41 178.23V178.17ZM154.31 175.34C152.154 175.327 150.019 175.753 148.033 176.593C146.048 177.433 144.255 178.669 142.764 180.226C141.273 181.782 140.115 183.627 139.362 185.646C138.608 187.665 138.273 189.817 138.38 191.97C138.554 196.415 140.433 200.621 143.626 203.718C146.819 206.814 151.082 208.562 155.53 208.6C157.695 208.618 159.841 208.196 161.839 207.36C163.836 206.524 165.643 205.292 167.15 203.737C168.658 202.182 169.833 200.338 170.607 198.315C171.38 196.292 171.735 194.134 171.65 191.97C171.435 187.506 169.517 183.295 166.292 180.201C163.067 177.108 158.778 175.368 154.31 175.34Z" fill="#92E3A9"/>
</g>
<path d="M247.22 302.92H194.22C193.824 302.914 193.43 302.991 193.066 303.149C192.702 303.306 192.376 303.539 192.109 303.832C191.842 304.126 191.641 304.473 191.519 304.85C191.396 305.227 191.356 305.626 191.4 306.02C191.497 306.863 191.895 307.643 192.522 308.215C193.149 308.786 193.962 309.112 194.81 309.13H247.81C248.207 309.138 248.601 309.06 248.965 308.902C249.328 308.743 249.654 308.509 249.92 308.214C250.185 307.919 250.384 307.571 250.503 307.192C250.623 306.814 250.659 306.414 250.61 306.02C250.516 305.181 250.12 304.404 249.497 303.834C248.874 303.264 248.065 302.939 247.22 302.92Z" fill="#E0E0E0"/>
<path d="M275.57 289.87H193.15C192.751 289.862 192.355 289.939 191.988 290.095C191.621 290.252 191.291 290.484 191.02 290.777C190.749 291.069 190.543 291.416 190.415 291.794C190.288 292.172 190.241 292.573 190.28 292.97C190.351 293.81 190.733 294.594 191.35 295.168C191.967 295.743 192.776 296.068 193.62 296.08H276C276.399 296.091 276.796 296.018 277.166 295.865C277.535 295.711 277.867 295.482 278.141 295.191C278.415 294.9 278.624 294.554 278.755 294.176C278.886 293.799 278.935 293.398 278.9 293C278.835 292.157 278.457 291.368 277.841 290.789C277.225 290.21 276.415 289.882 275.57 289.87Z" fill="#E0E0E0"/>
<g opacity="0.3">
<path opacity="0.3" d="M156.1 232C159.78 232.026 163.307 233.474 165.944 236.04C168.581 238.606 170.124 242.092 170.25 245.77C170.318 247.55 170.026 249.326 169.392 250.991C168.758 252.655 167.795 254.175 166.56 255.46C165.325 256.739 163.842 257.754 162.202 258.441C160.562 259.129 158.799 259.476 157.02 259.46C153.332 259.435 149.795 257.99 147.143 255.426C144.492 252.862 142.929 249.375 142.78 245.69C142.72 243.907 143.02 242.13 143.663 240.466C144.306 238.802 145.279 237.285 146.523 236.007C147.767 234.728 149.257 233.714 150.903 233.025C152.548 232.337 154.316 231.988 156.1 232ZM156.1 229.1C153.933 229.087 151.786 229.511 149.788 230.348C147.789 231.184 145.98 232.416 144.469 233.969C142.958 235.522 141.776 237.365 140.994 239.385C140.213 241.406 139.847 243.564 139.92 245.73C140.098 250.187 141.987 254.403 145.194 257.502C148.401 260.602 152.68 262.345 157.14 262.37C159.301 262.378 161.44 261.949 163.43 261.109C165.42 260.268 167.219 259.033 168.719 257.478C170.219 255.923 171.388 254.08 172.157 252.061C172.925 250.042 173.277 247.889 173.19 245.73C173.041 241.287 171.178 237.075 167.992 233.975C164.807 230.876 160.545 229.128 156.1 229.1Z" fill="#92E3A9"/>
</g>
<path d="M217.8 188.49H189.45C188.617 188.483 187.819 188.157 187.219 187.578C186.62 186.999 186.266 186.213 186.23 185.38C186.217 184.978 186.284 184.577 186.429 184.201C186.574 183.826 186.793 183.483 187.073 183.194C187.353 182.905 187.688 182.675 188.059 182.518C188.429 182.361 188.828 182.28 189.23 182.28H217.57C218.404 182.287 219.203 182.611 219.805 183.187C220.407 183.764 220.767 184.548 220.81 185.38C220.825 185.784 220.758 186.187 220.613 186.564C220.469 186.942 220.249 187.286 219.968 187.577C219.687 187.867 219.35 188.098 218.977 188.255C218.605 188.412 218.204 188.492 217.8 188.49Z" fill="#E0E0E0"/>
<path d="M250.52 188.49H231.32C230.486 188.483 229.686 188.157 229.085 187.579C228.484 187 228.128 186.213 228.09 185.38C228.076 184.978 228.144 184.577 228.289 184.201C228.433 183.826 228.652 183.483 228.932 183.194C229.212 182.905 229.547 182.675 229.918 182.518C230.289 182.361 230.687 182.28 231.09 182.28H250.3C251.132 182.287 251.93 182.612 252.531 183.188C253.131 183.765 253.489 184.549 253.53 185.38C253.544 185.784 253.477 186.187 253.333 186.564C253.188 186.942 252.968 187.286 252.687 187.577C252.406 187.867 252.069 188.098 251.697 188.255C251.324 188.412 250.924 188.492 250.52 188.49Z" fill="#E0E0E0"/>
<path d="M266 201.54H189.9C189.067 201.535 188.269 201.209 187.67 200.63C187.072 200.05 186.721 199.262 186.69 198.43C186.677 198.028 186.744 197.627 186.889 197.251C187.034 196.876 187.253 196.533 187.533 196.244C187.813 195.955 188.148 195.725 188.519 195.568C188.889 195.411 189.288 195.33 189.69 195.33H265.78C266.61 195.335 267.407 195.66 268.003 196.237C268.599 196.815 268.949 197.6 268.98 198.43C268.995 198.832 268.929 199.232 268.786 199.607C268.643 199.983 268.426 200.326 268.148 200.616C267.87 200.906 267.537 201.137 267.168 201.296C266.799 201.455 266.402 201.538 266 201.54Z" fill="#E0E0E0"/>
<g opacity="0.3">
<path opacity="0.3" d="M158.27 285.76C162 285.833 165.572 287.279 168.303 289.822C171.033 292.364 172.731 295.825 173.07 299.54C173.249 301.281 173.065 303.04 172.53 304.706C171.995 306.373 171.119 307.91 169.96 309.22C168.79 310.508 167.359 311.531 165.762 312.221C164.165 312.911 162.439 313.252 160.7 313.22C156.937 313.159 153.326 311.726 150.545 309.191C147.765 306.655 146.006 303.191 145.6 299.45C145.428 297.696 145.63 295.926 146.192 294.256C146.754 292.586 147.663 291.054 148.86 289.76C150.064 288.476 151.522 287.457 153.143 286.768C154.763 286.079 156.509 285.736 158.27 285.76ZM158.13 282.87C155.988 282.828 153.862 283.239 151.89 284.077C149.919 284.914 148.146 286.159 146.689 287.729C145.232 289.299 144.124 291.159 143.436 293.188C142.749 295.217 142.498 297.368 142.7 299.5C143.47 308.68 151.8 316.13 160.98 316.13C170.16 316.13 176.74 308.68 175.98 299.5C175.583 295.015 173.541 290.835 170.248 287.765C166.954 284.695 162.641 282.951 158.14 282.87H158.13Z" fill="#92E3A9"/>
</g>
<path d="M279 249.13H191.19C190.788 249.13 190.389 249.211 190.019 249.368C189.648 249.525 189.313 249.755 189.033 250.044C188.753 250.333 188.534 250.676 188.389 251.051C188.244 251.427 188.177 251.828 188.19 252.23C188.226 253.06 188.579 253.844 189.176 254.421C189.774 254.998 190.57 255.323 191.4 255.33H279.25C279.653 255.33 280.051 255.249 280.422 255.093C280.792 254.936 281.128 254.706 281.408 254.416C281.688 254.127 281.906 253.784 282.051 253.409C282.196 253.033 282.264 252.632 282.25 252.23C282.219 251.392 281.862 250.599 281.255 250.02C280.648 249.441 279.839 249.122 279 249.13Z" fill="#E0E0E0"/>
<path d="M258.19 236.07H190.81C190.406 236.07 190.007 236.151 189.636 236.309C189.264 236.466 188.929 236.697 188.648 236.988C188.368 237.278 188.15 237.622 188.006 237.998C187.862 238.375 187.795 238.777 187.81 239.18C187.838 240.009 188.186 240.795 188.781 241.372C189.375 241.95 190.17 242.276 191 242.28H258.39C258.792 242.281 259.191 242.2 259.561 242.043C259.932 241.886 260.267 241.656 260.547 241.367C260.827 241.077 261.046 240.735 261.191 240.359C261.335 239.983 261.403 239.583 261.39 239.18C261.366 238.347 261.019 237.556 260.421 236.976C259.824 236.395 259.023 236.07 258.19 236.07Z" fill="#E0E0E0"/>
<path d="M155.93 201.72L154.75 199.78C152.16 195.55 146.75 191.78 144.89 190.67L146.29 188.19C149.963 190.413 153.235 193.24 155.97 196.55C160.22 190.84 166.43 184.97 174.84 178.63L176.65 180.97C167.65 187.74 161.27 193.97 157.18 199.9C156.77 200.51 156.35 201.12 155.93 201.72Z" fill="#92E3A9"/>
<path d="M157.429 255.52C157.039 254.87 156.639 254.22 156.239 253.58C153.639 249.35 148.239 245.58 146.399 244.46L147.819 241.98C151.474 244.209 154.729 247.035 157.449 250.34C161.709 244.64 167.969 238.76 176.509 232.42L178.279 234.76C169.159 241.53 162.739 247.76 158.669 253.69L157.429 255.52Z" fill="#92E3A9"/>
<path d="M160.86 309.44L159.54 307.5C156.66 303.27 151.08 299.5 149.16 298.39L150.46 295.91C154.239 298.149 157.644 300.966 160.55 304.26C164.47 298.56 170.43 292.68 178.71 286.35L180.58 288.69C171.74 295.46 165.67 301.69 161.98 307.62L160.86 309.44Z" fill="#92E3A9"/>
<path d="M224.099 129C222.339 132.84 220.536 136.677 218.689 140.51C222.496 142.404 225.751 145.246 228.14 148.763C230.529 152.28 231.972 156.353 232.329 160.59H245.619C244.739 147 235.999 135.17 224.099 129Z" fill="#92E3A9"/>
<path d="M173.47 160.61H186.76C186.434 156.851 187.119 153.073 188.743 149.667C190.368 146.261 192.873 143.352 196 141.24C193.413 137.4 190.787 133.56 188.12 129.72C178.42 136 172.62 147.51 173.47 160.61Z" fill="#263238"/>
<path d="M206.12 124.54C199.744 124.477 193.488 126.277 188.12 129.72C190.787 133.56 193.413 137.4 196 141.24C199.465 138.976 203.521 137.786 207.66 137.82C211.489 137.842 215.259 138.771 218.66 140.53C220.5 136.69 222.303 132.853 224.07 129.02C218.53 126.116 212.375 124.579 206.12 124.54Z" fill="#92E3A9"/>
<path opacity="0.5" d="M206.12 124.54C199.744 124.477 193.488 126.277 188.12 129.72C190.787 133.56 193.413 137.4 196 141.24C199.465 138.976 203.521 137.786 207.66 137.82C211.489 137.842 215.259 138.771 218.66 140.53C220.5 136.69 222.303 132.853 224.07 129.02C218.53 126.116 212.375 124.579 206.12 124.54Z" fill="#263238"/>
<path d="M222.36 151.51C222.36 151.51 208.94 157 207.52 158C207.181 158.257 206.897 158.579 206.684 158.947C206.471 159.315 206.334 159.723 206.281 160.145C206.228 160.567 206.26 160.995 206.375 161.405C206.489 161.814 206.685 162.197 206.95 162.53C207.451 163.241 208.209 163.73 209.064 163.892C209.919 164.054 210.803 163.878 211.53 163.4C213 162.34 222.38 151.51 222.36 151.51ZM208.26 161.51C208.13 161.346 208.033 161.158 207.977 160.956C207.92 160.754 207.904 160.544 207.93 160.336C207.956 160.128 208.024 159.927 208.128 159.746C208.233 159.565 208.373 159.406 208.54 159.28C208.9 159.048 209.335 158.964 209.756 159.044C210.177 159.124 210.55 159.362 210.8 159.71C210.931 159.874 211.027 160.062 211.084 160.263C211.14 160.465 211.156 160.676 211.13 160.884C211.104 161.092 211.037 161.292 210.932 161.473C210.827 161.655 210.687 161.813 210.52 161.94C210.165 162.176 209.733 162.267 209.313 162.194C208.892 162.122 208.516 161.891 208.26 161.55V161.51Z" fill="#263238"/>
<path d="M238.27 145.16C238.336 145.762 238.272 146.371 238.084 146.946C237.895 147.522 237.586 148.05 237.178 148.497C236.769 148.944 236.27 149.298 235.713 149.536C235.156 149.775 234.555 149.892 233.95 149.88C232.667 149.855 231.438 149.361 230.495 148.491C229.552 147.621 228.959 146.436 228.83 145.16C228.762 144.561 228.822 143.955 229.007 143.381C229.192 142.808 229.497 142.28 229.902 141.834C230.307 141.389 230.803 141.034 231.357 140.796C231.91 140.557 232.508 140.439 233.11 140.45C234.396 140.472 235.63 140.962 236.581 141.829C237.531 142.697 238.131 143.881 238.27 145.16Z" fill="white"/>
<path d="M232.42 144.08C232.43 144.175 232.419 144.271 232.39 144.362C232.36 144.453 232.311 144.536 232.247 144.607C232.183 144.678 232.105 144.734 232.017 144.773C231.93 144.811 231.835 144.831 231.74 144.83C231.535 144.829 231.337 144.751 231.186 144.613C231.034 144.474 230.94 144.285 230.92 144.08C230.908 143.985 230.918 143.888 230.947 143.797C230.976 143.705 231.024 143.621 231.089 143.55C231.153 143.479 231.232 143.422 231.32 143.385C231.409 143.347 231.504 143.328 231.6 143.33C231.805 143.332 232.002 143.409 232.154 143.548C232.305 143.686 232.4 143.876 232.42 144.08Z" fill="#263238"/>
<path d="M236 144.081C236.01 144.176 236 144.273 235.969 144.365C235.939 144.456 235.89 144.54 235.824 144.611C235.759 144.682 235.679 144.738 235.591 144.776C235.502 144.814 235.407 144.832 235.31 144.831C235.106 144.825 234.911 144.746 234.761 144.608C234.61 144.47 234.514 144.283 234.49 144.081C234.479 143.984 234.488 143.887 234.518 143.795C234.547 143.702 234.597 143.618 234.662 143.546C234.728 143.475 234.808 143.419 234.898 143.382C234.987 143.344 235.083 143.327 235.18 143.331C235.385 143.332 235.583 143.41 235.734 143.548C235.886 143.687 235.98 143.876 236 144.081Z" fill="#263238"/>
<path d="M233.77 148C232.781 147.993 231.829 147.618 231.1 146.95C231.032 146.881 230.993 146.788 230.993 146.69C230.993 146.593 231.032 146.5 231.1 146.43C231.134 146.395 231.174 146.367 231.219 146.348C231.263 146.329 231.311 146.319 231.36 146.319C231.408 146.319 231.457 146.329 231.501 146.348C231.546 146.367 231.586 146.395 231.62 146.43C232.212 146.976 232.985 147.282 233.79 147.29C234.164 147.299 234.535 147.228 234.879 147.083C235.224 146.939 235.534 146.723 235.79 146.45C235.858 146.379 235.951 146.337 236.049 146.334C236.098 146.333 236.147 146.341 236.192 146.358C236.238 146.376 236.279 146.402 236.315 146.435C236.35 146.469 236.379 146.509 236.399 146.553C236.419 146.598 236.43 146.646 236.431 146.695C236.433 146.743 236.424 146.792 236.407 146.838C236.39 146.883 236.363 146.925 236.33 146.96C236.001 147.304 235.602 147.575 235.161 147.754C234.72 147.933 234.246 148.017 233.77 148Z" fill="#263238"/>
<path d="M211.62 131.1C211.702 131.695 211.655 132.301 211.48 132.876C211.306 133.451 211.009 133.981 210.609 134.43C210.21 134.879 209.718 135.235 209.167 135.475C208.617 135.715 208.02 135.833 207.42 135.82C206.126 135.79 204.886 135.297 203.925 134.431C202.963 133.565 202.344 132.383 202.18 131.1C202.09 130.508 202.132 129.903 202.301 129.328C202.471 128.754 202.764 128.223 203.161 127.775C203.557 127.326 204.047 126.969 204.597 126.73C205.146 126.491 205.741 126.375 206.34 126.39C207.636 126.421 208.878 126.911 209.846 127.774C210.813 128.637 211.442 129.816 211.62 131.1Z" fill="white"/>
<path d="M205.74 130C205.753 130.094 205.746 130.19 205.718 130.281C205.691 130.371 205.644 130.455 205.582 130.526C205.519 130.597 205.442 130.654 205.355 130.693C205.269 130.732 205.175 130.751 205.08 130.75C204.874 130.745 204.676 130.667 204.522 130.529C204.369 130.392 204.269 130.205 204.24 130C204.225 129.906 204.232 129.81 204.258 129.718C204.285 129.627 204.331 129.542 204.394 129.471C204.457 129.399 204.535 129.342 204.623 129.304C204.71 129.266 204.805 129.248 204.9 129.25C205.107 129.253 205.306 129.331 205.46 129.469C205.614 129.606 205.714 129.795 205.74 130Z" fill="#263238"/>
<path d="M209.31 130C209.323 130.095 209.316 130.191 209.288 130.283C209.26 130.374 209.212 130.459 209.149 130.53C209.085 130.601 209.006 130.658 208.919 130.696C208.831 130.734 208.736 130.753 208.64 130.75C208.435 130.743 208.238 130.664 208.084 130.527C207.931 130.39 207.83 130.204 207.8 130C207.787 129.905 207.795 129.809 207.823 129.717C207.851 129.626 207.898 129.542 207.962 129.47C208.025 129.399 208.104 129.342 208.192 129.304C208.28 129.266 208.375 129.248 208.47 129.25C208.676 129.255 208.874 129.334 209.028 129.471C209.182 129.608 209.282 129.796 209.31 130Z" fill="#263238"/>
<path d="M209.41 133H204.73C204.641 132.985 204.56 132.94 204.502 132.871C204.443 132.802 204.411 132.715 204.411 132.625C204.411 132.535 204.443 132.448 204.502 132.379C204.56 132.31 204.641 132.265 204.73 132.25H209.41C209.499 132.265 209.58 132.31 209.638 132.379C209.696 132.448 209.728 132.535 209.728 132.625C209.728 132.715 209.696 132.802 209.638 132.871C209.58 132.94 209.499 132.985 209.41 133Z" fill="#263238"/>
<path d="M187.87 145.16C187.935 145.762 187.872 146.371 187.683 146.946C187.495 147.522 187.186 148.05 186.777 148.497C186.368 148.944 185.869 149.298 185.313 149.536C184.756 149.775 184.155 149.892 183.55 149.88C182.267 149.855 181.038 149.361 180.095 148.491C179.151 147.621 178.559 146.436 178.43 145.16C178.361 144.561 178.421 143.955 178.606 143.381C178.791 142.808 179.097 142.28 179.502 141.834C179.907 141.389 180.403 141.034 180.956 140.796C181.509 140.557 182.107 140.439 182.71 140.45C183.995 140.474 185.228 140.965 186.178 141.832C187.128 142.699 187.729 143.882 187.87 145.16Z" fill="white"/>
<path d="M182 144.08C182.01 144.175 181.999 144.271 181.97 144.362C181.94 144.453 181.891 144.536 181.827 144.607C181.763 144.678 181.685 144.734 181.597 144.773C181.51 144.811 181.415 144.831 181.32 144.83C181.115 144.829 180.917 144.751 180.766 144.613C180.614 144.474 180.52 144.285 180.5 144.08C180.488 143.985 180.498 143.888 180.527 143.797C180.556 143.705 180.604 143.621 180.669 143.55C180.733 143.479 180.812 143.422 180.9 143.385C180.989 143.347 181.084 143.328 181.18 143.33C181.385 143.332 181.583 143.409 181.734 143.548C181.885 143.686 181.98 143.876 182 144.08Z" fill="#263238"/>
<path d="M185.58 144.08C185.591 144.176 185.582 144.272 185.553 144.364C185.524 144.455 185.476 144.539 185.411 144.61C185.347 144.682 185.268 144.738 185.179 144.776C185.091 144.814 184.996 144.832 184.9 144.83C184.696 144.824 184.501 144.745 184.35 144.608C184.2 144.47 184.104 144.283 184.08 144.08C184.069 143.985 184.078 143.888 184.107 143.797C184.136 143.705 184.184 143.621 184.249 143.55C184.313 143.479 184.392 143.422 184.481 143.385C184.569 143.347 184.664 143.328 184.76 143.33C184.966 143.329 185.165 143.406 185.316 143.545C185.468 143.684 185.562 143.875 185.58 144.08Z" fill="#263238"/>
<path d="M180.999 148C180.953 148.001 180.907 147.992 180.864 147.975C180.821 147.958 180.782 147.932 180.749 147.9C180.681 147.831 180.643 147.737 180.643 147.64C180.643 147.543 180.681 147.449 180.749 147.38C181.074 147.035 181.466 146.761 181.901 146.575C182.337 146.389 182.806 146.296 183.279 146.3C184.27 146.31 185.221 146.688 185.949 147.36C185.984 147.394 186.012 147.434 186.031 147.479C186.05 147.523 186.06 147.571 186.06 147.62C186.06 147.669 186.05 147.717 186.031 147.761C186.012 147.806 185.984 147.846 185.949 147.88C185.877 147.947 185.783 147.984 185.684 147.984C185.586 147.984 185.491 147.947 185.419 147.88C184.828 147.328 184.049 147.021 183.239 147.02C182.867 147.012 182.496 147.081 182.152 147.224C181.807 147.367 181.497 147.58 181.239 147.85C181.181 147.928 181.095 147.982 180.999 148Z" fill="#263238"/>
<path d="M256.74 110.56C253.62 103.99 246.34 99.6401 238.49 99.6401H222.49C221.391 99.6886 220.299 99.4459 219.325 98.9367C218.35 98.4274 217.528 97.6696 216.94 96.7401C214.71 92.5601 209.39 89.5801 203.35 89.5801C197.31 89.5801 192.35 92.5801 190.59 96.7401C189.86 98.5001 187.77 99.6401 185.37 99.6401H169.37C161.52 99.6401 154.73 103.99 152.37 110.56C152.283 110.789 152.248 111.036 152.27 111.28C152.296 111.793 152.518 112.276 152.89 112.63C153.262 112.984 153.756 113.181 154.27 113.18H255.15C255.458 113.181 255.761 113.102 256.03 112.951C256.299 112.8 256.524 112.582 256.684 112.319C256.844 112.055 256.933 111.755 256.943 111.447C256.953 111.139 256.883 110.833 256.74 110.56ZM204 101.45C202.806 101.425 201.665 100.955 200.801 100.132C199.937 99.3081 199.412 98.191 199.33 97.0001C199.29 96.4265 199.369 95.8508 199.563 95.3094C199.756 94.768 200.06 94.2726 200.455 93.8544C200.849 93.4363 201.326 93.1045 201.856 92.88C202.385 92.6555 202.955 92.5431 203.53 92.5501C204.731 92.5625 205.883 93.0276 206.757 93.8526C207.63 94.6775 208.159 95.8016 208.24 97.0001C208.28 97.5771 208.2 98.1562 208.004 98.7004C207.808 99.2446 207.501 99.7419 207.102 100.161C206.703 100.579 206.221 100.91 205.687 101.132C205.153 101.354 204.578 101.463 204 101.45Z" fill="#263238"/>
<path d="M360.419 409.11C359.637 409.207 358.846 409.011 358.199 408.56C358.114 408.455 358.062 408.326 358.05 408.191C358.037 408.056 358.065 407.92 358.129 407.8C358.177 407.697 358.248 407.607 358.337 407.536C358.425 407.465 358.529 407.415 358.639 407.39C359.819 407.06 362.549 408.52 362.639 408.59C362.674 408.605 362.702 408.631 362.72 408.663C362.738 408.696 362.745 408.733 362.739 408.77C362.738 408.804 362.725 408.836 362.703 408.861C362.682 408.886 362.652 408.904 362.619 408.91C361.893 409.04 361.157 409.107 360.419 409.11ZM359.099 407.69C358.99 407.674 358.879 407.674 358.769 407.69C358.701 407.703 358.637 407.731 358.581 407.773C358.526 407.814 358.481 407.868 358.449 407.93C358.349 408.15 358.449 408.26 358.449 408.32C358.849 408.79 360.709 408.8 362.049 408.61C361.129 408.129 360.13 407.817 359.099 407.69Z" fill="#92E3A9"/>
<path d="M362.619 408.91H362.549C361.619 408.51 359.679 406.91 359.719 406.09C359.719 405.89 359.839 405.65 360.319 405.6C360.679 405.569 361.036 405.676 361.319 405.9C362.067 406.684 362.574 407.666 362.779 408.73C362.792 408.755 362.798 408.782 362.798 408.81C362.798 408.838 362.792 408.865 362.779 408.89C362.756 408.906 362.73 408.917 362.702 408.92C362.674 408.924 362.646 408.92 362.619 408.91ZM360.489 405.91H360.389C360.079 405.91 360.069 406.06 360.069 406.1C360.069 406.6 361.379 407.85 362.349 408.39C362.16 407.536 361.733 406.753 361.119 406.13C360.938 405.994 360.716 405.923 360.489 405.93V405.91Z" fill="#92E3A9"/>
<path d="M370.679 408.74H363.329L360.699 391.72H368.049L370.679 408.74Z" fill="#FFC3BD"/>
<path d="M363.279 407.89H371.279C371.43 407.894 371.576 407.944 371.698 408.033C371.819 408.123 371.911 408.247 371.959 408.39L374.139 414.92C374.186 415.066 374.197 415.221 374.174 415.373C374.151 415.524 374.093 415.668 374.005 415.794C373.917 415.92 373.801 416.023 373.667 416.097C373.532 416.171 373.383 416.213 373.229 416.22C370.329 416.22 366.129 416.01 362.489 416.01C358.239 416.01 358.619 416.24 353.629 416.24C350.629 416.24 349.439 413.19 350.629 412.91C356.239 411.66 356.889 411.52 361.509 408.46C362.027 408.092 362.645 407.893 363.279 407.89Z" fill="#263238"/>
<path opacity="0.2" d="M360.699 391.729L362.059 400.499H369.409L368.049 391.729H360.699Z" fill="black"/>
<path d="M369.84 225.45L364.84 230.5L372.5 233.21C372.5 233.21 375.5 229.09 373.39 226.27L369.84 225.45Z" fill="#FFC3BD"/>
<path d="M363.159 237.56L370.809 238.68L372.519 233.21L364.859 230.5L363.159 237.56Z" fill="#FFC3BD"/>
<path d="M373.179 163.27C373.829 164.67 374.349 165.86 374.869 167.16C375.389 168.46 375.869 169.71 376.369 170.99C377.319 173.56 378.169 176.18 378.959 178.83C379.763 181.511 380.431 184.231 380.959 186.98L381.339 189.08L381.649 191.22C381.759 191.93 381.829 192.67 381.889 193.4C381.949 194.13 382.049 194.79 382.049 195.71V197.01V198.16L381.989 199.29L381.879 200.36C381.749 201.8 381.559 203.15 381.379 204.52C380.979 207.22 380.519 209.86 380.009 212.52C378.949 217.75 377.789 222.86 376.389 228.01L367.279 226.21C367.859 221.13 368.459 215.97 368.939 210.89C369.169 208.35 369.419 205.82 369.559 203.34C369.619 202.12 369.689 200.88 369.689 199.71V198.83V198.02V197.21L369.619 196.55C369.574 196.023 369.5 195.499 369.399 194.98C369.309 194.42 369.229 193.86 369.099 193.29L368.729 191.58L368.299 189.86C367.679 187.56 366.979 185.25 366.179 182.94C365.379 180.63 364.489 178.33 363.549 176.05C363.089 174.9 362.609 173.76 362.109 172.64C361.609 171.52 361.109 170.35 360.619 169.38L373.179 163.27Z" fill="#263238"/>
<path d="M338.649 221.87C338.649 221.87 339.869 278.11 343.169 300.51C346.609 323.81 359.169 398.8 359.169 398.8H371.609C371.609 398.8 367.149 327.43 365.729 304.5C364.179 279.5 364.519 221.87 364.519 221.87H338.649Z" fill="#92E3A9"/>
<path d="M356.18 393.84C356.12 393.84 357.46 399.01 357.46 399.01H372.6L372.49 394.4L356.18 393.84Z" fill="#263238"/>
<path d="M335.846 130.699C335.885 130.076 335.585 129.551 335.177 129.526C334.769 129.501 334.407 129.986 334.369 130.608C334.331 131.231 334.63 131.757 335.038 131.782C335.446 131.807 335.808 131.322 335.846 130.699Z" fill="#263238"/>
<path d="M335.54 131.78C334.729 133.687 333.666 135.476 332.38 137.1C332.8 137.405 333.282 137.614 333.792 137.711C334.302 137.807 334.827 137.79 335.33 137.66L335.54 131.78Z" fill="#ED847E"/>
<path d="M338.179 127.2C338.102 127.2 338.026 127.179 337.959 127.14C337.602 126.858 337.181 126.668 336.733 126.584C336.286 126.5 335.825 126.526 335.389 126.66C335.345 126.677 335.297 126.686 335.249 126.685C335.201 126.684 335.154 126.673 335.11 126.654C335.066 126.634 335.027 126.606 334.994 126.571C334.961 126.536 334.936 126.495 334.919 126.45C334.904 126.404 334.897 126.355 334.9 126.307C334.903 126.258 334.916 126.211 334.937 126.167C334.958 126.124 334.988 126.085 335.025 126.052C335.061 126.02 335.103 125.996 335.149 125.98C335.697 125.802 336.281 125.759 336.849 125.857C337.417 125.954 337.952 126.189 338.409 126.54C338.485 126.599 338.535 126.685 338.548 126.781C338.561 126.876 338.536 126.972 338.479 127.05C338.444 127.096 338.399 127.134 338.347 127.16C338.295 127.186 338.238 127.199 338.179 127.2Z" fill="#263238"/>
<path d="M355.3 137.52C354.06 142.9 352.66 152.75 356.3 156.33C356.3 156.33 354.64 161.78 344.65 161.78C333.65 161.78 339.6 156.33 339.6 156.33C345.6 154.9 345.65 150.46 344.75 146.28L355.3 137.52Z" fill="#FFC3BD"/>
<path d="M360.169 158.85C361.249 156.66 362.439 154.14 360.169 153.36C357.689 152.49 343.979 151.61 339.169 153.23C337.884 153.558 336.782 154.382 336.105 155.522C335.428 156.663 335.232 158.025 335.559 159.31L360.169 158.85Z" fill="#92E3A9"/>
<path d="M370.69 158.44C377.02 161.36 380.239 183.5 380.239 183.5L367.489 187.5C365.212 181.642 363.364 175.626 361.959 169.5C359.999 160.26 364.21 155.46 370.69 158.44Z" fill="#263238"/>
<path d="M292.329 192.89L286.449 187.83L281.159 195.53C281.159 195.53 285.909 199.34 291.159 197.78L292.329 192.89Z" fill="#FFC3BD"/>
<path d="M278.7 185.38L277.89 192.99L281.16 195.53L286.45 187.83L278.7 185.38Z" fill="#FFC3BD"/>
<path d="M356.649 129.33C355.909 136.97 355.859 141.47 351.859 145.39C350.571 146.667 348.96 147.568 347.198 147.999C345.437 148.43 343.591 148.374 341.859 147.837C340.127 147.299 338.574 146.301 337.366 144.949C336.157 143.597 335.339 141.942 334.999 140.16C333.599 133.3 334.999 121.96 342.629 118.92C344.254 118.22 346.033 117.959 347.79 118.163C349.547 118.368 351.22 119.03 352.64 120.085C354.06 121.139 355.178 122.548 355.882 124.171C356.585 125.794 356.85 127.573 356.649 129.33Z" fill="#FFC3BD"/>
<path d="M341 131.78C340.33 126.5 340.44 124.5 343.26 123.33C340.33 122.75 337.79 122.67 336.58 120.96C335.37 119.25 335.08 114.88 340.96 112.88C340.42 113.88 342.13 115.96 347.54 114.08C352.95 112.2 360.83 112 361.54 117.5C364.4 116.5 369.19 125.33 363.54 131.78C358.83 137.18 355.69 140.91 354.76 143.78C354.717 143.914 354.645 144.038 354.55 144.143C354.455 144.248 354.339 144.331 354.21 144.388C354.08 144.444 353.94 144.473 353.799 144.472C353.658 144.47 353.518 144.439 353.39 144.38C351.44 143.47 347.95 144.25 346.39 144.67C346.17 144.727 345.938 144.707 345.731 144.615C345.523 144.522 345.354 144.362 345.25 144.16C344.24 142.08 341.51 136.14 341 131.78Z" fill="#263238"/>
<path d="M360.479 118.17C360.479 118.17 362.799 114.9 367.249 117.33C364.961 117.223 362.672 117.507 360.479 118.17Z" fill="#263238"/>
<path d="M360.859 118.87C360.859 118.87 364.089 116.87 361.569 113.1C361.724 115.051 361.482 117.014 360.859 118.87Z" fill="#263238"/>
<path d="M344.74 132C344.389 133.891 343.451 135.623 342.06 136.95C340.21 138.7 338.61 137.46 338.56 135.21C338.51 133.21 339.41 129.83 341.56 128.93C343.71 128.03 345.12 129.74 344.74 132Z" fill="#FFC3BD"/>
<path opacity="0.3" d="M339.68 253.12C340.4 269.9 341.53 289.38 343.17 300.51C343.8 304.75 344.72 310.69 345.82 317.58C350.24 293.46 352.88 262.38 339.68 253.12Z" fill="black"/>
<path d="M334.169 409.11C333.229 409.11 332.319 408.98 332.029 408.56C331.954 408.448 331.913 408.316 331.913 408.18C331.913 408.045 331.954 407.913 332.029 407.8C332.163 407.599 332.366 407.454 332.599 407.39C333.829 407.06 336.349 408.52 336.459 408.59C336.49 408.607 336.514 408.635 336.527 408.668C336.54 408.7 336.541 408.737 336.529 408.77C336.522 408.805 336.505 408.836 336.48 408.861C336.455 408.886 336.424 408.903 336.389 408.91C335.656 409.038 334.913 409.105 334.169 409.11ZM333.059 407.69C332.946 407.674 332.832 407.674 332.719 407.69C332.647 407.704 332.579 407.732 332.519 407.774C332.459 407.815 332.408 407.868 332.369 407.93C332.239 408.15 332.279 408.26 332.319 408.32C332.649 408.79 334.499 408.8 335.879 408.61C335.009 408.122 334.05 407.809 333.059 407.69Z" fill="#92E3A9"/>
<path d="M336.4 408.91H336.33C335.46 408.51 333.75 406.91 333.92 406.09C333.92 405.89 334.1 405.65 334.58 405.6C334.758 405.577 334.939 405.593 335.112 405.644C335.284 405.696 335.443 405.783 335.58 405.9C336.49 406.67 336.58 408.65 336.58 408.73C336.579 408.761 336.572 408.791 336.558 408.819C336.544 408.847 336.524 408.871 336.5 408.89C336.469 408.906 336.435 408.913 336.4 408.91ZM334.71 405.91H334.61C334.29 405.91 334.27 406.06 334.26 406.1C334.16 406.6 335.31 407.85 336.2 408.39C336.145 407.563 335.834 406.773 335.31 406.13C335.14 405.994 334.927 405.924 334.71 405.93V405.91Z" fill="#92E3A9"/>
<path d="M344.48 408.74H337.14L337 391.72H344.35L344.48 408.74Z" fill="#FFC3BD"/>
<path d="M337.21 407.89H345.21C345.353 407.888 345.492 407.937 345.602 408.029C345.712 408.12 345.786 408.248 345.81 408.39L347.04 414.92C347.068 415.081 347.06 415.246 347.017 415.403C346.973 415.56 346.896 415.706 346.79 415.831C346.684 415.955 346.552 416.054 346.403 416.121C346.255 416.188 346.093 416.222 345.93 416.22C343.04 416.22 338.86 416.01 335.23 416.01C330.97 416.01 327.29 416.24 322.3 416.24C319.3 416.24 318.56 413.19 319.83 412.91C325.62 411.66 330.32 411.52 335.39 408.46C335.933 408.108 336.562 407.911 337.21 407.89Z" fill="#263238"/>
<path opacity="0.2" d="M337.01 391.729L337.07 400.499H344.42L344.36 391.729H337.01Z" fill="black"/>
<path d="M325.54 221.87C325.54 221.87 322.54 276.8 322.6 299.2C322.6 322.5 334.4 398.8 334.4 398.8H346.84C346.84 398.8 343.6 323.86 345 301C346.49 276 353.71 221.89 353.71 221.89L325.54 221.87Z" fill="#92E3A9"/>
<path d="M332.179 393.84C332.119 393.84 332.689 399.01 332.689 399.01H347.829L348.409 394.4L332.179 393.84Z" fill="#263238"/>
<path d="M328.22 158.37C328.22 158.37 315.7 190 321.15 244.67H366.87C367.35 238.67 362.57 186.41 369.39 157.99C365.064 157.153 360.688 156.598 356.29 156.33C350.728 156.01 345.152 156.01 339.59 156.33C335.753 156.716 331.951 157.398 328.22 158.37Z" fill="#263238"/>
<path opacity="0.2" d="M321.749 187C321.069 192 320.509 197.71 320.149 204C329.029 195.84 332.069 175.51 332.069 175.51L321.749 187Z" fill="black"/>
<path d="M332.93 173.429C331.13 178.109 329.31 182.619 327.31 187.149C325.31 191.679 323.24 196.15 320.91 200.63L320 202.299L319.54 203.139C319.35 203.479 319.37 203.499 318.85 204.369C317.953 205.779 316.71 206.936 315.24 207.729C314.024 208.369 312.696 208.769 311.33 208.91C309.451 209.082 307.557 208.929 305.73 208.46C304.285 208.102 302.868 207.641 301.49 207.079C299.015 206.055 296.619 204.852 294.32 203.479C293.19 202.829 292.11 202.129 291.04 201.479C289.97 200.829 289 199.999 287.85 199.199L293.25 190.919C297.125 193.055 301.193 194.819 305.4 196.189C306.292 196.465 307.205 196.673 308.13 196.809C308.657 196.922 309.202 196.922 309.73 196.809C309.79 196.809 309.6 196.749 309.27 196.919C308.868 197.124 308.524 197.427 308.27 197.799C308.06 198.149 308.33 197.629 308.42 197.429L308.78 196.639L309.5 195.07C311.4 190.83 313.16 186.44 314.87 182.07C316.58 177.7 318.24 173.139 319.77 168.729L332.93 173.429Z" fill="#263238"/>
<path d="M337.899 161.69C340.239 168.23 323.679 194.56 323.679 194.56L313.859 184.83C313.859 184.83 316.369 176.56 319.679 166.6C322.939 156.81 335.669 155.44 337.899 161.69Z" fill="#263238"/>
</svg>
