<svg width="645" height="645" viewBox="0 0 645 645" fill="none" xmlns="http://www.w3.org/2000/svg">
<path d="M606.182 372.59C622.526 296.299 607.769 216.797 559.084 151.174C515.998 93.0727 457.948 39.9892 384.302 27.502C305.728 14.2666 235.642 44.5042 194.788 112.384C173.645 147.472 158.359 185.772 143.188 223.685C131.423 252.917 121.129 286.147 101.534 311.341C72.4962 348.544 39.9882 386.767 27.759 433.362C18.0195 470.682 30.339 505.047 61.299 527.725C111.931 564.826 171.955 567.496 232.327 564.465C269.184 562.428 305.756 556.811 341.526 547.695C373.608 539.684 404.942 526.861 438.005 523.417C487.386 518.257 529.595 520.837 562.774 477.415C585.658 447.41 598.352 409.161 606.182 372.59Z" fill="#92E3A9"/>
<path opacity="0.7" d="M606.182 372.59C622.526 296.299 607.769 216.797 559.084 151.174C515.998 93.0727 457.948 39.9892 384.302 27.502C305.728 14.2666 235.642 44.5042 194.788 112.384C173.645 147.472 158.359 185.772 143.188 223.685C131.423 252.917 121.129 286.147 101.534 311.341C72.4962 348.544 39.9882 386.767 27.759 433.362C18.0195 470.682 30.339 505.047 61.299 527.725C111.931 564.826 171.955 567.496 232.327 564.465C269.184 562.428 305.756 556.811 341.526 547.695C373.608 539.684 404.942 526.861 438.005 523.417C487.386 518.257 529.595 520.837 562.774 477.415C585.658 447.41 598.352 409.161 606.182 372.59Z" fill="white"/>
<path d="M496.944 180.468C525.007 180.468 547.757 157.718 547.757 129.655C547.757 101.592 525.007 78.8418 496.944 78.8418C468.881 78.8418 446.131 101.592 446.131 129.655C446.131 157.718 468.881 180.468 496.944 180.468Z" fill="white" stroke="#A8A8A8" stroke-width="1.29" stroke-linecap="round" stroke-linejoin="round"/>
<path d="M496.944 175.863C522.464 175.863 543.152 155.175 543.152 129.655C543.152 104.135 522.464 83.4473 496.944 83.4473C471.424 83.4473 450.736 104.135 450.736 129.655C450.736 155.175 471.424 175.863 496.944 175.863Z" fill="white" stroke="#A8A8A8" stroke-width="1.29" stroke-linecap="round" stroke-linejoin="round"/>
<path d="M481.242 145.678L496.942 129.656L535.848 143.975" stroke="#A8A8A8" stroke-width="1.29" stroke-linecap="round" stroke-linejoin="round"/>
<path d="M500.015 129.655C500.013 130.262 499.831 130.854 499.492 131.358C499.153 131.861 498.672 132.252 498.111 132.483C497.55 132.713 496.933 132.772 496.338 132.652C495.744 132.532 495.198 132.239 494.77 131.809C494.342 131.379 494.05 130.832 493.933 130.237C493.816 129.641 493.877 129.025 494.11 128.465C494.343 127.904 494.736 127.426 495.241 127.089C495.745 126.752 496.339 126.572 496.945 126.572C497.349 126.572 497.75 126.652 498.123 126.807C498.496 126.962 498.835 127.19 499.121 127.476C499.406 127.763 499.632 128.103 499.785 128.476C499.939 128.85 500.017 129.251 500.015 129.655Z" fill="#A8A8A8" stroke="#A8A8A8" stroke-width="1.29" stroke-linecap="round" stroke-linejoin="round"/>
<path d="M57.1241 118.681C58.9817 119.494 63.5096 119.391 63.5741 119.391C63.6386 119.391 62.5937 116.424 62.5034 116.243C61.5101 114.153 58.3625 110.722 55.8083 111.083C55.3807 111.152 54.9725 111.311 54.6109 111.549C54.2493 111.787 53.9425 112.1 53.7108 112.466C53.479 112.832 53.3277 113.243 53.2667 113.671C53.2058 114.1 53.2367 114.537 53.3573 114.953C53.6853 115.806 54.1907 116.579 54.8401 117.222C55.4895 117.865 56.268 118.362 57.1241 118.681Z" fill="#A8A8A8" stroke="#A8A8A8" stroke-width="1.29" stroke-linecap="round" stroke-linejoin="round"/>
<path d="M116.516 103.202C113.936 102.918 110.892 106.44 109.95 108.543C109.873 108.723 108.931 111.729 108.983 111.716C108.493 112.271 107.989 112.864 107.435 113.535C106.429 114.825 105.306 116.115 104.184 117.779C102.96 119.502 101.836 121.294 100.817 123.146C99.6704 125.207 98.7078 127.365 97.9404 129.596C97.9387 129.626 97.9387 129.656 97.9404 129.686C97.9404 128.925 97.9404 126.809 97.9404 126.641C97.6437 124.358 95.7345 120.114 93.1932 119.637C92.7646 119.569 92.3266 119.593 91.9079 119.707C91.4893 119.821 91.0995 120.022 90.7643 120.297C90.4291 120.573 90.1561 120.916 89.9633 121.305C89.7705 121.693 89.6622 122.119 89.6457 122.552C89.6874 123.48 89.9292 124.388 90.3545 125.214C90.7797 126.04 91.3784 126.765 92.1096 127.338C93.8959 128.483 95.844 129.352 97.8888 129.918C97.1728 132.218 96.6083 134.562 96.1989 136.936C95.9538 138.316 95.7474 139.722 95.5539 141.128C95.5539 140.47 95.5539 139.838 95.5539 139.838C95.2572 137.555 93.3351 133.311 90.7938 132.833C90.3699 132.768 89.9371 132.792 89.5233 132.905C89.1095 133.017 88.724 133.216 88.3918 133.487C88.0597 133.758 87.7884 134.096 87.5954 134.479C87.4025 134.862 87.2923 135.282 87.2721 135.71C87.3054 136.639 87.5422 137.549 87.9657 138.375C88.3892 139.202 88.9891 139.926 89.7231 140.496C91.4505 141.638 93.343 142.508 95.3346 143.076L95.1411 144.689C94.8315 147.269 94.5219 149.849 94.1607 152.429C94.0317 153.319 93.864 154.196 93.7092 155.009C93.7092 154.428 93.7092 153.938 93.7092 153.86C93.4125 151.577 91.4904 147.32 88.9491 146.856C88.5252 146.79 88.0924 146.814 87.6786 146.927C87.2648 147.04 86.8793 147.238 86.5471 147.509C86.215 147.781 85.9437 148.119 85.7507 148.502C85.5578 148.885 85.4476 149.304 85.4274 149.732C85.4676 150.66 85.7074 151.567 86.1304 152.393C86.5534 153.219 87.1496 153.944 87.8784 154.518C89.5536 155.654 91.3942 156.524 93.3351 157.098C93.1416 158.001 92.961 158.891 92.7417 159.678C92.574 160.259 92.445 160.826 92.2515 161.394C92.058 161.962 91.8903 162.542 91.7097 163.097C91.3227 164.168 90.9228 165.264 90.5229 166.296C90.2391 167.018 89.9682 167.702 89.6844 168.386C89.8263 167.496 90.0714 165.806 90.0714 165.612C90.0037 163.622 89.4406 161.68 88.4331 159.962C88.4525 159.739 88.4525 159.515 88.4331 159.291C88.3795 158.867 88.2372 158.459 88.0152 158.093C87.7933 157.727 87.4968 157.412 87.1451 157.169C86.7933 156.926 86.3942 156.759 85.9738 156.68C85.5533 156.601 85.121 156.612 84.705 156.711C82.2024 157.369 80.6157 161.755 80.4996 164.051C80.4996 164.193 80.5899 165.677 80.6544 166.631C80.5254 166.09 80.4093 165.561 80.2803 165.006C80.0094 163.91 79.7256 162.813 79.416 161.626C79.2354 161.072 79.0677 160.504 78.9 159.923C78.7323 159.343 78.4872 158.762 78.2937 158.182C77.8035 156.892 77.2359 155.486 76.6296 154.144C78.6458 153.723 80.5859 152.996 82.383 151.99C83.1531 151.46 83.7988 150.769 84.2755 149.965C84.7521 149.161 85.0483 148.263 85.1436 147.333C85.154 146.905 85.0743 146.479 84.9095 146.083C84.7448 145.688 84.4988 145.331 84.1874 145.037C83.876 144.743 83.5062 144.517 83.102 144.375C82.6978 144.232 82.2683 144.177 81.8412 144.211C79.2612 144.482 77.0424 148.571 76.578 150.829C76.578 150.971 76.3974 152.635 76.3329 153.551C75.9588 152.738 75.5976 151.938 75.1977 151.139C74.0496 148.829 72.8241 146.52 71.5986 144.224L70.4892 142.096C70.8375 142.018 74.9268 141.077 76.4619 139.89C77.2335 139.376 77.8837 138.7 78.3672 137.909C78.8506 137.118 79.1557 136.231 79.2612 135.31C79.2733 134.882 79.1952 134.456 79.0321 134.06C78.8689 133.664 78.6244 133.306 78.3142 133.011C78.0041 132.715 77.6352 132.488 77.2317 132.344C76.8281 132.2 76.3988 132.143 75.9717 132.176C73.3917 132.459 71.1729 136.549 70.7085 138.806C70.7085 138.974 70.4505 141.386 70.4247 141.967C69.6249 140.419 68.8251 138.858 68.1156 137.284C67.1159 135.192 66.2541 133.038 65.5356 130.834C65.7033 130.834 69.9732 129.828 71.547 128.615C72.3201 128.1 72.9713 127.422 73.4548 126.629C73.9384 125.835 74.2426 124.946 74.3463 124.023C74.3567 123.594 74.277 123.169 74.1122 122.773C73.9475 122.377 73.7015 122.021 73.3901 121.727C73.0787 121.432 72.7089 121.207 72.3047 121.064C71.9005 120.922 71.471 120.866 71.0439 120.901C68.4639 121.172 66.2451 125.261 65.7807 127.519C65.7807 127.699 65.5098 130.266 65.5098 130.744C65.5098 130.615 65.4066 130.486 65.3679 130.357C64.7387 128.107 64.3071 125.806 64.0779 123.481C63.936 122.191 63.8715 120.901 63.8328 119.753C65.9202 119.561 67.9654 119.048 69.8958 118.231C70.7199 117.805 71.4412 117.205 72.0093 116.472C72.5775 115.739 72.9788 114.891 73.1853 113.987C73.2433 113.561 73.2113 113.128 73.0913 112.715C72.9713 112.302 72.7661 111.92 72.4889 111.591C72.2117 111.263 71.8686 110.997 71.4819 110.809C71.0952 110.622 70.6735 110.518 70.2441 110.504C67.6641 110.504 65.0067 114.374 64.2972 116.515C64.2972 116.644 63.9876 117.895 63.8199 118.811C63.8199 118.269 63.8199 117.715 63.8199 117.186C63.8199 115.238 63.9489 113.445 64.065 111.858C64.1424 110.968 64.2327 110.155 64.323 109.394C66.075 108.261 67.6451 106.87 68.9799 105.266C69.5099 104.505 69.8695 103.639 70.0343 102.726C70.199 101.813 70.165 100.876 69.9345 99.9772C69.7947 99.577 69.5733 99.2103 69.2843 98.9003C68.9953 98.5902 68.645 98.3437 68.2556 98.1763C67.8662 98.0089 67.4462 97.9243 67.0224 97.9278C66.5986 97.9314 66.1801 98.0231 65.7936 98.197C63.4974 99.3838 62.8911 104.002 63.2136 106.272C63.2136 106.466 64.1037 109.484 64.1424 109.459C64.0392 110.181 63.936 110.968 63.8457 111.819C63.6909 113.406 63.5361 115.199 63.4845 117.16C63.4104 119.272 63.4621 121.388 63.6393 123.494C63.8143 125.851 64.2073 128.188 64.8132 130.473C64.8055 130.502 64.8055 130.533 64.8132 130.563C64.4004 129.918 63.2007 128.177 63.0975 127.983C61.5882 126.242 57.6537 123.765 55.2672 124.771C54.8837 124.956 54.543 125.219 54.2669 125.543C53.9909 125.867 53.7856 126.245 53.6641 126.653C53.5427 127.061 53.5078 127.49 53.5617 127.912C53.6156 128.335 53.7571 128.741 53.9772 129.105C54.5293 129.847 55.2343 130.461 56.0444 130.906C56.8546 131.351 57.7509 131.617 58.6728 131.685C60.8054 131.679 62.9243 131.344 64.9551 130.692C65.6265 133.008 66.4451 135.279 67.4061 137.49C67.9608 138.78 68.5671 140.07 69.1863 141.36L68.4252 140.277C66.9159 138.522 62.9814 136.046 60.6078 137.052C60.2224 137.236 59.8801 137.5 59.6028 137.825C59.3256 138.15 59.1195 138.53 58.998 138.939C58.8764 139.349 58.8421 139.779 58.8972 140.203C58.9522 140.627 59.0955 141.034 59.3178 141.399C59.8642 142.143 60.5662 142.76 61.3748 143.205C62.1835 143.651 63.0794 143.915 64.0005 143.979C66.0743 143.986 68.1368 143.673 70.1151 143.05L70.8375 144.508C72.0114 146.843 73.1853 149.165 74.2689 151.474C74.6559 152.287 75.0042 153.112 75.3525 153.925C75.03 153.448 74.7462 153.048 74.6946 152.983C73.1853 151.242 69.2508 148.765 66.8643 149.771C66.4808 149.956 66.1401 150.219 65.864 150.543C65.588 150.867 65.3827 151.245 65.2612 151.653C65.1398 152.061 65.1049 152.49 65.1588 152.912C65.2127 153.335 65.3542 153.741 65.5743 154.106C66.1264 154.847 66.8314 155.461 67.6415 155.906C68.4517 156.351 69.348 156.617 70.2699 156.686C72.2857 156.69 74.2905 156.39 76.2168 155.795C76.5522 156.634 76.8876 157.485 77.1714 158.375C77.352 158.943 77.5713 159.485 77.7132 160.078C77.8551 160.672 78.0357 161.226 78.1905 161.794C78.4614 162.89 78.7452 164.039 78.9774 165.122C79.1451 165.87 79.287 166.593 79.4289 167.315C79.0548 166.502 78.2937 164.916 78.2163 164.735C76.9908 162.787 73.4691 159.73 70.9665 160.375C70.5533 160.492 70.1695 160.695 69.84 160.97C69.5104 161.246 69.2426 161.588 69.054 161.973C68.8654 162.359 68.7601 162.78 68.7451 163.21C68.7301 163.639 68.8057 164.066 68.967 164.464C69.3923 165.289 69.9905 166.012 70.7207 166.584C71.4509 167.156 72.296 167.564 73.1982 167.78C75.2973 168.1 77.4329 168.1 79.5321 167.78C79.7772 168.979 79.9965 170.153 80.19 171.263C80.8608 175.133 81.2865 178.319 81.5445 180.563H69.6636V218.27H96.7536V180.744H85.995C86.9496 178.732 88.1751 176.036 89.4909 172.811C89.9682 171.662 90.4455 170.424 90.9357 169.147C93.0007 169.634 95.1284 169.799 97.2438 169.637C98.1611 169.494 99.036 169.152 99.8071 168.635C100.578 168.118 101.227 167.439 101.707 166.644C101.898 166.26 102.006 165.84 102.023 165.411C102.04 164.982 101.967 164.555 101.807 164.157C101.648 163.758 101.406 163.398 101.097 163.1C100.789 162.802 100.421 162.572 100.017 162.426C97.5792 161.6 93.8382 164.387 92.4708 166.296C92.3934 166.399 91.6452 167.689 91.1808 168.502C91.3743 167.986 91.5678 167.483 91.7613 166.941C92.1483 165.87 92.5095 164.8 92.8965 163.639C93.0642 163.084 93.2319 162.516 93.4125 161.936C93.5931 161.355 93.7092 160.749 93.864 160.143C94.1994 158.75 94.4703 157.318 94.7154 155.86C96.6251 156.634 98.6453 157.099 100.701 157.24C101.63 157.233 102.547 157.026 103.389 156.632C104.23 156.238 104.977 155.666 105.577 154.957C105.822 154.605 105.99 154.206 106.071 153.786C106.152 153.365 106.143 152.932 106.046 152.515C105.949 152.098 105.765 151.706 105.506 151.364C105.248 151.023 104.92 150.739 104.545 150.532C102.249 149.345 98.0952 151.526 96.4956 153.112C96.3924 153.203 95.3604 154.505 94.7928 155.228C94.9347 154.364 95.0766 153.486 95.1798 152.648C95.5023 150.068 95.7474 147.488 95.9925 144.908C96.0699 144.108 96.1602 143.321 96.2505 142.534C96.573 142.65 100.507 144.121 102.442 143.979C103.369 143.977 104.285 143.773 105.125 143.381C105.965 142.989 106.709 142.418 107.306 141.709C107.553 141.358 107.724 140.958 107.807 140.537C107.89 140.115 107.883 139.681 107.787 139.262C107.691 138.844 107.508 138.45 107.249 138.107C106.991 137.764 106.663 137.479 106.287 137.271C103.99 136.084 99.8367 138.264 98.2371 139.851C98.1081 139.967 96.6117 141.838 96.2634 142.328C96.444 140.586 96.6504 138.858 96.9084 137.168C97.2544 134.844 97.7586 132.547 98.4177 130.292C98.5725 130.292 102.662 131.892 104.648 131.75C105.575 131.748 106.491 131.544 107.331 131.152C108.171 130.76 108.915 130.189 109.512 129.479C109.759 129.128 109.929 128.728 110.011 128.305C110.093 127.883 110.085 127.449 109.987 127.03C109.89 126.611 109.705 126.218 109.446 125.875C109.186 125.533 108.857 125.249 108.48 125.042C106.183 123.855 102.03 126.048 100.443 127.622C100.314 127.751 98.7015 129.763 98.4306 130.202C98.4306 130.073 98.4306 129.931 98.5338 129.802C99.241 127.575 100.148 125.416 101.243 123.352C101.823 122.191 102.455 121.133 103.087 120.101C104.932 121.096 106.921 121.797 108.983 122.178C109.917 122.289 110.864 122.191 111.757 121.892C112.649 121.593 113.464 121.101 114.143 120.449C114.427 120.128 114.64 119.749 114.768 119.339C114.896 118.929 114.936 118.497 114.884 118.07C114.833 117.644 114.692 117.233 114.471 116.865C114.25 116.497 113.953 116.18 113.601 115.934C111.46 114.503 107.151 116.218 105.319 117.663C105.229 117.74 104.313 118.643 103.655 119.314C103.952 118.85 104.248 118.373 104.532 117.947C105.616 116.321 106.699 114.89 107.68 113.638C108.247 112.929 108.763 112.348 109.254 111.716C111.342 111.74 113.421 111.444 115.42 110.839C116.284 110.504 117.064 109.983 117.705 109.315C118.347 108.646 118.835 107.846 119.135 106.969C119.241 106.547 119.255 106.108 119.177 105.681C119.099 105.253 118.93 104.847 118.682 104.49C118.434 104.134 118.112 103.834 117.739 103.612C117.365 103.39 116.948 103.25 116.516 103.202ZM88.1364 172.191C86.5755 175.765 85.1565 178.641 84.1245 180.705H83.2473V180.473C82.9377 178.203 82.4475 174.965 81.6864 171.108C81.4413 169.882 81.1575 168.592 80.8608 167.238C82.0683 166.748 83.2483 166.192 84.3954 165.574C85.9516 166.915 87.6886 168.031 89.5554 168.889C89.0136 170.089 88.5363 171.185 88.0848 172.217L88.1364 172.191Z" fill="#A8A8A8" stroke="#A8A8A8" stroke-width="1.29" stroke-linecap="round" stroke-linejoin="round"/>
<path d="M102.984 119.651C102.984 119.651 103.81 116.645 103.836 116.438C104.158 114.155 103.423 109.563 101.101 108.44C100.71 108.263 100.286 108.17 99.8563 108.168C99.4269 108.166 99.0018 108.254 98.6087 108.426C98.2157 108.599 97.8634 108.853 97.5749 109.171C97.2863 109.489 97.068 109.864 96.9342 110.272C96.7295 111.178 96.7226 112.117 96.9141 113.025C97.1055 113.933 97.4908 114.79 98.0436 115.535C99.1401 117.238 102.984 119.651 102.984 119.651Z" fill="#A8A8A8" stroke="#A8A8A8" stroke-width="1.29" stroke-linecap="round" stroke-linejoin="round"/>
<path d="M206.389 218.941H61.1094V608.908H206.389V218.941Z" fill="white" stroke="#A8A8A8" stroke-width="1.29" stroke-linecap="round" stroke-linejoin="round"/>
<path d="M197.528 229.791H68.6699V307.849H197.528V229.791Z" fill="white" stroke="#A8A8A8" stroke-width="1.29" stroke-linecap="round" stroke-linejoin="round"/>
<path d="M142.612 242.754H119.082V251.939H142.612V242.754Z" fill="#A8A8A8" stroke="#A8A8A8" stroke-width="1.29" stroke-linecap="round" stroke-linejoin="round"/>
<path d="M197.528 323.174H68.6699V401.232H197.528V323.174Z" fill="white" stroke="#A8A8A8" stroke-width="1.29" stroke-linecap="round" stroke-linejoin="round"/>
<path d="M142.612 336.139H119.082V345.323H142.612V336.139Z" fill="#A8A8A8" stroke="#A8A8A8" stroke-width="1.29" stroke-linecap="round" stroke-linejoin="round"/>
<path d="M197.528 416.543H68.6699V494.601H197.528V416.543Z" fill="white" stroke="#A8A8A8" stroke-width="1.29" stroke-linecap="round" stroke-linejoin="round"/>
<path d="M142.612 429.521H119.082V438.706H142.612V429.521Z" fill="#A8A8A8" stroke="#A8A8A8" stroke-width="1.29" stroke-linecap="round" stroke-linejoin="round"/>
<path d="M197.528 509.926H68.6699V587.984H197.528V509.926Z" fill="white" stroke="#A8A8A8" stroke-width="1.29" stroke-linecap="round" stroke-linejoin="round"/>
<path d="M142.612 522.906H119.082V532.091H142.612V522.906Z" fill="#A8A8A8" stroke="#A8A8A8" stroke-width="1.29" stroke-linecap="round" stroke-linejoin="round"/>
<path d="M194.509 147.037H122.023V206.287H194.509V147.037Z" fill="white" stroke="#A8A8A8" stroke-width="1.29" stroke-linecap="round" stroke-linejoin="round"/>
<path d="M197.296 218.812V183.26L161.06 144.225H119.238V218.812H197.296Z" fill="#A8A8A8" stroke="#A8A8A8" stroke-width="1.29" stroke-linecap="round" stroke-linejoin="round"/>
<path d="M494.082 275.68H456.479V376.532H494.082V275.68Z" fill="white" stroke="#A8A8A8" stroke-width="1.29" stroke-linecap="round" stroke-linejoin="round"/>
<path d="M543.644 262.857H406.904V360.291H543.644V262.857Z" fill="#A8A8A8" stroke="#A8A8A8" stroke-width="1.29" stroke-linecap="round" stroke-linejoin="round"/>
<path d="M537.67 268.842H412.889V354.304H537.67V268.842Z" fill="white" stroke="#A8A8A8" stroke-width="1.29" stroke-linecap="round" stroke-linejoin="round"/>
<path d="M521.081 334.379C528.753 333.129 533.959 325.897 532.71 318.226C531.461 310.554 524.229 305.348 516.557 306.597C508.885 307.847 503.679 315.079 504.928 322.75C506.178 330.422 513.41 335.628 521.081 334.379Z" fill="#A8A8A8"/>
<path d="M517.779 311.271V309.826H520.269V311.271C522.436 311.71 523.545 313.374 523.545 316.005V316.612H520.656V315.812C520.656 314.419 520.101 313.903 519.133 313.903C518.166 313.903 517.611 314.419 517.611 315.812C517.611 319.798 523.571 319.991 523.571 325.525C523.571 328.105 522.436 329.847 520.269 330.286V331.705H517.779V330.234C515.586 329.795 514.477 328.105 514.477 325.474V324.184H517.366V325.706C517.366 327.099 517.972 327.589 518.94 327.589C519.907 327.589 520.527 327.099 520.527 325.706C520.527 321.72 514.567 321.526 514.567 315.992C514.567 313.464 515.65 311.735 517.779 311.271Z" fill="white"/>
<path d="M432.252 324.751L449.306 306.42L462.954 314.522L475.751 299.171L494.507 306.846L519.662 286.387" stroke="#A8A8A8" stroke-width="3.87" stroke-linecap="round" stroke-linejoin="round"/>
<path d="M526.64 280.723L510.283 283.303L520.694 296.177L526.64 280.723Z" fill="#A8A8A8"/>
<path d="M505.19 375.666H446.225V380.8H505.19V375.666Z" fill="white" stroke="#A8A8A8" stroke-width="1.29" stroke-linecap="round" stroke-linejoin="round"/>
<path d="M417.158 375.666H304.348V380.8H417.158V375.666Z" fill="white" stroke="#A8A8A8" stroke-width="1.29" stroke-linecap="round" stroke-linejoin="round"/>
<path d="M597.49 398.217H587.234V609.312H597.49V398.217Z" fill="white" stroke="#A8A8A8" stroke-width="1.29" stroke-linecap="round" stroke-linejoin="round"/>
<path d="M592.304 398.217H300.932V430.699H592.304V398.217Z" fill="white" stroke="#A8A8A8" stroke-width="1.29" stroke-linecap="round" stroke-linejoin="round"/>
<path d="M307.769 398.217H297.514V609.312H307.769V398.217Z" fill="white" stroke="#A8A8A8" stroke-width="1.29" stroke-linecap="round" stroke-linejoin="round"/>
<path d="M597.49 398.217H487.246V577.694H597.49V398.217Z" fill="white" stroke="#A8A8A8" stroke-width="1.29" stroke-linecap="round" stroke-linejoin="round"/>
<path d="M604.336 387.191H289.963V401.639H604.336V387.191Z" fill="#A8A8A8" stroke="#A8A8A8" stroke-width="1.29" stroke-linecap="round" stroke-linejoin="round"/>
<path d="M613.73 381.227H280.549V390.476H613.73V381.227Z" fill="white" stroke="#A8A8A8" stroke-width="1.29" stroke-linecap="round" stroke-linejoin="round"/>
<path d="M591.506 410.174H493.221V453.763H591.506V410.174Z" fill="white" stroke="#A8A8A8" stroke-width="1.29" stroke-linecap="round" stroke-linejoin="round"/>
<path d="M549.629 428.982H531.686V434.117H549.629V428.982Z" fill="#A8A8A8" stroke="#A8A8A8" stroke-width="1.29" stroke-linecap="round" stroke-linejoin="round"/>
<path d="M591.506 468.289H493.221V511.878H591.506V468.289Z" fill="white" stroke="#A8A8A8" stroke-width="1.29" stroke-linecap="round" stroke-linejoin="round"/>
<path d="M549.629 487.098H531.686V492.232H549.629V487.098Z" fill="#A8A8A8" stroke="#A8A8A8" stroke-width="1.29" stroke-linecap="round" stroke-linejoin="round"/>
<path d="M591.506 526.404H493.221V569.993H591.506V526.404Z" fill="white" stroke="#A8A8A8" stroke-width="1.29" stroke-linecap="round" stroke-linejoin="round"/>
<path d="M549.629 545.213H531.686V550.347H549.629V545.213Z" fill="#A8A8A8" stroke="#A8A8A8" stroke-width="1.29" stroke-linecap="round" stroke-linejoin="round"/>
<path d="M412.981 471.826H398.816V525.864H412.981V471.826Z" fill="#A8A8A8" stroke="#A8A8A8" stroke-width="1.29" stroke-linecap="round" stroke-linejoin="round"/>
<path d="M416.564 517.377H395.215V585.708H416.564V517.377Z" fill="#A8A8A8" stroke="#A8A8A8" stroke-width="1.29" stroke-linecap="round" stroke-linejoin="round"/>
<path d="M416.128 583.911L406.234 581.241V580.764L405.331 580.996L404.441 580.764V581.241L394.547 583.911L327.105 596.489V601.442H404.441H406.234H483.557V596.489L416.128 583.911Z" fill="#A8A8A8" stroke="#A8A8A8" stroke-width="1.29" stroke-linecap="round" stroke-linejoin="round"/>
<path d="M337.671 604.593C337.666 605.526 337.385 606.436 336.863 607.209C336.341 607.982 335.602 608.583 334.739 608.936C333.876 609.29 332.927 609.38 332.013 609.195C331.099 609.01 330.26 608.558 329.602 607.897C328.945 607.235 328.497 606.394 328.317 605.479C328.137 604.564 328.232 603.616 328.59 602.754C328.948 601.893 329.554 601.157 330.329 600.64C331.105 600.122 332.017 599.846 332.95 599.846C333.572 599.846 334.188 599.969 334.763 600.208C335.337 600.446 335.859 600.797 336.298 601.238C336.736 601.679 337.084 602.202 337.319 602.778C337.555 603.354 337.675 603.971 337.671 604.593Z" fill="#A8A8A8" stroke="#A8A8A8" stroke-width="1.29" stroke-linecap="round" stroke-linejoin="round"/>
<path d="M410.052 604.591C410.052 605.524 409.775 606.437 409.256 607.214C408.738 607.99 408 608.595 407.138 608.953C406.275 609.31 405.326 609.403 404.41 609.221C403.494 609.039 402.653 608.589 401.992 607.929C401.332 607.269 400.882 606.428 400.7 605.512C400.518 604.596 400.611 603.646 400.969 602.784C401.326 601.921 401.931 601.184 402.708 600.665C403.484 600.146 404.397 599.869 405.331 599.869C406.583 599.869 407.784 600.367 408.669 601.252C409.555 602.137 410.052 603.338 410.052 604.591Z" fill="#A8A8A8" stroke="#A8A8A8" stroke-width="1.29" stroke-linecap="round" stroke-linejoin="round"/>
<path d="M482.886 604.591C482.886 605.524 482.609 606.437 482.09 607.214C481.572 607.99 480.834 608.595 479.972 608.953C479.109 609.31 478.16 609.403 477.244 609.221C476.328 609.039 475.487 608.589 474.826 607.929C474.166 607.269 473.716 606.428 473.534 605.512C473.352 604.596 473.445 603.646 473.803 602.784C474.16 601.921 474.765 601.184 475.542 600.665C476.318 600.146 477.231 599.869 478.165 599.869C479.417 599.869 480.618 600.367 481.503 601.252C482.389 602.137 482.886 603.338 482.886 604.591Z" fill="#A8A8A8" stroke="#A8A8A8" stroke-width="1.29" stroke-linecap="round" stroke-linejoin="round"/>
<path d="M337.579 420.029H351.589V480.737H346.596C344.202 480.737 341.905 479.785 340.211 478.092C338.518 476.398 337.566 474.102 337.566 471.707V420.029H337.579Z" fill="white" stroke="#A8A8A8" stroke-width="1.29" stroke-linecap="round" stroke-linejoin="round"/>
<path d="M351.589 407.352H329.568V418.691H351.589V407.352Z" fill="white" stroke="#A8A8A8" stroke-width="1.29" stroke-linecap="round" stroke-linejoin="round"/>
<path d="M460.697 480.737C462.538 480.738 464.361 480.377 466.062 479.674C467.764 478.971 469.309 477.939 470.612 476.638C471.914 475.337 472.947 473.792 473.652 472.091C474.357 470.391 474.72 468.568 474.72 466.727V420.029H460.697V480.737Z" fill="white" stroke="#A8A8A8" stroke-width="1.29" stroke-linecap="round" stroke-linejoin="round"/>
<path d="M460.696 418.691H482.717V407.352H460.696V418.691Z" fill="white" stroke="#A8A8A8" stroke-width="1.29" stroke-linecap="round" stroke-linejoin="round"/>
<path d="M449.293 488.906H362.489C357.617 488.906 352.944 486.971 349.499 483.526C346.054 480.081 344.119 475.408 344.119 470.536L354.439 340.775C354.437 338.764 354.832 336.772 355.601 334.913C356.37 333.055 357.498 331.366 358.92 329.944C360.342 328.522 362.031 327.394 363.89 326.625C365.748 325.856 367.74 325.461 369.751 325.463H442.069C444.08 325.461 446.072 325.856 447.931 326.625C449.789 327.394 451.478 328.522 452.9 329.944C454.322 331.366 455.45 333.055 456.219 334.913C456.988 336.772 457.383 338.764 457.381 340.775L467.701 470.536C467.699 472.951 467.222 475.342 466.296 477.573C465.369 479.803 464.013 481.83 462.303 483.535C460.594 485.241 458.565 486.594 456.332 487.515C454.1 488.437 451.708 488.909 449.293 488.906Z" fill="white" stroke="#A8A8A8" stroke-width="1.29" stroke-linecap="round" stroke-linejoin="round"/>
<path d="M449.293 495.74H362.489C360.076 495.742 357.686 495.268 355.457 494.345C353.228 493.422 351.202 492.069 349.496 490.363C347.79 488.657 346.437 486.631 345.514 484.402C344.591 482.173 344.117 479.783 344.119 477.37L354.439 347.609C354.439 343.548 356.052 339.653 358.924 336.782C361.796 333.91 365.69 332.297 369.751 332.297H442.069C446.13 332.297 450.025 333.91 452.896 336.782C455.768 339.653 457.381 343.548 457.381 347.609L467.701 477.37C467.701 479.786 467.225 482.178 466.299 484.409C465.374 486.64 464.017 488.667 462.307 490.373C460.597 492.08 458.568 493.432 456.334 494.353C454.101 495.274 451.708 495.745 449.293 495.74Z" fill="white" stroke="#A8A8A8" stroke-width="1.29" stroke-linecap="round" stroke-linejoin="round"/>
<path d="M242.288 351.501L235.218 371.109C235.218 371.109 196.247 428.049 185.347 445.477C174.446 462.905 175.736 460.738 176.317 466.736C176.897 472.735 202.207 555.888 202.749 564.609C203.094 569.332 203.094 574.075 202.749 578.799L213.069 577.16C211.575 581.048 209.562 584.714 207.083 588.061C203.213 592.963 202.723 595.13 196.183 600.032C189.643 604.934 184.754 604.934 188.559 607.114C192.365 609.294 208.709 609.294 213.611 606.031C218.513 602.767 221.789 596.768 224.511 594.046L228.872 589.686L230.497 594.588C230.497 594.588 235.954 588.603 238.121 587.506C240.288 586.41 241.991 583.146 241.991 583.146C241.991 583.146 240.353 578.799 238.727 575.522C237.102 572.245 230.549 567.356 230.549 567.356C230.549 567.356 225.84 522.206 221.519 500.947C217.197 479.688 219.958 479.288 218.861 476.011C218.091 473.781 217.182 471.601 216.139 469.484L261.87 410.415C262.267 410 262.765 409.693 263.315 409.525C263.83 409.371 264.375 409.345 264.902 409.448C265.43 409.551 265.925 409.781 266.344 410.117C266.764 410.453 267.096 410.885 267.312 411.377C267.528 411.87 267.621 412.407 267.584 412.943C266.423 430.126 264.514 480.178 266.836 487.131C269.558 495.297 289.282 525.573 290.792 528.527C294.662 536.1 312.941 559.745 316.217 566.827C319.494 573.91 322.745 581.533 322.745 581.533L332.549 575.548C332.549 575.548 335.284 579.353 332.549 582.63C329.814 585.907 321.661 598.42 315.676 602.238C309.69 606.056 311.806 609.32 311.806 609.32C311.806 609.32 333.594 608.765 337.399 608.224C341.205 607.682 343.94 603.322 346.661 599.516C349.058 595.83 351.242 592.01 353.202 588.074L357.562 591.944C357.562 591.944 360.284 586.487 361.922 582.127C362.923 579.329 363.471 576.39 363.548 573.419C363.548 573.419 357.02 567.421 352.66 565.795C348.3 564.17 344.481 562.519 344.481 562.519L339.038 554.353C339.038 554.353 324.332 503.153 317.791 490.627C314.282 483.598 309.689 477.164 304.182 471.561C304.182 471.561 321.79 407.061 325.054 392.948C327.016 384.507 328.472 375.956 329.414 367.342C315.79 357.648 300.161 351.141 283.684 348.301C255.91 343.335 242.288 351.501 242.288 351.501Z" fill="#263238" stroke="#263238" stroke-width="1.29" stroke-linecap="round" stroke-linejoin="round"/>
<path d="M270.719 358.365V364.531C270.719 364.531 261.122 374.129 262.154 377.225C263.186 380.321 265.585 393.995 265.585 393.995" stroke="#7A7A7A" stroke-width="1.29" stroke-linecap="round" stroke-linejoin="round"/>
<path d="M277.58 358.701L278.264 365.564C278.264 365.564 269.35 376.877 269.002 378.593C268.883 380.428 269.001 382.27 269.35 384.075" stroke="#7A7A7A" stroke-width="1.29" stroke-linecap="round" stroke-linejoin="round"/>
<path d="M287.182 363.846C295.388 366.093 303.335 369.198 310.892 373.108" stroke="#7A7A7A" stroke-width="1.29" stroke-linecap="round" stroke-linejoin="round"/>
<path d="M311.239 377.791C305.399 375.433 299.429 373.409 293.359 371.729" stroke="#7A7A7A" stroke-width="1.29" stroke-linecap="round" stroke-linejoin="round"/>
<path d="M319.415 380.989L315.545 379.467" stroke="#7A7A7A" stroke-width="1.29" stroke-linecap="round" stroke-linejoin="round"/>
<path d="M286.549 395.94C293.141 393.618 301.797 391.258 309.137 391.619" stroke="#7A7A7A" stroke-width="1.29" stroke-linecap="round" stroke-linejoin="round"/>
<path d="M276.213 400.197C276.213 400.197 278.187 399.229 281.373 397.939" stroke="#7A7A7A" stroke-width="1.29" stroke-linecap="round" stroke-linejoin="round"/>
<path d="M251.668 379.145L253.925 381.338" stroke="#7A7A7A" stroke-width="1.29" stroke-linecap="round" stroke-linejoin="round"/>
<path d="M240.895 368.645L248.364 375.933" stroke="#7A7A7A" stroke-width="1.29" stroke-linecap="round" stroke-linejoin="round"/>
<path d="M242.262 361.791L254.607 363.158" stroke="#7A7A7A" stroke-width="1.29" stroke-linecap="round" stroke-linejoin="round"/>
<path d="M312.979 229.969C312.979 229.969 291.358 232.549 285.128 234.006C278.897 235.464 274.498 235.464 273.027 237.296C271.557 239.128 258.373 250.854 252.142 254.13C245.912 257.407 227.22 262.567 226.845 263.664C226.471 264.76 229.425 283.091 228.677 288.948C227.929 294.804 227.22 298.481 227.22 298.481L262.05 284.923C262.05 284.923 253.252 318.643 249.949 327.067C246.647 335.491 245.924 340.999 243.357 342.831C240.79 344.663 238.584 344.301 238.584 347.591C238.584 350.88 240.79 355.331 241.887 355.653C242.983 355.976 265.713 353.073 274.511 354.557C283.309 356.04 316.655 370.321 323.621 375.081C330.587 379.841 330.948 377.661 333.516 372.501C336.083 367.341 336.096 356.75 336.096 355.641C336.096 354.531 363.56 294.12 363.56 294.12C363.56 294.12 367.584 324.539 371.622 326.745C375.66 328.95 385.18 328.576 389.579 319.779C393.978 310.981 403.137 297.849 398.751 287.529C394.365 277.209 388.431 264.438 385.18 257.097C381.929 249.757 378.949 249.035 370.526 245.745C362.102 242.456 339.733 231.813 337.54 231.452C335.347 231.091 312.979 229.969 312.979 229.969Z" fill="white" stroke="#263238" stroke-width="1.29" stroke-linecap="round" stroke-linejoin="round"/>
<path d="M297.824 330.486C305.306 340.51 316.865 356.88 319.69 365.987" stroke="#263238" stroke-width="1.29" stroke-linecap="round" stroke-linejoin="round"/>
<path d="M291.242 321.904C291.242 321.904 292.261 323.194 293.925 325.349" stroke="#263238" stroke-width="1.29" stroke-linecap="round" stroke-linejoin="round"/>
<path d="M327.299 363.598C327.621 364.243 327.918 364.888 328.215 365.507" stroke="#263238" stroke-width="1.29" stroke-linecap="round" stroke-linejoin="round"/>
<path d="M320.631 351.77C320.631 351.77 322.901 355.394 325.249 359.677" stroke="#263238" stroke-width="1.29" stroke-linecap="round" stroke-linejoin="round"/>
<path d="M257.121 352.251C257.121 352.251 280.818 350.819 286.03 351.773" stroke="#263238" stroke-width="1.29" stroke-linecap="round" stroke-linejoin="round"/>
<path d="M281.283 354.133C281.283 354.133 295.473 355.565 301.201 357.925" stroke="#263238" stroke-width="1.29" stroke-linecap="round" stroke-linejoin="round"/>
<path d="M363.563 294.105L359.681 281.334L358.971 292.583L343.504 291.873L359.681 301.368L363.563 294.105Z" fill="#263238" stroke="#263238" stroke-width="1.29" stroke-linecap="round" stroke-linejoin="round"/>
<path d="M262.037 286.044L273.028 246.828" stroke="#263238" stroke-width="1.29" stroke-linecap="round" stroke-linejoin="round"/>
<path d="M267.532 265.52L263.365 254.98L262.656 279.232L257.393 279.929L262.037 284.947L267.532 265.52Z" fill="#263238" stroke="#263238" stroke-width="1.29" stroke-linecap="round" stroke-linejoin="round"/>
<path d="M230.509 260.761C230.509 260.761 239.307 269.185 240.829 275.776C242.352 282.368 237.166 292.637 234.599 296.674C232.032 300.712 229.103 301.834 221.763 302.544C214.423 303.253 206.374 297.036 206.012 290.805C205.651 284.574 214.759 259.29 230.509 260.761Z" fill="white" stroke="#263238" stroke-width="1.29" stroke-linecap="round" stroke-linejoin="round"/>
<path d="M295.758 272.848C295.758 272.848 277.066 295.577 262.398 304.001C247.731 312.425 238.572 318.294 238.572 318.294L233.412 342.804C233.412 342.804 253.936 339.876 260.167 337.644C266.397 335.413 267.907 334.342 267.907 334.342C267.907 334.342 280.807 307.252 289.54 292.198C298.273 277.143 299.434 274.976 299.434 274.976L295.758 272.848Z" fill="#263238" stroke="#263238" stroke-width="1.29" stroke-linecap="round" stroke-linejoin="round"/>
<path d="M298.326 246.092C298.326 247.188 295.746 272.846 295.746 272.846L299.41 275.052L323.597 257.083C323.597 257.083 324.694 252.697 323.236 252.697C321.778 252.697 310.039 261.12 310.039 261.12L299.719 257.083L300.816 246.466L298.326 246.092Z" fill="#263238" stroke="#263238" stroke-width="1.29" stroke-linecap="round" stroke-linejoin="round"/>
<path d="M311.133 260.349L310.05 261.123L308.669 260.581L296.853 261.704C296.569 264.632 296.298 267.392 296.092 269.444L308.579 268.257L320.408 259.459L311.133 260.349Z" fill="#92E3A9" stroke="#263238" stroke-width="1.29" stroke-linecap="round" stroke-linejoin="round"/>
<path d="M288.081 294.777L273.065 296.209C269.746 299.1 266.176 301.691 262.397 303.949L260.578 305.007L283.669 302.801C285.178 300.015 286.662 297.28 288.081 294.777Z" fill="#92E3A9" stroke="#263238" stroke-width="1.29" stroke-linecap="round" stroke-linejoin="round"/>
<path d="M236.82 326.721L273.314 323.251C274.527 320.787 275.894 318.091 277.313 315.201L238.459 318.903L236.82 326.721Z" fill="#92E3A9" stroke="#263238" stroke-width="1.29" stroke-linecap="round" stroke-linejoin="round"/>
<path d="M291.426 277.87C289.349 280.217 286.653 283.159 283.596 286.28L293.58 285.326C295.941 281.249 297.373 278.734 298.224 277.225L291.426 277.87Z" fill="#92E3A9" stroke="#263238" stroke-width="1.29" stroke-linecap="round" stroke-linejoin="round"/>
<path d="M315.545 223.376C315.545 223.376 304.554 228.871 303.084 231.439C301.613 234.006 299.046 242.791 293.551 249.757C288.055 256.723 281.825 261.483 287.32 259.29C292.815 257.097 300.568 248.97 300.568 248.97L303.871 259.29C303.871 259.29 305.703 260.025 309.031 258.554C312.359 257.084 319.647 251.962 319.647 254.891C319.647 257.819 317.454 272.112 319.647 269.919C321.84 267.726 322.95 260.386 331.748 253.42C340.545 246.454 348.247 242.429 348.608 234.367C348.969 226.304 346.415 224.473 339.075 222.641C331.735 220.809 316.281 221.88 315.545 223.376Z" fill="white" stroke="#263238" stroke-width="1.29" stroke-linecap="round" stroke-linejoin="round"/>
<path d="M311.885 216.41C311.885 216.41 312.981 222.267 309.679 231.8C306.376 241.333 298.688 262.218 305.28 260.025C311.872 257.832 337.53 236.934 339.736 234.006C341.942 231.078 347.476 209.07 347.476 209.07C347.476 209.07 325.855 214.94 319.612 215.675C313.368 216.41 311.885 216.41 311.885 216.41Z" fill="#A8A8A8" stroke="#263238" stroke-width="1.29" stroke-linecap="round" stroke-linejoin="round"/>
<path d="M311.883 216.413C312.268 219.87 312.014 223.368 311.135 226.733C342.379 220.721 347.435 209.047 347.435 209.047C347.435 209.047 325.815 214.916 319.571 215.652C313.328 216.387 311.883 216.413 311.883 216.413Z" fill="#263238" stroke="#263238" stroke-width="1.29" stroke-linecap="round" stroke-linejoin="round"/>
<path d="M358.429 200.286C358.429 200.286 355.127 196.248 369.059 191.849C382.991 187.45 391.053 183.051 389.222 174.628C387.39 166.204 377.495 163.998 377.495 163.998C377.495 163.998 385.919 148.234 380.424 144.932C374.928 141.629 368.324 146.402 368.324 146.402C368.324 146.402 369.794 134.676 363.925 134.302C358.055 133.928 352.199 139.075 352.199 139.075C352.199 139.075 351.837 126.975 341.569 129.181C331.301 131.387 334.977 142.003 334.977 142.003C334.977 142.003 323.251 137.243 319.213 144.583C315.176 151.924 318.478 154.903 318.478 154.903C318.478 154.903 314.453 156.374 314.453 160.412C314.453 164.449 318.117 168.474 321.045 168.835C323.973 169.197 328.372 167.004 332.049 167.739C335.725 168.474 349.631 176.537 345.607 189.359C341.582 202.182 346.342 204.388 348.187 205.484C350.031 206.581 356.972 203.214 358.429 200.286Z" fill="#263238" stroke="#263238" stroke-width="1.29" stroke-linecap="round" stroke-linejoin="round"/>
<path d="M354.749 179.389C354.749 179.389 359.909 173.158 359.909 169.133C359.909 165.108 345.977 155.201 337.553 155.201C329.13 155.201 317.029 165.457 317.029 168.024C317.029 170.591 317.029 172.061 315.197 173.893C313.366 175.725 306.4 179.389 304.568 183.426C302.736 187.464 296.505 213.845 297.963 215.302C299.421 216.76 307.741 218.347 310.063 218.243C317.803 217.869 333.154 218.243 338.288 216.412C341.495 215.217 344.468 213.471 347.073 211.252C350.607 211.427 354.135 210.8 357.393 209.42C361.792 207.214 366.926 200.261 362.153 197.32C357.38 194.378 350.427 195.862 350.427 195.862C350.427 195.862 349.331 194.391 351.163 191.824C352.994 189.257 352.995 189.631 352.995 187.799C352.995 185.968 351.833 182.317 354.749 179.389Z" fill="#A8A8A8" stroke="#263238" stroke-width="1.29" stroke-linecap="round" stroke-linejoin="round"/>
<path d="M327.659 169.854C326.648 172.032 324.979 173.837 322.886 175.014C319.222 177.219 311.895 178.677 313.727 181.618C315.558 184.56 319.957 184.908 322.886 184.908C323.699 184.907 324.484 184.609 325.092 184.07C325.701 183.53 326.09 182.787 326.188 181.98" stroke="#263238" stroke-width="1.29" stroke-linecap="round" stroke-linejoin="round"/>
<path d="M312.617 189.63C316.725 190.452 320.892 190.94 325.078 191.088C329.701 191.311 334.32 190.564 338.636 188.895C338.636 188.895 331.67 198.428 327.646 201.356C325.598 202.971 323.235 204.139 320.709 204.786C318.183 205.432 315.55 205.543 312.978 205.11C307.483 204.013 306.012 201.072 307.483 198.879C308.953 196.686 312.617 189.63 312.617 189.63Z" fill="#263238" stroke="#263238" stroke-width="1.29" stroke-linecap="round" stroke-linejoin="round"/>
<path d="M334.653 194.055C336.898 191.307 338.639 188.895 338.639 188.895C334.323 190.564 329.704 191.311 325.081 191.088C320.895 190.94 316.727 190.452 312.62 189.63L311.098 192.468C318.619 195.316 326.817 195.868 334.653 194.055Z" fill="white" stroke="#263238" stroke-width="1.29" stroke-linecap="round" stroke-linejoin="round"/>
<path d="M307.188 199.383C306.298 201.498 307.95 204.04 312.981 205.046C317.387 205.856 321.937 204.991 325.739 202.621C326.874 201.898 327.648 201.331 327.648 201.331C327.648 201.331 318.399 204.775 307.188 199.383Z" fill="white" stroke="#263238" stroke-width="1.29" stroke-linecap="round" stroke-linejoin="round"/>
<path d="M334.977 177.195C334.977 177.195 340.137 175.364 343.039 179.775" stroke="#263238" stroke-width="1.29" stroke-linecap="round" stroke-linejoin="round"/>
<path d="M322.873 173.518C322.873 173.518 321.416 171.325 318.113 173.518" stroke="#263238" stroke-width="1.29" stroke-linecap="round" stroke-linejoin="round"/>
<path d="M341.203 166.564C341.203 166.564 345.963 168.757 346.363 176.085" stroke="#263238" stroke-width="2.58" stroke-linecap="round" stroke-linejoin="round"/>
<path d="M326.912 165.121C325.46 164.867 323.967 164.968 322.563 165.418C321.159 165.867 319.884 166.651 318.85 167.701" stroke="#263238" stroke-width="2.58" stroke-linecap="round" stroke-linejoin="round"/>
<path d="M380.06 293.744C380.06 293.744 366.863 302.903 365.393 306.206C363.922 309.508 366.128 326.368 367.65 331.528C369.172 336.688 374.255 337.024 381.221 337.398C388.187 337.772 395.875 337.759 399.913 330.793C403.951 323.827 402.841 316.139 396.249 308.076C391.509 302.606 386.065 297.786 380.06 293.744Z" fill="white" stroke="#263238" stroke-width="1.29" stroke-linecap="round" stroke-linejoin="round"/>
<path d="M389.955 207.973C389.955 207.973 385.556 203.948 383.724 204.683C381.892 205.419 372.359 207.973 373.817 212.011C375.275 216.048 382.615 214.204 385.182 213.468C386.451 213.165 387.594 212.472 388.45 211.486C389.306 210.501 389.832 209.272 389.955 207.973Z" fill="#A8A8A8" stroke="#263238" stroke-width="1.29" stroke-linecap="round" stroke-linejoin="round"/>
<path d="M400.585 207.977C400.585 207.977 395.425 201.011 391.787 202.481C388.149 203.952 387.014 209.447 387.014 209.447C387.014 209.447 381.518 210.544 380.422 212.75L379.325 214.943C379.325 214.943 374.552 215.304 373.817 217.523C373.371 218.948 373.128 220.429 373.095 221.922C372.282 222.208 371.554 222.693 370.977 223.333C370.401 223.973 369.993 224.747 369.792 225.585C369.057 228.513 369.792 229.623 371.263 233.325C372.734 237.027 377.494 242.123 379.003 243.955C380.512 245.787 385.969 247.244 386.343 248.354C386.717 249.463 386.704 252.017 385.234 260.08C383.763 268.142 379.738 289.027 376.436 300.392C373.133 311.757 369.483 315.421 373.508 325.315C377.532 335.209 381.944 336.68 387.44 335.209C391.642 334.045 395.471 331.812 398.555 328.729C401.638 325.645 403.871 321.816 405.035 317.614C407.963 306.623 404.661 287.944 404.661 275.469C404.661 262.995 405.035 242.123 404.661 232.899C404.287 223.676 400.585 207.977 400.585 207.977Z" fill="#A8A8A8" stroke="#263238" stroke-width="1.29" stroke-linecap="round" stroke-linejoin="round"/>
<path d="M276.692 212.014C276.692 212.014 266.798 214.207 262.399 214.942C258 215.677 254.659 213.471 253.975 211.278C253.291 209.085 248.105 206.518 248.105 206.518C248.105 206.518 249.937 204.312 260.567 201.358C271.196 198.404 277.801 203.938 277.801 203.938L276.692 212.014Z" fill="#A8A8A8" stroke="#263238" stroke-width="1.29" stroke-linecap="round" stroke-linejoin="round"/>
<path d="M241.952 216.334L250.595 213.754C254.259 212.657 256.542 207.626 256.542 207.626C256.542 207.626 256.903 210.206 259.122 209.819C261.341 209.432 271.222 208.723 273.428 208.723C275.634 208.723 284.419 206.143 284.419 202.853C284.419 199.564 276.356 190.766 274.886 188.199C273.415 185.632 269.029 184.535 266.088 184.535C263.147 184.535 260.231 186.367 251.434 191.862C242.636 197.358 236.766 200.299 234.935 202.853C233.103 205.407 205.587 253.06 203.82 258.555C202.052 264.051 197.228 275.042 198.324 279.44C199.679 284.871 204.903 290.276 208.773 294.03C214.178 299.306 225.776 297.062 229.22 290.315C232.148 284.549 233.09 276.293 233.09 269.92C233.09 261.484 231.258 255.627 233.09 243.901C234.922 232.175 241.952 216.334 241.952 216.334Z" fill="#A8A8A8" stroke="#263238" stroke-width="1.29" stroke-linecap="round" stroke-linejoin="round"/>
<path d="M271.197 209.802C271.197 209.802 271.197 213.104 272.294 213.465C273.39 213.827 280.73 214.201 281.092 212.008C281.453 209.815 281.092 208.705 279.26 207.97C277.428 207.235 271.933 207.609 271.197 209.802Z" fill="#A8A8A8" stroke="#263238" stroke-width="1.29" stroke-linecap="round" stroke-linejoin="round"/>
<path d="M256.543 207.613L259.832 205.046L257.265 202.479" stroke="#263238" stroke-width="1.29" stroke-linecap="round" stroke-linejoin="round"/>
<path d="M264.229 189.283C264.229 189.283 269.725 200.287 270.834 202.48C271.943 204.673 271.195 204.312 269.725 205.408C268.254 206.505 262.771 209.446 262.771 209.446" stroke="#263238" stroke-width="1.29" stroke-linecap="round" stroke-linejoin="round"/>
<path d="M270.898 188.547C270.898 188.547 278.638 202.479 277.864 203.949C277.09 205.42 271.26 209.806 271.26 209.806" stroke="#263238" stroke-width="1.29" stroke-linecap="round" stroke-linejoin="round"/>
<path d="M277.064 191.852C277.064 191.852 282.56 201.011 281.825 203.578C281.089 206.145 278.045 207.925 278.045 207.925" stroke="#263238" stroke-width="1.29" stroke-linecap="round" stroke-linejoin="round"/>
<path d="M629.516 609.316H25.873" stroke="#263238" stroke-width="1.29" stroke-linecap="round" stroke-linejoin="round"/>
</svg>
