<svg width="26" height="26" viewBox="0 0 26 26" fill="none" xmlns="http://www.w3.org/2000/svg">
<path d="M1.625 13C1.625 6.71775 6.71775 1.625 13 1.625C19.2822 1.625 24.375 6.71775 24.375 13C24.375 19.2822 19.2822 24.375 13 24.375C6.71775 24.375 1.625 19.2822 1.625 13ZM18.4494 10.3244C18.5974 10.1712 18.6793 9.96596 18.6775 9.75292C18.6756 9.53989 18.5902 9.3361 18.4395 9.18546C18.2889 9.03482 18.0851 8.94937 17.8721 8.94752C17.659 8.94566 17.4538 9.02756 17.3006 9.17556L11.7812 14.6949L9.10569 12.0193C8.95245 11.8713 8.74721 11.7894 8.53417 11.7913C8.32114 11.7931 8.11735 11.8786 7.96671 12.0292C7.81607 12.1799 7.73062 12.3836 7.72877 12.5967C7.72691 12.8097 7.80881 13.0149 7.95681 13.1682L11.2068 16.4182C11.3592 16.5705 11.5658 16.6561 11.7812 16.6561C11.9967 16.6561 12.2033 16.5705 12.3557 16.4182L18.4494 10.3244Z" fill="#88DBA9"/>
</svg>
