<svg width="423" height="423" viewBox="0 0 423 350" fill="none" xmlns="http://www.w3.org/2000/svg">
<path d="M140.08 133.049C133.312 137.059 126.349 140.663 119.53 144.69C88.1354 163.065 62.2986 187.7 59.1261 225.44C56.808 253.071 65.5134 285.219 89.8189 301.208C95.8195 305.139 102.516 307.887 109.548 309.304C119.463 311.326 129.962 310.531 140.08 309.947V133.049Z" fill="#92E3A9"/>
<path d="M285.82 93.752H188.353C182.077 97.6667 176.192 102.177 170.781 107.22H304.737C298.832 102.193 292.503 97.6865 285.82 93.752Z" fill="#92E3A9"/>
<path d="M281.26 91.2142C274.2 87.4416 266.755 84.438 259.053 82.2551C235.746 75.7324 212.658 80.0724 192.676 91.2142H281.26Z" fill="#92E3A9"/>
<path d="M338.399 146.643C329.942 132.957 319.588 120.538 307.646 109.758H217.311V321.808C224.056 324.065 230.962 325.813 237.97 327.036C284.026 334.413 335.556 318.009 353.424 271.589C369.438 229.991 361.477 183.681 338.399 146.643Z" fill="#92E3A9"/>
<path d="M211.77 109.758H168.125C166.326 111.534 164.571 113.367 162.863 115.257C157.773 120.788 151.976 125.624 145.621 129.639V309.676C161.411 309.075 177.209 310.64 192.574 314.329C199.08 315.886 205.425 317.967 211.77 320.031V109.758Z" fill="#92E3A9"/>
<g opacity="0.8">
<path opacity="0.8" d="M140.08 133.043C133.312 137.053 126.349 140.657 119.53 144.684C88.1354 163.059 62.2986 187.695 59.1261 225.435C56.808 253.065 65.5134 285.213 89.8189 301.202C95.8195 305.133 102.516 307.881 109.548 309.299C119.463 311.321 129.962 310.525 140.08 309.942V133.043Z" fill="white"/>
<path opacity="0.8" d="M285.82 93.748H188.353C182.077 97.6628 176.192 102.173 170.781 107.216H304.737C298.832 102.189 292.503 97.6826 285.82 93.748Z" fill="white"/>
<path opacity="0.8" d="M281.26 91.2103C274.2 87.4377 266.755 84.4341 259.053 82.2512C235.746 75.7285 212.658 80.0685 192.676 91.2103H281.26Z" fill="white"/>
<path opacity="0.8" d="M338.397 146.639C329.94 132.953 319.586 120.535 307.644 109.754H217.309V321.804C224.054 324.061 230.96 325.809 237.968 327.032C284.024 334.409 335.554 318.005 353.422 271.585C369.436 229.987 361.475 183.677 338.397 146.639Z" fill="white"/>
<path opacity="0.8" d="M211.77 109.754H168.125C166.326 111.531 164.571 113.364 162.863 115.253C157.773 120.784 151.976 125.62 145.621 129.635V309.672C161.411 309.071 177.209 310.636 192.574 314.325C199.08 315.882 205.425 317.963 211.77 320.027V109.754Z" fill="white"/>
</g>
<path d="M208.422 346.733C277.1 346.733 332.775 343.013 332.775 338.425C332.775 333.837 277.1 330.117 208.422 330.117C139.743 330.117 84.0684 333.837 84.0684 338.425C84.0684 343.013 139.743 346.733 208.422 346.733Z" fill="#92E3A9"/>
<path opacity="0.5" d="M208.422 346.733C277.1 346.733 332.775 343.013 332.775 338.425C332.775 333.837 277.1 330.117 208.422 330.117C139.743 330.117 84.0684 333.837 84.0684 338.425C84.0684 343.013 139.743 346.733 208.422 346.733Z" fill="white"/>
<path d="M179.724 116.992H167.82V119.589V134.843V137.44H193.065V119.589H180.57L179.724 116.992Z" fill="#92E3A9"/>
<path d="M179.724 155.908H167.82V158.505V173.759V176.356H193.065V158.505H180.57L179.724 155.908Z" fill="#92E3A9"/>
<path d="M179.724 194.824H167.82V197.421V212.675V215.272H193.065V197.421H180.57L179.724 194.824Z" fill="#92E3A9"/>
<path d="M179.724 233.74H167.82V236.337V251.591V254.188H193.065V236.337H180.57L179.724 233.74Z" fill="#92E3A9"/>
<path d="M179.724 272.656H167.82V275.253V290.507V293.104H193.065V275.253H180.57L179.724 272.656Z" fill="#92E3A9"/>
<path d="M256 116.992H244.105V119.589V134.843V137.44H269.342V119.589H256.846L256 116.992Z" fill="#92E3A9"/>
<path d="M305.493 119.589L304.647 116.992H292.752V119.589V134.843V137.44H317.988V119.589H305.493Z" fill="#92E3A9"/>
<path d="M256 155.908H244.105V158.505V173.759V176.356H269.342V158.505H256.846L256 155.908Z" fill="#92E3A9"/>
<path d="M304.647 194.824H292.752V197.421V212.675V215.272H317.988V197.421H305.493L304.647 194.824Z" fill="#92E3A9"/>
<path d="M304.647 155.908H292.752V158.505V173.759V176.356H317.988V158.505H305.493L304.647 155.908Z" fill="#92E3A9"/>
<path d="M256 194.824H244.105V197.421V212.675V215.272H269.342V197.421H256.846L256 194.824Z" fill="#92E3A9"/>
<path d="M256 233.74H244.105V236.337V251.591V254.188H269.342V236.337H256.846L256 233.74Z" fill="#92E3A9"/>
<path d="M304.647 233.74H292.752V236.337V251.591V254.188H317.988V236.337H305.493L304.647 233.74Z" fill="#92E3A9"/>
<path d="M256 272.656H244.105V275.253V290.507V293.104H269.342V275.253H256.846L256 272.656Z" fill="#92E3A9"/>
<path d="M304.647 272.656H292.752V275.253V290.507V293.104H317.988V275.253H305.493L304.647 272.656Z" fill="#92E3A9"/>
<g opacity="0.5">
<path opacity="0.5" d="M179.724 116.992H167.82V119.589V134.843V137.44H193.065V119.589H180.57L179.724 116.992Z" fill="white"/>
<path opacity="0.5" d="M179.724 155.908H167.82V158.505V173.759V176.356H193.065V158.505H180.57L179.724 155.908Z" fill="white"/>
<path opacity="0.5" d="M179.724 194.824H167.82V197.421V212.675V215.272H193.065V197.421H180.57L179.724 194.824Z" fill="white"/>
<path opacity="0.5" d="M179.724 233.74H167.82V236.337V251.591V254.188H193.065V236.337H180.57L179.724 233.74Z" fill="white"/>
<path opacity="0.5" d="M179.724 272.656H167.82V275.253V290.507V293.104H193.065V275.253H180.57L179.724 272.656Z" fill="white"/>
<path opacity="0.5" d="M255.998 116.992H244.104V119.589V134.843V137.44H269.34V119.589H256.844L255.998 116.992Z" fill="white"/>
<path opacity="0.5" d="M305.487 119.589L304.641 116.992H292.746V119.589V134.843V137.44H317.982V119.589H305.487Z" fill="white"/>
<path opacity="0.5" d="M255.998 155.908H244.104V158.505V173.759V176.356H269.34V158.505H256.844L255.998 155.908Z" fill="white"/>
<path opacity="0.5" d="M304.641 194.824H292.746V197.421V212.675V215.272H317.982V197.421H305.487L304.641 194.824Z" fill="white"/>
<path opacity="0.5" d="M304.641 155.908H292.746V158.505V173.759V176.356H317.982V158.505H305.487L304.641 155.908Z" fill="white"/>
<path opacity="0.5" d="M255.998 194.824H244.104V197.421V212.675V215.272H269.34V197.421H256.844L255.998 194.824Z" fill="white"/>
<path opacity="0.5" d="M255.998 233.74H244.104V236.337V251.591V254.188H269.34V236.337H256.844L255.998 233.74Z" fill="white"/>
<path opacity="0.5" d="M304.641 233.74H292.746V236.337V251.591V254.188H317.982V236.337H305.487L304.641 233.74Z" fill="white"/>
<path opacity="0.5" d="M255.998 272.656H244.104V275.253V290.507V293.104H269.34V275.253H256.844L255.998 272.656Z" fill="white"/>
<path opacity="0.5" d="M304.641 272.656H292.746V275.253V290.507V293.104H317.982V275.253H305.487L304.641 272.656Z" fill="white"/>
</g>
<path d="M112.911 175.161C112.911 175.161 112.149 180.381 114.67 183.951C117.191 187.521 135.584 202.478 137.225 203.341C138.866 204.204 145.922 202.36 143.79 196.658C141.658 190.956 126.168 178.892 123.063 175.626C119.958 172.361 117.065 172.835 117.065 172.835" fill="#92E3A9"/>
<path d="M112.911 175.161C112.911 175.161 112.149 180.381 114.67 183.951C117.191 187.521 135.584 202.478 137.225 203.341C138.866 204.204 145.922 202.36 143.79 196.658C141.658 190.956 126.168 178.892 123.063 175.626C119.958 172.361 117.065 172.835 117.065 172.835" stroke="#263238" stroke-width="1.11316" stroke-miterlimit="10"/>
<path d="M141.045 194.195C141.045 194.195 144.573 194.44 151.121 194.195C157.669 193.95 174.048 194.948 176.569 194.948H179.107L178.861 200.743C178.861 200.743 166.51 201.75 157.948 203.01C149.387 204.271 142.331 205.785 135.275 202.257" fill="#92E3A9"/>
<path d="M141.045 194.195C141.045 194.195 144.573 194.44 151.121 194.195C157.669 193.95 174.048 194.948 176.569 194.948H179.107L178.861 200.743C178.861 200.743 166.51 201.75 157.948 203.01C149.387 204.271 142.331 205.785 135.275 202.257" stroke="#263238" stroke-width="1.11316" stroke-linecap="round" stroke-linejoin="round"/>
<path d="M179.078 194.95L179.518 193.926C180.214 192.3 181.396 190.929 182.902 190.001C184.229 189.612 185.496 189.043 186.667 188.309L186.878 188.182C186.878 188.182 188.452 188.638 187.53 189.874C187.298 190.233 186.976 190.525 186.596 190.721C186.216 190.917 185.791 191.01 185.364 190.99L184.103 193.004L192.775 193.706C192.775 193.706 194.027 194.205 193.02 194.958C192.013 195.711 187.098 195.525 187.098 195.525L193.35 196.625C193.35 196.625 194.061 197.335 193.756 197.936C193.452 198.537 186.895 197.733 186.895 197.733L192.445 199.247C192.671 199.419 192.833 199.661 192.905 199.936C192.977 200.21 192.955 200.501 192.842 200.762C192.648 201.269 191.438 201.066 190.93 200.863C190.423 200.66 186.794 200.059 186.794 200.059L190.829 202.276C190.789 202.516 190.691 202.742 190.544 202.935C190.396 203.128 190.204 203.283 189.983 203.384C189.388 203.55 188.759 203.55 188.164 203.384L182.919 201.269C182.919 201.269 182.64 201.971 178.748 200.812L179.078 194.95Z" fill="white" stroke="#263238" stroke-width="1.11316" stroke-linecap="round" stroke-linejoin="round"/>
<path d="M184.122 192.934C184.122 192.934 184.622 196.656 182.701 197.367L184.122 192.934Z" fill="white"/>
<path d="M184.122 192.934C184.122 192.934 184.622 196.656 182.701 197.367" stroke="#263238" stroke-width="1.11316" stroke-linecap="round" stroke-linejoin="round"/>
<path d="M300.33 177.448C300.33 177.448 300.008 182.71 296.81 185.696C293.613 188.683 272.564 199.562 270.779 200.078C268.994 200.595 262.463 197.346 265.703 192.202C268.943 187.059 286.582 178.412 290.288 175.832C293.993 173.252 296.726 174.318 296.726 174.318" fill="#92E3A9"/>
<path d="M300.33 177.448C300.33 177.448 300.008 182.71 296.81 185.696C293.613 188.683 272.564 199.562 270.779 200.078C268.994 200.595 262.463 197.346 265.703 192.202C268.943 187.059 286.582 178.412 290.288 175.832C293.993 173.252 296.726 174.318 296.726 174.318" stroke="#263238" stroke-width="1.11316" stroke-miterlimit="10"/>
<path d="M268.873 190.346C268.873 190.346 265.371 189.872 259.009 188.29C252.647 186.708 236.412 184.356 233.942 183.84L231.48 183.324L230.541 189.052C230.541 189.052 242.385 192.554 250.549 195.54C258.713 198.527 265.278 201.462 272.9 199.424" fill="#92E3A9"/>
<path d="M268.873 190.346C268.873 190.346 265.371 189.872 259.009 188.29C252.647 186.708 236.412 184.356 233.942 183.84L231.48 183.324L230.541 189.052C230.541 189.052 242.385 192.554 250.549 195.54C258.713 198.527 265.278 201.462 272.9 199.424" stroke="#263238" stroke-width="1.11316" stroke-linecap="round" stroke-linejoin="round"/>
<path d="M231.48 183.319L231.261 182.227C230.903 180.49 230.017 178.906 228.723 177.693C227.503 177.03 226.378 176.205 225.381 175.24L225.212 175.07C225.212 175.07 223.57 175.197 224.239 176.559C224.39 176.958 224.645 177.31 224.976 177.579C225.307 177.848 225.704 178.024 226.125 178.091L226.971 180.324L218.342 179.241C218.342 179.241 217.005 179.478 217.843 180.417C218.681 181.356 223.503 182.168 223.503 182.168L217.158 181.982C217.158 181.982 216.312 182.524 216.489 183.183C216.667 183.843 223.257 184.385 223.257 184.385L217.521 184.732C217.265 184.852 217.056 185.055 216.927 185.308C216.798 185.561 216.758 185.849 216.811 186.128C216.912 186.669 218.139 186.711 218.672 186.618C219.205 186.525 222.902 186.677 222.902 186.677L218.494 188.023C218.483 188.261 218.528 188.499 218.627 188.717C218.725 188.935 218.874 189.126 219.061 189.275C219.608 189.558 220.223 189.687 220.838 189.647L226.404 188.64C226.404 188.64 226.54 189.385 230.584 189.046L231.48 183.319Z" fill="white" stroke="#263238" stroke-width="1.11316" stroke-linecap="round" stroke-linejoin="round"/>
<path d="M226.955 180.324C226.955 180.324 225.711 183.869 227.437 184.952L226.955 180.324Z" fill="white"/>
<path d="M226.955 180.324C226.955 180.324 225.711 183.869 227.437 184.952" stroke="#263238" stroke-width="1.11316" stroke-linecap="round" stroke-linejoin="round"/>
<path d="M232.912 216.886H184.859V152.531H218.606L232.912 165.636V216.886Z" fill="white" stroke="#263238" stroke-width="1.11316" stroke-linecap="round" stroke-linejoin="round"/>
<path d="M218.605 152.531V165.636H232.911L218.605 152.531Z" fill="#263238" stroke="#263238" stroke-width="1.11316" stroke-linecap="round" stroke-linejoin="round"/>
<path d="M228.412 221.566C235.584 221.566 241.398 215.752 241.398 208.58C241.398 201.408 235.584 195.594 228.412 195.594C221.24 195.594 215.426 201.408 215.426 208.58C215.426 215.752 221.24 221.566 228.412 221.566Z" fill="#263238"/>
<path d="M235.406 207.073H229.907V201.582H226.912V207.073H221.422V210.076H226.912V215.566H229.907V210.076H235.406V207.073Z" fill="white"/>
<path d="M256.445 289.821H163.986L153.326 218.562H256.445V289.821Z" fill="#263238" stroke="#263238" stroke-width="1.11316" stroke-linecap="round" stroke-linejoin="round"/>
<path d="M208.266 218.561L206.879 214.567C206.506 213.498 205.81 212.57 204.887 211.914C203.964 211.257 202.859 210.905 201.727 210.904H164.316V289.819H256.784L267.435 218.561H208.266Z" fill="#92E3A9" stroke="#263238" stroke-width="1.11316" stroke-linecap="round" stroke-linejoin="round"/>
<path d="M107.22 324.169C107.22 324.169 109.276 328.78 111.323 330.32C113.37 331.859 117.245 331.606 117.736 334.169C118.226 336.732 116.196 336.986 114.403 336.986C112.609 336.986 106.966 336.986 105.943 336.732C102.709 335.598 99.6791 333.953 96.9665 331.859C93.8955 329.321 93.1256 329.55 95.4352 324.677C97.7448 319.804 107.22 324.169 107.22 324.169Z" fill="#92E3A9" stroke="#263238" stroke-width="1.11316" stroke-miterlimit="10"/>
<path d="M117.803 334.658C115.316 335.098 110.443 335.698 106.154 334.658C101.865 333.617 96.797 329.76 94.2336 327.645C93.7007 329.641 94.7074 330.005 96.9662 331.875C99.6817 333.953 102.712 335.584 105.942 336.705C106.966 336.959 112.609 336.959 114.402 336.959C116.196 336.959 117.964 336.756 117.803 334.658Z" fill="white" stroke="#263238" stroke-width="1.11316" stroke-miterlimit="10"/>
<path d="M114.909 240.432C114.909 240.432 111.389 269.957 108.572 277.393C105.755 284.83 101.508 289.533 100.484 295.159C99.4605 300.785 95.4082 324.668 95.4082 324.668C95.4082 324.668 97.9462 327.206 99.7651 326.977C101.584 326.749 106.939 327.493 108.479 324.668C110.019 321.842 110.399 317.274 110.653 316.504C110.907 315.734 121.651 294.948 124.248 286.742C126.846 278.535 135.069 244.645 134.815 240.542" fill="#263238"/>
<path d="M114.909 240.432C114.909 240.432 111.389 269.957 108.572 277.393C105.755 284.83 101.508 289.533 100.484 295.159C99.4605 300.785 95.4082 324.668 95.4082 324.668C95.4082 324.668 97.9462 327.206 99.7651 326.977C101.584 326.749 106.939 327.493 108.479 324.668C110.019 321.842 110.399 317.274 110.653 316.504C110.907 315.734 121.651 294.948 124.248 286.742C126.846 278.535 135.069 244.645 134.815 240.542" stroke="#263238" stroke-width="1.11316" stroke-miterlimit="10"/>
<path d="M113.035 220.178C113.035 220.178 109.896 229.408 111.072 237.656C112.248 245.905 121.487 250.033 127.992 248.849C134.498 247.664 136.241 243.155 136.241 235.313C136.22 230.46 135.883 225.613 135.234 220.804C127.978 223.123 120.149 222.902 113.035 220.178Z" fill="#263238" stroke="#263238" stroke-width="1.11316" stroke-miterlimit="10"/>
<path d="M115.197 160.078C115.197 160.078 109.275 171.076 108.912 179.908C108.548 188.741 113.032 220.178 113.032 220.178C113.032 220.178 114.8 223.714 123.251 224.103C131.703 224.493 135.231 221.565 135.231 221.565C135.231 221.565 138.175 201.532 138.175 190.923C138.175 180.314 129.926 164.604 129.926 164.604L115.197 160.078Z" fill="#92E3A9" stroke="#263238" stroke-width="1.11316" stroke-miterlimit="10"/>
<path d="M110.648 184.535C110.648 184.535 111.164 190.753 118.685 191.532" stroke="#263238" stroke-width="1.11316" stroke-linecap="round" stroke-linejoin="round"/>
<path d="M112.721 192.824C115.462 194.441 118.701 194.995 121.824 194.381" stroke="#263238" stroke-width="1.11316" stroke-linecap="round" stroke-linejoin="round"/>
<path d="M115.57 220.549C115.57 220.549 123.083 214.078 126.974 208.113" stroke="#263238" stroke-width="1.11316" stroke-linecap="round" stroke-linejoin="round"/>
<path d="M126.198 214.332C126.198 214.332 119.718 221.1 117.383 221.853" stroke="#263238" stroke-width="1.11316" stroke-linecap="round" stroke-linejoin="round"/>
<path d="M119.512 145.51C119.512 145.51 119.318 151.009 118.734 154.74C118.15 158.471 117.947 160.045 117.947 160.045L128.751 164.165C128.751 164.165 127.761 156.703 129.14 153.556C129.917 151.876 130.447 150.092 130.713 148.26C130.713 148.26 127.177 139.614 123.446 139.022C119.715 138.429 119.512 145.51 119.512 145.51Z" fill="white" stroke="#263238" stroke-width="1.11316" stroke-miterlimit="10"/>
<path d="M134.25 129.63C134.25 129.63 136.213 127.862 133.658 122.016C131.103 116.17 118.735 116.517 112.838 121.813C106.941 127.109 104.979 136.55 110.089 142.633C115.198 148.716 121.281 149.511 125.215 147.151C129.149 144.791 129.53 140.281 129.53 138.513C129.53 136.745 128.159 132.422 130.122 131.246C131.401 130.487 132.796 129.941 134.25 129.63Z" fill="#263238" stroke="#263238" stroke-width="1.11316" stroke-miterlimit="10"/>
<path d="M114.016 160.469L131.502 167.542L130.521 161.848L114.997 155.359L114.016 160.469Z" fill="white" stroke="#263238" stroke-width="1.11316" stroke-miterlimit="10"/>
<path d="M136.447 331.088C136.447 331.088 141.574 334.167 144.391 335.445C147.208 336.722 147.47 336.469 147.47 338.262C147.47 340.056 147.724 340.318 143.105 340.318C138.486 340.318 125.161 340.572 123.884 339.548C122.606 338.524 134.653 330.318 136.447 331.088Z" fill="#92E3A9" stroke="#263238" stroke-width="1.11316" stroke-miterlimit="10"/>
<path d="M143.106 340.32C147.429 340.32 147.48 340.092 147.471 338.628C134.333 339.026 127.929 338.526 124.815 337.951C123.969 338.738 123.589 339.347 123.885 339.584C125.204 340.574 138.495 340.32 143.106 340.32Z" fill="white" stroke="#263238" stroke-width="1.11316" stroke-miterlimit="10"/>
<path d="M133.667 128.25C133.667 128.25 124.437 132.573 124.437 134.172C124.437 135.771 128.363 136.329 127.187 138.3C126.628 139.278 125.964 140.191 125.207 141.025C125.207 141.025 126.772 143.774 125.402 144.163C124.031 144.552 123.439 144.552 122.018 142.59C120.596 140.627 119.268 139.646 118.879 142.987C118.49 146.329 120.055 146.913 121.231 147.107C122.144 147.216 123.067 147.216 123.98 147.107C123.98 147.107 125.952 151.82 127.322 152.412C128.693 153.004 135.376 153.791 136.747 152.217C138.117 150.644 137.144 143.571 137.144 143.571C137.144 143.571 139.107 143.182 139.107 141.414C139.107 139.646 135.968 137.091 135.968 137.091C135.968 137.091 136.747 135.915 136.163 133.165C135.72 131.357 134.866 129.675 133.667 128.25Z" fill="white" stroke="#263238" stroke-width="1.11316" stroke-miterlimit="10"/>
<path d="M133.927 137.964C133.927 138.582 133.682 139.09 133.369 139.09C133.056 139.09 132.811 138.582 132.811 137.964C132.811 137.347 133.056 136.848 133.369 136.848C133.682 136.848 133.927 137.347 133.927 137.964Z" fill="#263238"/>
<path d="M131.441 135.957C131.441 135.957 131.729 134.265 134.276 134.595" stroke="#263238" stroke-width="1.11316" stroke-linecap="round" stroke-linejoin="round"/>
<path d="M134.767 146.128C133.816 146.046 132.937 145.589 132.322 144.859" stroke="#263238" stroke-width="1.11316" stroke-linecap="round" stroke-linejoin="round"/>
<path d="M113.361 240.937C113.361 240.937 115.155 258.627 117.456 266.317C119.757 274.007 119.766 277.315 118.996 284.007C118.226 290.698 115.662 296.823 117.456 302.974C119.249 309.124 122.845 335.443 122.845 336.467C122.845 337.491 122.583 339.005 123.869 339.546C125.155 340.088 136.169 332.626 136.432 331.086C136.694 329.547 134.638 324.936 134.638 320.833C134.638 316.73 135.916 292.72 135.916 281.189C135.916 269.658 137.202 247.603 133.099 237.35" fill="#263238"/>
<path d="M113.361 240.937C113.361 240.937 115.155 258.627 117.456 266.317C119.757 274.007 119.766 277.315 118.996 284.007C118.226 290.698 115.662 296.823 117.456 302.974C119.249 309.124 122.845 335.443 122.845 336.467C122.845 337.491 122.583 339.005 123.869 339.546C125.155 340.088 136.169 332.626 136.432 331.086C136.694 329.547 134.638 324.936 134.638 320.833C134.638 316.73 135.916 292.72 135.916 281.189C135.916 269.658 137.202 247.603 133.099 237.35" stroke="#263238" stroke-width="1.11316" stroke-miterlimit="10"/>
<path d="M114.832 252.107C114.832 252.107 116.042 260.711 117.472 266.32C118.901 271.929 120.365 274.56 118.622 281.548C116.879 288.536 116.287 290.854 117.159 294.374" stroke="white" stroke-width="1.11316" stroke-linecap="round" stroke-linejoin="round"/>
<path d="M271.615 326.08C271.615 326.08 261.124 329.583 258.629 330.31C256.133 331.038 253.883 331.562 256.133 334.058C258.383 336.554 269.373 336.807 272.613 336.807C275.853 336.807 278.112 338.55 278.857 336.554C279.601 334.557 279.61 329.058 279.61 329.058L271.615 326.08Z" fill="#92E3A9" stroke="#263238" stroke-width="1.11316" stroke-miterlimit="10"/>
<path d="M279.175 335.363C276.383 335.279 271.113 335.016 264.877 334.213C261.602 333.898 258.385 333.135 255.318 331.945C255.089 332.444 255.318 333.113 256.164 334.077C258.414 336.573 269.404 336.827 272.644 336.827C275.884 336.827 278.143 338.569 278.887 336.573C279.02 336.179 279.116 335.774 279.175 335.363Z" fill="white" stroke="#263238" stroke-width="1.11316" stroke-miterlimit="10"/>
<path d="M303.331 328.578C303.331 328.578 295.336 334.576 293.094 335.82C290.853 337.064 290.345 339.069 292.342 339.069C294.338 339.069 310.573 339.568 312.823 338.07C315.074 336.573 311.825 329.331 311.825 329.331C311.825 329.331 305.827 328.578 303.331 328.578Z" fill="#92E3A9" stroke="#263238" stroke-width="1.11316" stroke-miterlimit="10"/>
<path d="M312.824 338.067C313.458 337.644 313.67 336.756 313.602 335.707C306.344 336.984 298.966 337.438 291.606 337.061C290.811 338.084 290.972 339.066 292.376 339.066C294.339 339.066 310.573 339.565 312.824 338.067Z" fill="white" stroke="#263238" stroke-width="1.11316" stroke-miterlimit="10"/>
<path d="M284.102 212.658C284.102 212.658 273.104 250.864 272.614 259.857C272.123 268.85 271.615 316.598 271.615 318.84V326.082L279.61 329.077C279.61 329.077 283.358 300.812 284.102 294.069C284.847 287.326 285.354 279.831 286.353 276.303C287.351 272.775 289.347 258.537 290.1 255.576C290.853 252.615 292.596 240.094 292.097 225.856C291.598 211.618 285.853 209.156 284.102 212.658Z" fill="#263238" stroke="#263238" stroke-width="1.11316" stroke-miterlimit="10"/>
<path d="M282.857 209.906C282.857 209.906 283.103 221.141 283.357 232.131C283.61 243.12 282.857 259.854 285.353 271.842C287.849 283.83 297.586 309.853 298.585 314.091C299.583 318.33 303.085 329.581 303.085 329.581C303.085 329.581 308.576 330.081 311.824 329.328C311.824 329.328 308.576 305.056 308.077 295.564C307.578 286.072 301.579 272.586 300.336 269.338C299.092 266.089 302.865 240.125 302.865 240.125C302.865 240.125 308.855 229.127 307.358 222.139C306.505 218.01 304.515 214.201 301.613 211.141C301.613 211.141 286.597 213.189 282.857 209.906Z" fill="#263238" stroke="#263238" stroke-width="1.11316" stroke-miterlimit="10"/>
<path d="M283.662 225.566C283.662 225.566 283.374 254.432 284.508 262.596C285.641 270.76 286.834 273.975 286.834 273.975" stroke="white" stroke-width="1.11316" stroke-linecap="round" stroke-linejoin="round"/>
<path d="M301.082 162.43C301.082 162.43 298.088 160.188 291.599 164.968C285.11 169.747 277.614 182.691 278.113 187.691C278.613 192.691 282.86 207.42 282.86 209.916C282.86 212.411 283.604 211.413 286.599 212.411C289.594 213.409 298.088 213.164 300.084 212.166C302.081 211.168 301.082 204.67 301.582 199.18C302.081 193.689 305.329 182.945 305.084 175.204C304.839 167.463 302.081 163.453 301.082 162.43Z" fill="#92E3A9" stroke="#263238" stroke-width="1.11316" stroke-miterlimit="10"/>
<path d="M288.848 133.987C288.848 133.987 285.853 137.735 285.853 140.231C285.853 142.727 285.294 145.307 283.797 146.534C282.3 147.76 282.35 148.97 283.602 149.224L284.855 149.469C284.855 149.469 285.557 154.917 286.547 156.922C287.536 158.927 291.09 157.21 291.834 156.922C292.578 156.635 291.589 164.164 291.589 164.917C291.589 165.67 299.076 164.663 300.049 164.663C301.022 164.663 300.548 155.67 301.546 152.929C302.544 150.188 305.776 146.686 301.8 140.688C297.824 134.69 291.098 129.74 288.848 133.987Z" fill="white" stroke="#263238" stroke-width="1.11316" stroke-miterlimit="10"/>
<path d="M287.758 145.121C287.758 145.739 288.003 146.238 288.316 146.238C288.629 146.238 288.875 145.739 288.875 145.121C288.875 144.504 288.629 143.996 288.316 143.996C288.003 143.996 287.758 144.504 287.758 145.121Z" fill="#263238"/>
<path d="M286.234 151.432C286.234 151.432 287.08 152.404 288.992 151.102" stroke="#263238" stroke-width="1.11316" stroke-linecap="round" stroke-linejoin="round"/>
<path d="M286.885 141.988C286.885 141.988 288.34 140.203 290.125 142.479" stroke="#263238" stroke-width="1.11316" stroke-linecap="round" stroke-linejoin="round"/>
<path d="M295.937 161.99C295.937 161.99 289.457 164.316 288.416 165.873C287.376 167.429 286.606 170.018 288.162 170.018C289.719 170.018 296.445 165.492 298.264 165.094C300.083 164.697 298.264 159.655 295.937 161.99Z" fill="white" stroke="#263238" stroke-width="1.11316" stroke-miterlimit="10"/>
<path d="M288.848 133.986C289.467 137.326 290.832 140.484 292.841 143.224C296.09 147.454 299.339 146.472 298.586 149.992C297.833 153.511 292.342 158.452 294.593 163.985C296.843 169.517 301.834 170.473 302.833 172.724C303.831 174.974 306.081 175.719 303.585 184.712C301.09 193.705 297.342 200.938 300.582 209.432C303.822 217.926 312.325 220.168 318.813 217.173C325.302 214.178 321.309 204.686 322.815 198.941C324.321 193.197 337.299 188.705 332.798 172.715C328.297 156.726 317.815 152.488 315.032 146.989C312.249 141.49 312.79 132.26 307.046 128.512C301.301 124.764 294.804 128.013 292.562 128.512C290.32 129.011 289.06 125.263 284.567 127.014C280.075 128.766 277.393 137.166 285.413 138.926C286.255 137.088 287.418 135.415 288.848 133.986Z" fill="#263238" stroke="#263238" stroke-width="1.11316" stroke-miterlimit="10"/>
<path d="M297.104 145.949C298.67 147.573 300.545 148.868 302.619 149.756C311.925 153.834 318.364 159.671 318.364 169.578C318.364 179.485 309.057 186.202 308.736 194.662C308.415 203.122 313.11 209.526 318.042 206.904C322.974 204.281 320.673 199.036 318.888 199.036" stroke="white" stroke-width="1.11316" stroke-linecap="round" stroke-linejoin="round"/>
<path d="M292.715 136.637C292.906 138.383 293.399 140.083 294.17 141.662" stroke="white" stroke-width="1.11316" stroke-linecap="round" stroke-linejoin="round"/>
<path d="M323.085 164.266C324.965 168.409 325.939 172.905 325.945 177.455C325.649 187.658 313.407 192.327 311.943 198.452C310.632 203.96 314.574 208.943 318.068 206.912" stroke="white" stroke-width="1.11316" stroke-linecap="round" stroke-linejoin="round"/>
<path d="M319.533 157.625C320.356 158.858 321.102 160.141 321.767 161.466" stroke="white" stroke-width="1.11316" stroke-linecap="round" stroke-linejoin="round"/>
<path d="M305.828 177.454C307.011 173.54 306.907 169.35 305.532 165.5C303.197 159.375 300.574 156.456 300.574 153.25" stroke="white" stroke-width="1.11316" stroke-linecap="round" stroke-linejoin="round"/>
<path d="M288.848 133.988C288.41 133.225 287.784 132.586 287.031 132.13C286.278 131.675 285.422 131.417 284.542 131.383C281.623 131.383 281.911 135.173 285.117 135.757" stroke="white" stroke-width="1.11316" stroke-linecap="round" stroke-linejoin="round"/>
<path d="M117.474 170.705C117.474 170.705 113.887 175.832 114.657 180.958C115.427 186.085 126.966 211.719 128.244 213.513C129.521 215.306 137.981 217.108 138.751 209.926C139.521 202.743 129.53 181.728 127.99 176.602C126.45 171.475 123.117 170.451 123.117 170.451" fill="#92E3A9"/>
<path d="M117.474 170.705C117.474 170.705 113.887 175.832 114.657 180.958C115.427 186.085 126.966 211.719 128.244 213.513C129.521 215.306 137.981 217.108 138.751 209.926C139.521 202.743 129.53 181.728 127.99 176.602C126.45 171.475 123.117 170.451 123.117 170.451" stroke="#263238" stroke-width="1.11316" stroke-miterlimit="10"/>
<path d="M136.847 204.561C136.847 204.561 144.36 205.517 149.622 208.697C154.884 211.878 171.618 217.834 171.618 217.834L170.417 222.8C170.417 222.8 151.999 220.677 144.191 219.239C136.382 217.8 131.315 217.115 128.43 212.97" fill="#92E3A9"/>
<path d="M136.847 204.561C136.847 204.561 144.36 205.517 149.622 208.697C154.884 211.878 171.618 217.834 171.618 217.834L170.417 222.8C170.417 222.8 151.999 220.677 144.191 219.239C136.382 217.8 131.315 217.115 128.43 212.97" stroke="#263238" stroke-width="1.11316" stroke-miterlimit="10"/>
<path d="M186.836 224.13L180 221.99L180.076 221.271C180.076 221.271 185.905 222.396 186.539 222.472C187.174 222.548 187.385 222.235 187.385 221.838C187.344 221.536 187.204 221.257 186.988 221.043L177.428 217.608L182.919 216.576C183.714 215.941 182.834 215.307 182.834 215.307L176.387 215.459L171.633 217.836L170.432 222.802C170.432 222.802 179.255 230.416 179.653 230.662C180.051 230.907 180.288 231.296 180.922 230.898C181.557 230.501 181.32 230.052 181.32 230.052L178.502 227.159L183.359 228.589C183.908 228.75 183.993 228.91 184.391 228.75C184.788 228.589 184.864 227.557 184.864 227.557L179.213 224.934L179.458 224.376C179.458 224.376 185.727 225.882 186.116 225.882C186.506 225.882 186.751 225.882 187.072 225.171C187.173 225 187.204 224.797 187.16 224.604C187.116 224.41 187 224.241 186.836 224.13Z" fill="white" stroke="#263238" stroke-width="1.11316" stroke-linecap="round" stroke-linejoin="round"/>
<path d="M302.704 172.921C302.704 172.921 299.236 168.107 294.346 171.229C289.456 174.351 271.724 190.78 271.724 190.78C271.724 190.78 268.137 195.01 273.416 198.106C278.695 201.203 300.352 181.948 302.696 180.34" fill="#92E3A9"/>
<path d="M302.704 172.921C302.704 172.921 299.236 168.107 294.346 171.229C289.456 174.351 271.724 190.78 271.724 190.78C271.724 190.78 268.137 195.01 273.416 198.106C278.695 201.203 300.352 181.948 302.696 180.34" stroke="#263238" stroke-width="1.11316" stroke-miterlimit="10"/>
<path d="M275.302 190.858C275.302 190.858 272.671 189.209 266.69 188.159C260.709 187.11 240.159 175.664 240.159 175.664L236.775 179.894C236.775 179.894 251.234 190.528 258.771 195.08C266.309 199.631 269.676 200.833 272.096 200.587C274.515 200.342 280.158 195.054 280.158 195.054" fill="#92E3A9"/>
<path d="M275.302 190.858C275.302 190.858 272.671 189.209 266.69 188.159C260.709 187.11 240.159 175.664 240.159 175.664L236.775 179.894C236.775 179.894 251.234 190.528 258.771 195.08C266.309 199.631 269.676 200.833 272.096 200.587C274.515 200.342 280.158 195.054 280.158 195.054" stroke="#263238" stroke-width="1.11316" stroke-miterlimit="10"/>
<path d="M225.973 166.497L231.438 170.854L231.971 170.405C231.971 170.405 227.894 166.311 227.488 165.837C227.082 165.363 227.2 164.991 227.488 164.779C227.751 164.655 228.047 164.617 228.334 164.669L236.303 170.532L234.154 165.532C234.239 164.542 235.229 164.906 235.229 164.906L238.613 170.202L239.662 175.414L237.039 180.126C237.039 180.126 224.967 176.023 224.56 175.837C224.154 175.65 223.714 175.667 223.672 174.931C223.63 174.195 224.163 174.136 224.163 174.136L228.038 174.889L224.281 171.733C223.85 171.37 223.681 171.395 223.588 170.981C223.495 170.566 224.298 169.948 224.298 169.948L229.493 173.087L229.814 172.588C229.814 172.588 225.17 168.358 224.95 168.011C224.73 167.664 224.603 167.495 225.009 166.852C225.093 166.68 225.24 166.547 225.42 166.481C225.6 166.415 225.798 166.421 225.973 166.497Z" fill="white" stroke="#263238" stroke-width="1.11316" stroke-linecap="round" stroke-linejoin="round"/>
</svg>
