<svg width="500" height="500" viewBox="0 0 500 500" fill="none" xmlns="http://www.w3.org/2000/svg">
<path d="M470.92 280.06C456.2 319.49 426.12 362.17 383.79 374.8C319.79 393.9 312.19 445.46 197.63 440.68C180.902 440.056 164.291 437.618 148.09 433.41C140.168 431.33 132.388 428.742 124.8 425.66C57.8695 398.56 22.9995 338.9 20.0595 276.47C16.2295 194.37 73.5195 155.24 110.75 132.32C147.98 109.4 192.85 20.6199 305.51 24.4399C322.712 24.9484 339.799 27.4416 356.43 31.8699C394.34 42.1299 432.87 64.8699 455.26 97.9999C456.94 100.487 458.546 103.033 460.08 105.64C490.05 156.48 491 226.3 470.92 280.06Z" fill="#92E3A9"/>
<path opacity="0.7" d="M470.92 280.06C456.2 319.49 426.12 362.17 383.79 374.8C319.79 393.9 312.19 445.46 197.63 440.68C180.902 440.056 164.291 437.618 148.09 433.41C140.168 431.33 132.388 428.742 124.8 425.66C57.8695 398.56 22.9995 338.9 20.0595 276.47C16.2295 194.37 73.5195 155.24 110.75 132.32C147.98 109.4 192.85 20.6199 305.51 24.4399C322.712 24.9484 339.799 27.4416 356.43 31.8699C394.34 42.1299 432.87 64.8699 455.26 97.9999C456.94 100.487 458.546 103.033 460.08 105.64C490.05 156.48 491 226.3 470.92 280.06Z" fill="white"/>
<path d="M250.5 315.72C238.87 289.32 240.59 246.08 245.98 242.48C251.91 238.53 261.3 258.8 270.7 252.87C280.1 246.94 286.52 234.08 278.61 213.81C270.7 193.54 260.32 206.89 252.9 211.81C245.48 216.73 239.55 212.31 241.04 194.51C242.13 181.38 247.25 157.25 249.87 145.51C251.05 146.02 252.23 146.51 253.39 147.08C230.16 136.2 204.45 132.74 193.58 136.2C182.71 139.66 184.68 140.65 190.11 153.5C201.46 180.31 158.49 189.5 146.11 168.85C138.7 156.49 149.6 149.55 146.63 140.65C143.66 131.75 88.7899 142.13 81.8699 146.09C81.8699 146.09 95.2099 186.09 93.2399 200.47C91.2699 214.85 84.3399 221.24 73.9599 210.85C63.5799 200.46 50.2299 209.85 49.7299 227.17C49.2299 244.49 52.1999 258.31 64.0699 254.36C75.9399 250.41 85.3299 236.07 89.2799 254.36C93.2299 272.65 86.2799 296.36 82.3599 313.19C82.3599 313.19 113.51 326.54 127.84 325.55C142.17 324.56 151.08 324.07 146.63 315.17C142.18 306.27 134.76 300.34 140.2 290.45C145.64 280.56 167.39 281.55 178.76 284.02C190.13 286.49 195.08 294.9 191.62 304.29C188.16 313.68 182.22 323.08 193.1 325.05C203.35 326.92 229.42 322.63 255.1 314.27C253.58 314.76 252 315.24 250.5 315.72Z" stroke="#263238" stroke-miterlimit="10"/>
<path d="M259.82 312.69C258.3 313.21 256.77 313.69 255.25 314.22C256.77 313.72 258.3 313.21 259.82 312.69Z" stroke="#263238" stroke-miterlimit="10"/>
<path d="M440.269 206.39C430.879 206.39 430.379 213.81 420.489 212.33C410.599 210.85 409.619 188.1 419.999 148.06C419.999 148.06 408.629 156.46 382.919 156.96C357.209 157.46 346.829 154.48 353.259 145.09C359.689 135.7 364.629 128.28 359.189 120.87C353.749 113.46 327.549 114.44 319.189 120.87C310.829 127.3 316.719 134.71 322.649 143.11C328.579 151.51 321.649 156.46 311.769 156.96C301.889 157.46 276.669 157.96 253.429 147.07C252.269 146.52 251.089 146.01 249.909 145.5C247.289 157.27 242.169 181.4 241.079 194.5C239.589 212.3 245.519 216.75 252.939 211.8C260.359 206.85 270.739 193.51 278.649 213.8C286.559 234.09 280.129 246.92 270.739 252.86C261.349 258.8 251.909 238.53 245.999 242.48C240.609 246.08 238.889 289.32 250.519 315.72C253.629 314.72 256.739 313.72 259.839 312.72C287.029 303.32 314.219 298.87 319.169 305.3C324.119 311.73 322.169 310.74 315.709 320.63C309.249 330.52 309.769 338.92 320.649 343.86C331.529 348.8 358.219 347.86 360.649 336.45C363.079 325.04 349.279 318.65 355.709 307.77C362.139 296.89 418.999 312.69 418.999 312.69C418.999 312.69 406.149 269.18 411.089 254.84C416.029 240.5 419.999 244 427.909 249.4C435.819 254.8 446.199 254.35 450.159 238.53C454.119 222.71 449.659 206.39 440.269 206.39Z" stroke="#263238" stroke-miterlimit="10"/>
<path d="M410.874 101.535C423.46 95.5942 428.846 80.5751 422.905 67.9894C416.964 55.4036 401.945 50.0171 389.359 55.9583C376.773 61.8995 371.387 76.9186 377.328 89.5043C383.269 102.09 398.288 107.477 410.874 101.535Z" fill="#92E3A9" stroke="#263238" stroke-miterlimit="10"/>
<path d="M402.236 99.399C413.62 98.2306 421.901 88.0553 420.732 76.6718C419.564 65.2883 409.389 57.0072 398.005 58.1755C386.622 59.3439 378.341 69.5192 379.509 80.9027C380.677 92.2863 390.853 100.567 402.236 99.399Z" fill="white" stroke="#263238" stroke-miterlimit="10"/>
<path d="M406.601 92.4111C414.127 88.8311 417.326 79.828 413.746 72.3022C410.166 64.7763 401.162 61.5775 393.637 65.1575C386.111 68.7375 382.912 77.7406 386.492 85.2665C390.072 92.7923 399.075 95.9911 406.601 92.4111Z" fill="#92E3A9" stroke="#263238" stroke-miterlimit="10"/>
<path d="M409.64 78.7702C409.64 76.8854 409.081 75.0429 408.034 73.4757C406.987 71.9085 405.498 70.687 403.757 69.9657C402.016 69.2444 400.1 69.0556 398.251 69.4234C396.402 69.7911 394.704 70.6987 393.371 72.0315C392.039 73.3643 391.131 75.0624 390.763 76.911C390.395 78.7597 390.584 80.6758 391.305 82.4172C392.027 84.1586 393.248 85.647 394.816 86.6941C396.383 87.7413 398.225 88.3002 400.11 88.3002C401.362 88.3016 402.602 88.056 403.759 87.5775C404.915 87.099 405.967 86.3971 406.852 85.5119C407.737 84.6267 408.439 83.5756 408.917 82.4188C409.396 81.2619 409.641 80.0221 409.64 78.7702Z" fill="white" stroke="#263238" stroke-miterlimit="10"/>
<path d="M404.529 78.7698C404.531 77.8952 404.274 77.0397 403.789 76.3115C403.305 75.5833 402.615 75.0152 401.808 74.6792C401 74.3431 400.111 74.2541 399.253 74.4236C398.395 74.593 397.607 75.0131 396.988 75.6309C396.368 76.2486 395.946 77.0362 395.775 77.8939C395.604 78.7515 395.691 79.6408 396.025 80.449C396.359 81.2572 396.926 81.9481 397.653 82.4342C398.38 82.9204 399.235 83.1798 400.109 83.1798C401.28 83.1798 402.403 82.7155 403.231 81.8888C404.06 81.062 404.527 79.9404 404.529 78.7698Z" fill="#92E3A9" stroke="#263238" stroke-miterlimit="10"/>
<path d="M401.939 71.8604L400.119 78.7703L406.639 80.2003L401.939 71.8604Z" fill="#263238" stroke="#263238" stroke-miterlimit="10"/>
<path d="M404.72 75.7098L433.39 60.0898" stroke="#263238" stroke-width="2" stroke-miterlimit="10"/>
<path d="M424.189 65.23L424.619 57.74L438.089 50.04V58.59L424.189 65.23Z" fill="#263238" stroke="#263238" stroke-miterlimit="10"/>
<path d="M443.87 62.6596L437.97 58.3096L424.13 65.5796L430.8 69.4396L443.87 62.6596Z" fill="#263238" stroke="#263238" stroke-miterlimit="10"/>
<path d="M268.01 80.2998H257.99V104.16H268.01V80.2998Z" fill="#92E3A9" stroke="#263238" stroke-miterlimit="10"/>
<path d="M282.78 73.0693H272.76V104.159H282.78V73.0693Z" fill="#92E3A9" stroke="#263238" stroke-miterlimit="10"/>
<path d="M297.55 80.2998H287.53V104.16H297.55V80.2998Z" fill="#92E3A9" stroke="#263238" stroke-miterlimit="10"/>
<path d="M312.331 71.5H302.311V104.16H312.331V71.5Z" fill="#92E3A9" stroke="#263238" stroke-miterlimit="10"/>
<path d="M327.1 59.5498H317.08V104.16H327.1V59.5498Z" fill="#92E3A9" stroke="#263238" stroke-miterlimit="10"/>
<path d="M313.8 40.6496L317.71 42.3196L291.12 67.8396L278.42 60.9096L258.3 73.1396V76.8296L278.5 64.5496L291.64 71.7196L319.89 44.5996L321.4 48.5696L326.99 35.5996L313.8 40.6496Z" fill="#263238" stroke="#263238" stroke-linecap="round" stroke-linejoin="round"/>
<path d="M197.14 103.158C210.69 99.9778 219.095 86.4156 215.915 72.8663C212.734 59.317 199.172 50.9114 185.623 54.0919C172.074 57.2723 163.668 70.8345 166.849 84.3838C170.029 97.9331 183.591 106.339 197.14 103.158Z" fill="white" stroke="#263238" stroke-miterlimit="10"/>
<path d="M196.363 100.47C208.424 97.7166 215.969 85.7072 213.216 73.6463C210.462 61.5854 198.453 54.0403 186.392 56.7937C174.331 59.5472 166.786 71.5566 169.539 83.6174C172.293 95.6783 184.302 103.223 196.363 100.47Z" fill="#92E3A9" stroke="#263238" stroke-miterlimit="10"/>
<path d="M194.461 98.7238C205.491 97.0143 213.047 86.6869 211.337 75.6569C209.628 64.6269 199.3 57.0711 188.27 58.7806C177.24 60.4901 169.685 70.8175 171.394 81.8475C173.104 92.8775 183.431 100.433 194.461 98.7238Z" fill="white" stroke="#263238" stroke-miterlimit="10"/>
<path d="M191.069 96.0599V92.8499C190.072 92.8817 189.08 92.6949 188.163 92.3028C187.246 91.9107 186.425 91.3226 185.759 90.5799C184.579 89.1533 183.946 87.0233 183.859 84.1899L188.729 83.3599C188.745 84.3334 188.866 85.3023 189.089 86.2499C189.22 86.9079 189.536 87.5149 189.999 87.9999C190.202 88.1915 190.441 88.3406 190.702 88.4385C190.963 88.5364 191.241 88.5811 191.519 88.5699C191.803 88.6025 192.09 88.5552 192.348 88.4332C192.606 88.3113 192.825 88.1196 192.979 87.8799C193.254 87.3958 193.392 86.8463 193.379 86.2899C193.425 85.2303 193.142 84.1824 192.569 83.2899C191.935 82.3953 191.185 81.5884 190.339 80.8899L187.409 78.3799C186.771 77.7871 186.173 77.1524 185.619 76.4799C185.081 75.8177 184.655 75.071 184.359 74.2699C184.029 73.3258 183.87 72.3301 183.889 71.3299C183.843 70.4146 183.983 69.4994 184.301 68.6398C184.619 67.7803 185.108 66.9944 185.739 66.3299C187.095 65.0889 188.852 64.3787 190.689 64.3299V61.1699H192.349V64.2499C193.421 64.2664 194.471 64.5555 195.399 65.0899C196.146 65.5642 196.759 66.2217 197.179 66.9999C197.6 67.7671 197.903 68.5929 198.079 69.4499C198.258 70.3001 198.371 71.1626 198.419 72.0299L193.489 72.7499C193.478 71.9923 193.408 71.2367 193.279 70.4899C193.209 69.9317 192.995 69.4011 192.659 68.9499C192.487 68.76 192.272 68.6145 192.032 68.5257C191.792 68.4369 191.533 68.4075 191.279 68.4399C190.991 68.4355 190.705 68.5026 190.449 68.6352C190.192 68.7678 189.973 68.9618 189.809 69.1999C189.479 69.6753 189.305 70.2412 189.309 70.8199C189.264 71.7317 189.532 72.6316 190.069 73.3699C190.595 74.0387 191.173 74.664 191.799 75.2399L194.659 77.7199C195.418 78.4122 196.124 79.161 196.769 79.9599C197.414 80.773 197.936 81.6759 198.319 82.6399C198.728 83.7121 198.929 84.8526 198.909 85.9999C198.925 87.1534 198.668 88.2943 198.159 89.3299C197.666 90.3052 196.92 91.1305 195.999 91.7199C195.007 92.3542 193.873 92.7321 192.699 92.8199V96.0599H191.069Z" fill="#263238"/>
<path d="M109.71 59.1201H62.9199V103.11H109.71V59.1201Z" fill="white" stroke="#263238" stroke-miterlimit="10"/>
<path d="M109.71 59.1201H62.9199V70.4301H109.71V59.1201Z" fill="#92E3A9" stroke="#263238" stroke-linecap="round" stroke-linejoin="round"/>
<path d="M72.3197 76.71H66.7197V82.31H72.3197V76.71Z" fill="#92E3A9" stroke="#263238" stroke-linecap="round" stroke-linejoin="round"/>
<path d="M80.7201 76.71H75.1201V82.31H80.7201V76.71Z" fill="#92E3A9" stroke="#263238" stroke-linecap="round" stroke-linejoin="round"/>
<path d="M89.1098 76.71H83.5098V82.31H89.1098V76.71Z" fill="#92E3A9" stroke="#263238" stroke-linecap="round" stroke-linejoin="round"/>
<path d="M97.5102 76.71H91.9102V82.31H97.5102V76.71Z" fill="#92E3A9" stroke="#263238" stroke-linecap="round" stroke-linejoin="round"/>
<path d="M105.91 76.71H100.31V82.31H105.91V76.71Z" fill="#92E3A9" stroke="#263238" stroke-linecap="round" stroke-linejoin="round"/>
<path d="M72.3197 85.5098H66.7197V91.1098H72.3197V85.5098Z" fill="#92E3A9" stroke="#263238" stroke-linecap="round" stroke-linejoin="round"/>
<path d="M80.7201 85.5098H75.1201V91.1098H80.7201V85.5098Z" fill="#92E3A9" stroke="#263238" stroke-linecap="round" stroke-linejoin="round"/>
<path d="M89.1098 85.5098H83.5098V91.1098H89.1098V85.5098Z" fill="#92E3A9" stroke="#263238" stroke-linecap="round" stroke-linejoin="round"/>
<path d="M97.5102 85.5098H91.9102V91.1098H97.5102V85.5098Z" fill="#92E3A9" stroke="#263238" stroke-linecap="round" stroke-linejoin="round"/>
<path d="M105.91 85.5098H100.31V91.1098H105.91V85.5098Z" fill="#92E3A9" stroke="#263238" stroke-linecap="round" stroke-linejoin="round"/>
<path d="M72.3197 94.3096H66.7197V99.9096H72.3197V94.3096Z" fill="#92E3A9" stroke="#263238" stroke-linecap="round" stroke-linejoin="round"/>
<path d="M80.7201 94.3096H75.1201V99.9096H80.7201V94.3096Z" fill="#92E3A9" stroke="#263238" stroke-linecap="round" stroke-linejoin="round"/>
<path d="M89.1098 94.3096H83.5098V99.9096H89.1098V94.3096Z" fill="#92E3A9" stroke="#263238" stroke-linecap="round" stroke-linejoin="round"/>
<path d="M97.5102 94.3096H91.9102V99.9096H97.5102V94.3096Z" fill="#92E3A9" stroke="#263238" stroke-linecap="round" stroke-linejoin="round"/>
<path d="M105.91 94.3096H100.31V99.9096H105.91V94.3096Z" fill="#92E3A9" stroke="#263238" stroke-linecap="round" stroke-linejoin="round"/>
<path d="M73.3203 51.9199H69.3203V62.7199H73.3203V51.9199Z" fill="#263238"/>
<path d="M83.3203 51.9199H79.3203V62.7199H83.3203V51.9199Z" fill="#263238"/>
<path d="M93.3096 51.9199H89.3096V62.7199H93.3096V51.9199Z" fill="#263238"/>
<path d="M103.31 51.9199H99.3096V62.7199H103.31V51.9199Z" fill="#263238"/>
<path d="M22.2305 387.72C24.4005 388.67 29.7105 388.55 29.7105 388.55C29.7105 388.55 28.5705 385.08 28.4705 384.87C27.3005 382.43 23.6205 378.41 20.6205 378.81C20.1244 378.891 19.651 379.076 19.2312 379.353C18.8113 379.629 18.4544 379.991 18.1837 380.415C17.9129 380.838 17.7344 381.314 17.6598 381.811C17.5852 382.308 17.6161 382.816 17.7505 383.3C18.2505 385.37 20.3805 386.92 22.2305 387.72Z" fill="#92E3A9"/>
<path d="M24.0608 403.11C26.3108 403.43 31.0608 402.06 31.4308 401.95C32.2079 404.661 33.1667 407.317 34.3008 409.9C34.9508 411.41 35.6609 412.9 36.3808 414.41C35.9508 413.77 35.5609 413.21 35.4909 413.14C33.7309 411.09 29.1108 408.14 26.3308 409.37C25.8733 409.577 25.4648 409.879 25.132 410.256C24.7992 410.632 24.5496 411.074 24.3995 411.554C24.2495 412.033 24.2023 412.539 24.2611 413.038C24.3199 413.537 24.4834 414.018 24.7408 414.45C25.7408 416.32 28.2308 417.25 30.2308 417.54C32.2308 417.83 36.3208 416.75 37.3908 416.44C37.6708 417.01 37.9508 417.59 38.2409 418.16C39.6109 420.89 40.9909 423.61 42.2409 426.32C42.6909 427.27 43.1008 428.23 43.5108 429.19C43.1208 428.62 42.8008 428.19 42.7409 428.09C40.9708 426.09 36.3508 423.14 33.5708 424.32C33.1158 424.532 32.7102 424.836 32.3804 425.215C32.0505 425.593 31.8036 426.036 31.6556 426.516C31.5077 426.996 31.462 427.501 31.5214 427.999C31.5809 428.498 31.7442 428.978 32.0008 429.41C33.0008 431.28 35.5009 432.2 37.4909 432.49C39.4809 432.78 43.1909 431.8 44.4909 431.49C44.8808 432.49 45.2708 433.49 45.6108 434.49C45.8208 435.16 46.0808 435.8 46.2508 436.49C46.4208 437.18 46.6308 437.83 46.8109 438.49C47.1208 439.78 47.4508 441.11 47.7208 442.38C47.9209 443.26 48.0908 444.11 48.2608 444.95C47.8208 444 46.9308 442.15 46.8408 442C45.4008 439.71 41.2808 436.14 38.3508 436.88C37.8755 437.018 37.434 437.254 37.0541 437.572C36.6743 437.889 36.3642 438.282 36.1435 438.726C35.9228 439.169 35.7962 439.653 35.7716 440.148C35.7471 440.642 35.8251 441.137 36.0008 441.6C36.7308 443.6 39.0008 444.9 41.0008 445.49C43.1208 446.13 47.8208 445.54 48.4108 445.49C48.6908 446.9 48.9508 448.27 49.1808 449.56C49.6808 452.43 50.0608 454.99 50.3508 457.16H52.3508C52.0009 454.91 51.5508 452.24 50.9509 449.24C50.6709 447.81 50.3409 446.29 49.9508 444.73C51.3684 444.163 52.7509 443.511 54.0909 442.78C55.6409 444.46 59.6008 446.42 60.0909 446.67C59.5508 448 59.0108 449.29 58.4809 450.49C57.3809 453.02 56.3408 455.26 55.4208 457.16H57.5709C58.3609 455.4 59.2309 453.4 60.1309 451.16C60.6909 449.81 61.2509 448.36 61.8209 446.87C62.3909 446.99 67.0408 447.93 69.2108 447.44C71.2108 447 73.5608 445.89 74.4508 443.94C74.6718 443.487 74.7952 442.993 74.8129 442.49C74.8306 441.987 74.7423 441.486 74.5537 441.019C74.3651 440.552 74.0804 440.13 73.7181 439.781C73.3558 439.431 72.9241 439.162 72.4508 438.99C69.5808 437.99 65.2108 441.29 63.6008 443.46C63.5108 443.59 62.6008 445.09 62.1008 446.05C62.3308 445.44 62.5608 444.85 62.7808 444.22C63.2408 442.97 63.6609 441.71 64.1209 440.36L64.7209 438.36C64.9309 437.69 65.0709 436.97 65.2609 436.26C65.6509 434.63 65.9609 432.95 66.2609 431.26C67.3609 431.66 71.2609 433.02 73.2609 432.87C75.2609 432.72 77.8008 431.99 78.9608 430.2C79.251 429.789 79.451 429.321 79.5479 428.828C79.6448 428.334 79.6363 427.826 79.523 427.336C79.4097 426.846 79.1942 426.385 78.8905 425.984C78.5868 425.584 78.2019 425.251 77.7609 425.01C75.0709 423.63 70.2508 426.18 68.3408 428.09C68.2208 428.21 67.0008 429.73 66.3408 430.58C66.5008 429.58 66.6709 428.58 66.8009 427.5C67.1709 424.5 67.4509 421.45 67.8009 418.41C67.8909 417.48 67.9908 416.55 68.0908 415.62C68.4808 415.77 73.0909 417.48 75.3508 417.33C77.3508 417.18 79.8809 416.45 81.0509 414.66C81.3394 414.248 81.5382 413.781 81.6342 413.288C81.7302 412.794 81.7214 412.287 81.6082 411.797C81.495 411.308 81.28 410.847 80.9772 410.446C80.6745 410.045 80.2907 409.713 79.8508 409.47C77.1609 408.08 72.3408 410.63 70.4208 412.54C70.2808 412.68 68.5308 414.88 68.1109 415.46C68.3209 413.41 68.5609 411.38 68.8709 409.38C69.2822 406.679 69.8633 404.007 70.6109 401.38C70.7909 401.45 75.6109 403.26 77.9109 403.1C79.9109 402.96 82.4508 402.22 83.6108 400.43C83.8994 400.018 84.0982 399.551 84.1942 399.058C84.2902 398.564 84.2814 398.057 84.1682 397.567C84.055 397.078 83.84 396.617 83.5372 396.216C83.2345 395.815 82.8507 395.483 82.4109 395.24C79.7209 393.85 74.9008 396.41 72.9908 398.31C72.8408 398.46 70.9908 400.82 70.6409 401.31C70.6409 401.16 70.7209 401 70.7609 400.85C71.5891 398.24 72.65 395.71 73.9309 393.29C74.6109 391.94 75.3508 390.69 76.0908 389.5C76.9508 389.93 80.8908 391.84 83.0008 391.93C85.1108 392.02 87.6008 391.55 89.0008 389.93C89.3339 389.553 89.5836 389.11 89.7334 388.63C89.8833 388.149 89.9301 387.643 89.8706 387.144C89.8111 386.644 89.6467 386.163 89.3883 385.731C89.1298 385.3 88.7831 384.928 88.3708 384.64C85.8509 382.96 80.7808 384.98 78.6708 386.64C78.5508 386.73 77.4909 387.79 76.7309 388.57C77.0709 388.04 77.4109 387.48 77.7309 386.97C78.9909 385.07 80.2709 383.4 81.4109 381.97C82.0709 381.14 82.6808 380.41 83.2608 379.72C84.3208 379.72 88.6008 379.57 90.4708 378.72C92.3409 377.87 94.3908 376.27 94.8308 374.18C94.952 373.691 94.9687 373.183 94.8801 372.687C94.7914 372.192 94.5992 371.721 94.3161 371.304C94.033 370.888 93.6654 370.536 93.2371 370.272C92.8089 370.008 92.3297 369.836 91.8308 369.77C88.8308 369.45 85.2508 373.57 84.1508 376.04C84.0609 376.25 82.9608 379.76 83.0108 379.76H83.0008C82.4308 380.41 81.8209 381.11 81.1809 381.89C80.0009 383.33 78.6908 384.98 77.3808 386.89C75.9217 388.904 74.5859 391.004 73.3808 393.18C72.0337 395.601 70.9059 398.138 70.0109 400.76V400.86C70.0109 399.97 70.0109 397.49 70.0109 397.3C69.6609 394.62 67.4109 389.65 64.4409 389.1C63.944 389.022 63.4363 389.05 62.9509 389.181C62.4655 389.313 62.0133 389.545 61.6236 389.863C61.234 390.181 60.9157 390.577 60.6895 391.026C60.4633 391.475 60.3343 391.967 60.3109 392.47C60.1409 394.6 61.6809 396.73 63.1809 398.07C64.8809 399.59 69.5909 401.07 69.9709 401.17C69.1214 403.862 68.4532 406.608 67.9709 409.39C67.6809 411.01 67.4409 412.65 67.2209 414.29C67.2209 413.53 67.2209 412.84 67.2209 412.75C66.8709 410.07 64.6209 405.1 61.6509 404.55C61.1548 404.472 60.6479 404.499 60.1632 404.63C59.6785 404.761 59.2267 404.993 58.8372 405.309C58.4477 405.626 58.1292 406.022 57.9024 406.47C57.6757 406.917 57.5457 407.408 57.5209 407.91C57.3509 410.04 58.8909 412.17 60.3909 413.52C61.8909 414.87 65.9109 416.21 66.9709 416.52L66.7309 418.42C66.3709 421.42 66.0208 424.48 65.5908 427.42C65.4408 428.42 65.2508 429.48 65.0608 430.51C65.0608 429.83 65.0608 429.25 65.0608 429.17C64.7108 426.49 62.4709 421.51 59.4909 420.96C58.9942 420.883 58.4872 420.912 58.0024 421.044C57.5177 421.177 57.066 421.409 56.6768 421.727C56.2875 422.044 55.9692 422.44 55.7425 422.888C55.5159 423.337 55.3858 423.828 55.3609 424.33C55.1909 426.46 56.7309 428.59 58.2409 429.93C59.7509 431.27 63.3609 432.5 64.6209 432.93C64.4009 433.93 64.1808 435.01 63.9208 436.02C63.7309 436.69 63.5909 437.36 63.3609 438.02C63.1309 438.68 62.9309 439.36 62.7209 440.02C62.2609 441.27 61.8009 442.56 61.3309 443.77L60.3309 446.21C60.4909 445.21 60.7709 443.14 60.7709 442.96C60.7343 440.585 60.0942 438.259 58.9109 436.2C58.9307 435.937 58.9307 435.673 58.9109 435.41C58.8421 434.915 58.6707 434.439 58.4077 434.015C58.1448 433.59 57.796 433.224 57.3837 432.942C56.9714 432.66 56.5047 432.466 56.0134 432.375C55.5222 432.283 55.0172 432.295 54.5308 432.41C51.6108 433.19 49.7508 438.32 49.6108 441.02C49.6108 441.18 49.7108 442.92 49.7908 444.02C49.6509 443.38 49.5108 442.77 49.3508 442.11C49.0408 440.82 48.7008 439.54 48.3508 438.16C48.1508 437.5 47.9409 436.83 47.7409 436.16C47.5408 435.49 47.2708 434.8 47.0308 434.11C46.4608 432.53 45.7908 430.96 45.0908 429.39C46.2208 429.12 50.2309 428.1 51.8309 426.86C53.4309 425.62 55.1308 423.62 55.1208 421.49C55.1336 420.987 55.0406 420.487 54.8479 420.023C54.6553 419.558 54.3672 419.14 54.0023 418.794C53.6375 418.448 53.204 418.182 52.73 418.014C52.2561 417.847 51.7521 417.78 51.2509 417.82C48.2509 418.15 45.6308 422.94 45.0908 425.59C45.0908 425.75 44.8808 427.69 44.8008 428.76C44.3708 427.82 43.9408 426.88 43.4808 425.94C42.1308 423.24 40.6908 420.54 39.2608 417.84L37.9608 415.36C38.3708 415.26 43.1508 414.15 44.9608 412.77C46.5708 411.54 48.2608 409.53 48.2508 407.4C48.2636 406.897 48.1706 406.397 47.9779 405.933C47.7852 405.468 47.4972 405.05 47.1323 404.704C46.7675 404.358 46.334 404.092 45.86 403.924C45.3861 403.757 44.8821 403.69 44.3808 403.73C41.3808 404.06 38.7609 408.85 38.2208 411.5C38.2208 411.7 37.9209 414.5 37.9009 415.21C36.9009 413.38 36.0208 411.56 35.1808 409.72C34.0129 407.246 33.0107 404.697 32.1808 402.09C32.3708 402.09 37.3708 400.91 39.1808 399.5C40.7808 398.27 42.4808 396.26 42.4608 394.13C42.475 393.627 42.3834 393.128 42.1918 392.664C42.0003 392.199 41.7131 391.78 41.3491 391.434C40.985 391.088 40.5521 390.822 40.0787 390.654C39.6052 390.486 39.1017 390.42 38.6008 390.46C35.6008 390.79 32.9808 395.58 32.4308 398.22C32.4308 398.43 32.1208 401.44 32.1108 401.99L31.9508 401.53C31.2075 398.896 30.6955 396.202 30.4208 393.48C30.2508 391.98 30.1808 390.53 30.1308 389.13C31.1308 389.01 35.4409 388.43 37.2409 387.34C39.0408 386.25 40.8708 384.48 41.0908 382.34C41.1599 381.842 41.1233 381.335 40.9834 380.852C40.8435 380.369 40.6035 379.921 40.279 379.537C39.9544 379.153 39.5527 378.842 39.0999 378.623C38.6471 378.405 38.1533 378.285 37.6509 378.27C34.6509 378.27 31.5108 382.74 30.6508 385.27C30.6508 385.41 30.3008 386.88 30.1008 387.96C30.1008 387.32 30.1008 386.67 30.1008 386.06C30.1008 383.77 30.2508 381.67 30.3908 379.82C30.4808 378.82 30.5808 377.82 30.6908 376.93C31.5608 376.33 35.0608 373.86 36.1408 372.09C37.2208 370.32 38.0508 367.88 37.2608 365.9C37.091 365.428 36.8239 364.998 36.4769 364.637C36.1299 364.276 35.7107 363.991 35.2467 363.803C34.7827 363.614 34.2841 363.525 33.7835 363.542C33.2828 363.559 32.7913 363.681 32.3408 363.9C29.6508 365.29 28.9408 370.7 29.3408 373.36C29.3408 373.59 30.4008 377.13 30.4408 377.1H30.5008C30.3808 377.95 30.2608 378.87 30.1608 379.87C29.9708 381.73 29.7808 383.82 29.7308 386.12C29.6461 388.594 29.7029 391.072 29.9008 393.54C30.1201 396.301 30.5819 399.039 31.2808 401.72V401.82C30.8008 401.07 29.4008 399.03 29.2808 398.88C27.5108 396.88 22.8908 393.93 20.1108 395.11C19.6844 395.325 19.3053 395.624 18.996 395.988C18.6867 396.352 18.4534 396.774 18.3099 397.23C18.1663 397.686 18.1155 398.165 18.1603 398.641C18.2051 399.117 18.3447 399.579 18.5708 400C19.6008 401.89 22.0608 402.81 24.0608 403.11Z" fill="#92E3A9"/>
<path d="M75.9405 388.89C75.9405 388.89 76.9405 385.36 76.9405 385.13C77.3205 382.46 76.4605 377.07 73.7405 375.75C73.2822 375.543 72.7852 375.434 72.2822 375.433C71.7792 375.431 71.2815 375.535 70.8217 375.739C70.3619 375.943 69.9504 376.242 69.6141 376.616C69.2778 376.99 69.0244 377.431 68.8705 377.91C68.1405 379.91 69.0605 382.38 70.1605 384.07C71.4405 386.06 75.9305 388.89 75.9405 388.89Z" fill="#92E3A9"/>
<path d="M391.341 387.72C393.511 388.67 398.821 388.55 398.821 388.55C398.821 388.55 397.681 385.08 397.581 384.87C396.411 382.43 392.731 378.41 389.731 378.81C389.235 378.891 388.761 379.076 388.342 379.353C387.922 379.629 387.565 379.991 387.294 380.415C387.023 380.838 386.845 381.314 386.77 381.811C386.696 382.308 386.726 382.816 386.861 383.3C387.361 385.37 389.491 386.92 391.341 387.72Z" fill="#92E3A9"/>
<path d="M393.17 403.11C395.42 403.43 400.17 402.06 400.54 401.95C401.322 404.66 402.28 407.316 403.41 409.9C404.06 411.41 404.77 412.9 405.49 414.41C405.06 413.77 404.67 413.21 404.6 413.14C402.84 411.09 398.22 408.14 395.44 409.37C394.983 409.578 394.574 409.88 394.241 410.256C393.909 410.632 393.659 411.075 393.509 411.554C393.359 412.034 393.312 412.54 393.371 413.039C393.429 413.538 393.593 414.018 393.85 414.45C394.85 416.32 397.34 417.25 399.34 417.54C401.34 417.83 405.43 416.75 406.5 416.44C406.78 417.01 407.06 417.59 407.35 418.16C408.72 420.89 410.1 423.61 411.35 426.32C411.8 427.27 412.21 428.23 412.62 429.19C412.23 428.62 411.91 428.19 411.85 428.09C410.08 426.09 405.47 423.14 402.68 424.32C402.224 424.53 401.816 424.833 401.484 425.211C401.152 425.588 400.903 426.031 400.753 426.511C400.603 426.991 400.556 427.497 400.614 427.996C400.672 428.496 400.834 428.977 401.09 429.41C402.09 431.28 404.59 432.2 406.58 432.49C408.57 432.78 412.28 431.8 413.58 431.49C413.97 432.49 414.37 433.49 414.7 434.49C414.91 435.16 415.17 435.8 415.34 436.49C415.51 437.18 415.72 437.83 415.9 438.49C416.21 439.78 416.54 441.11 416.81 442.38C417.01 443.26 417.18 444.11 417.35 444.95C416.91 444 416.02 442.15 415.93 442C414.49 439.71 410.37 436.14 407.44 436.88C406.957 437.019 406.509 437.257 406.124 437.58C405.739 437.903 405.426 438.303 405.205 438.755C404.985 439.206 404.861 439.699 404.843 440.201C404.825 440.703 404.913 441.204 405.1 441.67C405.83 443.67 408.1 444.97 410.1 445.56C412.22 446.2 416.92 445.61 417.51 445.56C417.79 446.97 418.05 448.34 418.28 449.63C418.78 452.5 419.16 455.06 419.45 457.23H421.45C421.1 454.98 420.65 452.31 420.05 449.31C419.77 447.88 419.44 446.36 419.05 444.8C420.468 444.233 421.85 443.582 423.19 442.85C424.74 444.53 428.7 446.49 429.19 446.74C428.65 448.07 428.11 449.36 427.58 450.56C426.48 453.09 425.44 455.33 424.52 457.23H426.67C427.46 455.47 428.33 453.47 429.23 451.23C429.79 449.88 430.35 448.43 430.92 446.94C431.49 447.06 436.14 448 438.31 447.51C440.31 447.07 442.66 445.96 443.55 444.01C443.771 443.558 443.895 443.064 443.912 442.561C443.93 442.057 443.842 441.556 443.653 441.089C443.465 440.623 443.18 440.201 442.818 439.851C442.455 439.501 442.023 439.232 441.55 439.06C438.68 438.06 434.31 441.36 432.7 443.53C432.61 443.66 431.7 445.16 431.2 446.12C431.43 445.51 431.66 444.92 431.89 444.29C432.34 443.04 432.76 441.78 433.22 440.43L433.82 438.43C434.03 437.76 434.17 437.04 434.36 436.33C434.75 434.7 435.06 433.02 435.36 431.33C436.46 431.73 440.36 433.09 442.36 432.94C444.36 432.79 446.9 432.06 448.06 430.27C448.35 429.859 448.55 429.392 448.647 428.898C448.744 428.405 448.736 427.896 448.622 427.406C448.509 426.916 448.294 426.456 447.99 426.055C447.686 425.654 447.301 425.322 446.86 425.08C444.17 423.7 439.35 426.25 437.44 428.16C437.32 428.28 436.1 429.8 435.44 430.65C435.6 429.65 435.77 428.65 435.9 427.57C436.27 424.57 436.55 421.52 436.85 418.48C436.94 417.55 437.04 416.62 437.14 415.69C437.53 415.84 442.14 417.55 444.4 417.4C446.4 417.25 448.93 416.52 450.1 414.73C450.389 414.319 450.588 413.851 450.684 413.358C450.78 412.865 450.771 412.357 450.658 411.867C450.544 411.378 450.329 410.918 450.027 410.517C449.724 410.116 449.34 409.783 448.9 409.54C446.21 408.15 441.39 410.7 439.47 412.61C439.33 412.75 437.58 414.95 437.16 415.53C437.37 413.48 437.61 411.45 437.92 409.45C438.332 406.749 438.913 404.077 439.66 401.45C439.84 401.52 444.66 403.33 446.96 403.17C448.96 403.03 451.5 402.29 452.66 400.5C452.949 400.089 453.148 399.621 453.244 399.128C453.34 398.635 453.331 398.127 453.218 397.637C453.104 397.148 452.889 396.688 452.587 396.287C452.284 395.886 451.9 395.553 451.46 395.31C448.77 393.92 443.95 396.48 442.04 398.38C441.89 398.53 440.04 400.89 439.69 401.38C439.69 401.23 439.77 401.07 439.81 400.92C440.639 398.31 441.699 395.78 442.98 393.36C443.66 392.01 444.4 390.76 445.14 389.57C446 390 449.94 391.91 452.05 392C454.16 392.09 456.65 391.62 458.05 390C458.383 389.623 458.633 389.18 458.783 388.7C458.933 388.22 458.979 387.713 458.92 387.214C458.861 386.714 458.696 386.233 458.438 385.802C458.179 385.37 457.833 384.998 457.42 384.71C454.9 383.03 449.83 385.05 447.72 386.71C447.61 386.8 446.54 387.86 445.78 388.64C446.12 388.11 446.46 387.55 446.78 387.04C448.05 385.14 449.32 383.47 450.46 382.04C451.12 381.21 451.73 380.48 452.31 379.79C453.37 379.79 457.65 379.64 459.52 378.79C461.39 377.94 463.44 376.34 463.88 374.25C464.001 373.761 464.018 373.253 463.929 372.757C463.841 372.262 463.649 371.791 463.366 371.375C463.082 370.959 462.715 370.607 462.287 370.342C461.858 370.078 461.379 369.907 460.88 369.84C457.88 369.52 454.29 373.64 453.19 376.11C453.1 376.32 452 379.83 452.05 379.83H452.12C451.55 380.48 450.94 381.18 450.3 381.96C449.12 383.4 447.81 385.05 446.5 386.96C445.058 388.975 443.739 391.076 442.55 393.25C441.203 395.671 440.075 398.208 439.18 400.83C439.185 400.863 439.185 400.897 439.18 400.93C439.18 400.04 439.18 397.56 439.18 397.37C438.83 394.69 436.58 389.72 433.61 389.17C433.113 389.092 432.606 389.12 432.12 389.251C431.635 389.383 431.183 389.615 430.793 389.933C430.403 390.251 430.085 390.647 429.859 391.097C429.633 391.546 429.504 392.038 429.48 392.54C429.31 394.67 430.85 396.8 432.35 398.14C434.05 399.66 438.76 401.14 439.14 401.24C438.291 403.932 437.623 406.678 437.14 409.46C436.85 411.08 436.61 412.72 436.39 414.36C436.39 413.6 436.39 412.91 436.39 412.82C436.04 410.14 433.79 405.17 430.82 404.62C430.324 404.542 429.817 404.57 429.333 404.701C428.848 404.831 428.396 405.063 428.007 405.38C427.617 405.697 427.299 406.092 427.072 406.54C426.845 406.988 426.715 407.478 426.69 407.98C426.52 410.11 428.06 412.24 429.56 413.59C431.06 414.94 435.08 416.28 436.14 416.59C436.07 417.22 435.98 417.85 435.9 418.49C435.54 421.49 435.19 424.55 434.76 427.49C434.61 428.49 434.42 429.55 434.23 430.58C434.23 429.9 434.23 429.32 434.23 429.24C433.88 426.56 431.64 421.58 428.66 421.03C428.164 420.954 427.657 420.983 427.172 421.115C426.687 421.247 426.235 421.479 425.846 421.797C425.457 422.115 425.139 422.51 424.912 422.959C424.685 423.407 424.555 423.898 424.53 424.4C424.36 426.53 425.9 428.66 427.41 430C428.92 431.34 432.54 432.57 433.79 433C433.57 434 433.35 435.08 433.09 436.09C432.9 436.76 432.76 437.43 432.53 438.09C432.3 438.75 432.1 439.43 431.89 440.09C431.43 441.34 430.97 442.63 430.5 443.84L429.5 446.28C429.66 445.28 429.94 443.21 429.94 443.03C429.909 440.655 429.268 438.327 428.08 436.27C428.084 436.006 428.067 435.742 428.03 435.48C427.961 434.985 427.79 434.51 427.527 434.085C427.264 433.66 426.915 433.295 426.503 433.012C426.091 432.73 425.624 432.537 425.133 432.445C424.642 432.353 424.137 432.365 423.65 432.48C420.73 433.26 418.87 438.39 418.73 441.09C418.73 441.25 418.83 442.99 418.91 444.09C418.77 443.45 418.63 442.84 418.47 442.18C418.16 440.89 417.82 439.61 417.47 438.23C417.27 437.57 417.06 436.9 416.86 436.23C416.66 435.56 416.39 434.87 416.15 434.18C415.58 432.6 414.91 431.03 414.21 429.46C415.34 429.19 419.35 428.17 420.95 426.93C422.55 425.69 424.25 423.69 424.24 421.56C424.253 421.057 424.16 420.558 423.967 420.093C423.775 419.629 423.487 419.21 423.122 418.864C422.757 418.518 422.323 418.253 421.849 418.085C421.375 417.917 420.872 417.851 420.37 417.89C417.37 418.22 414.75 423.01 414.21 425.66C414.21 425.82 414 427.76 413.92 428.83C413.49 427.89 413.06 426.95 412.6 426.01C411.25 423.31 409.81 420.61 408.38 417.91L407.08 415.43C407.49 415.33 412.27 414.22 414.08 412.84C415.69 411.61 417.38 409.6 417.37 407.47C417.383 406.967 417.29 406.468 417.097 406.003C416.905 405.539 416.617 405.12 416.252 404.774C415.887 404.428 415.453 404.163 414.979 403.995C414.505 403.827 414.002 403.761 413.5 403.8C410.5 404.13 407.88 408.92 407.34 411.57C407.34 411.77 407.04 414.57 407.02 415.28C406.07 413.45 405.14 411.63 404.3 409.79C403.149 407.315 402.164 404.766 401.35 402.16C401.54 402.16 406.54 400.98 408.35 399.57C409.95 398.34 411.65 396.33 411.63 394.2C411.644 393.698 411.553 393.198 411.361 392.734C411.17 392.269 410.883 391.851 410.518 391.504C410.154 391.158 409.722 390.893 409.248 390.725C408.775 390.557 408.271 390.49 407.77 390.53C404.77 390.86 402.15 395.65 401.6 398.29C401.6 398.5 401.29 401.51 401.28 402.06L401.12 401.6C400.377 398.966 399.865 396.273 399.59 393.55C399.43 392.05 399.35 390.6 399.3 389.2C400.3 389.08 404.61 388.5 406.41 387.41C408.21 386.32 410.04 384.55 410.26 382.41C410.329 381.912 410.293 381.405 410.153 380.922C410.013 380.439 409.773 379.991 409.448 379.607C409.124 379.223 408.722 378.912 408.269 378.694C407.816 378.475 407.323 378.355 406.82 378.34C403.82 378.34 400.68 382.81 399.82 385.34C399.82 385.48 399.47 386.95 399.27 388.03C399.27 387.39 399.27 386.74 399.27 386.13C399.27 383.84 399.42 381.74 399.56 379.89C399.65 378.89 399.75 377.89 399.86 377C400.73 376.4 404.23 373.93 405.31 372.16C406.39 370.39 407.22 367.95 406.43 365.97C406.26 365.499 405.993 365.068 405.646 364.707C405.299 364.346 404.88 364.062 404.416 363.873C403.952 363.685 403.454 363.596 402.953 363.612C402.452 363.629 401.961 363.751 401.51 363.97C398.82 365.36 398.11 370.77 398.56 373.43C398.56 373.66 399.56 377.2 399.66 377.17H399.71C399.59 378.02 399.47 378.94 399.37 379.94C399.18 381.8 398.99 383.89 398.94 386.19C398.856 388.664 398.912 391.142 399.11 393.61C399.33 396.372 399.791 399.109 400.49 401.79V401.89C400.01 401.14 398.61 399.1 398.49 398.95C396.72 396.95 392.1 394 389.32 395.18C388.862 395.389 388.454 395.692 388.121 396.069C387.788 396.446 387.538 396.89 387.388 397.37C387.238 397.85 387.191 398.357 387.25 398.856C387.309 399.356 387.473 399.838 387.73 400.27C388.71 401.89 391.17 402.81 393.17 403.11Z" fill="#92E3A9"/>
<path d="M445.051 388.89C445.051 388.89 446.051 385.36 446.051 385.13C446.431 382.46 445.571 377.07 442.851 375.75C442.393 375.543 441.896 375.434 441.393 375.433C440.89 375.431 440.392 375.535 439.932 375.739C439.472 375.943 439.061 376.242 438.724 376.616C438.388 376.99 438.135 377.431 437.981 377.91C437.251 379.91 438.171 382.38 439.271 384.07C440.551 386.06 445.001 388.89 445.051 388.89Z" fill="#92E3A9"/>
<path d="M349.33 179.57C349.33 179.57 349.64 168.28 356.15 165.08C362.66 161.88 363.03 172.45 363.03 172.45C363.03 172.45 377.92 162.99 381.15 170.16C384.38 177.33 379.87 180.8 379.87 180.8C379.87 180.8 393.09 180.34 394.01 187.59C394.93 194.84 388.1 198.39 388.1 198.39C388.1 198.39 396.27 205.06 393.4 208.14C390.53 211.22 384.25 211.44 384.25 211.44C384.25 211.44 387.81 218.59 381.6 221.13C375.39 223.67 368.29 218.94 368.29 218.94C368.29 218.94 369.39 222.22 364.73 221.39C360.07 220.56 355.36 218.39 352.47 211.55C349.58 204.71 345.85 185.34 349.33 179.57Z" fill="#263238" stroke="#263238" stroke-linecap="round" stroke-linejoin="round"/>
<path d="M280.589 397.619C280.589 397.619 276.879 411.779 276.939 413.349C276.999 414.919 275.709 418.479 276.799 419.489C278.84 421.153 281.002 422.661 283.269 423.999C284.193 423.987 285.095 423.713 285.869 423.209C286.12 422.984 286.321 422.71 286.461 422.404C286.6 422.098 286.675 421.766 286.679 421.429C286.679 420.899 285.189 418.679 284.989 418.159C284.789 417.639 287.719 410.869 288.829 407.499C289.661 404.49 290.256 401.421 290.609 398.319L280.589 397.619Z" fill="#BDBDBD" stroke="#263238" stroke-miterlimit="10"/>
<path d="M284.62 407.479C284.62 407.479 282.51 412.479 282.37 413.339C282.23 414.199 279.37 416.599 279.75 418.519C280.13 420.439 284.35 419.929 286.43 414.249" fill="#BDBDBD"/>
<path d="M284.62 407.479C284.62 407.479 282.51 412.479 282.37 413.339C282.23 414.199 279.37 416.599 279.75 418.519C280.13 420.439 284.35 419.929 286.43 414.249" stroke="#263238" stroke-miterlimit="10"/>
<path d="M294.07 320.699C294.07 320.699 292.3 349.579 291.63 352.129C290.96 354.679 282.92 377.969 281.15 385.129C280.064 389.563 279.292 394.067 278.84 398.609L289.63 400.879L295.69 374.259C295.69 374.259 303.61 349.999 302 338.629C301.174 332.004 298.416 325.768 294.07 320.699Z" fill="#92E3A9" stroke="#263238" stroke-miterlimit="10"/>
<path d="M350.28 457.129C350.41 450.849 350.67 442.379 351.28 437.529C352.28 429.149 355.86 423.969 359.54 413.529C363.22 403.089 363.54 389.369 363.54 389.369L297.64 391.669C297.64 391.669 290 419.999 285.37 440.839C284.113 446.185 283.379 451.641 283.18 457.129" fill="#92E3A9"/>
<path d="M350.28 457.129C350.41 450.849 350.67 442.379 351.28 437.529C352.28 429.149 355.86 423.969 359.54 413.529C363.22 403.089 363.54 389.369 363.54 389.369L297.64 391.669C297.64 391.669 290 419.999 285.37 440.839C284.113 446.185 283.379 451.641 283.18 457.129" stroke="#263238" stroke-miterlimit="10"/>
<path d="M306.27 402.29L361.1 403.83L362.26 399.59L306.27 402.29Z" fill="#263238" stroke="#263238" stroke-linecap="round" stroke-linejoin="round"/>
<path d="M303.5 456.129C303.5 456.129 302.42 421.839 302.39 403.229L303.5 456.129Z" fill="white"/>
<path d="M303.5 456.129C303.5 456.129 302.42 421.839 302.39 403.229" stroke="#263238" stroke-miterlimit="10"/>
<path d="M345.53 248.16L353.53 253.54C353.53 253.54 363 262 365.33 269C367.66 276 365.97 317.57 363.62 331C361.27 344.43 367.14 361.16 369.23 370.6C371.32 380.04 372.23 397.6 372.23 397.6C372.23 397.6 373.71 399.66 348.03 400.55C322.35 401.44 304.44 402.78 302.34 403.2C301.071 403.46 299.784 403.624 298.49 403.69L297.49 394.57L295 402.08L289.67 400.86C289.67 400.86 292.98 384.54 293.81 378.18C294.64 371.82 299.88 350.18 299.95 342.04C300.02 333.9 293.22 320.8 291.89 312.74C290.56 304.68 293.24 290.86 299.89 280.42C306.54 269.98 311 265.94 324 255.28C337 244.62 345.53 248.16 345.53 248.16Z" fill="#92E3A9" stroke="#263238" stroke-miterlimit="10"/>
<path d="M324.689 370.01L351.519 373.05L350.009 366.03L333.269 364.59" stroke="#263238" stroke-miterlimit="10"/>
<path d="M315.31 364.199L313.95 368.799L320.68 369.559" stroke="#263238" stroke-miterlimit="10"/>
<path d="M325.38 318.23C324.119 317.062 322.961 315.787 321.92 314.42" stroke="#263238" stroke-miterlimit="10"/>
<path d="M334.709 326.11C334.709 326.11 331.879 323.97 328.779 321.31" stroke="#263238" stroke-miterlimit="10"/>
<path d="M345.529 248.159C345.529 248.159 336.999 244.609 323.999 255.279C310.999 265.949 306.549 270 299.869 280.42C295.879 286.861 293.226 294.041 292.069 301.529C292.229 302.309 292.399 303.099 292.589 303.909C296.309 319.629 300.449 327.23 300.449 327.23C300.449 327.23 307.649 291.41 320.179 276.89C332.709 262.37 353.519 253.539 353.519 253.539L345.529 248.159Z" fill="#92E3A9" stroke="#263238" stroke-miterlimit="10"/>
<path d="M314.26 178.289C314.26 178.289 304.87 187.059 304.17 193.969C303.47 200.879 302.74 206.839 301.57 209.069C300.4 211.299 294.5 212.759 296.5 216.129C298.5 219.499 300.37 219.429 300.37 219.429C300.37 219.429 303.37 234.339 305.65 236.429C307.93 238.519 316 237.319 316 237.319L318.5 255.399C318.5 255.399 301.71 270.289 298.44 291.039C295.17 311.789 298.91 323.629 298.91 323.629C298.91 323.629 301.1 290.939 308.66 278.699C316.22 266.459 333.78 254.869 336.37 252.779C338.96 250.689 345.53 248.139 345.53 248.139C345.53 248.139 342.41 241.139 341.99 237.979C341.57 234.819 341.71 230.169 342.3 228.899C342.89 227.629 353.38 223.819 357.3 211.799C361.22 199.779 355.45 185.589 349.3 179.549C343.15 173.509 322.12 170.509 314.26 178.289Z" fill="#BDBDBD" stroke="#263238" stroke-miterlimit="10"/>
<path d="M357.339 211.819C361.339 199.819 355.489 185.609 349.339 179.569C343.189 173.529 322.129 170.509 314.269 178.289C314.269 178.289 313.769 178.759 312.989 179.569C315.977 178.823 319.089 178.72 322.119 179.269C328.409 180.269 328.269 185.269 326.559 190.059C324.849 194.849 326.139 195.699 329.349 198.059C332.559 200.419 329.269 204.949 331.529 206.749C333.789 208.549 335.629 198.749 340.529 205.809C345.429 212.869 342.139 216.069 339.079 218.049C337.366 219.194 335.506 220.102 333.549 220.749C333.549 220.749 338.179 226.179 342.749 228.419C344.939 226.789 353.779 222.619 357.339 211.819Z" fill="#263238" stroke="#263238" stroke-linecap="round" stroke-linejoin="round"/>
<path d="M305.46 222.069C305.46 222.069 312.01 221.529 315.04 218.609" stroke="#263238" stroke-miterlimit="10"/>
<path d="M309.62 206.599C309.67 208.149 309.08 209.429 308.31 209.459C307.54 209.489 306.86 208.249 306.8 206.699C306.74 205.149 307.34 203.869 308.11 203.839C308.88 203.809 309.56 205.049 309.62 206.599Z" fill="#263238"/>
<path d="M306.8 200.269C306.8 200.269 308.91 197.429 311.93 200.779" stroke="#263238" stroke-miterlimit="10"/>
<path d="M316 237.339L323.81 234.399L318.37 244.169L316 237.339Z" fill="#263238" stroke="#263238" stroke-miterlimit="10"/>
<path d="M293.51 380.869L283.27 423.999L292.46 426.139L297.52 394.599L293.51 380.869Z" fill="white" stroke="#263238" stroke-miterlimit="10"/>
<path d="M302.559 277.609C300.593 281.889 299.208 286.413 298.439 291.059C295.169 311.799 298.909 323.649 298.909 323.649C298.909 323.649 301.079 291.399 308.509 278.979C306.48 278.75 304.484 278.291 302.559 277.609Z" fill="white" stroke="#263238" stroke-miterlimit="10"/>
<path d="M334.2 291.069L333.5 327.669L269.45 338.229L270.85 355.479C270.85 355.479 306.4 356.179 322.94 354.769C339.48 353.359 353.94 352.309 356.02 350.549C358.1 348.789 364.13 314.769 366.59 290.839C369.05 266.909 364.13 258.839 354.28 260.219" fill="#92E3A9"/>
<path d="M334.2 291.069L333.5 327.669L269.45 338.229L270.85 355.479C270.85 355.479 306.4 356.179 322.94 354.769C339.48 353.359 353.94 352.309 356.02 350.549C358.1 348.789 364.13 314.769 366.59 290.839C369.05 266.909 364.13 258.839 354.28 260.219" stroke="#263238" stroke-miterlimit="10"/>
<path d="M231.13 336.679L226 352.239L231 354.959C231 354.959 237.35 359.879 240.83 362.539C244.31 365.199 246.98 365.199 248.83 364.379C250.68 363.559 259.07 351.679 260.09 349.429C261.11 347.179 256.2 340.429 251.29 337.549C246.38 334.669 242.29 334.689 239.41 335.549C236.684 336.142 233.915 336.52 231.13 336.679Z" fill="white" stroke="#263238" stroke-miterlimit="10"/>
<path d="M269.45 338.229L261.35 337.529C258.809 336.866 256.222 336.395 253.61 336.119C251.5 336.119 248.68 338.229 247.27 339.289C245.86 340.349 230.38 357.239 230.38 357.239C230.38 357.239 231.79 360.049 233.9 359.349C236.01 358.649 239.9 356.879 239.9 356.879C239.9 356.879 235.68 361.109 237.79 363.219C239.9 365.329 243.42 365.329 243.42 365.329L245.89 363.919C246.928 364.738 248.122 365.337 249.4 365.679C251.16 366.029 253.98 365.329 256.4 363.919C258.82 362.509 265.11 355.169 265.11 355.169L270.51 353.079L269.45 338.229Z" fill="#BDBDBD" stroke="#263238" stroke-miterlimit="10"/>
<path d="M233.92 337.35C233.92 337.35 244.16 331.41 248.66 333.05C253.16 334.69 259.11 344.72 257.47 346.16C255.83 347.6 253.17 346.97 251.74 345.54C250.544 344.454 249.24 343.492 247.85 342.67C245.153 344.185 242.131 345.029 239.04 345.13" fill="white"/>
<path d="M233.92 337.35C233.92 337.35 244.16 331.41 248.66 333.05C253.16 334.69 259.11 344.72 257.47 346.16C255.83 347.6 253.17 346.97 251.74 345.54C250.544 344.454 249.24 343.492 247.85 342.67C245.153 344.185 242.131 345.029 239.04 345.13" stroke="#263238" stroke-miterlimit="10"/>
<path d="M264.46 360.6L261.21 358.86C260.948 358.721 260.716 358.532 260.528 358.303C260.339 358.075 260.198 357.811 260.111 357.528C260.025 357.244 259.995 356.947 260.024 356.652C260.053 356.357 260.14 356.071 260.28 355.81C260.42 355.549 260.609 355.318 260.838 355.13C261.067 354.943 261.331 354.802 261.614 354.717C261.897 354.631 262.195 354.603 262.489 354.632C262.784 354.662 263.069 354.749 263.33 354.89L266.58 356.62C267.107 356.902 267.5 357.381 267.675 357.953C267.849 358.524 267.79 359.142 267.51 359.67C267.228 360.196 266.749 360.59 266.177 360.764C265.605 360.939 264.988 360.879 264.46 360.6Z" fill="white" stroke="#263238" stroke-miterlimit="10"/>
<path d="M261.59 364.08L258.34 362.34C257.826 362.058 257.442 361.587 257.268 361.028C257.095 360.468 257.145 359.863 257.41 359.34C257.693 358.828 258.164 358.446 258.724 358.274C259.283 358.103 259.888 358.155 260.41 358.42L263.66 360.15C264.175 360.43 264.561 360.9 264.735 361.461C264.908 362.021 264.856 362.627 264.59 363.15C264.31 363.665 263.839 364.051 263.279 364.225C262.718 364.398 262.112 364.346 261.59 364.08Z" fill="white" stroke="#263238" stroke-miterlimit="10"/>
<path d="M258.309 367.149L255.059 365.41C254.797 365.271 254.566 365.082 254.377 364.853C254.189 364.624 254.048 364.36 253.963 364.077C253.877 363.793 253.849 363.495 253.879 363.2C253.909 362.906 253.998 362.62 254.139 362.359C254.279 362.099 254.469 361.868 254.698 361.68C254.927 361.493 255.19 361.352 255.474 361.267C255.757 361.181 256.054 361.153 256.349 361.182C256.643 361.212 256.929 361.299 257.189 361.44L260.439 363.179C260.7 363.319 260.931 363.509 261.119 363.738C261.306 363.967 261.447 364.23 261.532 364.514C261.618 364.797 261.646 365.094 261.617 365.389C261.587 365.683 261.5 365.969 261.359 366.23C261.22 366.49 261.03 366.721 260.801 366.909C260.572 367.096 260.309 367.237 260.025 367.322C259.742 367.408 259.445 367.436 259.15 367.407C258.856 367.377 258.57 367.29 258.309 367.149Z" fill="white" stroke="#263238" stroke-miterlimit="10"/>
<path d="M251.41 367.299L250.56 366.849C250.298 366.711 250.066 366.521 249.878 366.293C249.689 366.064 249.548 365.801 249.461 365.517C249.375 365.234 249.345 364.936 249.374 364.642C249.403 364.347 249.49 364.06 249.63 363.799C249.912 363.273 250.391 362.879 250.963 362.705C251.534 362.53 252.152 362.59 252.68 362.869L253.53 363.329C253.791 363.468 254.023 363.657 254.212 363.886C254.4 364.114 254.542 364.378 254.628 364.661C254.715 364.945 254.744 365.242 254.715 365.537C254.686 365.832 254.599 366.118 254.46 366.379C254.32 366.64 254.13 366.871 253.901 367.059C253.673 367.246 253.409 367.387 253.126 367.472C252.842 367.557 252.545 367.586 252.25 367.557C251.956 367.527 251.67 367.439 251.41 367.299Z" fill="white" stroke="#263238" stroke-miterlimit="10"/>
<path d="M231.129 336.68L188.149 318.51L189.739 346.98L225.229 355.11L231.129 336.68Z" fill="#263238" stroke="#263238" stroke-linecap="round" stroke-linejoin="round"/>
<path d="M225.23 355.11L231.13 336.68L225.12 334.02L225 334.63L219.5 353.72L225.23 355.11Z" fill="white" stroke="#263238" stroke-miterlimit="10"/>
<path d="M164 222.8L175 227.91C175 227.91 179.62 241 178.08 241.38C176.54 241.76 164.99 232.53 164.99 232.53L164 222.8Z" fill="white" stroke="#263238" stroke-linecap="round" stroke-linejoin="round"/>
<path d="M170.39 220.18L171.16 215.77C171.16 215.77 181.36 216.47 185.44 216.44C189.52 216.41 193.08 215.89 193.05 211.56C193.02 207.23 190.64 192.46 190.64 192.46C190.64 192.46 195.22 191.41 196.99 189.36C198.76 187.31 196.2 184.78 193.89 181.73C191.58 178.68 189.51 175.39 189.24 171.82C188.97 168.25 182.77 156.57 182.77 156.57C182.77 156.57 183.77 154.78 180.44 150.98C177.11 147.18 160.03 146.52 149.1 151.98C138.17 157.44 135.68 165.32 135.73 173.98C135.78 182.64 140.73 194.85 140.73 194.85C140.73 194.85 137.5 208.12 137.25 208.85C137 209.58 134.1 215.27 134.1 215.27C134.1 215.27 147.77 224.8 152.76 229.08C157.75 233.36 169.02 240.68 169.09 236.72C169.16 232.76 169.61 223.82 169.61 223.82L170.39 220.18Z" fill="white" stroke="#263238" stroke-linecap="round" stroke-linejoin="round"/>
<path d="M185.46 178.82C185.52 180.3 185.18 181.51 184.69 181.53C184.2 181.55 183.74 180.38 183.69 178.9C183.64 177.42 183.96 176.21 184.46 176.19C184.96 176.17 185.39 177.34 185.46 178.82Z" fill="#263238"/>
<path d="M178.29 173.929C178.29 173.929 180.56 170.089 186.44 172.349" stroke="#263238" stroke-width="2" stroke-linecap="round" stroke-linejoin="round"/>
<path d="M193.049 211.56C193.049 207.22 190.639 192.46 190.639 192.46C190.639 192.46 187.829 190.95 182.479 192.25C177.129 193.55 175.669 202.25 174.649 203.25C173.629 204.25 166.979 198.25 164.399 194.14C161.819 190.03 159.999 183 159.719 178.89C159.439 174.78 169.109 172.71 170.619 168.89C172.129 165.07 164.999 161 167.489 158.45C169.979 155.9 175.129 156.88 177.679 157.37C179.418 157.605 181.187 157.327 182.769 156.57C182.769 156.57 183.769 154.78 180.439 150.98C177.109 147.18 160.029 146.52 149.099 151.98C138.169 157.44 135.679 165.32 135.729 173.98C135.779 180.98 139.019 190.34 140.239 193.64C141.272 194.086 142.384 194.317 143.509 194.32C144.509 194.06 145.269 191 145.759 187.93C146.249 184.86 153.619 181.26 153.619 181.26C153.619 181.26 154.949 190.43 154.959 192.21C154.969 193.99 153.959 202.92 158.879 207.21C162.732 210.403 166.839 213.276 171.159 215.8C171.159 215.8 181.359 216.5 185.439 216.47C189.519 216.44 193.079 215.89 193.049 211.56Z" fill="#263238" stroke="#263238" stroke-linecap="round" stroke-linejoin="round"/>
<path d="M155.19 187.58C155.19 187.58 153.07 175.36 149.51 175.89C145.95 176.42 143.93 181.02 145.75 186.89C147.57 192.76 151.14 192.21 153.17 191.69" fill="white"/>
<path d="M155.19 187.58C155.19 187.58 153.07 175.36 149.51 175.89C145.95 176.42 143.93 181.02 145.75 186.89C147.57 192.76 151.14 192.21 153.17 191.69" stroke="#263238" stroke-linecap="round" stroke-linejoin="round"/>
<path d="M180.22 196.85C180.22 196.85 182.27 199.39 187.62 199.36" stroke="white" stroke-linecap="round" stroke-linejoin="round"/>
<path d="M122.999 457.13H176.999C177.179 454.29 179.279 443.37 179.279 436.21C179.279 427.94 184.969 374.59 184.969 374.59L114.739 373.67L117.039 406.32L122.999 457.13Z" fill="#263238" stroke="#263238" stroke-linecap="round" stroke-linejoin="round"/>
<path d="M130 217.13C130 217.13 117.69 232.92 114.22 241.77C110.75 250.62 108.06 252.16 108.83 263.32C109.6 274.48 115 319.13 115 319.13L104.22 377.26C116.943 381.818 130.354 384.159 143.87 384.18C166.19 384.18 175.87 382.26 177.36 381.49C178.85 380.72 192.36 377.26 192.36 377.26C192.36 377.26 192.36 311.44 188.12 288.73C183.88 266.02 178.5 248.73 176.58 244.46C174.66 240.19 168.49 226.37 168.49 226.37L130 217.13Z" fill="#263238" stroke="#263238" stroke-linecap="round" stroke-linejoin="round"/>
<path d="M176.61 244.46C174.68 240.23 168.52 226.37 168.52 226.37L130 217.13C130 217.13 127.4 220.47 124.25 224.94C132.64 229.81 153.41 241.85 154.64 242.15C156.18 242.54 163.88 241.77 163.88 241.77L160.44 246C160.44 246 169.68 253.32 172.76 256.39C174.38 258.01 179.08 262.29 183.18 265.99C180.39 254.93 177.81 247.12 176.61 244.46Z" fill="#263238" stroke="#263238" stroke-linecap="round" stroke-linejoin="round"/>
<path d="M158.899 234.84L171.989 245.23L182.759 264.48L175.839 236.38L161.599 228.3L158.899 234.84Z" fill="white" stroke="#263238" stroke-linecap="round" stroke-linejoin="round"/>
<path d="M132.73 209.819L173.03 227.979V242.219L126.95 218.669L132.73 209.819Z" fill="white" stroke="#263238" stroke-linecap="round" stroke-linejoin="round"/>
<path d="M186.02 355.489H116.38V411.839H186.02V355.489Z" fill="#92E3A9" stroke="#263238" stroke-miterlimit="10"/>
<path d="M155.47 382.35C155.47 382.35 160.65 389.1 162.68 389.78C164.389 390.482 165.803 391.754 166.68 393.38C167.58 394.73 168.68 404.86 169.38 405.54C170.08 406.22 170.06 407.79 167.58 406.66C165.1 405.53 163.58 401.66 163.58 401.66L164.48 410.66C164.48 410.66 166.48 411.11 164.93 412.24C163.38 413.37 162 414.94 160.65 414.24C159.449 413.524 158.32 412.694 157.28 411.76C155.672 412.3 153.959 412.454 152.28 412.21C149.81 411.76 150.28 412.66 148.01 411.08C145.74 409.5 145.75 411.31 144.63 408.38C142.886 403.136 141.456 397.794 140.35 392.38C139.9 389.45 139.45 385.38 139.45 385.38L155.47 382.35Z" fill="white" stroke="#263238" stroke-linecap="round" stroke-linejoin="round"/>
<path d="M156.379 378.069L157.949 385.049L138.589 387.749L137.689 380.769L156.379 378.069Z" fill="white" stroke="#263238" stroke-linecap="round" stroke-linejoin="round"/>
<path d="M131.57 231C131.57 231 118.1 235.23 117.72 241.39C117.34 247.55 112.87 322.26 114.8 327.26C116.73 332.26 135.66 382.93 135.66 382.93L157.6 380.24C157.6 380.24 146.36 321.48 146 320.32C145.64 319.16 153.54 253.7 153.54 253.7" fill="#263238"/>
<path d="M131.57 231C131.57 231 118.1 235.23 117.72 241.39C117.34 247.55 112.87 322.26 114.8 327.26C116.73 332.26 135.66 382.93 135.66 382.93L157.6 380.24C157.6 380.24 146.36 321.48 146 320.32C145.64 319.16 153.54 253.7 153.54 253.7" stroke="#263238" stroke-linecap="round" stroke-linejoin="round"/>
<path d="M150.93 272.5L145.97 320.32L150.7 350.03" stroke="#878787" stroke-linecap="round" stroke-linejoin="round"/>
<path d="M151.69 265.18L151.43 267.72" stroke="#878787" stroke-linecap="round" stroke-linejoin="round"/>
<path d="M116.169 257.779L114.689 302.679" stroke="#878787" stroke-linecap="round" stroke-linejoin="round"/>
<path d="M166.49 342.189L181.29 341.649L182.62 346.979L158.1 348.549" stroke="#878787" stroke-linecap="round" stroke-linejoin="round"/>
<path d="M154.16 342.63L162.04 342.35" stroke="#878787" stroke-linecap="round" stroke-linejoin="round"/>
<path d="M127.52 226.21L154.67 242.15L163.91 241.77L160.44 246L178.33 260.25" stroke="#878787" stroke-linecap="round" stroke-linejoin="round"/>
<path d="M11.4805 457.13H467.97" stroke="#263238" stroke-miterlimit="10"/>
<path d="M140.49 45.0195V112.61" stroke="#263238" stroke-miterlimit="10"/>
<path d="M244.311 45.0195V112.61" stroke="#263238" stroke-miterlimit="10"/>
<path d="M348.13 45.0195V112.61" stroke="#263238" stroke-miterlimit="10"/>
</svg>
